<?xml version="1.0" encoding="UTF-8" standalone="no"?>
<svg
   version="1.1"
   width="18"
   height="18"
   viewBox="0 0 18 18"
   id="svg3600"
   xmlns="http://www.w3.org/2000/svg"
   xmlns:svg="http://www.w3.org/2000/svg">
  <defs
     id="defs3604" />
  <path
     id="circle440"
     style="fill:#000000;fill-opacity:1;stroke:none;stroke-width:1.04984;stroke-dasharray:none"
     d="M 9,0 A 8.9999995,8.9999997 0 0 0 0,8.999991 8.9999995,8.9999997 0 0 0 9,17.999997 8.9999995,8.9999997 0 0 0 18,8.999991 8.9999995,8.9999997 0 0 0 9,0 Z m 0.006,4.49999 c 0.68932,0 1.23215,0.30861 1.62891,0.92579 0.48092,0.745423 0.72265,1.937043 0.72265,3.576169 0,1.470802 -0.19894,2.590009 -0.5957,3.355465 -0.39675,0.761456 -0.98608,1.14258 -1.76757,1.14258 -0.68932,0 -1.25448,-0.338433 -1.69532,-1.011721 C 6.86214,11.814987 6.64272,10.653097 6.64272,9.001949 6.64272,7.523127 6.84167,6.404023 7.23843,5.64257 7.63919,4.88111 8.22852,4.49999 9.006,4.49999 Z M 8.965,5.39648 c -0.40077,0 -0.73919,0.24534 -1.01172,0.738281 -0.26851,0.49294 -0.40234,1.44848 -0.40234,2.867188 0,1.430726 0.13764,2.391928 0.41016,2.880859 0.27652,0.484922 0.62782,0.72656 1.05664,0.72656 0.40477,0 0.74311,-0.247292 1.01562,-0.740232 0.27252,-0.492941 0.41016,-1.448478 0.41016,-2.867187 0,-1.434735 -0.13949,-2.393982 -0.41602,-2.878908 C 9.75498,5.63812 9.40184,5.39648 8.965,5.39648 Z" />
</svg>
