<svg
   version="1.1"
   width="18"
   height="18"
   viewBox="0 0 18 18"
   xmlns="http://www.w3.org/2000/svg"
   >
  <g
     transform="translate(-372.3156,-65.254836)">
    <path
       d="m 381.32227,69.755859 c -0.77765,0 -1.36673,0.379012 -1.76758,1.140625 -0.39684,0.761614 -0.59571,1.882195 -0.59571,3.361328 0,1.651499 0.21738,2.814855 0.6543,3.488282 0.44094,0.673426 1.00781,1.009765 1.69727,1.009765 0.78165,0 1.37073,-0.380964 1.76757,-1.142578 0.39685,-0.765622 0.59376,-1.884352 0.59376,-3.355469 0,-1.639473 -0.23969,-2.830592 -0.72071,-3.576171 -0.39684,-0.617308 -0.93944,-0.925782 -1.6289,-0.925782 z m -0.043,0.894532 c 0.43692,0 0.79187,0.243488 1.06445,0.728515 0.27659,0.485028 0.41406,1.443866 0.41406,2.878906 0,1.419007 -0.13562,2.376097 -0.4082,2.869141 -0.27258,0.493045 -0.61077,0.738281 -1.01563,0.738281 -0.4289,0 -0.782,-0.241535 -1.05859,-0.726562 -0.27258,-0.489036 -0.4082,-1.449828 -0.4082,-2.88086 0,-1.419006 0.13377,-2.374142 0.40234,-2.867187 0.27258,-0.493045 0.60892,-0.740234 1.00977,-0.740234 z" />
    <ellipse
       style="fill:none;fill-opacity:1;stroke:#000000;stroke-width:1.19928;stroke-dasharray:0.755549;stroke-dashoffset:0;stroke-opacity:1"
       cx="381.31558"
       cy="74.259087"
       rx="8.4002981"
       ry="8.4045572" />
  </g>
</svg>
