<svg
  version="1.1"
  width="18"
  height="18"
  viewBox="0 0 18 18"
  xmlns="http://www.w3.org/2000/svg"
>
  <circle
    style="stroke-opacity:1;stroke-dasharray:none;stroke-width:1.19912;stroke:currentColor;fill-opacity:1;fill:none;"
    cx="9"
    cy="9"
    r="8.4004402"
    class="a_svg_circle"
  />
  <g
    aria-label="0"
    class="a_svg_text"
  >
    <path
      d="m 6.6435,9.0026019 q 0,-2.218234 0.595136,-3.3604142 0.6011474,-1.1421801 1.7673735,-1.1421801 1.0339735,0 1.6291095,0.9257671 0.721377,1.1181342 0.721377,3.5768272 0,2.2062111 -0.595136,3.3544031 -0.595136,1.14218 -1.7673735,1.14218 -1.0339736,0 -1.6952358,-1.009928 Q 6.6435,11.479329 6.6435,9.0026019 Z m 0.9077327,0 q 0,2.1460961 0.4087802,2.8794961 0.4147918,0.727389 1.0580195,0.727389 0.6071589,0 1.0159396,-0.739412 0.40878,-0.739411 0.40878,-2.8674731 0,-2.1521078 -0.414792,-2.8794962 -0.4087801,-0.7273884 -1.0640309,-0.7273884 -0.6011474,0 -1.0099277,0.7394113 Q 7.5512327,6.87454 7.5512327,9.0026019 Z"
      id="path2246"
      class="a_svg_text__child"
    />
  </g>
</svg>
