<svg
   version="1.1"
   width="18"
   height="18"
   viewBox="0 0 18 18"
   xmlns="http://www.w3.org/2000/svg"
   >
  <g>
    <path
       d="M 9.0065181,4.4998594 C 8.2288706,4.4998594 7.6397892,4.880824 7.23894,5.6424375 6.8420993,6.404051 6.6432369,7.524632 6.6432369,9.0037656 c 0,1.6514984 0.2173712,2.8129014 0.6542969,3.4863284 0.4409341,0.673426 1.0078049,1.011718 1.6972656,1.011718 0.7816559,0 1.3707376,-0.380964 1.7675786,-1.142578 0.39684,-0.765622 0.59375,-1.884352 0.59375,-3.3554684 0,-1.6394733 -0.239685,-2.8325454 -0.720704,-3.578125 C 10.238584,4.8083328 9.6959788,4.4998594 9.0065181,4.4998594 Z m -0.042969,0.8964843 c 0.4369256,0 0.7918756,0.241535 1.0644539,0.7265625 0.276585,0.4850276 0.416015,1.4458192 0.416015,2.8808594 0,1.4190064 -0.137579,2.3741434 -0.410156,2.8671874 -0.2725779,0.493045 -0.6107677,0.740234 -1.0156254,0.740234 -0.4289087,0 -0.7820078,-0.241534 -1.0585938,-0.726562 C 7.6870657,11.395589 7.55144,10.434797 7.55144,9.0037656 7.55144,7.5847594 7.6852148,6.6276695 7.9537838,6.134625 8.2263612,5.6415805 8.5627002,5.3963437 8.9635491,5.3963437 Z" />
    <rect
       style="opacity:0.98;fill:none;stroke:#000000;stroke-width:1.19939;stroke-dasharray:0.755616;stroke-dashoffset:0;stroke-opacity:1;paint-order:markers fill stroke"
       width="16.800611"
       height="16.800611"
       x="0.59969503"
       y="0.59969503"
       rx="2.1544993"
       ry="2.1544993" />
  </g>
</svg>
