<svg
   version="1.1"
   width="18"
   height="18"
   viewBox="0 0 18 18"
   xmlns="http://www.w3.org/2000/svg"
   >
  <path
     d="M 2.3085813,0 C 1.0297906,0 0,1.02978 0,2.3086 v 13.38274 c 0,1.27884 1.0297906,2.30862 2.3085813,2.30862 H 15.691409 C 16.970209,17.99996 18,16.97018 18,15.69134 V 2.3086 C 18,1.02978 16.970209,0 15.691409,0 Z M 9.005865,4.49989 c 0.6893104,0 1.232151,0.3087 1.628911,0.92586 0.48091,0.74543 0.72265,1.93702 0.72265,3.57615 0,1.47078 -0.19895,2.59002 -0.5957,3.35546 -0.39677,0.7614 -0.9860906,1.14256 -1.767581,1.14256 -0.6893204,0 -1.2544807,-0.33842 -1.6953109,-1.01164 C 6.8619938,11.81501 6.6425837,10.65303 6.6425837,9.0019 6.6425837,7.52308 6.8415238,6.40399 7.238284,5.64258 7.6390442,4.88112 8.2283746,4.49989 9.005865,4.49989 Z m -0.041,0.89648 c -0.4007602,0 -0.7392004,0.24546 -1.0117306,0.7384 -0.2685001,0.49294 -0.4023302,1.44844 -0.4023302,2.86713 0,1.43074 0.1376301,2.39193 0.4101502,2.88088 0.2765302,0.48496 0.6278204,0.72652 1.0566406,0.72652 0.4047702,0 0.7431004,-0.24722 1.015631,-0.74016 0.27252,-0.49294 0.41015,-1.44852 0.41015,-2.86724 0,-1.43479 -0.13949,-2.39397 -0.41601,-2.87886 C 9.7548454,5.63809 9.4016952,5.39637 8.964865,5.39637 Z" />
</svg>
