<svg
   version="1.1"
   width="18"
   height="18"
   viewBox="0 0 18 18"
   xmlns="http://www.w3.org/2000/svg"
   >
  <g
     id="g10699">
    <rect
       style="opacity:0.98;fill:none;stroke:#000000;stroke-width:1.19939;stroke-dasharray:none;stroke-opacity:1;paint-order:markers fill stroke"
       width="16.800611"
       height="16.800611"
       x="0.59969503"
       y="0.59969503"
       rx="2.1544993"
       ry="2.1544993" />
    <path
       d="m 9.0051706,4.50032 c -0.7774832,0 -1.3648604,0.3811255 -1.765625,1.1425781 -0.3967569,0.7614527 -0.5957031,1.8805538 -0.5957031,3.359375 0,1.6511499 0.2174635,2.8130439 0.6542969,3.4863279 0.440841,0.673285 1.0059974,1.009766 1.6953125,1.009766 0.7814909,0 1.3708211,-0.379172 1.7675781,-1.140625 0.396757,-0.76546 0.595703,-1.884663 0.595703,-3.3554689 0,-1.639127 -0.239786,-2.8307498 -0.720703,-3.5761719 C 10.239273,4.8089238 9.6944857,4.50032 9.0051706,4.50032 Z M 8.964155,5.3948512 c 0.4368334,0 0.7919332,0.2435906 1.064453,0.7285157 0.276528,0.4849251 0.414063,1.4441691 0.414063,2.8789062 0,1.4187069 -0.135684,2.3742469 -0.408203,2.8671879 -0.2725204,0.49294 -0.6108533,0.740234 -1.0156255,0.740234 -0.4288181,0 -0.7820662,-0.243591 -1.0585937,-0.728516 -0.27252,-0.488932 -0.4082032,-1.448176 -0.4082032,-2.8789059 0,-1.4187065 0.1338315,-2.3742471 0.4023438,-2.8671875 C 8.2269093,5.6421452 8.5633904,5.3948512 8.964155,5.3948512 Z" />
  </g>
</svg>
