<svg
   version="1.1"
   width="18"
   height="18"
   viewBox="0 0 18 18"
   xmlns="http://www.w3.org/2000/svg"
   >
  <path
     d="M 9,0 A 8.9999995,8.9999997 0 0 0 0,8.999991 8.9999995,8.9999997 0 0 0 9,17.999997 8.9999995,8.9999997 0 0 0 18,8.999991 8.9999995,8.9999997 0 0 0 9,0 Z m 0.76758,4.49999 h 0.58789 v 9.001954 H 9.44922 V 6.488279 C 9.2413,6.732881 8.96193,6.983397 8.61132,7.240227 8.26073,7.492987 7.93806,7.683992 7.64453,7.814454 V 6.749996 C 8.1419,6.464623 8.5818,6.116821 8.96094,5.70508 9.34415,5.29332 9.61266,4.89136 9.76758,4.49999 Z" />
</svg>
