<svg
   version="1.1"
   width="18"
   height="18"
   viewBox="0 0 18 18"
   xmlns="http://www.w3.org/2000/svg"
   >
  <path
     d="M 2.30859,0 C 1.02979,0 0,1.02978 0,2.3086 v 13.38274 c 0,1.27884 1.02979,2.30862 2.30859,2.30862 H 15.6914 c 1.2788,0 2.30859,-1.02978 2.30859,-2.30862 V 2.3086 C 17.99999,1.02978 16.9702,0 15.6914,0 Z m 7.45899,4.49989 h 0.58788 V 13.5019 H 9.44921 V 6.48824 C 9.2413,6.73285 8.96193,6.98333 8.61132,7.24014 8.26072,7.49299 7.93806,7.68392 7.64452,7.81443 V 6.74994 C 8.14189,6.46458 8.58179,6.11681 8.96093,5.70497 9.34415,5.29329 9.61265,4.8913 9.76758,4.49989 Z" />
</svg>
