<?xml version="1.0" encoding="UTF-8" standalone="no"?>
<svg
   version="1.1"
   width="18"
   height="18"
   viewBox="0 0 18 18"
   id="svg1714"
   xmlns="http://www.w3.org/2000/svg"
   xmlns:svg="http://www.w3.org/2000/svg">
  <defs
     id="defs1718">
    <rect
       x="32.567797"
       y="-13.805085"
       width="44.389831"
       height="38.898305"
       id="rect2002" />
    <rect
       x="22.5"
       y="-2.2118644"
       width="28.525424"
       height="24.559322"
       id="rect1996" />
    <rect
       x="40.805085"
       y="-10.525424"
       width="65.898305"
       height="40.652542"
       id="rect1990" />
    <rect
       x="39.661017"
       y="-9.1525424"
       width="44.237288"
       height="35.389831"
       id="rect1984" />
    <rect
       x="21.279661"
       y="-2.8983051"
       width="36.228814"
       height="33.330508"
       id="rect1978" />
    <rect
       x="17.313559"
       y="1.9067797"
       width="18.228814"
       height="14.338983"
       id="rect1972" />
    <rect
       x="22.576271"
       y="-1.4491525"
       width="29.516949"
       height="22.957627"
       id="rect1966" />
  </defs>
  <g
     id="g1783"
     transform="translate(-452.85504,-37.644012)">
    <text
       xml:space="preserve"
       transform="translate(452.85504,37.644012)"
       id="text1964"
       style="white-space:pre;shape-inside:url(#rect1966);display:inline;fill:#000000" />
    <text
       xml:space="preserve"
       transform="translate(452.85504,37.644012)"
       id="text1970"
       style="white-space:pre;shape-inside:url(#rect1972);display:inline;fill:#000000" />
    <text
       xml:space="preserve"
       transform="translate(452.85504,37.644012)"
       id="text1976"
       style="white-space:pre;shape-inside:url(#rect1978);display:inline;fill:#000000" />
    <text
       xml:space="preserve"
       transform="translate(452.85504,37.644012)"
       id="text1982"
       style="white-space:pre;shape-inside:url(#rect1984);display:inline;fill:#000000" />
    <text
       xml:space="preserve"
       transform="translate(452.85504,37.644012)"
       id="text1988"
       style="white-space:pre;shape-inside:url(#rect1990);display:inline;fill:#000000" />
  </g>
  <path
     id="circle927"
     style="fill:#000000;fill-opacity:1;stroke:none;stroke-width:1.04984;stroke-dasharray:none"
     d="M 9.00001,0 A 8.9999995,8.9999997 0 0 0 0,8.999991 8.9999995,8.9999997 0 0 0 9.00001,17.999997 8.9999995,8.9999997 0 0 0 18.00002,8.999991 8.9999995,8.9999997 0 0 0 9.00001,0 Z M 6.26173,4.49999 h 0.57612 v 8.849615 H 5.94923 V 6.453114 C 5.7448,6.693601 5.46965,6.940849 5.12504,7.19336 4.78031,7.441855 4.46439,7.629554 4.17575,7.75781 V 6.71289 C 4.66478,6.432327 5.09605,6.0884 5.46871,5.68359 5.8455,5.27878 6.10944,4.88476 6.26173,4.49999 Z m 5.21293,0 c 0.6893,0 1.23208,0.30855 1.62882,0.92579 0.48101,0.745489 0.72081,1.938855 0.72081,3.578121 0,1.470938 -0.19895,2.587988 -0.59576,3.353513 -0.39681,0.761522 -0.98604,1.14258 -1.76763,1.14258 -0.68927,0 -1.25437,-0.336417 -1.69527,-1.009764 C 9.32878,11.816885 9.11136,10.655194 9.11136,9.003901 9.11136,7.524948 9.31025,6.404091 9.707,5.64257 10.10784,4.88105 10.69709,4.49999 11.47466,4.49999 Z m -0.0435,0.89649 c -0.40078,0 -0.73732,0.2453 -1.00984,0.738281 -0.26847,0.492984 -0.40231,1.450311 -0.40231,2.86914 0,1.430849 0.13572,2.389933 0.40824,2.878907 0.27657,0.484964 0.62968,0.72656 1.05859,0.72656 0.40474,0 0.74302,-0.245297 1.01554,-0.738281 0.27253,-0.492979 0.40829,-1.448354 0.40829,-2.867186 0,-1.434862 -0.13758,-2.395891 -0.41409,-2.88086 C 12.22301,5.63808 11.86801,5.39648 11.43116,5.39648 Z" />
</svg>
