<?xml version="1.0" encoding="UTF-8" standalone="no"?>
<svg
   version="1.1"
   width="18"
   height="18"
   viewBox="0 0 18 18"
   id="svg1714"
   xmlns="http://www.w3.org/2000/svg"
   xmlns:svg="http://www.w3.org/2000/svg">
  <defs
     id="defs1718">
    <rect
       x="32.567797"
       y="-13.805085"
       width="44.389831"
       height="38.898305"
       id="rect2002" />
    <rect
       x="22.5"
       y="-2.2118644"
       width="28.525424"
       height="24.559322"
       id="rect1996" />
    <rect
       x="40.805085"
       y="-10.525424"
       width="65.898305"
       height="40.652542"
       id="rect1990" />
    <rect
       x="39.661017"
       y="-9.1525424"
       width="44.237288"
       height="35.389831"
       id="rect1984" />
    <rect
       x="21.279661"
       y="-2.8983051"
       width="36.228814"
       height="33.330508"
       id="rect1978" />
    <rect
       x="17.313559"
       y="1.9067797"
       width="18.228814"
       height="14.338983"
       id="rect1972" />
    <rect
       x="22.576271"
       y="-1.4491525"
       width="29.516949"
       height="22.957627"
       id="rect1966" />
  </defs>
  <g
     id="g1783"
     transform="translate(-452.85504,-37.644012)">
    <text
       xml:space="preserve"
       transform="translate(452.85504,37.644012)"
       id="text1964"
       style="white-space:pre;shape-inside:url(#rect1966);display:inline;fill:#000000" />
    <text
       xml:space="preserve"
       transform="translate(452.85504,37.644012)"
       id="text1970"
       style="white-space:pre;shape-inside:url(#rect1972);display:inline;fill:#000000" />
    <text
       xml:space="preserve"
       transform="translate(452.85504,37.644012)"
       id="text1976"
       style="white-space:pre;shape-inside:url(#rect1978);display:inline;fill:#000000" />
    <text
       xml:space="preserve"
       transform="translate(452.85504,37.644012)"
       id="text1982"
       style="white-space:pre;shape-inside:url(#rect1984);display:inline;fill:#000000" />
    <text
       xml:space="preserve"
       transform="translate(452.85504,37.644012)"
       id="text1988"
       style="white-space:pre;shape-inside:url(#rect1990);display:inline;fill:#000000" />
    <g
       id="g2895"
       transform="translate(52.392424,17.461113)">
      <circle
         style="fill:none;fill-opacity:1;stroke:#000000;stroke-width:1.19912;stroke-dasharray:none;stroke-opacity:1"
         id="circle657"
         cx="409.46262"
         cy="29.182899"
         r="8.4004402" />
      <path
         id="text733"
         style="font-stretch:condensed;font-size:12.3124px;font-family:'Arial Narrow';-inkscape-font-specification:'Arial Narrow Condensed';opacity:0.98;fill:#000000;stroke-width:0.307812;paint-order:markers fill stroke"
         d="m 406.7305,24.683236 c -0.1523,0.384762 -0.41818,0.778775 -0.79493,1.183576 -0.37274,0.404802 -0.80207,0.746774 -1.29103,1.027329 v 1.04686 c 0.28857,-0.128254 0.60454,-0.315953 0.94923,-0.564445 0.34468,-0.2525 0.61982,-0.499747 0.82423,-0.740223 v 6.896384 h 0.88868 v -8.849481 z m 5.21102,0 c -0.77754,0 -1.36486,0.381053 -1.76565,1.142561 -0.39679,0.761509 -0.59572,1.880397 -0.59572,3.359327 0,1.65127 0.21744,2.814897 0.65431,3.48823 0.44087,0.673334 1.00597,1.009751 1.69534,1.009751 0.78155,0 1.37081,-0.381053 1.7676,-1.142561 0.39679,-0.765516 0.59571,-1.884507 0.59571,-3.35542 0,-1.639247 -0.23976,-2.830644 -0.72071,-3.57612 -0.39679,-0.617223 -0.94152,-0.925768 -1.63088,-0.925768 z m -0.041,0.894518 c 0.43687,0 0.79193,0.243545 1.06447,0.728505 0.27655,0.484961 0.41407,1.444023 0.41407,2.878865 0,1.41881 -0.13567,2.374169 -0.40821,2.867146 -0.27254,0.492976 -0.61084,0.740223 -1.01564,0.740223 -0.42885,0 -0.78206,-0.241591 -1.05861,-0.726552 -0.27254,-0.488968 -0.40821,-1.449983 -0.40821,-2.880817 0,-1.418811 0.13382,-2.37417 0.40235,-2.867146 0.27254,-0.492977 0.60899,-0.740224 1.00978,-0.740224 z"
         transform="scale(0.99998551,1.0000145)" />
    </g>
  </g>
</svg>
