<?xml version="1.0" encoding="UTF-8" standalone="no"?>
<svg
   version="1.1"
   width="18"
   height="18"
   viewBox="0 0 18 18"
   id="svg1714"
   xmlns="http://www.w3.org/2000/svg"
   xmlns:svg="http://www.w3.org/2000/svg">
  <defs
     id="defs1718">
    <rect
       x="32.567797"
       y="-13.805085"
       width="44.389831"
       height="38.898305"
       id="rect2002" />
    <rect
       x="22.5"
       y="-2.2118644"
       width="28.525424"
       height="24.559322"
       id="rect1996" />
    <rect
       x="40.805085"
       y="-10.525424"
       width="65.898305"
       height="40.652542"
       id="rect1990" />
    <rect
       x="39.661017"
       y="-9.1525424"
       width="44.237288"
       height="35.389831"
       id="rect1984" />
    <rect
       x="21.279661"
       y="-2.8983051"
       width="36.228814"
       height="33.330508"
       id="rect1978" />
    <rect
       x="17.313559"
       y="1.9067797"
       width="18.228814"
       height="14.338983"
       id="rect1972" />
    <rect
       x="22.576271"
       y="-1.4491525"
       width="29.516949"
       height="22.957627"
       id="rect1966" />
  </defs>
  <g
     id="g1783"
     transform="translate(-452.85504,-37.644012)">
    <text
       xml:space="preserve"
       transform="translate(452.85504,37.644012)"
       id="text1964"
       style="white-space:pre;shape-inside:url(#rect1966);display:inline;fill:#000000" />
    <text
       xml:space="preserve"
       transform="translate(452.85504,37.644012)"
       id="text1970"
       style="white-space:pre;shape-inside:url(#rect1972);display:inline;fill:#000000" />
    <text
       xml:space="preserve"
       transform="translate(452.85504,37.644012)"
       id="text1976"
       style="white-space:pre;shape-inside:url(#rect1978);display:inline;fill:#000000" />
    <text
       xml:space="preserve"
       transform="translate(452.85504,37.644012)"
       id="text1982"
       style="white-space:pre;shape-inside:url(#rect1984);display:inline;fill:#000000" />
    <text
       xml:space="preserve"
       transform="translate(452.85504,37.644012)"
       id="text1988"
       style="white-space:pre;shape-inside:url(#rect1990);display:inline;fill:#000000" />
  </g>
  <g
     id="g7072"
     transform="translate(-535.88606,65.243999)">
    <path
       id="text1218"
       style="font-stretch:condensed;font-size:12.3134px;font-family:'Arial Narrow';-inkscape-font-specification:'Arial Narrow Condensed';opacity:0.98;fill:#000000;stroke-width:0.30782;paint-order:markers fill stroke"
       d="m 542.14648,-60.744141 c -0.15231,0.384794 -0.41619,0.780715 -0.79296,1.185547 -0.37277,0.404835 -0.80396,0.746765 -1.29297,1.027344 v 1.046875 c 0.28859,-0.128264 0.60646,-0.317894 0.95117,-0.566406 0.34471,-0.252521 0.61784,-0.497788 0.82226,-0.738281 v 6.894531 h 0.89063 v -8.84961 z m 5.2129,0 c -0.77761,0 -1.36676,0.381008 -1.76758,1.142579 -0.39682,0.761568 -0.59375,1.88228 -0.59375,3.361328 0,1.651401 0.21739,2.812939 0.65429,3.486328 0.44091,0.673386 1.00589,1.009765 1.69532,1.009765 0.78161,0 1.37076,-0.379054 1.76757,-1.140625 0.39682,-0.765576 0.59571,-1.884439 0.59571,-3.355468 0,-1.639378 -0.23971,-2.83259 -0.72071,-3.578125 -0.39681,-0.617273 -0.94145,-0.925782 -1.63085,-0.925782 z m -0.041,0.896485 c 0.4369,0 0.79189,0.241564 1.06445,0.726562 0.27657,0.485 0.41406,1.445903 0.41407,2.88086 0,1.418921 -0.13565,2.374173 -0.40821,2.867187 -0.27256,0.493017 -0.61079,0.740234 -1.01562,0.740235 -0.42889,-10e-7 -0.78203,-0.243518 -1.0586,-0.728516 -0.27256,-0.489008 -0.41015,-1.44796 -0.41015,-2.878906 0,-1.418924 0.13574,-2.376124 0.40429,-2.869141 0.27257,-0.493017 0.60894,-0.738281 1.00977,-0.738281 z" />
    <ellipse
       style="fill:none;fill-opacity:1;stroke:#000000;stroke-width:1.19928;stroke-dasharray:0.755549;stroke-dashoffset:0;stroke-opacity:1"
       id="ellipse1220"
       cx="544.88605"
       cy="-56.239754"
       rx="8.4002981"
       ry="8.4045572" />
  </g>
</svg>
