<?xml version="1.0" encoding="UTF-8" standalone="no"?>
<svg
   version="1.1"
   width="18"
   height="18"
   viewBox="0 0 18 18"
   id="svg1714"
   xmlns="http://www.w3.org/2000/svg"
   xmlns:svg="http://www.w3.org/2000/svg">
  <defs
     id="defs1718">
    <rect
       x="32.567797"
       y="-13.805085"
       width="44.389831"
       height="38.898305"
       id="rect2002" />
    <rect
       x="22.5"
       y="-2.2118644"
       width="28.525424"
       height="24.559322"
       id="rect1996" />
    <rect
       x="40.805085"
       y="-10.525424"
       width="65.898305"
       height="40.652542"
       id="rect1990" />
    <rect
       x="39.661017"
       y="-9.1525424"
       width="44.237288"
       height="35.389831"
       id="rect1984" />
    <rect
       x="21.279661"
       y="-2.8983051"
       width="36.228814"
       height="33.330508"
       id="rect1978" />
    <rect
       x="17.313559"
       y="1.9067797"
       width="18.228814"
       height="14.338983"
       id="rect1972" />
    <rect
       x="22.576271"
       y="-1.4491525"
       width="29.516949"
       height="22.957627"
       id="rect1966" />
  </defs>
  <g
     id="g1783"
     transform="translate(-452.85504,-37.644012)">
    <text
       xml:space="preserve"
       transform="translate(452.85504,37.644012)"
       id="text1964"
       style="white-space:pre;shape-inside:url(#rect1966);display:inline;fill:#000000" />
    <text
       xml:space="preserve"
       transform="translate(452.85504,37.644012)"
       id="text1970"
       style="white-space:pre;shape-inside:url(#rect1972);display:inline;fill:#000000" />
    <text
       xml:space="preserve"
       transform="translate(452.85504,37.644012)"
       id="text1976"
       style="white-space:pre;shape-inside:url(#rect1978);display:inline;fill:#000000" />
    <text
       xml:space="preserve"
       transform="translate(452.85504,37.644012)"
       id="text1982"
       style="white-space:pre;shape-inside:url(#rect1984);display:inline;fill:#000000" />
    <text
       xml:space="preserve"
       transform="translate(452.85504,37.644012)"
       id="text1988"
       style="white-space:pre;shape-inside:url(#rect1990);display:inline;fill:#000000" />
  </g>
  <path
     id="rect3690"
     style="opacity:0.98;fill:#000000;fill-opacity:1;stroke:none;stroke-width:1.28507;stroke-dasharray:none;stroke-opacity:1;paint-order:markers fill stroke"
     d="M 2.30851,0 C 1.02966,0 0,1.02978 0,2.3086 v 13.38274 c 0,1.27884 1.02966,2.30862 2.30851,2.30862 h 13.38284 c 1.27877,0 2.30855,-1.02978 2.30855,-2.30862 V 2.3086 C 17.9999,1.02978 16.97012,0 15.69135,0 Z m 3.95316,4.49989 h 0.57612 v 8.84974 H 5.94917 V 6.45307 C 5.74475,6.69352 5.4696,6.94087 5.12493,7.19331 4.78024,7.44184 4.4643,7.62948 4.17574,7.75777 V 6.71279 C 4.66466,6.43228 5.09598,6.08829 5.46866,5.68362 5.84538,5.27876 6.10933,4.88467 6.26167,4.49989 Z m 5.21288,0 c 0.68935,0 1.23219,0.30865 1.62894,0.92586 0.48092,0.7455 0.72061,1.93886 0.72061,3.57814 0,1.4709 -0.19893,2.58796 -0.59568,3.35347 -0.39676,0.76147 -0.98604,1.14256 -1.76752,1.14256 -0.6894,0 -1.25444,-0.33639 -1.69533,-1.00973 C 9.32872,11.81691 9.1113,10.6551 9.1113,9.00389 c 0,-1.47895 0.19894,-2.59983 0.59569,-3.36131 0.40074,-0.76152 0.99003,-1.14269 1.76756,-1.14269 z m -0.0435,0.89648 c -0.40086,0 -0.73721,0.2454 -1.00978,0.73839 -0.26847,0.49299 -0.40231,1.45024 -0.40231,2.86913 0,1.43081 0.13558,2.3899 0.40815,2.87889 0.27653,0.48497 0.62978,0.72652 1.05863,0.72652 0.4048,0 0.74307,-0.24519 1.01564,-0.73818 0.27254,-0.49298 0.40819,-1.44846 0.40819,-2.86723 0,-1.43494 -0.13753,-2.39592 -0.41409,-2.88085 C 12.22296,5.63805 11.8679,5.39637 11.43105,5.39637 Z" />
</svg>
