<?xml version="1.0" encoding="UTF-8" standalone="no"?>
<svg
   version="1.1"
   width="18"
   height="18"
   viewBox="0 0 18 18"
   id="svg1714"
   xmlns="http://www.w3.org/2000/svg"
   xmlns:svg="http://www.w3.org/2000/svg">
  <defs
     id="defs1718">
    <rect
       x="32.567797"
       y="-13.805085"
       width="44.389831"
       height="38.898305"
       id="rect2002" />
    <rect
       x="22.5"
       y="-2.2118644"
       width="28.525424"
       height="24.559322"
       id="rect1996" />
    <rect
       x="40.805085"
       y="-10.525424"
       width="65.898305"
       height="40.652542"
       id="rect1990" />
    <rect
       x="39.661017"
       y="-9.1525424"
       width="44.237288"
       height="35.389831"
       id="rect1984" />
    <rect
       x="21.279661"
       y="-2.8983051"
       width="36.228814"
       height="33.330508"
       id="rect1978" />
    <rect
       x="17.313559"
       y="1.9067797"
       width="18.228814"
       height="14.338983"
       id="rect1972" />
    <rect
       x="22.576271"
       y="-1.4491525"
       width="29.516949"
       height="22.957627"
       id="rect1966" />
  </defs>
  <g
     id="g1783"
     transform="translate(-452.85504,-37.644012)">
    <text
       xml:space="preserve"
       transform="translate(452.85504,37.644012)"
       id="text1964"
       style="white-space:pre;shape-inside:url(#rect1966);display:inline;fill:#000000" />
    <text
       xml:space="preserve"
       transform="translate(452.85504,37.644012)"
       id="text1970"
       style="white-space:pre;shape-inside:url(#rect1972);display:inline;fill:#000000" />
    <text
       xml:space="preserve"
       transform="translate(452.85504,37.644012)"
       id="text1976"
       style="white-space:pre;shape-inside:url(#rect1978);display:inline;fill:#000000" />
    <text
       xml:space="preserve"
       transform="translate(452.85504,37.644012)"
       id="text1982"
       style="white-space:pre;shape-inside:url(#rect1984);display:inline;fill:#000000" />
    <text
       xml:space="preserve"
       transform="translate(452.85504,37.644012)"
       id="text1988"
       style="white-space:pre;shape-inside:url(#rect1990);display:inline;fill:#000000" />
  </g>
  <g
     id="g11469">
    <rect
       style="opacity:0.98;fill:none;stroke:#000000;stroke-width:1.19939;stroke-dasharray:none;stroke-opacity:1;paint-order:markers fill stroke"
       id="rect2840"
       width="16.800611"
       height="16.800611"
       x="0.59969503"
       y="0.59969503"
       rx="2.1544993"
       ry="2.1544993" />
    <path
       id="text2844"
       style="font-stretch:condensed;font-size:12.3124px;font-family:'Arial Narrow';-inkscape-font-specification:'Arial Narrow Condensed';opacity:0.98;fill:#000000;stroke-width:0.307812;paint-order:markers fill stroke"
       d="M 6.26152,4.5002547 C 6.1092184,4.8850169 5.845286,5.2790295 5.4685398,5.6838313 5.0958015,6.0886331 4.6645209,6.4325576 4.1755523,6.7131133 V 7.75802 C 4.4641239,7.629766 4.7801021,7.4420673 5.1247848,7.1935751 5.4694676,6.9410749 5.7446106,6.6938277 5.9490155,6.4533514 V 13.349736 H 6.8396534 V 4.5002547 Z m 5.212966,0 c -0.77754,0 -1.36681,0.3810533 -1.7676036,1.1425616 -0.3967859,0.7615083 -0.5957117,1.8803969 -0.5957117,3.3593263 0,1.6512704 0.2193942,2.8148974 0.6562595,3.4882304 0.4408728,0.673334 1.0059718,1.009751 1.6953368,1.009751 0.781548,0 1.370818,-0.381053 1.767604,-1.142561 0.396786,-0.765517 0.593759,-1.884507 0.593759,-3.3554204 0,-1.6392469 -0.239761,-2.8306434 -0.720714,-3.57612 C 12.70663,4.8088 12.163852,4.5002547 11.474486,4.5002547 Z m -0.04297,0.8945183 c 0.436865,0 0.791928,0.2435445 1.064468,0.7285051 0.276548,0.4849606 0.414069,1.4440225 0.414069,2.8788645 0,1.4188104 -0.135669,2.3761224 -0.408209,2.8690994 -0.27254,0.492976 -0.610838,0.73827 -1.01564,0.73827 -0.428849,0 -0.782061,-0.241591 -1.058609,-0.726552 -0.27254,-0.488968 -0.408209,-1.449983 -0.408209,-2.8808174 0,-1.4188103 0.133818,-2.3741695 0.40235,-2.8671459 0.272539,-0.4929765 0.608986,-0.7402237 1.00978,-0.7402237 z"
       transform="scale(0.99998552,1.0000145)" />
  </g>
</svg>
