<?xml version="1.0" encoding="UTF-8" standalone="no"?>
<svg
   version="1.1"
   width="18"
   height="18"
   viewBox="0 0 18 18"
   id="svg1714"
   xmlns="http://www.w3.org/2000/svg"
   xmlns:svg="http://www.w3.org/2000/svg">
  <defs
     id="defs1718">
    <rect
       x="32.567797"
       y="-13.805085"
       width="44.389831"
       height="38.898305"
       id="rect2002" />
    <rect
       x="22.5"
       y="-2.2118644"
       width="28.525424"
       height="24.559322"
       id="rect1996" />
    <rect
       x="40.805085"
       y="-10.525424"
       width="65.898305"
       height="40.652542"
       id="rect1990" />
    <rect
       x="39.661017"
       y="-9.1525424"
       width="44.237288"
       height="35.389831"
       id="rect1984" />
    <rect
       x="21.279661"
       y="-2.8983051"
       width="36.228814"
       height="33.330508"
       id="rect1978" />
    <rect
       x="17.313559"
       y="1.9067797"
       width="18.228814"
       height="14.338983"
       id="rect1972" />
    <rect
       x="22.576271"
       y="-1.4491525"
       width="29.516949"
       height="22.957627"
       id="rect1966" />
  </defs>
  <g
     id="g1783"
     transform="translate(-452.85504,-37.644012)">
    <text
       xml:space="preserve"
       transform="translate(452.85504,37.644012)"
       id="text1964"
       style="white-space:pre;shape-inside:url(#rect1966);display:inline;fill:#000000" />
    <text
       xml:space="preserve"
       transform="translate(452.85504,37.644012)"
       id="text1970"
       style="white-space:pre;shape-inside:url(#rect1972);display:inline;fill:#000000" />
    <text
       xml:space="preserve"
       transform="translate(452.85504,37.644012)"
       id="text1976"
       style="white-space:pre;shape-inside:url(#rect1978);display:inline;fill:#000000" />
    <text
       xml:space="preserve"
       transform="translate(452.85504,37.644012)"
       id="text1982"
       style="white-space:pre;shape-inside:url(#rect1984);display:inline;fill:#000000" />
    <text
       xml:space="preserve"
       transform="translate(452.85504,37.644012)"
       id="text1988"
       style="white-space:pre;shape-inside:url(#rect1990);display:inline;fill:#000000" />
  </g>
  <g
     id="g9280">
    <path
       id="text1214"
       style="font-stretch:condensed;font-size:12.3134px;font-family:'Arial Narrow';-inkscape-font-specification:'Arial Narrow Condensed';opacity:0.98;fill:#000000;stroke-width:0.30782;paint-order:markers fill stroke"
       d="M 6.2619769,4.4998594 C 6.1096628,4.8846527 5.8438318,5.2805716 5.467055,5.6854062 5.0942864,6.0902409 4.6630945,6.4321715 4.1740862,6.71275 V 7.759625 C 4.4626813,7.6313605 4.7805474,7.4417311 5.1252581,7.1932187 5.4699689,6.9406981 5.7450554,6.6954334 5.9494769,6.4549375 V 13.349469 H 6.8381487 V 4.4998594 Z m 5.2128901,0 c -0.777603,0 -1.366751,0.3810079 -1.7675776,1.1425781 -0.3968182,0.7615702 -0.5957032,1.8822786 -0.5957032,3.3613281 0,1.6514054 0.2173961,2.8129394 0.6542969,3.4863284 0.4409089,0.673388 1.0058909,1.009765 1.6953129,1.009765 0.781611,0 1.37076,-0.381008 1.767578,-1.142578 0.396818,-0.765578 0.595703,-1.882482 0.595703,-3.3535154 0,-1.6393801 -0.239712,-2.8325878 -0.720703,-3.578125 C 12.706956,4.8083679 12.164289,4.4998594 11.474867,4.4998594 Z m -0.04297,0.8964843 c 0.436901,0 0.791891,0.2415626 1.064453,0.7265625 0.27657,0.485 0.414062,1.4459008 0.414062,2.8808594 0,1.4189254 -0.135641,2.3741714 -0.408203,2.8671874 -0.272562,0.493017 -0.61079,0.740234 -1.015625,0.740234 -0.428884,0 -0.782023,-0.243515 -1.058594,-0.728515 -0.272561,-0.489008 -0.408203,-1.447956 -0.408203,-2.8789064 0,-1.4189255 0.13379,-2.3761241 0.402344,-2.8691406 0.272562,-0.4930165 0.608939,-0.7382813 1.009766,-0.7382813 z" />
    <rect
       style="opacity:0.98;fill:none;stroke:#000000;stroke-width:1.19939;stroke-dasharray:0.755616;stroke-dashoffset:0;stroke-opacity:1;paint-order:markers fill stroke"
       id="rect1227"
       width="16.800611"
       height="16.800611"
       x="0.59969503"
       y="0.59969503"
       rx="2.1544993"
       ry="2.1544993" />
  </g>
</svg>
