<?xml version="1.0" encoding="UTF-8" standalone="no"?>
<svg
   version="1.1"
   width="18"
   height="18"
   viewBox="0 0 18 18"
   id="svg1714"
   xmlns="http://www.w3.org/2000/svg"
   xmlns:svg="http://www.w3.org/2000/svg">
  <defs
     id="defs1718">
    <rect
       x="32.567797"
       y="-13.805085"
       width="44.389831"
       height="38.898305"
       id="rect2002" />
    <rect
       x="22.5"
       y="-2.2118644"
       width="28.525424"
       height="24.559322"
       id="rect1996" />
    <rect
       x="40.805085"
       y="-10.525424"
       width="65.898305"
       height="40.652542"
       id="rect1990" />
    <rect
       x="39.661017"
       y="-9.1525424"
       width="44.237288"
       height="35.389831"
       id="rect1984" />
    <rect
       x="21.279661"
       y="-2.8983051"
       width="36.228814"
       height="33.330508"
       id="rect1978" />
    <rect
       x="17.313559"
       y="1.9067797"
       width="18.228814"
       height="14.338983"
       id="rect1972" />
    <rect
       x="22.576271"
       y="-1.4491525"
       width="29.516949"
       height="22.957627"
       id="rect1966" />
  </defs>
  <g
     id="g1783"
     transform="translate(-452.85504,-37.644012)">
    <text
       xml:space="preserve"
       transform="translate(452.85504,37.644012)"
       id="text1964"
       style="white-space:pre;shape-inside:url(#rect1966);display:inline;fill:#000000" />
    <text
       xml:space="preserve"
       transform="translate(452.85504,37.644012)"
       id="text1970"
       style="white-space:pre;shape-inside:url(#rect1972);display:inline;fill:#000000" />
    <text
       xml:space="preserve"
       transform="translate(452.85504,37.644012)"
       id="text1976"
       style="white-space:pre;shape-inside:url(#rect1978);display:inline;fill:#000000" />
    <text
       xml:space="preserve"
       transform="translate(452.85504,37.644012)"
       id="text1982"
       style="white-space:pre;shape-inside:url(#rect1984);display:inline;fill:#000000" />
    <text
       xml:space="preserve"
       transform="translate(452.85504,37.644012)"
       id="text1988"
       style="white-space:pre;shape-inside:url(#rect1990);display:inline;fill:#000000" />
  </g>
  <path
     id="circle934"
     style="fill:#000000;fill-opacity:1;stroke:none;stroke-width:1.04984;stroke-dasharray:none"
     d="M 9.00002,0 A 8.9999995,8.9999997 0 0 0 0,8.999991 8.9999995,8.9999997 0 0 0 9.00002,17.999997 8.9999995,8.9999997 0 0 0 17.99998,8.999991 8.9999995,8.9999997 0 0 0 9.00002,0 Z M 6.22267,4.49999 h 0.57619 v 8.849616 H 5.91011 V 6.453109 C 5.70575,6.693597 5.43064,6.940853 5.08592,7.19336 4.74125,7.441859 4.42528,7.629557 4.13667,7.757807 V 6.712889 C 4.62571,6.432326 5.05698,6.0884 5.42971,5.68359 5.80644,5.27878 6.07038,4.88476 6.22267,4.49999 Z m 3.70899,0.15625 h 3.58982 v 1.03321 h -2.88085 l -0.3906,2.369139 c 0.4288,-0.368732 0.88428,-0.552732 1.36526,-0.552732 0.6052,0 1.1293,0.258359 1.57417,0.775389 0.44889,0.513019 0.67389,1.206337 0.67389,2.080074 0,0.861721 -0.225,1.601519 -0.67389,2.218755 -0.44487,0.613219 -1.04343,0.919919 -1.79687,0.919919 -0.62523,0 -1.15511,-0.215567 -1.58788,-0.648439 C 9.37584,12.414688 9.1324,11.810552 9.07224,11.041017 l 0.93165,-0.09569 c 0.0726,0.561119 0.2338,0.979294 0.4863,1.255862 0.25656,0.272537 0.55399,0.408194 0.89067,0.408194 0.42087,0 0.78337,-0.191396 1.08787,-0.57617 0.30463,-0.388779 0.45706,-0.918554 0.45706,-1.587892 0,-0.62926 -0.14874,-1.116244 -0.44533,-1.46093 -0.2926,-0.348703 -0.66058,-0.521504 -1.10546,-0.521504 -0.26853,0 -0.52131,0.07434 -0.75783,0.226576 -0.23243,0.148294 -0.41641,0.358413 -0.55274,0.626953 L 9.22859,9.183611 Z" />
</svg>
