<?xml version="1.0" encoding="UTF-8" standalone="no"?>
<svg
   version="1.1"
   width="18"
   height="18"
   viewBox="0 0 18 18"
   id="svg1714"
   xmlns="http://www.w3.org/2000/svg"
   xmlns:svg="http://www.w3.org/2000/svg">
  <defs
     id="defs1718">
    <rect
       x="32.567797"
       y="-13.805085"
       width="44.389831"
       height="38.898305"
       id="rect2002" />
    <rect
       x="22.5"
       y="-2.2118644"
       width="28.525424"
       height="24.559322"
       id="rect1996" />
    <rect
       x="40.805085"
       y="-10.525424"
       width="65.898305"
       height="40.652542"
       id="rect1990" />
    <rect
       x="39.661017"
       y="-9.1525424"
       width="44.237288"
       height="35.389831"
       id="rect1984" />
    <rect
       x="21.279661"
       y="-2.8983051"
       width="36.228814"
       height="33.330508"
       id="rect1978" />
    <rect
       x="17.313559"
       y="1.9067797"
       width="18.228814"
       height="14.338983"
       id="rect1972" />
    <rect
       x="22.576271"
       y="-1.4491525"
       width="29.516949"
       height="22.957627"
       id="rect1966" />
  </defs>
  <g
     id="g1783"
     transform="translate(-452.85504,-37.644012)">
    <text
       xml:space="preserve"
       transform="translate(452.85504,37.644012)"
       id="text1964"
       style="white-space:pre;shape-inside:url(#rect1966);display:inline;fill:#000000" />
    <text
       xml:space="preserve"
       transform="translate(452.85504,37.644012)"
       id="text1970"
       style="white-space:pre;shape-inside:url(#rect1972);display:inline;fill:#000000" />
    <text
       xml:space="preserve"
       transform="translate(452.85504,37.644012)"
       id="text1976"
       style="white-space:pre;shape-inside:url(#rect1978);display:inline;fill:#000000" />
    <text
       xml:space="preserve"
       transform="translate(452.85504,37.644012)"
       id="text1982"
       style="white-space:pre;shape-inside:url(#rect1984);display:inline;fill:#000000" />
    <text
       xml:space="preserve"
       transform="translate(452.85504,37.644012)"
       id="text1988"
       style="white-space:pre;shape-inside:url(#rect1990);display:inline;fill:#000000" />
    <g
       id="g2976"
       transform="translate(42.71353,-13.325585)">
      <circle
         style="fill:none;fill-opacity:1;stroke:#000000;stroke-width:1.19912;stroke-dasharray:none;stroke-opacity:1"
         id="circle740"
         cx="419.14151"
         cy="59.969597"
         r="8.4004402" />
      <path
         id="text744"
         style="font-stretch:condensed;font-size:12.3123px;font-family:'Arial Narrow';-inkscape-font-specification:'Arial Narrow Condensed';opacity:0.98;fill:#000000;stroke-width:0.307809;paint-order:markers fill stroke"
         d="m 416.3726,55.467508 c -0.1523,0.384759 -0.41624,0.780721 -0.79298,1.18552 -0.37274,0.404798 -0.80404,0.746767 -1.293,1.027321 V 58.7272 c 0.28857,-0.128253 0.60651,-0.317903 0.95119,-0.566393 0.34468,-0.252499 0.61788,-0.497791 0.82229,-0.738265 v 6.894377 h 0.89064 v -8.849411 z m 3.71102,0.156246 -0.70509,4.527242 0.83596,0.13281 c 0.13627,-0.26853 0.32028,-0.476694 0.55274,-0.624986 0.23647,-0.152301 0.4893,-0.228511 0.75783,-0.228511 0.44488,0 0.81487,0.174738 1.10745,0.523426 0.29658,0.34468 0.44337,0.831664 0.44337,1.460905 0,0.66932 -0.15244,1.197135 -0.45704,1.585902 -0.3046,0.384759 -0.66709,0.578112 -1.08792,0.578112 -0.33666,0 -0.63218,-0.135656 -0.88869,-0.408194 -0.2525,-0.276546 -0.41615,-0.696677 -0.48829,-1.257784 l -0.93166,0.0957 c 0.0601,0.769518 0.30554,1.373644 0.73439,1.810506 0.43285,0.432854 0.96074,0.648423 1.58597,0.648423 0.75349,0 1.35399,-0.306692 1.79887,-0.919901 0.44889,-0.617218 0.67384,-1.355048 0.67384,-2.216748 0,-0.873723 -0.22495,-1.567019 -0.67384,-2.080031 -0.44488,-0.51702 -0.97101,-0.775373 -1.57621,-0.775373 -0.48095,0 -0.93446,0.183994 -1.36331,0.552722 l 0.39063,-2.369088 h 2.87898 v -1.035133 z"
         transform="scale(0.99997761,1.0000224)" />
    </g>
  </g>
</svg>
