<?xml version="1.0" encoding="UTF-8" standalone="no"?>
<svg
   version="1.1"
   width="18"
   height="18"
   viewBox="0 0 18 18"
   id="svg1714"
   xmlns="http://www.w3.org/2000/svg"
   xmlns:svg="http://www.w3.org/2000/svg">
  <defs
     id="defs1718">
    <rect
       x="32.567797"
       y="-13.805085"
       width="44.389831"
       height="38.898305"
       id="rect2002" />
    <rect
       x="22.5"
       y="-2.2118644"
       width="28.525424"
       height="24.559322"
       id="rect1996" />
    <rect
       x="40.805085"
       y="-10.525424"
       width="65.898305"
       height="40.652542"
       id="rect1990" />
    <rect
       x="39.661017"
       y="-9.1525424"
       width="44.237288"
       height="35.389831"
       id="rect1984" />
    <rect
       x="21.279661"
       y="-2.8983051"
       width="36.228814"
       height="33.330508"
       id="rect1978" />
    <rect
       x="17.313559"
       y="1.9067797"
       width="18.228814"
       height="14.338983"
       id="rect1972" />
    <rect
       x="22.576271"
       y="-1.4491525"
       width="29.516949"
       height="22.957627"
       id="rect1966" />
  </defs>
  <g
     id="g1783"
     transform="translate(-452.85504,-37.644012)">
    <text
       xml:space="preserve"
       transform="translate(452.85504,37.644012)"
       id="text1964"
       style="white-space:pre;shape-inside:url(#rect1966);display:inline;fill:#000000" />
    <text
       xml:space="preserve"
       transform="translate(452.85504,37.644012)"
       id="text1970"
       style="white-space:pre;shape-inside:url(#rect1972);display:inline;fill:#000000" />
    <text
       xml:space="preserve"
       transform="translate(452.85504,37.644012)"
       id="text1976"
       style="white-space:pre;shape-inside:url(#rect1978);display:inline;fill:#000000" />
    <text
       xml:space="preserve"
       transform="translate(452.85504,37.644012)"
       id="text1982"
       style="white-space:pre;shape-inside:url(#rect1984);display:inline;fill:#000000" />
    <text
       xml:space="preserve"
       transform="translate(452.85504,37.644012)"
       id="text1988"
       style="white-space:pre;shape-inside:url(#rect1990);display:inline;fill:#000000" />
  </g>
  <g
     id="g7152"
     transform="translate(-555.88429,65.243999)">
    <path
       id="text1263"
       style="font-stretch:condensed;font-size:12.3133px;font-family:'Arial Narrow';-inkscape-font-specification:'Arial Narrow Condensed';opacity:0.98;fill:#000000;stroke-width:0.307817;paint-order:markers fill stroke"
       d="m 562.10742,-60.744141 c -0.15231,0.384791 -0.41815,0.780716 -0.79492,1.185547 -0.37277,0.404832 -0.80396,0.746768 -1.29297,1.027344 v 1.046875 c 0.28859,-0.128263 0.60647,-0.317896 0.95117,-0.566406 0.34471,-0.252519 0.61785,-0.497788 0.82227,-0.738281 v 6.894531 h 0.89062 v -8.84961 z m 3.70899,0.15625 -0.70313,4.527344 0.83594,0.132813 c 0.13628,-0.268552 0.32026,-0.476696 0.55273,-0.625 0.23649,-0.152313 0.48926,-0.228516 0.75782,-0.228516 0.44491,0 0.81286,0.174721 1.10546,0.523438 0.29661,0.344707 0.44532,0.831645 0.44532,1.460937 0,0.669375 -0.15241,1.197139 -0.45703,1.585937 -0.30463,0.384791 -0.66703,0.578126 -1.0879,0.578126 -0.33669,0 -0.63409,-0.137597 -0.89062,-0.410157 -0.25252,-0.276568 -0.41418,-0.694707 -0.48633,-1.255859 l -0.93164,0.0957 c 0.0601,0.76958 0.30354,1.37365 0.73242,1.810547 0.43289,0.432889 0.96261,0.648437 1.58789,0.648437 0.75355,0 1.35197,-0.306662 1.79688,-0.919921 0.44892,-0.617268 0.67383,-1.356981 0.67383,-2.21875 0,-0.873795 -0.22491,-1.567025 -0.67383,-2.080079 -0.44491,-0.517062 -0.96898,-0.77539 -1.57422,-0.77539 -0.48099,0 -0.93635,0.183977 -1.36523,0.552734 l 0.39062,-2.367187 h 2.88086 v -1.035157 z" />
    <ellipse
       style="fill:none;fill-opacity:1;stroke:#000000;stroke-width:1.19928;stroke-dasharray:0.755549;stroke-dashoffset:0;stroke-opacity:1"
       id="ellipse1265"
       cx="564.88428"
       cy="-56.239754"
       rx="8.4002981"
       ry="8.4045572" />
  </g>
</svg>
