<?xml version="1.0" encoding="UTF-8" standalone="no"?>
<svg
   version="1.1"
   width="18"
   height="18"
   viewBox="0 0 18 18"
   id="svg1714"
   xmlns="http://www.w3.org/2000/svg"
   xmlns:svg="http://www.w3.org/2000/svg">
  <defs
     id="defs1718">
    <rect
       x="32.567797"
       y="-13.805085"
       width="44.389831"
       height="38.898305"
       id="rect2002" />
    <rect
       x="22.5"
       y="-2.2118644"
       width="28.525424"
       height="24.559322"
       id="rect1996" />
    <rect
       x="40.805085"
       y="-10.525424"
       width="65.898305"
       height="40.652542"
       id="rect1990" />
    <rect
       x="39.661017"
       y="-9.1525424"
       width="44.237288"
       height="35.389831"
       id="rect1984" />
    <rect
       x="21.279661"
       y="-2.8983051"
       width="36.228814"
       height="33.330508"
       id="rect1978" />
    <rect
       x="17.313559"
       y="1.9067797"
       width="18.228814"
       height="14.338983"
       id="rect1972" />
    <rect
       x="22.576271"
       y="-1.4491525"
       width="29.516949"
       height="22.957627"
       id="rect1966" />
  </defs>
  <g
     id="g1783"
     transform="translate(-452.85504,-37.644012)">
    <text
       xml:space="preserve"
       transform="translate(452.85504,37.644012)"
       id="text1964"
       style="white-space:pre;shape-inside:url(#rect1966);display:inline;fill:#000000" />
    <text
       xml:space="preserve"
       transform="translate(452.85504,37.644012)"
       id="text1970"
       style="white-space:pre;shape-inside:url(#rect1972);display:inline;fill:#000000" />
    <text
       xml:space="preserve"
       transform="translate(452.85504,37.644012)"
       id="text1976"
       style="white-space:pre;shape-inside:url(#rect1978);display:inline;fill:#000000" />
    <text
       xml:space="preserve"
       transform="translate(452.85504,37.644012)"
       id="text1982"
       style="white-space:pre;shape-inside:url(#rect1984);display:inline;fill:#000000" />
    <text
       xml:space="preserve"
       transform="translate(452.85504,37.644012)"
       id="text1988"
       style="white-space:pre;shape-inside:url(#rect1990);display:inline;fill:#000000" />
  </g>
  <g
     id="g11546">
    <rect
       style="opacity:0.98;fill:none;stroke:#000000;stroke-width:1.19939;stroke-dasharray:none;stroke-opacity:1;paint-order:markers fill stroke"
       id="rect2852"
       width="16.800611"
       height="16.800611"
       x="0.59969503"
       y="0.59969503"
       rx="2.1544993"
       ry="2.1544993" />
    <path
       id="text2856"
       style="font-stretch:condensed;font-size:12.3123px;font-family:'Arial Narrow';-inkscape-font-specification:'Arial Narrow Condensed';opacity:0.98;fill:#000000;stroke-width:0.307809;paint-order:markers fill stroke"
       d="M 6.2217386,4.5002192 C 6.0694382,4.8849782 5.8054953,5.2789879 5.4287521,5.6837864 5.0560169,6.0885849 4.624719,6.4325068 4.1357544,6.7130603 V 7.7579587 C 4.4243237,7.6297057 4.7422677,7.4420084 5.0869476,7.1935182 5.4316275,6.9410202 5.7048284,6.6937748 5.9092316,6.4533004 V 13.34963 h 0.890645 V 4.5002192 Z M 9.9327592,4.6564657 9.2296184,9.183708 10.063621,9.3145645 c 0.136269,-0.2685297 0.322242,-0.4766935 0.5547,-0.624986 0.236467,-0.1523005 0.487347,-0.2285105 0.755877,-0.2285105 0.444877,0 0.814869,0.1747379 1.107446,0.5234257 0.296585,0.34468 0.44337,0.8316636 0.44337,1.4609053 0,0.66932 -0.150488,1.199088 -0.455089,1.587855 -0.304601,0.384759 -0.669038,0.576159 -1.089868,0.576159 -0.336664,0 -0.632186,-0.135657 -0.888692,-0.408194 -0.252498,-0.276546 -0.414196,-0.694725 -0.486339,-1.255832 l -0.9336142,0.0957 c 0.060119,0.769518 0.3055455,1.371692 0.7343914,1.808554 0.4328538,0.432853 0.9626928,0.650376 1.5879258,0.650376 0.753487,0 1.352038,-0.306692 1.796916,-0.919902 0.448885,-0.617217 0.673843,-1.357 0.673843,-2.2187 0,-0.8737235 -0.224958,-1.5670195 -0.673843,-2.0800315 -0.444878,-0.5170199 -0.971014,-0.7753733 -1.576208,-0.7753733 -0.480948,0 -0.934465,0.1839947 -1.363311,0.552722 l 0.390633,-2.3690875 h 2.878971 v -1.03318 z"
       transform="scale(0.99997762,1.0000224)" />
  </g>
</svg>
