<?xml version="1.0" encoding="UTF-8" standalone="no"?>
<svg
   version="1.1"
   width="18"
   height="18"
   viewBox="0 0 18 18"
   id="svg1714"
   xmlns="http://www.w3.org/2000/svg"
   xmlns:svg="http://www.w3.org/2000/svg">
  <defs
     id="defs1718">
    <rect
       x="32.567797"
       y="-13.805085"
       width="44.389831"
       height="38.898305"
       id="rect2002" />
    <rect
       x="22.5"
       y="-2.2118644"
       width="28.525424"
       height="24.559322"
       id="rect1996" />
    <rect
       x="40.805085"
       y="-10.525424"
       width="65.898305"
       height="40.652542"
       id="rect1990" />
    <rect
       x="39.661017"
       y="-9.1525424"
       width="44.237288"
       height="35.389831"
       id="rect1984" />
    <rect
       x="21.279661"
       y="-2.8983051"
       width="36.228814"
       height="33.330508"
       id="rect1978" />
    <rect
       x="17.313559"
       y="1.9067797"
       width="18.228814"
       height="14.338983"
       id="rect1972" />
    <rect
       x="22.576271"
       y="-1.4491525"
       width="29.516949"
       height="22.957627"
       id="rect1966" />
  </defs>
  <g
     id="g1783"
     transform="translate(-452.85504,-37.644012)">
    <text
       xml:space="preserve"
       transform="translate(452.85504,37.644012)"
       id="text1964"
       style="white-space:pre;shape-inside:url(#rect1966);display:inline;fill:#000000" />
    <text
       xml:space="preserve"
       transform="translate(452.85504,37.644012)"
       id="text1970"
       style="white-space:pre;shape-inside:url(#rect1972);display:inline;fill:#000000" />
    <text
       xml:space="preserve"
       transform="translate(452.85504,37.644012)"
       id="text1976"
       style="white-space:pre;shape-inside:url(#rect1978);display:inline;fill:#000000" />
    <text
       xml:space="preserve"
       transform="translate(452.85504,37.644012)"
       id="text1982"
       style="white-space:pre;shape-inside:url(#rect1984);display:inline;fill:#000000" />
    <text
       xml:space="preserve"
       transform="translate(452.85504,37.644012)"
       id="text1988"
       style="white-space:pre;shape-inside:url(#rect1990);display:inline;fill:#000000" />
  </g>
  <path
     id="rect3719"
     style="opacity:0.98;fill:#000000;fill-opacity:1;stroke:none;stroke-width:1.28507;stroke-dasharray:none;stroke-opacity:1;paint-order:markers fill stroke"
     d="M 2.30859,0 C 1.02982,0 0,1.02978 0,2.3086 v 13.38274 c 0,1.27884 1.02982,2.30862 2.30859,2.30862 h 13.38284 c 1.27885,0 2.30858,-1.02978 2.30858,-2.30862 V 2.3086 C 18.00001,1.02978 16.97028,0 15.69143,0 Z M 6.2227,4.49989 h 0.57612 v 8.84974 H 5.91013 V 6.45307 C 5.70577,6.69353 5.43061,6.94087 5.08601,7.19331 4.74128,7.44184 4.42531,7.62948 4.13677,7.75777 V 6.71279 C 4.62575,6.43228 5.05695,6.08829 5.42967,5.68362 5.80641,5.27876 6.07042,4.88467 6.2227,4.49989 Z m 3.70894,0.15636 h 3.5898 V 5.68944 H 10.64058 L 10.25,8.05859 c 0.42886,-0.36881 0.88426,-0.55277 1.36524,-0.55277 0.60516,0 1.12937,0.25843 1.57426,0.77535 0.44882,0.513 0.67377,1.20635 0.67377,2.08006 0,0.86177 -0.22495,1.60156 -0.67377,2.21884 -0.44489,0.61322 -1.04344,0.91985 -1.79693,0.91985 -0.62517,0 -1.15505,-0.2156 -1.5879,-0.6484 -0.42879,-0.43685 -0.67223,-1.04101 -0.7324,-1.81058 l 0.93165,-0.0958 c 0.0726,0.56114 0.23381,0.97935 0.48636,1.25593 0.25644,0.27254 0.55393,0.4081 0.89061,0.4081 0.42087,0 0.78329,-0.19132 1.08788,-0.5761 0.30456,-0.38885 0.45699,-0.9186 0.45699,-1.58789 0,-0.62933 -0.14875,-1.11631 -0.44534,-1.46099 -0.29247,-0.34868 -0.66051,-0.5215 -1.10539,-0.5215 -0.26853,0 -0.52136,0.0745 -0.75777,0.22659 -0.23249,0.14828 -0.41659,0.35836 -0.5528,0.62698 L 9.22854,9.18344 Z" />
</svg>
