<?xml version="1.0" encoding="UTF-8" standalone="no"?>
<svg
   version="1.1"
   width="18"
   height="18"
   viewBox="0 0 18 18"
   id="svg1714"
   xmlns="http://www.w3.org/2000/svg"
   xmlns:svg="http://www.w3.org/2000/svg">
  <defs
     id="defs1718">
    <rect
       x="32.567797"
       y="-13.805085"
       width="44.389831"
       height="38.898305"
       id="rect2002" />
    <rect
       x="22.5"
       y="-2.2118644"
       width="28.525424"
       height="24.559322"
       id="rect1996" />
    <rect
       x="40.805085"
       y="-10.525424"
       width="65.898305"
       height="40.652542"
       id="rect1990" />
    <rect
       x="39.661017"
       y="-9.1525424"
       width="44.237288"
       height="35.389831"
       id="rect1984" />
    <rect
       x="21.279661"
       y="-2.8983051"
       width="36.228814"
       height="33.330508"
       id="rect1978" />
    <rect
       x="17.313559"
       y="1.9067797"
       width="18.228814"
       height="14.338983"
       id="rect1972" />
    <rect
       x="22.576271"
       y="-1.4491525"
       width="29.516949"
       height="22.957627"
       id="rect1966" />
  </defs>
  <g
     id="g1783"
     transform="translate(-452.85504,-37.644012)">
    <text
       xml:space="preserve"
       transform="translate(452.85504,37.644012)"
       id="text1964"
       style="white-space:pre;shape-inside:url(#rect1966);display:inline;fill:#000000" />
    <text
       xml:space="preserve"
       transform="translate(452.85504,37.644012)"
       id="text1970"
       style="white-space:pre;shape-inside:url(#rect1972);display:inline;fill:#000000" />
    <text
       xml:space="preserve"
       transform="translate(452.85504,37.644012)"
       id="text1976"
       style="white-space:pre;shape-inside:url(#rect1978);display:inline;fill:#000000" />
    <text
       xml:space="preserve"
       transform="translate(452.85504,37.644012)"
       id="text1982"
       style="white-space:pre;shape-inside:url(#rect1984);display:inline;fill:#000000" />
    <text
       xml:space="preserve"
       transform="translate(452.85504,37.644012)"
       id="text1988"
       style="white-space:pre;shape-inside:url(#rect1990);display:inline;fill:#000000" />
  </g>
  <g
     id="g9357">
    <path
       id="text1259"
       style="font-stretch:condensed;font-size:12.3133px;font-family:'Arial Narrow';-inkscape-font-specification:'Arial Narrow Condensed';opacity:0.98;fill:#000000;stroke-width:0.307817;paint-order:markers fill stroke"
       d="M 6.2231306,4.4998594 C 6.0708178,4.8846496 5.8049825,5.2805748 5.4282087,5.6854062 5.0554432,6.0902377 4.6242443,6.4321738 4.13524,6.71275 V 7.759625 C 4.4238327,7.6313616 4.7417039,7.4417291 5.0864119,7.1932187 5.4311198,6.9407002 5.7042577,6.6954314 5.9086775,6.4549375 v 6.8945315 h 0.890625 V 4.4998594 Z m 3.7089844,0.15625 -0.703125,4.5273437 0.835937,0.1328125 c 0.13628,-0.2685515 0.320257,-0.4766954 0.552735,-0.625 0.236486,-0.1523128 0.489261,-0.2285156 0.757812,-0.2285156 0.444914,0 0.812868,0.1747213 1.105469,0.5234375 0.296609,0.3447079 0.445313,0.8316451 0.445313,1.4609375 0,0.669375 -0.152406,1.197139 -0.457032,1.585937 -0.304625,0.384791 -0.667026,0.578125 -1.08789,0.578125 -0.336692,0 -0.634098,-0.137596 -0.890625,-0.410156 -0.252519,-0.276568 -0.41418,-0.694707 -0.486328,-1.255859 l -0.931641,0.0957 c 0.060123,0.76958 0.3035411,1.37365 0.7324219,1.810547 0.4328891,0.432889 0.9626061,0.648437 1.5878901,0.648437 0.753548,0 1.351962,-0.306662 1.796875,-0.919922 0.448922,-0.617267 0.673829,-1.35698 0.673829,-2.21875 0,-0.873794 -0.224907,-1.567024 -0.673829,-2.0800776 -0.444913,-0.5170619 -0.968975,-0.7753907 -1.574218,-0.7753907 -0.480988,0 -0.936354,0.1839771 -1.365235,0.5527344 l 0.390625,-2.3671875 h 2.88086 V 4.6561094 Z" />
    <rect
       style="opacity:0.98;fill:none;stroke:#000000;stroke-width:1.19939;stroke-dasharray:0.755616;stroke-dashoffset:0;stroke-opacity:1;paint-order:markers fill stroke"
       id="rect1272"
       width="16.800611"
       height="16.800611"
       x="0.59969503"
       y="0.59969503"
       rx="2.1544993"
       ry="2.1544993" />
  </g>
</svg>
