<svg
   version="1.1"
   width="18"
   height="18"
   viewBox="0 0 18 18"
   xmlns="http://www.w3.org/2000/svg"
   >
  <g
   id="g1783"
   transform="translate(-452.85504,-37.644012)">
    <circle
       style="fill:none;fill-opacity:1;stroke:#000000;stroke-width:1.19912;stroke-dasharray:none;stroke-opacity:1"
       id="circle569"
       cx="461.85504"
       cy="46.644012"
       r="8.4004402" />
    <path
       id="text573"
       style="font-stretch:condensed;font-size:12.5229px;font-family:'Arial Narrow';-inkscape-font-specification:'Arial Narrow Condensed';opacity:0.98;fill:#000000;stroke-width:0.313075;paint-order:markers fill stroke"
       d="M 461.99371 42.144012 C 461.30479 42.144012 460.74774 42.362128 460.32379 42.798309 C 459.90391 43.230414 459.6605 43.875676 459.59527 44.735809 L 460.52496 44.852996 C 460.52496 44.274139 460.66021 43.828823 460.92926 43.519012 C 461.19831 43.209201 461.54259 43.054168 461.96246 43.054168 C 462.3538 43.054168 462.68187 43.200286 462.94684 43.489715 C 463.21588 43.775067 463.35113 44.146433 463.35113 44.602996 C 463.35113 44.998413 463.21945 45.425559 462.95856 45.886199 C 462.69766 46.342763 462.14613 46.991761 461.30231 47.831512 C 460.58077 48.553046 460.08324 49.178525 459.81012 49.708465 C 459.54107 50.238405 459.41312 50.715984 459.42535 51.144012 L 464.28668 51.144012 L 464.28668 50.087371 L 460.67926 50.087371 C 460.77709 49.887625 460.90326 49.687509 461.05816 49.487762 C 461.21715 49.288015 461.56499 48.913084 462.10309 48.362762 C 462.94691 47.490399 463.52018 46.792752 463.82184 46.270965 C 464.12349 45.745102 464.27301 45.197138 464.27301 44.626434 C 464.27301 43.982353 464.08019 43.407306 463.69293 42.901824 C 463.30974 42.396343 462.74378 42.144012 461.99371 42.144012 z " />
  </g>
</svg>
