<svg
   version="1.1"
   width="18"
   height="18"
   viewBox="0 0 18 18"
   xmlns="http://www.w3.org/2000/svg"
  >
  <g
     transform="translate(-423.83433,-34.46814)">
    <ellipse
       style="fill:none;fill-opacity:1;stroke:#000000;stroke-width:1.19928;stroke-dasharray:0.755549;stroke-dashoffset:0;stroke-opacity:1"
       cx="432.83432"
       cy="43.472385"
       rx="8.4002981"
       ry="8.4045572" />
    <path
       d="m 432.97266,38.96875 c -0.68879,0 -1.24606,0.218203 -1.66993,0.654297 -0.41979,0.432018 -0.66135,1.077538 -0.72656,1.9375 l 0.92969,0.115234 c 0,-0.578742 0.13335,-1.022282 0.40234,-1.332031 0.269,-0.309749 0.61341,-0.464844 1.03321,-0.464844 0.39126,0 0.71945,0.144223 0.98437,0.433594 0.26899,0.285295 0.4043,0.656809 0.4043,1.113281 0,0.395338 -0.13174,0.822655 -0.39258,1.283203 -0.26084,0.456473 -0.81259,1.10573 -1.65625,1.945313 -0.72139,0.721389 -1.21912,1.347119 -1.49219,1.876953 -0.26899,0.529834 -0.39699,1.007604 -0.38476,1.435547 h 4.86132 v -1.056641 h -3.60742 c 0.0978,-0.199706 0.22403,-0.399902 0.37891,-0.599609 0.15895,-0.199707 0.50694,-0.574788 1.04492,-1.125 0.84366,-0.872189 1.41715,-1.568161 1.71875,-2.089844 0.3016,-0.525758 0.45117,-1.073941 0.45117,-1.644531 0,-0.643952 -0.19289,-1.219229 -0.58007,-1.72461 -0.38312,-0.50538 -0.9493,-0.757812 -1.69922,-0.757812 z" />
  </g>
</svg>
