<svg
   version="1.1"
   width="18"
   height="18"
   viewBox="0 0 18 18"
   xmlns="http://www.w3.org/2000/svg"
   >
  <path
     d="M 9,0 A 8.9999995,8.9999997 0 0 0 0,8.999991 8.9999995,8.9999997 0 0 0 9,17.999997 8.9999995,8.9999997 0 0 0 18,8.999991 8.9999995,8.9999997 0 0 0 9,0 Z m 0.13867,4.49999 c 0.75007,0 1.31603,0.25233 1.69922,0.75782 0.38726,0.50547 0.58008,1.080523 0.58008,1.724606 0,0.570703 -0.14952,1.11867 -0.45117,1.644527 -0.30166,0.521798 -0.87493,1.219446 -1.71876,2.0918 -0.53809,0.550322 -0.88594,0.925255 -1.04492,1.125001 -0.1549,0.199745 -0.28107,0.399863 -0.3789,0.599607 h 3.60742 v 1.056643 H 6.57031 C 6.55811,13.07197 6.68603,12.594391 6.95507,12.064454 7.2282,11.534508 7.72573,10.909024 8.44726,10.187493 9.29109,9.347748 9.84262,8.698742 10.10351,8.242182 10.3644,7.781548 10.49609,7.354403 10.49609,6.958979 10.49609,6.50241 10.36084,6.131057 10.09179,5.8457 9.82682,5.55627 9.49876,5.41016 9.10742,5.41016 8.68754,5.41016 8.34326,5.56518 8.07421,5.875 7.80517,6.184801 7.66992,6.630125 7.66992,7.208974 L 6.74023,7.091789 C 6.80543,6.231666 7.04887,5.5864 7.46875,5.15429 7.8927,4.71811 8.44975,4.49999 9.13867,4.49999 Z" />
</svg>
