<svg
   version="1.1"
   width="18"
   height="18"
   viewBox="0 0 18 18"
   xmlns="http://www.w3.org/2000/svg"
   >
  <path
     d="M 2.30859,0 C 1.02979,0 0,1.02978 0,2.3086 v 13.38274 c 0,1.27884 1.02979,2.30862 2.30859,2.30862 H 15.6914 C 16.97021,17.99996 18,16.97018 18,15.69134 V 2.3086 C 18,1.02978 16.97021,0 15.6914,0 Z m 6.83008,4.49989 c 0.75007,0 1.31603,0.25247 1.69922,0.75791 0.38726,0.50542 0.58007,1.08055 0.58007,1.72454 0,0.57074 -0.1495,1.1187 -0.45117,1.64455 -0.30165,0.52181 -0.87492,1.21948 -1.71874,2.09186 -0.5381,0.55034 -0.88594,0.92518 -1.04493,1.12495 -0.1549,0.1998 -0.28107,0.39981 -0.3789,0.59957 h 3.60742 v 1.05665 H 6.57031 C 6.55811,13.07195 6.68603,12.59436 6.95508,12.06436 7.2282,11.53444 7.72573,10.90893 8.44726,10.18749 9.29109,9.34773 9.84262,8.6987 10.10351,8.24211 c 0.2609,-0.46059 0.39258,-0.8878 0.39258,-1.28316 0,-0.45652 -0.13525,-0.82792 -0.40429,-1.11323 C 9.82683,5.55622 9.49876,5.41211 9.10742,5.41211 8.68755,5.41211 8.34326,5.56512 8.07422,5.87496 7.80517,6.18477 7.66992,6.6301 7.66992,7.20892 L 6.74023,7.09177 C 6.80543,6.23164 7.04887,5.58639 7.46875,5.15429 7.8927,4.71812 8.44975,4.49989 9.13867,4.49989 Z" />
</svg>
