<svg
   version="1.1"
   width="18"
   height="18"
   viewBox="0 0 18 18"
   xmlns="http://www.w3.org/2000/svg"
   >
  <g>
    <rect
       style="opacity:0.98;fill:none;stroke:#000000;stroke-width:1.19939;stroke-dasharray:none;stroke-opacity:1;paint-order:markers fill stroke"
       width="16.800611"
       height="16.800611"
       x="0.59969503"
       y="0.59969503"
       rx="2.1544993"
       ry="2.1544993" />
    <path
       d="m 9.1371138,4.4998044 c -0.6889219,0 -1.2440169,0.2181156 -1.6679688,0.6542968 -0.4198754,0.4321049 -0.6632923,1.07932 -0.7285156,1.9394532 l 0.9296875,0.1152343 c 0,-0.5788574 0.1352504,-1.0222202 0.4042969,-1.3320312 0.2690464,-0.309811 0.6133276,-0.4648438 1.0332031,-0.4648438 0.3913402,0 0.719405,0.1441651 0.9843751,0.4335938 0.269046,0.2853522 0.402344,0.6567177 0.402344,1.1132812 0,0.3954167 -0.129732,0.8225631 -0.390625,1.2832032 -0.2608939,0.4565636 -0.812423,1.1055616 -1.6562504,1.9453121 -0.7215335,0.721534 -1.2190646,1.347014 -1.4921875,1.876953 -0.2690464,0.52994 -0.396995,1.009472 -0.3847656,1.4375 H 11.430083 V 12.443164 H 7.8226606 c 0.097835,-0.199747 0.2240008,-0.399863 0.3789063,-0.59961 0.1589819,-0.199746 0.5087822,-0.574677 1.046875,-1.125 C 10.092269,9.8461918 10.665534,9.1485445 10.967192,8.6267575 11.26885,8.1008941 11.418364,7.5529307 11.418364,6.9822262 11.418364,6.3381455 11.225549,5.763098 10.838286,5.2576169 10.455098,4.7521358 9.8871825,4.4998044 9.1371138,4.4998044 Z" />
  </g>
</svg>
