<svg
   version="1.1"
   width="18"
   height="18"
   viewBox="0 0 18 18"
   xmlns="http://www.w3.org/2000/svg"
   >
  <g>
    <path
       d="m 9.1388513,4.4998594 c -0.6887844,0 -1.2460546,0.2182026 -1.6699219,0.6542968 -0.4197917,0.4320186 -0.6613522,1.0775385 -0.7265625,1.9375 l 0.9277344,0.1171875 c 0,-0.5787418 0.1353041,-1.0242352 0.4042968,-1.3339843 0.2689927,-0.3097492 0.6134115,-0.4648438 1.0332032,-0.4648438 0.3912621,0 0.7194579,0.146176 0.9843747,0.4355469 0.268993,0.2852953 0.402344,0.6548557 0.402344,1.1113281 0,0.3953378 -0.129784,0.8246082 -0.390625,1.2851563 -0.2608414,0.4564724 -0.8125911,1.1037761 -1.65625,1.9433591 -0.7213895,0.72139 -1.2191192,1.347119 -1.4921875,1.876953 -0.2689927,0.529834 -0.3969926,1.009557 -0.3847656,1.4375 H 11.429867 V 12.441266 H 7.8243981 c 0.097816,-0.199707 0.2240317,-0.399903 0.3789063,-0.59961 0.1589502,-0.199706 0.5069364,-0.574787 1.0449219,-1.125 C 10.091885,9.8444678 10.663425,9.1484953 10.965023,8.6268125 11.266621,8.101054 11.418148,7.5528718 11.418148,6.9822812 11.418148,6.338329 11.225256,5.7630521 10.83807,5.2576719 10.454959,4.7522916 9.8887703,4.4998594 9.1388513,4.4998594 Z" />
    <rect
       style="opacity:0.98;fill:none;stroke:#000000;stroke-width:1.19939;stroke-dasharray:0.755616;stroke-dashoffset:0;stroke-opacity:1;paint-order:markers fill stroke"
       width="16.800611"
       height="16.800611"
       x="0.59969503"
       y="0.59969503"
       rx="2.1544993"
       ry="2.1544993" />
  </g>
</svg>
