<?xml version="1.0" encoding="UTF-8" standalone="no"?>
<svg
   version="1.1"
   width="18"
   height="18"
   viewBox="0 0 18 18"
   id="svg1714"
   xmlns="http://www.w3.org/2000/svg"
   xmlns:svg="http://www.w3.org/2000/svg">
  <defs
     id="defs1718">
    <rect
       x="32.567797"
       y="-13.805085"
       width="44.389831"
       height="38.898305"
       id="rect2002" />
    <rect
       x="22.5"
       y="-2.2118644"
       width="28.525424"
       height="24.559322"
       id="rect1996" />
    <rect
       x="40.805085"
       y="-10.525424"
       width="65.898305"
       height="40.652542"
       id="rect1990" />
    <rect
       x="39.661017"
       y="-9.1525424"
       width="44.237288"
       height="35.389831"
       id="rect1984" />
    <rect
       x="21.279661"
       y="-2.8983051"
       width="36.228814"
       height="33.330508"
       id="rect1978" />
    <rect
       x="17.313559"
       y="1.9067797"
       width="18.228814"
       height="14.338983"
       id="rect1972" />
    <rect
       x="22.576271"
       y="-1.4491525"
       width="29.516949"
       height="22.957627"
       id="rect1966" />
  </defs>
  <g
     id="g1783"
     transform="translate(-452.85504,-37.644012)">
    <text
       xml:space="preserve"
       transform="translate(452.85504,37.644012)"
       id="text1964"
       style="white-space:pre;shape-inside:url(#rect1966);display:inline;fill:#000000" />
    <text
       xml:space="preserve"
       transform="translate(452.85504,37.644012)"
       id="text1970"
       style="white-space:pre;shape-inside:url(#rect1972);display:inline;fill:#000000" />
    <text
       xml:space="preserve"
       transform="translate(452.85504,37.644012)"
       id="text1976"
       style="white-space:pre;shape-inside:url(#rect1978);display:inline;fill:#000000" />
    <text
       xml:space="preserve"
       transform="translate(452.85504,37.644012)"
       id="text1982"
       style="white-space:pre;shape-inside:url(#rect1984);display:inline;fill:#000000" />
    <text
       xml:space="preserve"
       transform="translate(452.85504,37.644012)"
       id="text1988"
       style="white-space:pre;shape-inside:url(#rect1990);display:inline;fill:#000000" />
  </g>
  <g
     id="g7232"
     transform="translate(-574.3882,65.243999)">
    <path
       id="text1308"
       style="font-stretch:condensed;font-size:12.3132px;font-family:'Arial Narrow';-inkscape-font-specification:'Arial Narrow Condensed';opacity:0.98;fill:#000000;stroke-width:0.307814;paint-order:markers fill stroke"
       d="m 580.7033,-60.743509 c -0.67738,0 -1.22378,0.213694 -1.64064,0.642572 -0.41284,0.424869 -0.65072,1.0605 -0.71485,1.90623 l 0.91407,0.115233 c 0,-0.569164 0.13195,-1.00591 0.39649,-1.310533 0.26454,-0.304623 0.60279,-0.457027 1.01564,-0.457027 0.38478,0 0.70822,0.141195 0.96876,0.425777 0.26454,0.280574 0.39649,0.646773 0.39649,1.095692 0,0.388795 -0.12825,0.808779 -0.38477,1.261705 -0.25653,0.448919 -0.79923,1.086401 -1.62893,1.91209 -0.70945,0.709451 -1.20021,1.324618 -1.46876,1.845684 -0.26454,0.521066 -0.38898,0.991234 -0.37696,1.412094 h 4.77935 v -1.039051 h -3.54691 c 0.0962,-0.196402 0.21878,-0.393436 0.37109,-0.589838 0.15632,-0.196402 0.50023,-0.56435 1.02931,-1.105457 0.8297,-0.857755 1.39287,-1.54357 1.68947,-2.056619 0.29661,-0.517058 0.44532,-1.056023 0.44532,-1.617171 0,-0.633295 -0.19149,-1.198278 -0.57227,-1.695295 -0.37677,-0.497017 -0.93439,-0.746086 -1.6719,-0.746086 z m 5.5567,0 c -0.77759,0 -1.36677,0.381009 -1.76759,1.142566 -0.39681,0.761558 -0.59571,1.882268 -0.59571,3.361294 0,1.651378 0.21936,2.812914 0.65625,3.486291 0.44091,0.673378 1.00592,1.009756 1.69533,1.009756 0.7816,0 1.37079,-0.381009 1.7676,-1.142567 0.39681,-0.765566 0.59376,-1.882471 0.59376,-3.35348 0,-1.639354 -0.23973,-2.832563 -0.72071,-3.578088 -0.39682,-0.617263 -0.93952,-0.925772 -1.62893,-0.925772 z m -0.043,0.896475 c 0.4369,0 0.79191,0.241563 1.06447,0.726555 0.27656,0.484992 0.41407,1.445894 0.41407,2.88083 0,1.418902 -0.13565,2.374149 -0.40821,2.867157 -0.27256,0.493009 -0.61081,0.740227 -1.01564,0.740227 -0.42888,0 -0.78204,-0.243516 -1.0586,-0.728508 -0.27256,-0.489 -0.40821,-1.447949 -0.40821,-2.878876 0,-1.418903 0.1338,-2.376103 0.40235,-2.869111 0.27256,-0.493009 0.60895,-0.738274 1.00977,-0.738274 z"
       transform="scale(0.9999896,1.0000104)" />
    <ellipse
       style="fill:none;fill-opacity:1;stroke:#000000;stroke-width:1.19928;stroke-dasharray:0.755549;stroke-dashoffset:0;stroke-opacity:1"
       id="ellipse1310"
       cx="583.38818"
       cy="-56.239754"
       rx="8.4002981"
       ry="8.4045572" />
  </g>
</svg>
