<?xml version="1.0" encoding="UTF-8" standalone="no"?>
<svg
   version="1.1"
   width="18"
   height="18"
   viewBox="0 0 18 18"
   id="svg1714"
   xmlns="http://www.w3.org/2000/svg"
   xmlns:svg="http://www.w3.org/2000/svg">
  <defs
     id="defs1718">
    <rect
       x="32.567797"
       y="-13.805085"
       width="44.389831"
       height="38.898305"
       id="rect2002" />
    <rect
       x="22.5"
       y="-2.2118644"
       width="28.525424"
       height="24.559322"
       id="rect1996" />
    <rect
       x="40.805085"
       y="-10.525424"
       width="65.898305"
       height="40.652542"
       id="rect1990" />
    <rect
       x="39.661017"
       y="-9.1525424"
       width="44.237288"
       height="35.389831"
       id="rect1984" />
    <rect
       x="21.279661"
       y="-2.8983051"
       width="36.228814"
       height="33.330508"
       id="rect1978" />
    <rect
       x="17.313559"
       y="1.9067797"
       width="18.228814"
       height="14.338983"
       id="rect1972" />
    <rect
       x="22.576271"
       y="-1.4491525"
       width="29.516949"
       height="22.957627"
       id="rect1966" />
  </defs>
  <g
     id="g1783"
     transform="translate(-452.85504,-37.644012)">
    <text
       xml:space="preserve"
       transform="translate(452.85504,37.644012)"
       id="text1964"
       style="white-space:pre;shape-inside:url(#rect1966);display:inline;fill:#000000" />
    <text
       xml:space="preserve"
       transform="translate(452.85504,37.644012)"
       id="text1970"
       style="white-space:pre;shape-inside:url(#rect1972);display:inline;fill:#000000" />
    <text
       xml:space="preserve"
       transform="translate(452.85504,37.644012)"
       id="text1976"
       style="white-space:pre;shape-inside:url(#rect1978);display:inline;fill:#000000" />
    <text
       xml:space="preserve"
       transform="translate(452.85504,37.644012)"
       id="text1982"
       style="white-space:pre;shape-inside:url(#rect1984);display:inline;fill:#000000" />
    <text
       xml:space="preserve"
       transform="translate(452.85504,37.644012)"
       id="text1988"
       style="white-space:pre;shape-inside:url(#rect1990);display:inline;fill:#000000" />
  </g>
  <path
     id="circle941"
     style="fill:#000000;fill-opacity:1;stroke:none;stroke-width:1.04984;stroke-dasharray:none"
     d="M 9.00002,0 A 8.9999995,8.9999997 0 0 0 0,8.999991 8.9999995,8.9999997 0 0 0 9.00002,17.999997 8.9999995,8.9999997 0 0 0 17.99997,8.999991 8.9999995,8.9999997 0 0 0 9.00002,0 Z M 6.31057,4.49999 c 0.73746,0 1.2931,0.24911 1.6699,0.74609 0.38075,0.497 0.57224,1.062061 0.57224,1.695326 0,0.56111 -0.14865,1.100147 -0.44526,1.617186 -0.29668,0.513021 -0.85978,1.196965 -1.68949,2.054679 -0.52911,0.541085 -0.87103,0.911032 -1.02732,1.107427 -0.15236,0.196391 -0.27688,0.39345 -0.37311,0.589845 h 3.54691 v 1.039062 H 3.78516 C 3.77306,12.928765 3.89953,12.458538 4.16408,11.937496 4.43257,11.416459 4.9214,10.801208 5.63087,10.091793 6.46053,9.266141 7.00317,8.62858 7.25974,8.17968 7.51626,7.726784 7.64452,7.304788 7.64452,6.916014 7.64452,6.467121 7.51257,6.102817 7.24807,5.82226 6.98751,5.53769 6.66406,5.39648 6.27927,5.39648 5.86646,5.39648 5.52817,5.5489 5.26373,5.85351 4.99913,6.158122 4.86711,6.594922 4.86711,7.164059 L 3.95312,7.048824 C 4.01782,6.203134 4.25512,5.56742 4.66799,5.14257 5.08479,4.71372 5.63314,4.49999 6.31057,4.49999 Z m 5.55463,0 c 0.68946,0 1.23216,0.30855 1.62893,0.92579 0.48097,0.745488 0.72266,1.938854 0.72266,3.57812 0,1.470939 -0.19892,2.587989 -0.5957,3.353514 -0.39676,0.761522 -0.98599,1.14258 -1.76755,1.14258 -0.68945,0 -1.25449,-0.336417 -1.69528,-1.009764 C 9.72125,11.816885 9.50189,10.655194 9.50189,9.0039 c 0,-1.478953 0.19897,-2.59981 0.59575,-3.36133 0.40081,-0.76152 0.99005,-1.14258 1.76756,-1.14258 z m -0.0435,0.89649 c -0.40084,0 -0.73719,0.2453 -1.00974,0.73828 -0.2686,0.492984 -0.4023,1.450311 -0.4023,2.86914 0,1.43085 0.13557,2.389934 0.40811,2.878908 0.27659,0.484964 0.62979,0.72656 1.05862,0.72656 0.40482,0 0.74311,-0.245297 1.01564,-0.738281 0.27253,-0.492979 0.4101,-1.448354 0.4101,-2.867187 0,-1.434862 -0.13938,-2.395891 -0.41596,-2.88086 C 12.61363,5.63808 12.25857,5.39648 11.8217,5.39648 Z" />
</svg>
