<?xml version="1.0" encoding="UTF-8" standalone="no"?>
<svg
   version="1.1"
   width="18"
   height="18"
   viewBox="0 0 18 18"
   id="svg1714"
   xmlns="http://www.w3.org/2000/svg"
   xmlns:svg="http://www.w3.org/2000/svg">
  <defs
     id="defs1718">
    <rect
       x="32.567797"
       y="-13.805085"
       width="44.389831"
       height="38.898305"
       id="rect2002" />
    <rect
       x="22.5"
       y="-2.2118644"
       width="28.525424"
       height="24.559322"
       id="rect1996" />
    <rect
       x="40.805085"
       y="-10.525424"
       width="65.898305"
       height="40.652542"
       id="rect1990" />
    <rect
       x="39.661017"
       y="-9.1525424"
       width="44.237288"
       height="35.389831"
       id="rect1984" />
    <rect
       x="21.279661"
       y="-2.8983051"
       width="36.228814"
       height="33.330508"
       id="rect1978" />
    <rect
       x="17.313559"
       y="1.9067797"
       width="18.228814"
       height="14.338983"
       id="rect1972" />
    <rect
       x="22.576271"
       y="-1.4491525"
       width="29.516949"
       height="22.957627"
       id="rect1966" />
  </defs>
  <g
     id="g1783"
     transform="translate(-452.85504,-37.644012)">
    <text
       xml:space="preserve"
       transform="translate(452.85504,37.644012)"
       id="text1964"
       style="white-space:pre;shape-inside:url(#rect1966);display:inline;fill:#000000" />
    <text
       xml:space="preserve"
       transform="translate(452.85504,37.644012)"
       id="text1970"
       style="white-space:pre;shape-inside:url(#rect1972);display:inline;fill:#000000" />
    <text
       xml:space="preserve"
       transform="translate(452.85504,37.644012)"
       id="text1976"
       style="white-space:pre;shape-inside:url(#rect1978);display:inline;fill:#000000" />
    <text
       xml:space="preserve"
       transform="translate(452.85504,37.644012)"
       id="text1982"
       style="white-space:pre;shape-inside:url(#rect1984);display:inline;fill:#000000" />
    <text
       xml:space="preserve"
       transform="translate(452.85504,37.644012)"
       id="text1988"
       style="white-space:pre;shape-inside:url(#rect1990);display:inline;fill:#000000" />
    <g
       id="g3056"
       transform="translate(47.439635,-18.839623)">
      <circle
         style="fill:none;fill-opacity:1;stroke:#000000;stroke-width:1.19912;stroke-dasharray:none;stroke-opacity:1"
         id="circle751"
         cx="414.41541"
         cy="65.483635"
         r="8.4004402" />
      <path
         id="text755"
         style="font-stretch:condensed;font-size:12.3128px;font-family:'Arial Narrow';-inkscape-font-specification:'Arial Narrow Condensed';opacity:0.98;fill:#000000;stroke-width:0.307822;paint-order:markers fill stroke"
         d="m 411.7172,60.985472 c -0.67737,0 -1.22376,0.213726 -1.6406,0.64259 -0.41283,0.424855 -0.6507,1.060582 -0.71483,1.906284 l 0.91405,0.113283 c 0,-0.569145 0.13194,-1.005957 0.39648,-1.31057 0.26453,-0.304613 0.60277,-0.45704 1.0156,-0.45704 0.38478,0 0.70821,0.14317 0.96873,0.427743 0.26454,0.280564 0.39648,0.644865 0.39648,1.093769 0,0.388783 -0.12824,0.80883 -0.38476,1.261742 -0.25651,0.448903 -0.7992,1.086481 -1.62887,1.912143 -0.70943,0.709429 -1.20019,1.324688 -1.46873,1.845737 -0.26453,0.521049 -0.39092,0.99324 -0.3789,1.414088 h 4.78117 v -1.041035 h -3.54681 c 0.0962,-0.196395 0.21878,-0.393459 0.37108,-0.589854 0.15632,-0.196395 0.50022,-0.564399 1.02928,-1.105489 0.82967,-0.857726 1.39283,-1.543644 1.68942,-2.056677 0.2966,-0.517041 0.44531,-1.056087 0.44531,-1.617217 0,-0.633275 -0.19149,-1.198342 -0.57226,-1.695343 -0.37676,-0.497 -0.93436,-0.744154 -1.67184,-0.744154 z m 5.55654,0 c -0.77757,0 -1.36674,0.379113 -1.76755,1.140646 -0.3968,0.761533 -0.59569,1.882411 -0.59569,3.361388 0,1.651325 0.21741,2.813035 0.65429,3.486391 0.44088,0.673356 1.00784,1.011737 1.69723,1.011737 0.78157,0 1.37075,-0.381066 1.76755,-1.142599 0.3968,-0.765541 0.59374,-1.884567 0.59374,-3.355529 0,-1.6393 -0.23973,-2.830735 -0.72069,-3.576236 -0.3968,-0.617243 -0.93949,-0.925798 -1.62888,-0.925798 z m -0.043,0.894547 c 0.43688,0 0.79189,0.243553 1.06444,0.728529 0.27655,0.484977 0.41405,1.44407 0.41405,2.878958 0,1.418857 -0.13565,2.374247 -0.4082,2.867239 -0.27254,0.492993 -0.61079,0.740248 -1.0156,0.740248 -0.42887,0 -0.78202,-0.241599 -1.05858,-0.726576 -0.27255,-0.488984 -0.40819,-1.45003 -0.40819,-2.880911 0,-1.418856 0.13379,-2.374246 0.40233,-2.867239 0.27255,-0.492992 0.60894,-0.740248 1.00975,-0.740248 z"
         transform="scale(1.000018,0.99998201)" />
    </g>
  </g>
</svg>
