<?xml version="1.0" encoding="UTF-8" standalone="no"?>
<svg
   version="1.1"
   width="18"
   height="18"
   viewBox="0 0 18 18"
   id="svg1714"
   xmlns="http://www.w3.org/2000/svg"
   xmlns:svg="http://www.w3.org/2000/svg">
  <defs
     id="defs1718">
    <rect
       x="32.567797"
       y="-13.805085"
       width="44.389831"
       height="38.898305"
       id="rect2002" />
    <rect
       x="22.5"
       y="-2.2118644"
       width="28.525424"
       height="24.559322"
       id="rect1996" />
    <rect
       x="40.805085"
       y="-10.525424"
       width="65.898305"
       height="40.652542"
       id="rect1990" />
    <rect
       x="39.661017"
       y="-9.1525424"
       width="44.237288"
       height="35.389831"
       id="rect1984" />
    <rect
       x="21.279661"
       y="-2.8983051"
       width="36.228814"
       height="33.330508"
       id="rect1978" />
    <rect
       x="17.313559"
       y="1.9067797"
       width="18.228814"
       height="14.338983"
       id="rect1972" />
    <rect
       x="22.576271"
       y="-1.4491525"
       width="29.516949"
       height="22.957627"
       id="rect1966" />
  </defs>
  <g
     id="g1783"
     transform="translate(-452.85504,-37.644012)">
    <text
       xml:space="preserve"
       transform="translate(452.85504,37.644012)"
       id="text1964"
       style="white-space:pre;shape-inside:url(#rect1966);display:inline;fill:#000000" />
    <text
       xml:space="preserve"
       transform="translate(452.85504,37.644012)"
       id="text1970"
       style="white-space:pre;shape-inside:url(#rect1972);display:inline;fill:#000000" />
    <text
       xml:space="preserve"
       transform="translate(452.85504,37.644012)"
       id="text1976"
       style="white-space:pre;shape-inside:url(#rect1978);display:inline;fill:#000000" />
    <text
       xml:space="preserve"
       transform="translate(452.85504,37.644012)"
       id="text1982"
       style="white-space:pre;shape-inside:url(#rect1984);display:inline;fill:#000000" />
    <text
       xml:space="preserve"
       transform="translate(452.85504,37.644012)"
       id="text1988"
       style="white-space:pre;shape-inside:url(#rect1990);display:inline;fill:#000000" />
  </g>
  <g
     id="g11623">
    <rect
       style="opacity:0.98;fill:none;stroke:#000000;stroke-width:1.19939;stroke-dasharray:none;stroke-opacity:1;paint-order:markers fill stroke"
       id="rect2863"
       width="16.800611"
       height="16.800611"
       x="0.59969503"
       y="0.59969503"
       rx="2.1544993"
       ry="2.1544993" />
    <path
       id="text2867"
       style="font-stretch:condensed;font-size:12.3128px;font-family:'Arial Narrow';-inkscape-font-specification:'Arial Narrow Condensed';opacity:0.98;fill:#000000;stroke-width:0.307822;paint-order:markers fill stroke"
       d="m 6.3102052,4.500401 c -0.6773637,0 -1.2257094,0.2137263 -1.6425486,0.6425896 C 4.2548255,5.567846 4.0169548,6.2035724 3.9528257,7.0492749 l 0.9140461,0.1132833 c 0,-0.5691458 0.1319447,-1.0059572 0.3964772,-1.3105704 0.2645326,-0.3046133 0.6027756,-0.4570395 1.0156067,-0.4570395 0.3847747,0 0.7082081,0.1431692 0.9687326,0.4277421 0.2645325,0.2805648 0.3964772,0.6448659 0.3964772,1.0937697 0,0.3887826 -0.1282423,0.8107828 -0.3847587,1.2636946 C 7.0028904,8.6290584 6.4602002,9.2666362 5.6305299,10.092298 4.9211017,10.801727 4.4323001,11.416986 4.1637594,11.938035 3.8992269,12.459084 3.7728358,12.929322 3.78486,13.35017 H 8.5640708 V 12.309135 H 5.0172597 C 5.1134533,12.11274 5.2379932,11.917629 5.3902998,11.721234 5.5466145,11.524839 5.88856,11.154882 6.4176251,10.613792 7.2472954,9.7560654 7.8104507,9.0721006 8.1070478,8.5590677 8.4036449,8.0420268 8.5523523,7.5029808 8.5523523,6.9418511 8.5523523,6.3085762 8.3628166,5.7435087 7.9820501,5.2465081 7.6052916,4.7495076 7.0476899,4.500401 6.3102052,4.500401 Z m 5.5545878,0 c -0.777566,0 -1.36674,0.3810655 -1.767547,1.1425986 -0.3967985,0.7615332 -0.595692,1.880458 -0.595692,3.3594355 0,1.6513249 0.2193586,2.8149879 0.656238,3.4883439 0.440888,0.673356 1.005894,1.009784 1.695282,1.009784 0.781574,0 1.370748,-0.381066 1.767546,-1.142599 0.396799,-0.765541 0.595693,-1.884568 0.595693,-3.3555289 0,-1.6393003 -0.241675,-2.8307354 -0.722643,-3.5762362 C 13.096871,4.8089562 12.554181,4.500401 11.864793,4.500401 Z m -0.04101,0.8945473 c 0.436879,0 0.789932,0.2435524 1.062481,0.7285287 0.276556,0.4849764 0.416008,1.4440694 0.416008,2.8789581 0,1.4188569 -0.1376,2.3761999 -0.410149,2.8691919 -0.272549,0.492993 -0.610792,0.738295 -1.015607,0.738295 -0.428863,0 -0.782018,-0.241599 -1.058574,-0.726576 -0.272549,-0.488984 -0.408196,-1.45003 -0.408196,-2.8809109 0,-1.4188565 0.133796,-2.3742466 0.402336,-2.8672391 0.272549,-0.4929925 0.610894,-0.7402477 1.011701,-0.7402477 z"
       transform="scale(1.000018,0.99998201)" />
  </g>
</svg>
