<?xml version="1.0" encoding="UTF-8" standalone="no"?>
<svg
   version="1.1"
   width="18"
   height="18"
   viewBox="0 0 18 18"
   id="svg1714"
   xmlns="http://www.w3.org/2000/svg"
   xmlns:svg="http://www.w3.org/2000/svg">
  <defs
     id="defs1718">
    <rect
       x="32.567797"
       y="-13.805085"
       width="44.389831"
       height="38.898305"
       id="rect2002" />
    <rect
       x="22.5"
       y="-2.2118644"
       width="28.525424"
       height="24.559322"
       id="rect1996" />
    <rect
       x="40.805085"
       y="-10.525424"
       width="65.898305"
       height="40.652542"
       id="rect1990" />
    <rect
       x="39.661017"
       y="-9.1525424"
       width="44.237288"
       height="35.389831"
       id="rect1984" />
    <rect
       x="21.279661"
       y="-2.8983051"
       width="36.228814"
       height="33.330508"
       id="rect1978" />
    <rect
       x="17.313559"
       y="1.9067797"
       width="18.228814"
       height="14.338983"
       id="rect1972" />
    <rect
       x="22.576271"
       y="-1.4491525"
       width="29.516949"
       height="22.957627"
       id="rect1966" />
  </defs>
  <g
     id="g1783"
     transform="translate(-452.85504,-37.644012)">
    <text
       xml:space="preserve"
       transform="translate(452.85504,37.644012)"
       id="text1964"
       style="white-space:pre;shape-inside:url(#rect1966);display:inline;fill:#000000" />
    <text
       xml:space="preserve"
       transform="translate(452.85504,37.644012)"
       id="text1970"
       style="white-space:pre;shape-inside:url(#rect1972);display:inline;fill:#000000" />
    <text
       xml:space="preserve"
       transform="translate(452.85504,37.644012)"
       id="text1976"
       style="white-space:pre;shape-inside:url(#rect1978);display:inline;fill:#000000" />
    <text
       xml:space="preserve"
       transform="translate(452.85504,37.644012)"
       id="text1982"
       style="white-space:pre;shape-inside:url(#rect1984);display:inline;fill:#000000" />
    <text
       xml:space="preserve"
       transform="translate(452.85504,37.644012)"
       id="text1988"
       style="white-space:pre;shape-inside:url(#rect1990);display:inline;fill:#000000" />
  </g>
  <path
     id="rect3748"
     style="opacity:0.98;fill:#000000;fill-opacity:1;stroke:none;stroke-width:1.28507;stroke-dasharray:none;stroke-opacity:1;paint-order:markers fill stroke"
     d="M 2.30863,0 C 1.02979,0 0,1.02978 0,2.3086 v 13.38274 c 0,1.27884 1.02979,2.30862 2.30863,2.30862 H 15.6914 c 1.27883,0 2.30856,-1.02978 2.30856,-2.30862 V 2.3086 C 17.99996,1.02978 16.97023,0 15.6914,0 Z m 4.00199,4.49989 c 0.73742,0 1.29309,0.24921 1.66985,0.74618 0.38075,0.49699 0.57231,1.06197 0.57231,1.69536 0,0.56109 -0.14873,1.10008 -0.4454,1.61712 -0.29649,0.51302 -0.85971,1.19701 -1.68936,2.05471 -0.52912,0.54107 -0.87103,0.91098 -1.02737,1.10743 -0.15237,0.19632 -0.27683,0.39336 -0.373,0.58989 h 3.54682 v 1.03905 H 3.78516 C 3.77306,12.92874 3.89959,12.45851 4.16402,11.93747 4.43262,11.41641 4.92144,10.80113 5.63086,10.09176 6.46052,9.26605 7.00328,8.62848 7.25979,8.17964 7.51636,7.72675 7.64457,7.30475 7.64457,6.91599 7.64457,6.46709 7.51263,6.10277 7.24807,5.82219 6.98756,5.53769 6.66406,5.39638 6.27926,5.39638 5.86646,5.39638 5.52823,5.54884 5.26368,5.8535 4.99918,6.15806 4.86722,6.59486 4.86722,7.16406 L 3.95318,7.04882 C 4.01798,6.20309 4.25512,5.56739 4.66804,5.14258 5.08483,4.71369 5.63319,4.49989 6.31062,4.49989 Z m 5.55457,0 c 0.68952,0 1.23217,0.30865 1.62894,0.92586 0.48103,0.7455 0.72271,1.93886 0.72271,3.57814 0,1.4709 -0.19892,2.58796 -0.59574,3.35347 -0.39678,0.76147 -0.986,1.14256 -1.76757,1.14256 -0.6894,0 -1.25443,-0.33639 -1.69529,-1.00973 C 9.72137,11.81691 9.502,10.6551 9.502,9.00389 c 0,-1.47895 0.19886,-2.59983 0.5957,-3.36131 0.40076,-0.76152 0.98998,-1.14269 1.76749,-1.14269 z m -0.0435,0.89649 c -0.40081,0 -0.73723,0.24539 -1.00977,0.73839 -0.26856,0.49298 -0.40238,1.45023 -0.40238,2.86912 0,1.43081 0.1357,2.3899 0.40823,2.87889 0.27659,0.48497 0.62968,0.72652 1.05861,0.72652 0.40488,0 0.74307,-0.24519 1.0156,-0.73818 0.2726,-0.49298 0.41014,-1.44846 0.41014,-2.86723 0,-1.43494 -0.13942,-2.39592 -0.41595,-2.88085 C 12.61358,5.63805 12.25858,5.39638 11.82169,5.39638 Z" />
</svg>
