<?xml version="1.0" encoding="UTF-8" standalone="no"?>
<svg
   version="1.1"
   width="18"
   height="18"
   viewBox="0 0 18 18"
   id="svg1714"
   xmlns="http://www.w3.org/2000/svg"
   xmlns:svg="http://www.w3.org/2000/svg">
  <defs
     id="defs1718">
    <rect
       x="32.567797"
       y="-13.805085"
       width="44.389831"
       height="38.898305"
       id="rect2002" />
    <rect
       x="22.5"
       y="-2.2118644"
       width="28.525424"
       height="24.559322"
       id="rect1996" />
    <rect
       x="40.805085"
       y="-10.525424"
       width="65.898305"
       height="40.652542"
       id="rect1990" />
    <rect
       x="39.661017"
       y="-9.1525424"
       width="44.237288"
       height="35.389831"
       id="rect1984" />
    <rect
       x="21.279661"
       y="-2.8983051"
       width="36.228814"
       height="33.330508"
       id="rect1978" />
    <rect
       x="17.313559"
       y="1.9067797"
       width="18.228814"
       height="14.338983"
       id="rect1972" />
    <rect
       x="22.576271"
       y="-1.4491525"
       width="29.516949"
       height="22.957627"
       id="rect1966" />
  </defs>
  <g
     id="g1783"
     transform="translate(-452.85504,-37.644012)">
    <text
       xml:space="preserve"
       transform="translate(452.85504,37.644012)"
       id="text1964"
       style="white-space:pre;shape-inside:url(#rect1966);display:inline;fill:#000000" />
    <text
       xml:space="preserve"
       transform="translate(452.85504,37.644012)"
       id="text1970"
       style="white-space:pre;shape-inside:url(#rect1972);display:inline;fill:#000000" />
    <text
       xml:space="preserve"
       transform="translate(452.85504,37.644012)"
       id="text1976"
       style="white-space:pre;shape-inside:url(#rect1978);display:inline;fill:#000000" />
    <text
       xml:space="preserve"
       transform="translate(452.85504,37.644012)"
       id="text1982"
       style="white-space:pre;shape-inside:url(#rect1984);display:inline;fill:#000000" />
    <text
       xml:space="preserve"
       transform="translate(452.85504,37.644012)"
       id="text1988"
       style="white-space:pre;shape-inside:url(#rect1990);display:inline;fill:#000000" />
  </g>
  <g
     id="g9434">
    <path
       id="text1304"
       style="font-stretch:condensed;font-size:12.3132px;font-family:'Arial Narrow';-inkscape-font-specification:'Arial Narrow Condensed';opacity:0.98;fill:#000000;stroke-width:0.307814;paint-order:markers fill stroke"
       d="m 6.3107869,4.4998126 c -0.6773856,0 -1.2257425,0.2136941 -1.6425952,0.6425714 -0.4128445,0.4248691 -0.65072,1.0605002 -0.7148512,1.9062302 l 0.914072,0.1152332 c 0,-0.5691643 0.1319474,-1.0059101 0.3964885,-1.3105333 0.2645412,-0.3046231 0.6027911,-0.4570265 1.0156356,-0.4570265 0.3847871,0 0.7082272,0.1411947 0.9687601,0.4257769 0.2645411,0.2805739 0.3964885,0.6467734 0.3964885,1.0956917 0,0.3887953 -0.1282449,0.8087791 -0.3847696,1.2617056 C 7.0034908,8.6283801 6.4607896,9.2658623 5.6310924,10.091551 4.9216411,10.801003 4.4328296,11.416169 4.1642802,11.937235 3.8997391,12.458301 3.7733454,12.928469 3.78537,13.34933 H 8.5647167 V 12.310278 H 5.0178047 C 5.1140015,12.113876 5.2385439,11.916842 5.3908555,11.720441 5.5471753,11.524039 5.8891277,11.15609 6.4182099,10.614983 7.2479072,9.7572287 7.8110739,9.0714136 8.1076807,8.5583641 8.4042874,8.0413064 8.5529978,7.5023413 8.5529978,6.9411934 8.5529978,6.307898 8.3615051,5.7429153 7.9807262,5.2458986 7.6039555,4.7488819 7.0482956,4.4998126 6.3107869,4.4998126 Z m 5.5547451,0 c -0.77759,0 -1.366776,0.3810084 -1.767596,1.1425662 -0.396812,0.7615579 -0.5957096,1.8822677 -0.5957096,3.3612932 0,1.651378 0.2193631,2.812914 0.6562566,3.486292 0.440902,0.673377 1.00592,1.009755 1.69533,1.009755 0.781599,0 1.370785,-0.381008 1.767597,-1.142566 0.396812,-0.765566 0.595709,-1.882472 0.595709,-3.353481 0,-1.6393535 -0.24168,-2.8325628 -0.722664,-3.5780878 C 13.097644,4.8083215 12.554943,4.4998126 11.865532,4.4998126 Z m -0.04297,0.896475 c 0.436894,0 0.791907,0.2415629 1.064464,0.726555 0.276566,0.4849921 0.41602,1.4458941 0.41602,2.8808294 0,1.418902 -0.137603,2.374149 -0.41016,2.867158 -0.272558,0.493008 -0.610808,0.740226 -1.015636,0.740226 -0.428877,0 -0.782039,-0.243516 -1.058605,-0.728508 -0.272557,-0.489 -0.408207,-1.447949 -0.408207,-2.878876 0,-1.4189025 0.133799,-2.3761023 0.402348,-2.8691108 0.272557,-0.4930085 0.608956,-0.7382736 1.009776,-0.7382736 z"
       transform="scale(0.99998959,1.0000104)" />
    <rect
       style="opacity:0.98;fill:none;stroke:#000000;stroke-width:1.19939;stroke-dasharray:0.755616;stroke-dashoffset:0;stroke-opacity:1;paint-order:markers fill stroke"
       id="rect1317"
       width="16.800611"
       height="16.800611"
       x="0.59969503"
       y="0.59969503"
       rx="2.1544993"
       ry="2.1544993" />
  </g>
</svg>
