<?xml version="1.0" encoding="UTF-8" standalone="no"?>
<svg
   version="1.1"
   width="18"
   height="18"
   viewBox="0 0 18 18"
   id="svg1714"
   xmlns="http://www.w3.org/2000/svg"
   xmlns:svg="http://www.w3.org/2000/svg">
  <defs
     id="defs1718">
    <rect
       x="32.567797"
       y="-13.805085"
       width="44.389831"
       height="38.898305"
       id="rect2002" />
    <rect
       x="22.5"
       y="-2.2118644"
       width="28.525424"
       height="24.559322"
       id="rect1996" />
    <rect
       x="40.805085"
       y="-10.525424"
       width="65.898305"
       height="40.652542"
       id="rect1990" />
    <rect
       x="39.661017"
       y="-9.1525424"
       width="44.237288"
       height="35.389831"
       id="rect1984" />
    <rect
       x="21.279661"
       y="-2.8983051"
       width="36.228814"
       height="33.330508"
       id="rect1978" />
    <rect
       x="17.313559"
       y="1.9067797"
       width="18.228814"
       height="14.338983"
       id="rect1972" />
    <rect
       x="22.576271"
       y="-1.4491525"
       width="29.516949"
       height="22.957627"
       id="rect1966" />
  </defs>
  <g
     id="g1783"
     transform="translate(-452.85504,-37.644012)">
    <text
       xml:space="preserve"
       transform="translate(452.85504,37.644012)"
       id="text1964"
       style="white-space:pre;shape-inside:url(#rect1966);display:inline;fill:#000000" />
    <text
       xml:space="preserve"
       transform="translate(452.85504,37.644012)"
       id="text1970"
       style="white-space:pre;shape-inside:url(#rect1972);display:inline;fill:#000000" />
    <text
       xml:space="preserve"
       transform="translate(452.85504,37.644012)"
       id="text1976"
       style="white-space:pre;shape-inside:url(#rect1978);display:inline;fill:#000000" />
    <text
       xml:space="preserve"
       transform="translate(452.85504,37.644012)"
       id="text1982"
       style="white-space:pre;shape-inside:url(#rect1984);display:inline;fill:#000000" />
    <text
       xml:space="preserve"
       transform="translate(452.85504,37.644012)"
       id="text1988"
       style="white-space:pre;shape-inside:url(#rect1990);display:inline;fill:#000000" />
  </g>
  <path
     id="circle948"
     style="fill:#000000;fill-opacity:1;stroke:none;stroke-width:1.04984;stroke-dasharray:none"
     d="M 9.00003,0 A 8.9999995,8.9999997 0 0 0 0,8.999991 8.9999995,8.9999997 0 0 0 9.00003,17.999997 8.9999995,8.9999997 0 0 0 18.00005,8.999991 8.9999995,8.9999997 0 0 0 9.00003,0 Z M 6.27156,4.49999 c 0.73746,0 1.29311,0.24911 1.66985,0.7461 0.3808,0.49699 0.57236,1.062052 0.57236,1.695316 0,0.56111 -0.14873,1.100147 -0.44539,1.617187 -0.29661,0.51302 -0.85977,1.196965 -1.68936,2.054678 -0.5291,0.541085 -0.87109,0.911032 -1.02739,1.107427 -0.15234,0.196391 -0.27687,0.39345 -0.3731,0.589845 h 3.54692 v 1.039062 H 3.74618 C 3.73398,12.928765 3.86059,12.458537 4.12502,11.937496 4.39356,11.41646 4.8824,10.801208 5.59186,10.091793 6.42145,9.266142 6.96423,8.62858 7.22081,8.17968 7.4773,7.726785 7.60548,7.304788 7.60548,6.916015 7.60548,6.467121 7.47363,6.102817 7.20902,5.82226 6.94845,5.53769 6.62505,5.39648 6.24027,5.39648 5.82748,5.39648 5.48917,5.5489 5.22468,5.85351 4.96013,6.158122 4.82817,6.594923 4.82817,7.164059 L 3.91416,7.048824 C 3.97906,6.203135 4.21613,5.56742 4.62899,5.14257 5.04577,4.71372 5.59415,4.49999 6.27156,4.49999 Z m 4.05082,0.15625 h 3.58975 V 5.68945 H 11.03331 L 10.6426,8.058593 c 0.42888,-0.368738 0.88238,-0.552737 1.36328,-0.552737 0.60519,0 1.13124,0.258359 1.57621,0.77539 0.44891,0.513022 0.67377,1.206332 0.67377,2.080072 0,0.86172 -0.22486,1.601518 -0.67377,2.218756 -0.44497,0.613221 -1.04536,0.91992 -1.79885,0.91992 -0.62521,0 -1.15304,-0.215571 -1.58591,-0.648437 C 9.76845,12.414689 9.523,11.810553 9.46295,11.041013 l 0.93164,-0.0957 c 0.0726,0.561119 0.23578,0.979302 0.48829,1.255862 0.25652,0.27254 0.55199,0.408197 0.88863,0.408197 0.42085,0 0.78328,-0.191401 1.08794,-0.576172 0.30459,-0.388774 0.45699,-0.91855 0.45699,-1.587893 0,-0.629255 -0.14668,-1.116244 -0.44335,-1.460927 -0.29257,-0.348699 -0.66254,-0.521498 -1.10737,-0.521498 -0.26862,0 -0.52142,0.0743 -0.75785,0.226567 -0.23249,0.148301 -0.41644,0.358421 -0.55279,0.626957 l -0.8359,-0.13281 z" />
</svg>
