<?xml version="1.0" encoding="UTF-8" standalone="no"?>
<svg
   version="1.1"
   width="18"
   height="18"
   viewBox="0 0 18 18"
   id="svg1714"
   xmlns="http://www.w3.org/2000/svg"
   xmlns:svg="http://www.w3.org/2000/svg">
  <defs
     id="defs1718">
    <rect
       x="32.567797"
       y="-13.805085"
       width="44.389831"
       height="38.898305"
       id="rect2002" />
    <rect
       x="22.5"
       y="-2.2118644"
       width="28.525424"
       height="24.559322"
       id="rect1996" />
    <rect
       x="40.805085"
       y="-10.525424"
       width="65.898305"
       height="40.652542"
       id="rect1990" />
    <rect
       x="39.661017"
       y="-9.1525424"
       width="44.237288"
       height="35.389831"
       id="rect1984" />
    <rect
       x="21.279661"
       y="-2.8983051"
       width="36.228814"
       height="33.330508"
       id="rect1978" />
    <rect
       x="17.313559"
       y="1.9067797"
       width="18.228814"
       height="14.338983"
       id="rect1972" />
    <rect
       x="22.576271"
       y="-1.4491525"
       width="29.516949"
       height="22.957627"
       id="rect1966" />
  </defs>
  <g
     id="g1783"
     transform="translate(-452.85504,-37.644012)">
    <text
       xml:space="preserve"
       transform="translate(452.85504,37.644012)"
       id="text1964"
       style="white-space:pre;shape-inside:url(#rect1966);display:inline;fill:#000000" />
    <text
       xml:space="preserve"
       transform="translate(452.85504,37.644012)"
       id="text1970"
       style="white-space:pre;shape-inside:url(#rect1972);display:inline;fill:#000000" />
    <text
       xml:space="preserve"
       transform="translate(452.85504,37.644012)"
       id="text1976"
       style="white-space:pre;shape-inside:url(#rect1978);display:inline;fill:#000000" />
    <text
       xml:space="preserve"
       transform="translate(452.85504,37.644012)"
       id="text1982"
       style="white-space:pre;shape-inside:url(#rect1984);display:inline;fill:#000000" />
    <text
       xml:space="preserve"
       transform="translate(452.85504,37.644012)"
       id="text1988"
       style="white-space:pre;shape-inside:url(#rect1990);display:inline;fill:#000000" />
    <g
       id="g3136"
       transform="translate(-42.201875,5.9735372)">
      <circle
         style="fill:none;fill-opacity:1;stroke:#000000;stroke-width:1.19912;stroke-dasharray:none;stroke-opacity:1"
         id="circle762"
         cx="504.05692"
         cy="40.670475"
         r="8.4004402" />
      <path
         id="text766"
         style="font-stretch:condensed;font-size:12.3127px;font-family:'Arial Narrow';-inkscape-font-specification:'Arial Narrow Condensed';opacity:0.98;fill:#000000;stroke-width:0.307819;paint-order:markers fill stroke"
         d="m 501.32291,36.170298 c -0.67736,0 -1.22572,0.215678 -1.64256,0.644538 -0.41283,0.424852 -0.65071,1.058621 -0.71484,1.904317 l 0.91406,0.115235 c 0,-0.569141 0.13195,-1.005949 0.39648,-1.31056 0.26453,-0.304611 0.60278,-0.457036 1.01561,-0.457036 0.38477,0 0.70822,0.141215 0.96874,0.425785 0.26453,0.280563 0.39648,0.646815 0.39648,1.095715 0,0.388779 -0.12825,0.808824 -0.38476,1.261732 -0.25651,0.4489 -0.79923,1.086474 -1.62889,1.912129 -0.70942,0.709423 -1.19824,1.324678 -1.46678,1.845722 -0.26453,0.521045 -0.39093,0.991281 -0.3789,1.412124 h 4.77924 v -1.039073 h -3.54683 c 0.0962,-0.196394 0.22073,-0.393456 0.37304,-0.58985 0.15631,-0.196394 0.49827,-0.564395 1.02733,-1.10548 0.82967,-0.85772 1.39284,-1.543633 1.68944,-2.056662 0.29659,-0.517037 0.44531,-1.056079 0.44531,-1.617204 0,-0.63327 -0.18955,-1.198334 -0.57031,-1.69533 -0.37676,-0.496997 -0.93438,-0.746102 -1.67186,-0.746102 z m 4.05269,0.156252 -0.70507,4.527391 0.83593,0.132813 c 0.13627,-0.268538 0.32026,-0.476709 0.55273,-0.625006 0.23647,-0.152305 0.48927,-0.228518 0.7578,-0.228518 0.4449,0 0.81483,0.174744 1.10742,0.523443 0.29659,0.344691 0.44335,0.831691 0.44335,1.460953 0,0.669342 -0.15046,1.197174 -0.45507,1.585954 -0.30461,0.384771 -0.66899,0.578131 -1.08984,0.578131 -0.33667,0 -0.63214,-0.137615 -0.88866,-0.410161 -0.2525,-0.276555 -0.41613,-0.694747 -0.48827,-1.255872 l -0.93164,0.0957 c 0.0601,0.769543 0.30551,1.373689 0.73437,1.810565 0.43287,0.432868 0.96262,0.648445 1.58788,0.648445 0.75351,0 1.35196,-0.306702 1.79685,-0.919932 0.4489,-0.617237 0.67382,-1.357045 0.67382,-2.218773 0,-0.873752 -0.22492,-1.567071 -0.67382,-2.0801 -0.44489,-0.517036 -0.97094,-0.775398 -1.57615,-0.775398 -0.48097,0 -0.93441,0.185954 -1.36327,0.554693 l 0.39062,-2.369165 h 2.87888 V 36.32655 Z"
         transform="scale(1.0000104,0.9999896)" />
    </g>
  </g>
</svg>
