<?xml version="1.0" encoding="UTF-8" standalone="no"?>
<svg
   version="1.1"
   width="18"
   height="18"
   viewBox="0 0 18 18"
   id="svg1714"
   xmlns="http://www.w3.org/2000/svg"
   xmlns:svg="http://www.w3.org/2000/svg">
  <defs
     id="defs1718">
    <rect
       x="32.567797"
       y="-13.805085"
       width="44.389831"
       height="38.898305"
       id="rect2002" />
    <rect
       x="22.5"
       y="-2.2118644"
       width="28.525424"
       height="24.559322"
       id="rect1996" />
    <rect
       x="40.805085"
       y="-10.525424"
       width="65.898305"
       height="40.652542"
       id="rect1990" />
    <rect
       x="39.661017"
       y="-9.1525424"
       width="44.237288"
       height="35.389831"
       id="rect1984" />
    <rect
       x="21.279661"
       y="-2.8983051"
       width="36.228814"
       height="33.330508"
       id="rect1978" />
    <rect
       x="17.313559"
       y="1.9067797"
       width="18.228814"
       height="14.338983"
       id="rect1972" />
    <rect
       x="22.576271"
       y="-1.4491525"
       width="29.516949"
       height="22.957627"
       id="rect1966" />
  </defs>
  <g
     id="g1783"
     transform="translate(-452.85504,-37.644012)">
    <text
       xml:space="preserve"
       transform="translate(452.85504,37.644012)"
       id="text1964"
       style="white-space:pre;shape-inside:url(#rect1966);display:inline;fill:#000000" />
    <text
       xml:space="preserve"
       transform="translate(452.85504,37.644012)"
       id="text1970"
       style="white-space:pre;shape-inside:url(#rect1972);display:inline;fill:#000000" />
    <text
       xml:space="preserve"
       transform="translate(452.85504,37.644012)"
       id="text1976"
       style="white-space:pre;shape-inside:url(#rect1978);display:inline;fill:#000000" />
    <text
       xml:space="preserve"
       transform="translate(452.85504,37.644012)"
       id="text1982"
       style="white-space:pre;shape-inside:url(#rect1984);display:inline;fill:#000000" />
    <text
       xml:space="preserve"
       transform="translate(452.85504,37.644012)"
       id="text1988"
       style="white-space:pre;shape-inside:url(#rect1990);display:inline;fill:#000000" />
  </g>
  <g
     id="g7312"
     transform="translate(-593.7281,65.243999)">
    <path
       id="text1354"
       style="font-stretch:condensed;font-size:12.3131px;font-family:'Arial Narrow';-inkscape-font-specification:'Arial Narrow Condensed';opacity:0.98;fill:#000000;stroke-width:0.307811;paint-order:markers fill stroke"
       d="m 600.00884,-60.743047 c -0.67738,0 -1.2238,0.213692 -1.64065,0.642566 -0.41284,0.424866 -0.65073,1.060493 -0.71486,1.906216 l 0.91408,0.115232 c 0,-0.569159 0.13195,-1.005902 0.39649,-1.310523 0.26454,-0.304621 0.6028,-0.457023 1.01564,-0.457023 0.38479,0 0.70824,0.141194 0.96877,0.425774 0.26454,0.280571 0.39649,0.646768 0.39649,1.095683 0,0.388792 -0.12825,0.808773 -0.38477,1.261696 -0.25652,0.448915 -0.79925,1.086393 -1.62894,1.912075 -0.70944,0.709445 -1.19827,1.324608 -1.46682,1.84567 -0.26454,0.521062 -0.39094,0.991226 -0.37891,1.412084 h 4.77938 v -1.039044 h -3.54694 c 0.0962,-0.1964 0.22075,-0.393433 0.37306,-0.589833 0.15631,-0.1964 0.49828,-0.564346 1.02736,-1.105449 0.82969,-0.857748 1.39288,-1.543558 1.68948,-2.056604 0.29661,-0.517053 0.44532,-1.056015 0.44532,-1.617158 0,-0.63329 -0.1915,-1.198269 -0.57227,-1.695282 -0.37677,-0.497013 -0.93441,-0.74608 -1.67191,-0.74608 z m 4.05281,0.156247 -0.70314,4.527262 0.83595,0.13281 c 0.13628,-0.268547 0.32027,-0.476686 0.55275,-0.624988 0.23648,-0.152311 0.48928,-0.228512 0.75782,-0.228512 0.44491,0 0.8129,0.174718 1.10549,0.523428 0.29661,0.344702 0.44532,0.831629 0.44532,1.460911 0,0.669364 -0.15242,1.197117 -0.45704,1.585909 -0.30462,0.384784 -0.66705,0.578115 -1.08791,0.578115 -0.33668,0 -0.63412,-0.137594 -0.89064,-0.410149 -0.25251,-0.276563 -0.41419,-0.694693 -0.48633,-1.255837 l -0.93166,0.0957 c 0.0601,0.769568 0.30551,1.373624 0.73439,1.810514 0.43288,0.432882 0.96069,0.648426 1.58596,0.648426 0.75354,0 1.35396,-0.306656 1.79886,-0.919906 0.44892,-0.617257 0.67189,-1.356954 0.67189,-2.21871 0,-0.87378 -0.22297,-1.566995 -0.67189,-2.08004 -0.4449,-0.517054 -0.97096,-0.775377 -1.5762,-0.775377 -0.48098,0 -0.93638,0.183973 -1.36526,0.552724 l 0.39064,-2.367144 h 2.88091 V -60.5868 Z"
       transform="scale(0.99998201,1.000018)" />
    <ellipse
       style="fill:none;fill-opacity:1;stroke:#000000;stroke-width:1.19928;stroke-dasharray:0.755549;stroke-dashoffset:0;stroke-opacity:1"
       id="ellipse1356"
       cx="602.72809"
       cy="-56.239754"
       rx="8.4002981"
       ry="8.4045572" />
  </g>
</svg>
