<?xml version="1.0" encoding="UTF-8" standalone="no"?>
<svg
   version="1.1"
   width="18"
   height="18"
   viewBox="0 0 18 18"
   id="svg1714"
   xmlns="http://www.w3.org/2000/svg"
   xmlns:svg="http://www.w3.org/2000/svg">
  <defs
     id="defs1718">
    <rect
       x="32.567797"
       y="-13.805085"
       width="44.389831"
       height="38.898305"
       id="rect2002" />
    <rect
       x="22.5"
       y="-2.2118644"
       width="28.525424"
       height="24.559322"
       id="rect1996" />
    <rect
       x="40.805085"
       y="-10.525424"
       width="65.898305"
       height="40.652542"
       id="rect1990" />
    <rect
       x="39.661017"
       y="-9.1525424"
       width="44.237288"
       height="35.389831"
       id="rect1984" />
    <rect
       x="21.279661"
       y="-2.8983051"
       width="36.228814"
       height="33.330508"
       id="rect1978" />
    <rect
       x="17.313559"
       y="1.9067797"
       width="18.228814"
       height="14.338983"
       id="rect1972" />
    <rect
       x="22.576271"
       y="-1.4491525"
       width="29.516949"
       height="22.957627"
       id="rect1966" />
  </defs>
  <g
     id="g1783"
     transform="translate(-452.85504,-37.644012)">
    <text
       xml:space="preserve"
       transform="translate(452.85504,37.644012)"
       id="text1964"
       style="white-space:pre;shape-inside:url(#rect1966);display:inline;fill:#000000" />
    <text
       xml:space="preserve"
       transform="translate(452.85504,37.644012)"
       id="text1970"
       style="white-space:pre;shape-inside:url(#rect1972);display:inline;fill:#000000" />
    <text
       xml:space="preserve"
       transform="translate(452.85504,37.644012)"
       id="text1976"
       style="white-space:pre;shape-inside:url(#rect1978);display:inline;fill:#000000" />
    <text
       xml:space="preserve"
       transform="translate(452.85504,37.644012)"
       id="text1982"
       style="white-space:pre;shape-inside:url(#rect1984);display:inline;fill:#000000" />
    <text
       xml:space="preserve"
       transform="translate(452.85504,37.644012)"
       id="text1988"
       style="white-space:pre;shape-inside:url(#rect1990);display:inline;fill:#000000" />
  </g>
  <g
     id="g9511">
    <path
       id="text1350"
       style="font-stretch:condensed;font-size:12.3131px;font-family:'Arial Narrow';-inkscape-font-specification:'Arial Narrow Condensed';opacity:0.98;fill:#000000;stroke-width:0.307811;paint-order:markers fill stroke"
       d="m 6.2707503,4.4997784 c -0.6773801,0 -1.2238052,0.2136927 -1.6406545,0.6425665 C 4.2172546,5.5672106 3.9774167,6.2028375 3.913286,7.0485606 l 0.914079,0.1152323 c 0,-0.5691596 0.1339056,-1.0059026 0.3984446,-1.3105233 0.264539,-0.3046206 0.6028022,-0.457023 1.0156433,-0.457023 0.384784,0 0.7062835,0.1411938 0.9668143,0.4257736 0.264539,0.2805717 0.3964915,0.6467688 0.3964915,1.0956834 0,0.3887922 -0.1282499,0.8087732 -0.3847726,1.261696 -0.2565226,0.4489147 -0.799245,1.0863927 -1.6289355,1.9120754 -0.7094455,0.709445 -1.1982761,1.324608 -1.4668233,1.84567 -0.264539,0.521061 -0.3909375,0.991226 -0.378913,1.412083 H 8.5246971 V 12.310185 H 4.9777583 c 0.096196,-0.1964 0.2207433,-0.393433 0.3730536,-0.589833 C 5.5071304,11.523951 5.8510493,11.156005 6.3801273,10.614903 7.2098177,9.757155 7.7730065,9.0713444 8.0696108,8.5582991 8.3662151,8.0412456 8.5129781,7.502284 8.5129781,6.9411407 8.5129781,6.3078504 8.3234312,5.7428713 7.9426554,5.2458587 7.5658877,4.7488461 7.008253,4.4997784 6.2707503,4.4997784 Z M 10.323558,4.6560256 9.6204199,9.1832878 10.456372,9.3160979 c 0.136278,-0.2685471 0.320271,-0.4766866 0.552745,-0.6249887 0.236482,-0.1523103 0.489279,-0.2285115 0.757826,-0.2285115 0.444906,0 0.812892,0.1727645 1.105489,0.521475 0.296604,0.3447023 0.44532,0.8335821 0.44532,1.4628643 0,0.669364 -0.152419,1.197117 -0.457039,1.585909 -0.304621,0.384784 -0.667053,0.578115 -1.087911,0.578115 -0.336686,0 -0.634118,-0.137594 -0.890641,-0.410149 -0.252514,-0.276564 -0.414189,-0.694694 -0.486336,-1.255837 l -0.9316579,0.0957 c 0.060123,0.769568 0.3035613,1.373624 0.7324349,1.810515 0.432882,0.432882 0.962645,0.648425 1.587919,0.648425 0.753536,0 1.352001,-0.306655 1.796908,-0.919905 0.448914,-0.617258 0.67384,-1.356954 0.67384,-2.21871 0,-0.8737803 -0.224926,-1.5669954 -0.67384,-2.0800407 -0.444907,-0.5170535 -0.969014,-0.7753767 -1.574247,-0.7753767 -0.48098,0 -0.936385,0.1839732 -1.365259,0.5527245 l 0.390632,-2.3671449 h 2.880911 V 4.6560256 Z"
       transform="scale(0.99998201,1.000018)" />
    <rect
       style="opacity:0.98;fill:none;stroke:#000000;stroke-width:1.19939;stroke-dasharray:0.755616;stroke-dashoffset:0;stroke-opacity:1;paint-order:markers fill stroke"
       id="rect1363"
       width="16.800611"
       height="16.800611"
       x="0.59969503"
       y="0.59969503"
       rx="2.1544993"
       ry="2.1544993" />
  </g>
</svg>
