<?xml version="1.0" encoding="UTF-8" standalone="no"?>
<svg
   version="1.1"
   width="18"
   height="18"
   viewBox="0 0 18 18"
   id="svg1714"
   xmlns="http://www.w3.org/2000/svg"
   xmlns:svg="http://www.w3.org/2000/svg">
  <defs
     id="defs1718">
    <rect
       x="32.567797"
       y="-13.805085"
       width="44.389831"
       height="38.898305"
       id="rect2002" />
    <rect
       x="22.5"
       y="-2.2118644"
       width="28.525424"
       height="24.559322"
       id="rect1996" />
    <rect
       x="40.805085"
       y="-10.525424"
       width="65.898305"
       height="40.652542"
       id="rect1990" />
    <rect
       x="39.661017"
       y="-9.1525424"
       width="44.237288"
       height="35.389831"
       id="rect1984" />
    <rect
       x="21.279661"
       y="-2.8983051"
       width="36.228814"
       height="33.330508"
       id="rect1978" />
    <rect
       x="17.313559"
       y="1.9067797"
       width="18.228814"
       height="14.338983"
       id="rect1972" />
    <rect
       x="22.576271"
       y="-1.4491525"
       width="29.516949"
       height="22.957627"
       id="rect1966" />
  </defs>
  <g
     id="g1783"
     transform="translate(-452.85504,-37.644012)">
    <text
       xml:space="preserve"
       transform="translate(452.85504,37.644012)"
       id="text1964"
       style="white-space:pre;shape-inside:url(#rect1966);display:inline;fill:#000000" />
    <text
       xml:space="preserve"
       transform="translate(452.85504,37.644012)"
       id="text1970"
       style="white-space:pre;shape-inside:url(#rect1972);display:inline;fill:#000000" />
    <text
       xml:space="preserve"
       transform="translate(452.85504,37.644012)"
       id="text1976"
       style="white-space:pre;shape-inside:url(#rect1978);display:inline;fill:#000000" />
    <text
       xml:space="preserve"
       transform="translate(452.85504,37.644012)"
       id="text1982"
       style="white-space:pre;shape-inside:url(#rect1984);display:inline;fill:#000000" />
    <text
       xml:space="preserve"
       transform="translate(452.85504,37.644012)"
       id="text1988"
       style="white-space:pre;shape-inside:url(#rect1990);display:inline;fill:#000000" />
  </g>
  <path
     id="rect3777"
     style="opacity:0.98;fill:#000000;fill-opacity:1;stroke:none;stroke-width:1.28507;stroke-dasharray:none;stroke-opacity:1;paint-order:markers fill stroke"
     d="M 2.30863,0 C 1.02979,0 0,1.02978 0,2.3086 v 13.38274 c 0,1.27884 1.02979,2.30862 2.30863,2.30862 h 13.38279 c 1.27877,0 2.30856,-1.02978 2.30856,-2.30862 V 2.3086 C 17.99998,1.02978 16.97019,0 15.69142,0 Z m 3.96281,4.49989 c 0.73753,0 1.29323,0.24921 1.66997,0.74618 0.38074,0.49699 0.57223,1.06197 0.57223,1.69536 0,0.56109 -0.14866,1.10008 -0.44533,1.61712 -0.29654,0.51302 -0.85977,1.19701 -1.68942,2.05471 -0.52904,0.54107 -0.87108,0.91098 -1.02731,1.10743 -0.15235,0.19632 -0.27689,0.39336 -0.37305,0.58989 h 3.54685 v 1.03905 H 3.74609 C 3.73399,12.92874 3.86047,12.45851 4.12495,11.93747 4.39349,11.41641 4.8824,10.80113 5.5918,10.09176 6.42143,9.26605 6.96423,8.62848 7.22071,8.17964 7.47718,7.72675 7.60545,7.30475 7.60545,6.91599 7.60545,6.46709 7.4735,6.10276 7.20895,5.82219 6.94845,5.53769 6.625,5.39638 6.24021,5.39638 5.8274,5.39638 5.4891,5.54884 5.2246,5.8535 4.96001,6.15806 4.82817,6.59486 4.82817,7.16406 L 3.91404,7.04882 C 3.97874,6.20309 4.21607,5.56739 4.62887,5.14258 5.04577,4.71369 5.59415,4.49989 6.27144,4.49989 Z m 4.05082,0.15636 h 3.58986 v 1.03319 h -2.87895 l -0.39064,2.36915 c 0.42895,-0.36881 0.88232,-0.55277 1.36328,-0.55277 0.60524,0 1.13131,0.25843 1.57622,0.77535 0.44884,0.513 0.67382,1.20635 0.67382,2.08006 0,0.86177 -0.22498,1.60156 -0.67382,2.21884 -0.44491,0.61322 -1.0453,0.91985 -1.7988,0.91985 -0.62527,0 -1.15309,-0.2156 -1.58603,-0.6484 C 9.76838,12.41467 9.523,11.81051 9.46294,11.04094 l 0.93164,-0.0958 c 0.0723,0.56114 0.23572,0.97935 0.48825,1.25593 0.25649,0.27254 0.55203,0.4081 0.88862,0.4081 0.42083,0 0.78326,-0.19132 1.08799,-0.5761 0.30453,-0.38885 0.457,-0.9186 0.457,-1.58789 0,-0.62933 -0.14681,-1.11631 -0.44336,-1.46099 C 12.58047,8.63551 12.2105,8.4627 11.76565,8.4627 c -0.26855,0 -0.52142,0.0745 -0.75784,0.22658 -0.23244,0.14828 -0.41647,0.35837 -0.55273,0.62698 L 9.6191,9.18344 Z" />
</svg>
