<?xml version="1.0" encoding="UTF-8" standalone="no"?>
<svg
   version="1.1"
   width="18"
   height="18"
   viewBox="0 0 18 18"
   id="svg1714"
   xmlns="http://www.w3.org/2000/svg"
   xmlns:svg="http://www.w3.org/2000/svg">
  <defs
     id="defs1718">
    <rect
       x="32.567797"
       y="-13.805085"
       width="44.389831"
       height="38.898305"
       id="rect2002" />
    <rect
       x="22.5"
       y="-2.2118644"
       width="28.525424"
       height="24.559322"
       id="rect1996" />
    <rect
       x="40.805085"
       y="-10.525424"
       width="65.898305"
       height="40.652542"
       id="rect1990" />
    <rect
       x="39.661017"
       y="-9.1525424"
       width="44.237288"
       height="35.389831"
       id="rect1984" />
    <rect
       x="21.279661"
       y="-2.8983051"
       width="36.228814"
       height="33.330508"
       id="rect1978" />
    <rect
       x="17.313559"
       y="1.9067797"
       width="18.228814"
       height="14.338983"
       id="rect1972" />
    <rect
       x="22.576271"
       y="-1.4491525"
       width="29.516949"
       height="22.957627"
       id="rect1966" />
  </defs>
  <g
     id="g1783"
     transform="translate(-452.85504,-37.644012)">
    <text
       xml:space="preserve"
       transform="translate(452.85504,37.644012)"
       id="text1964"
       style="white-space:pre;shape-inside:url(#rect1966);display:inline;fill:#000000" />
    <text
       xml:space="preserve"
       transform="translate(452.85504,37.644012)"
       id="text1970"
       style="white-space:pre;shape-inside:url(#rect1972);display:inline;fill:#000000" />
    <text
       xml:space="preserve"
       transform="translate(452.85504,37.644012)"
       id="text1976"
       style="white-space:pre;shape-inside:url(#rect1978);display:inline;fill:#000000" />
    <text
       xml:space="preserve"
       transform="translate(452.85504,37.644012)"
       id="text1982"
       style="white-space:pre;shape-inside:url(#rect1984);display:inline;fill:#000000" />
    <text
       xml:space="preserve"
       transform="translate(452.85504,37.644012)"
       id="text1988"
       style="white-space:pre;shape-inside:url(#rect1990);display:inline;fill:#000000" />
  </g>
  <g
     id="g11701">
    <rect
       style="opacity:0.98;fill:none;stroke:#000000;stroke-width:1.19939;stroke-dasharray:none;stroke-opacity:1;paint-order:markers fill stroke"
       id="rect2874"
       width="16.800611"
       height="16.800611"
       x="0.59969503"
       y="0.59969503"
       rx="2.1544993"
       ry="2.1544993" />
    <path
       id="text2878"
       style="font-stretch:condensed;font-size:12.3127px;font-family:'Arial Narrow';-inkscape-font-specification:'Arial Narrow Condensed';opacity:0.98;fill:#000000;stroke-width:0.307819;paint-order:markers fill stroke"
       d="m 6.271601,4.5003668 c -0.6773574,0 -1.2257256,0.2137254 -1.642561,0.6425849 C 4.2162126,5.567803 3.9783322,6.2035267 3.9142037,7.0492215 l 0.914053,0.1132824 c 0,-0.5691405 0.1319501,-1.00595 0.3964802,-1.3105605 0.2645301,-0.3046105 0.6027871,-0.457036 1.0156145,-0.457036 0.384771,0 0.7082177,0.1431686 0.9687399,0.4277388 0.2645301,0.2805624 0.3964802,0.6448618 0.3964802,1.0937614 0,0.3887792 -0.1282476,0.8107773 -0.3847616,1.2636851 C 6.9642959,8.6289922 6.4215833,9.2665672 5.5919206,10.092222 4.8824988,10.801643 4.3936771,11.416901 4.125139,11.937944 3.8606088,12.458989 3.7342126,12.929226 3.7462367,13.350068 H 8.5254838 V 12.309042 H 4.9786457 C 5.0748385,12.112648 5.1993835,11.917539 5.3516887,11.721145 5.508002,11.524751 5.8499615,11.154796 6.3790218,10.613712 7.2086845,9.7559925 7.7718629,9.072031 8.0684573,8.5590028 8.3650517,8.0419667 8.5137652,7.5029231 8.5137652,6.9417985 8.5137652,6.3085294 8.3222687,5.7434644 7.9415055,5.2464684 7.5647505,4.7494723 7.009079,4.5003668 6.271601,4.5003668 Z M 10.32234,4.6566185 9.6192225,9.1840094 10.455151,9.3148701 c 0.136274,-0.2685381 0.320263,-0.4767094 0.552729,-0.6250065 0.236474,-0.1523053 0.489266,-0.228518 0.757805,-0.228518 0.444891,0 0.81287,0.1747442 1.105457,0.5234429 0.296593,0.3446909 0.445308,0.8316919 0.445308,1.4609525 0,0.669342 -0.152416,1.199129 -0.457027,1.587907 -0.304611,0.384772 -0.667036,0.576178 -1.087879,0.576178 -0.336675,0 -0.632148,-0.135661 -0.888663,-0.408207 -0.252506,-0.276555 -0.416131,-0.694747 -0.488276,-1.255873 l -0.9316309,0.09571 c 0.06012,0.769542 0.3055083,1.371737 0.7343669,1.808612 0.432868,0.432868 0.960669,0.650398 1.585921,0.650398 0.753511,0 1.353918,-0.306703 1.79881,-0.919932 0.448899,-0.617237 0.671868,-1.357046 0.671868,-2.218773 0,-0.8737511 -0.222969,-1.5670716 -0.671868,-2.0800998 C 13.13718,7.76462 12.61113,7.5062575 12.005916,7.5062575 c -0.480963,0 -0.93636,0.1840012 -1.36522,0.5527401 L 11.03327,5.6898324 h 2.878877 V 4.6566185 Z"
       transform="scale(1.0000104,0.99998959)" />
  </g>
</svg>
