<svg
   version="1.1"
   width="18"
   height="18"
   viewBox="0 0 18 18"
   xmlns="http://www.w3.org/2000/svg"
   >
  <path
     d="M 8.99999,0 A 8.9999995,8.9999997 0 0 0 0,8.999991 a 8.9999995,8.9999997 0 0 0 8.99999,9.000006 8.9999995,8.9999997 0 0 0 9,-9.000006 A 8.9999995,8.9999997 0 0 0 8.99999,0 Z m -0.0937,4.49999 c 0.58474,0 1.08172,0.2159 1.49023,0.64844 0.40852,0.43255 0.61328,0.977934 0.61328,1.634767 0,0.400509 -0.0874,0.754102 -0.26367,1.0625 -0.17222,0.308396 -0.41611,0.550339 -0.72851,0.726559 0.28837,0.08015 0.5266,0.212257 0.71484,0.396492 0.18824,0.184222 0.34089,0.431846 0.45704,0.740232 0.11614,0.30839 0.17383,0.65272 0.17383,1.033206 0,0.809019 -0.23825,1.471623 -0.71485,1.988283 -0.47661,0.512643 -1.0461,0.769525 -1.71094,0.769525 -0.61678,0 -1.13981,-0.225254 -1.56836,-0.673829 -0.42854,-0.448569 -0.67234,-1.051636 -0.73242,-1.80859 l 0.88867,-0.142579 c 0.18423,1.153453 0.65144,1.728508 1.40039,1.728508 0.40451,0 0.7544,-0.16933 1.05078,-0.509758 0.29638,-0.344442 0.44336,-0.789295 0.44336,-1.333987 0,-0.512651 -0.13585,-0.925884 -0.4082,-1.238281 C 9.73941,9.209084 9.4063,9.054677 9.0098,9.054677 c -0.16821,0 -0.37668,0.03905 -0.625,0.119146 l 0.10157,-0.949214 0.13867,0.01174 c 0.43655,0 0.79015,-0.133997 1.0625,-0.402337 C 9.95988,7.565673 10.09574,7.20836 10.09574,6.759784 10.09574,6.347269 9.98223,6.01592 9.75394,5.7676 9.52565,5.51528 9.24642,5.3887 8.918,5.3887 8.57758,5.3887 8.29103,5.52085 8.05473,5.78518 7.82243,6.04551 7.67349,6.441952 7.60941,6.974636 L 6.72659,6.783227 C 6.83874,6.03027 7.08996,5.46069 7.48245,5.07619 7.87495,4.69171 8.34958,4.50003 8.90629,4.50003 Z" />
</svg>
