<svg
   version="1.1"
   width="18"
   height="18"
   viewBox="0 0 18 18"
   xmlns="http://www.w3.org/2000/svg"
   >
  <g
     transform="translate(-452.85504,-37.644012)">
    <g
       transform="translate(131.96048,-13.325585)">
      <circle
         style="fill:none;fill-opacity:1;stroke:#000000;stroke-width:1.19912;stroke-dasharray:none;stroke-opacity:1"
         id="circle580"
         cx="329.89456"
         cy="59.969597"
         r="8.4004402" />
      <path
         id="text584"
         style="font-stretch:condensed;font-size:12.3036px;font-family:'Arial Narrow';-inkscape-font-specification:'Arial Narrow Condensed';opacity:0.98;fill:#000000;stroke-width:0.30759;paint-order:markers fill stroke"
         d="m 329.80078,55.46875 c -0.5567,0 -1.03133,0.193638 -1.42383,0.578125 -0.39249,0.384487 -0.64371,0.952124 -0.75586,1.705078 l 0.88282,0.193359 c 0.0641,-0.532674 0.21301,-0.929123 0.44531,-1.189453 0.2363,-0.264335 0.52285,-0.396484 0.86328,-0.396484 0.32842,0 0.60765,0.124633 0.83594,0.376953 0.22829,0.248315 0.34179,0.579665 0.34179,0.992188 0,0.448568 -0.13585,0.807832 -0.4082,1.076172 -0.27234,0.268339 -0.62595,0.402343 -1.0625,0.402343 l -0.13867,-0.01367 -0.10156,0.949219 c 0.24831,-0.0801 0.45678,-0.11914 0.625,-0.11914 0.3965,0 0.7296,0.156354 1.00195,0.46875 0.27235,0.312395 0.4082,0.725631 0.4082,1.238281 0,0.54469 -0.14698,0.987595 -0.44336,1.332031 -0.29637,0.340431 -0.64627,0.511719 -1.05078,0.511719 -0.74895,0 -1.21615,-0.577008 -1.40039,-1.730469 l -0.88867,0.144531 c 0.0601,0.756959 0.30388,1.360026 0.73242,1.808594 0.42854,0.448568 0.95158,0.671875 1.56836,0.671875 0.66484,0 1.23433,-0.256882 1.71094,-0.769531 0.4766,-0.516655 0.71484,-1.179257 0.71484,-1.988281 0,-0.380483 -0.0577,-0.724813 -0.17383,-1.033204 -0.11614,-0.30839 -0.26879,-0.554047 -0.45703,-0.738281 -0.18824,-0.184233 -0.42648,-0.316383 -0.71484,-0.396484 0.3124,-0.176224 0.5563,-0.418172 0.72851,-0.726563 0.17623,-0.30839 0.26368,-0.663945 0.26368,-1.064453 0,-0.656832 -0.20477,-1.200264 -0.61328,-1.632812 -0.40852,-0.432548 -0.9055,-0.650391 -1.49024,-0.650391 z" />
    </g>
  </g>
</svg>
