<svg
   version="1.1"
   width="18"
   height="18"
   viewBox="0 0 18 18"
   xmlns="http://www.w3.org/2000/svg"
   >
  <g
     transform="translate(-393.24666,65.243999)">
    <path
       style="font-stretch:condensed;font-size:12.3062px;font-family:'Arial Narrow';-inkscape-font-specification:'Arial Narrow Condensed';opacity:0.98;fill:#000000;stroke-width:0.307643;paint-order:markers fill stroke"
       d="m 402.1543,-60.744141 c -0.55683,0 -1.0332,0.191604 -1.42578,0.576172 -0.39258,0.384569 -0.6437,0.953918 -0.75586,1.707031 l 0.88281,0.19336 c 0.0641,-0.532788 0.21297,-0.931022 0.44531,-1.191406 0.23635,-0.264391 0.52473,-0.396485 0.86524,-0.396485 0.32848,0 0.60564,0.126534 0.83398,0.378907 0.22834,0.248367 0.34375,0.579577 0.34375,0.992187 0,0.448663 -0.1358,0.807775 -0.4082,1.076172 -0.27241,0.268397 -0.62781,0.402344 -1.06446,0.402344 l -0.13867,-0.01172 -0.10156,0.949219 c 0.24837,-0.08012 0.45675,-0.121094 0.625,-0.121094 0.39659,0 0.7315,0.156288 1.00391,0.46875 0.2724,0.312462 0.4082,0.725523 0.4082,1.238281 0,0.544805 -0.14888,0.989475 -0.44531,1.333984 -0.29644,0.340504 -0.64619,0.509766 -1.05078,0.509766 -0.74911,0 -1.21612,-0.576764 -1.4004,-1.730469 l -0.88867,0.144532 c 0.0601,0.757119 0.30379,1.35993 0.73242,1.808593 0.42864,0.448663 0.95145,0.673828 1.56836,0.673828 0.66499,0 1.23619,-0.256773 1.71289,-0.769531 0.47671,-0.516763 0.71485,-1.179085 0.71485,-1.988281 0,-0.380562 -0.0577,-0.7267 -0.17383,-1.035156 -0.11617,-0.308456 -0.26875,-0.554009 -0.45703,-0.738282 -0.18828,-0.184272 -0.42642,-0.316365 -0.71485,-0.396484 0.31247,-0.17626 0.55431,-0.418106 0.72657,-0.726562 0.17626,-0.308456 0.26367,-0.663861 0.26367,-1.064454 0,-0.65697 -0.20272,-1.202126 -0.61133,-1.634765 -0.4086,-0.43264 -0.90537,-0.648438 -1.49023,-0.648437 z" />
    <ellipse
       style="fill:none;fill-opacity:1;stroke:#000000;stroke-width:1.19928;stroke-dasharray:0.755549;stroke-dashoffset:0;stroke-opacity:1"
       cx="402.24664"
       cy="-56.239754"
       rx="8.4002981"
       ry="8.4045572" />
  </g>
</svg>
