<?xml version="1.0" encoding="UTF-8" standalone="no"?>
<svg
   version="1.1"
   width="18"
   height="18"
   viewBox="0 0 18 18"
   id="svg1714"
   xmlns="http://www.w3.org/2000/svg"
   xmlns:svg="http://www.w3.org/2000/svg">
  <defs
     id="defs1718">
    <rect
       x="32.567797"
       y="-13.805085"
       width="44.389831"
       height="38.898305"
       id="rect2002" />
    <rect
       x="22.5"
       y="-2.2118644"
       width="28.525424"
       height="24.559322"
       id="rect1996" />
    <rect
       x="40.805085"
       y="-10.525424"
       width="65.898305"
       height="40.652542"
       id="rect1990" />
    <rect
       x="39.661017"
       y="-9.1525424"
       width="44.237288"
       height="35.389831"
       id="rect1984" />
    <rect
       x="21.279661"
       y="-2.8983051"
       width="36.228814"
       height="33.330508"
       id="rect1978" />
    <rect
       x="17.313559"
       y="1.9067797"
       width="18.228814"
       height="14.338983"
       id="rect1972" />
    <rect
       x="22.576271"
       y="-1.4491525"
       width="29.516949"
       height="22.957627"
       id="rect1966" />
  </defs>
  <g
     id="g1783"
     transform="translate(-452.85504,-37.644012)">
    <text
       xml:space="preserve"
       transform="translate(452.85504,37.644012)"
       id="text1964"
       style="white-space:pre;shape-inside:url(#rect1966);display:inline;fill:#000000" />
    <text
       xml:space="preserve"
       transform="translate(452.85504,37.644012)"
       id="text1970"
       style="white-space:pre;shape-inside:url(#rect1972);display:inline;fill:#000000" />
    <text
       xml:space="preserve"
       transform="translate(452.85504,37.644012)"
       id="text1976"
       style="white-space:pre;shape-inside:url(#rect1978);display:inline;fill:#000000" />
    <text
       xml:space="preserve"
       transform="translate(452.85504,37.644012)"
       id="text1982"
       style="white-space:pre;shape-inside:url(#rect1984);display:inline;fill:#000000" />
    <text
       xml:space="preserve"
       transform="translate(452.85504,37.644012)"
       id="text1988"
       style="white-space:pre;shape-inside:url(#rect1990);display:inline;fill:#000000" />
  </g>
  <g
     id="g8741">
    <path
       id="text2609"
       style="font-stretch:condensed;font-size:12.3062px;font-family:'Arial Narrow';-inkscape-font-specification:'Arial Narrow Condensed';opacity:0.98;fill:#000000;stroke-width:0.307643;paint-order:markers fill stroke"
       d="m 8.9070219,4.4998594 c -0.556823,0 -1.0312479,0.1916035 -1.4238282,0.5761718 C 7.0906135,5.4605996 6.837547,6.0299494 6.7253812,6.7830625 L 7.6081937,6.9764219 C 7.6722885,6.4436345 7.8211629,6.0454005 8.0535062,5.7850156 8.2898556,5.5206249 8.5782374,5.3885312 8.9187406,5.3885312 c 0.3284855,0 0.6076001,0.1265333 0.8359375,0.3789063 0.2283375,0.2483671 0.3417969,0.5795777 0.3417969,0.9921875 0,0.4486631 -0.1358005,0.8077752 -0.4082031,1.0761719 C 9.4158693,8.1041935 9.0604641,8.2381406 8.6238187,8.2381406 L 8.4871,8.2264219 8.3835844,9.1756406 c 0.248367,-0.080118 0.4567513,-0.1210937 0.625,-0.1210937 0.3965861,0 0.7315036,0.1562882 1.0039066,0.46875 0.272402,0.3124618 0.408203,0.7255231 0.408203,1.2382811 0,0.544805 -0.146922,0.989475 -0.4433596,1.333984 -0.2964381,0.340504 -0.6481364,0.509766 -1.0527344,0.509766 -0.7491071,0 -1.2161183,-0.576764 -1.4003906,-1.730469 l -0.8886719,0.144532 c 0.060089,0.757119 0.3037884,1.35993 0.7324219,1.808593 0.4286335,0.448663 0.9514476,0.673828 1.5683593,0.673828 0.6649829,1e-6 1.2361863,-0.256773 1.7128903,-0.769531 0.476705,-0.516763 0.714844,-1.179085 0.714844,-1.988281 0,-0.380562 -0.05766,-0.7267 -0.173828,-1.0351563 C 11.074053,9.4003879 10.921472,9.1548348 10.733194,8.9705625 10.544915,8.7862902 10.306776,8.6541965 10.01835,8.5740781 c 0.312462,-0.1762605 0.554308,-0.4181066 0.726562,-0.7265625 0.176261,-0.3084559 0.265625,-0.6638611 0.265625,-1.0644531 0,-0.656971 -0.204677,-1.2021262 -0.613281,-1.6347656 C 9.9886524,4.7156575 9.4918863,4.4998594 8.9070219,4.4998594 Z" />
    <rect
       style="opacity:0.98;fill:none;stroke:#000000;stroke-width:1.19939;stroke-dasharray:0.755616;stroke-dashoffset:0;stroke-opacity:1;paint-order:markers fill stroke"
       id="rect2611"
       width="16.800611"
       height="16.800611"
       x="0.59969503"
       y="0.59969503"
       rx="2.1544993"
       ry="2.1544993" />
  </g>
</svg>
