<?xml version="1.0" encoding="UTF-8" standalone="no"?>
<svg
   version="1.1"
   width="18"
   height="18"
   viewBox="0 0 18 18"
   id="svg1714"
   xmlns="http://www.w3.org/2000/svg"
   xmlns:svg="http://www.w3.org/2000/svg">
  <defs
     id="defs1718">
    <rect
       x="32.567797"
       y="-13.805085"
       width="44.389831"
       height="38.898305"
       id="rect2002" />
    <rect
       x="22.5"
       y="-2.2118644"
       width="28.525424"
       height="24.559322"
       id="rect1996" />
    <rect
       x="40.805085"
       y="-10.525424"
       width="65.898305"
       height="40.652542"
       id="rect1990" />
    <rect
       x="39.661017"
       y="-9.1525424"
       width="44.237288"
       height="35.389831"
       id="rect1984" />
    <rect
       x="21.279661"
       y="-2.8983051"
       width="36.228814"
       height="33.330508"
       id="rect1978" />
    <rect
       x="17.313559"
       y="1.9067797"
       width="18.228814"
       height="14.338983"
       id="rect1972" />
    <rect
       x="22.576271"
       y="-1.4491525"
       width="29.516949"
       height="22.957627"
       id="rect1966" />
  </defs>
  <g
     id="g1783"
     transform="translate(-452.85504,-37.644012)">
    <text
       xml:space="preserve"
       transform="translate(452.85504,37.644012)"
       id="text1964"
       style="white-space:pre;shape-inside:url(#rect1966);display:inline;fill:#000000" />
    <text
       xml:space="preserve"
       transform="translate(452.85504,37.644012)"
       id="text1970"
       style="white-space:pre;shape-inside:url(#rect1972);display:inline;fill:#000000" />
    <text
       xml:space="preserve"
       transform="translate(452.85504,37.644012)"
       id="text1976"
       style="white-space:pre;shape-inside:url(#rect1978);display:inline;fill:#000000" />
    <text
       xml:space="preserve"
       transform="translate(452.85504,37.644012)"
       id="text1982"
       style="white-space:pre;shape-inside:url(#rect1984);display:inline;fill:#000000" />
    <text
       xml:space="preserve"
       transform="translate(452.85504,37.644012)"
       id="text1988"
       style="white-space:pre;shape-inside:url(#rect1990);display:inline;fill:#000000" />
  </g>
  <g
     id="g10930">
    <rect
       style="opacity:0.98;fill:none;stroke:#000000;stroke-width:1.19939;stroke-dasharray:none;stroke-opacity:1;paint-order:markers fill stroke"
       id="rect1725"
       width="16.800611"
       height="16.800611"
       x="0.59969503"
       y="0.59969503"
       rx="2.1544993"
       ry="2.1544993" />
    <path
       id="text1729"
       style="font-stretch:condensed;font-size:12.3036px;font-family:'Arial Narrow';-inkscape-font-specification:'Arial Narrow Condensed';opacity:0.98;fill:#000000;stroke-width:0.30759;paint-order:markers fill stroke"
       d="M 8.9066269,4.50032 C 8.3499216,4.50032 7.875296,4.6920047 7.4827987,5.0764919 7.0903015,5.460979 6.8390815,6.0305692 6.7269394,6.7835231 L 7.6097519,6.9749294 C 7.6738331,6.4422545 7.8208169,6.0458061 8.0531112,5.7854762 8.2894106,5.5211414 8.5779143,5.3889919 8.9183456,5.3889919 c 0.3284161,0 0.6076483,0.1265865 0.8359375,0.3789062 0.2282893,0.2483146 0.3417969,0.5777118 0.3417969,0.9902344 0,0.4485683 -0.1358581,0.8078319 -0.4082031,1.0761719 C 9.4155318,8.1026443 9.06193,8.2366481 8.6253769,8.2366481 L 8.486705,8.2249294 8.3851425,9.1741481 c 0.2483146,-0.080101 0.4548338,-0.1210937 0.6230469,-0.1210937 0.3965023,0 0.7315612,0.1563542 1.0039066,0.46875 0.272345,0.3123958 0.408203,0.7256316 0.408203,1.2382816 0,0.54469 -0.146984,0.989548 -0.4433596,1.333984 -0.2963755,0.340431 -0.6482219,0.509766 -1.0527344,0.509766 -0.7489489,0 -1.2142041,-0.577008 -1.3984375,-1.730469 l -0.890625,0.144531 c 0.060076,0.756959 0.3058321,1.360026 0.734375,1.808594 0.4285429,0.448568 0.9515779,0.673828 1.5683594,0.673828 0.6648423,0 1.2343341,-0.256882 1.7109371,-0.769531 0.476604,-0.516655 0.714844,-1.179257 0.714844,-1.988282 0,-0.380482 -0.05768,-0.724812 -0.173828,-1.0332026 C 11.073683,9.4009137 10.921037,9.1533034 10.732799,8.96907 10.54456,8.7848366 10.30632,8.6526871 10.017955,8.5725856 c 0.312396,-0.1762232 0.554344,-0.4181718 0.726562,-0.7265625 0.176224,-0.3083907 0.265625,-0.6619926 0.265625,-1.0625 0,-0.6568321 -0.204763,-1.2022176 -0.613281,-1.6347656 C 9.9883437,4.7162095 9.4913677,4.50032 8.9066269,4.50032 Z" />
  </g>
</svg>
