<?xml version="1.0" encoding="UTF-8" standalone="no"?>
<svg
   version="1.1"
   width="18"
   height="18"
   viewBox="0 0 18 18"
   id="svg1714"
   xmlns="http://www.w3.org/2000/svg"
   xmlns:svg="http://www.w3.org/2000/svg">
  <defs
     id="defs1718">
    <rect
       x="32.567797"
       y="-13.805085"
       width="44.389831"
       height="38.898305"
       id="rect2002" />
    <rect
       x="22.5"
       y="-2.2118644"
       width="28.525424"
       height="24.559322"
       id="rect1996" />
    <rect
       x="40.805085"
       y="-10.525424"
       width="65.898305"
       height="40.652542"
       id="rect1990" />
    <rect
       x="39.661017"
       y="-9.1525424"
       width="44.237288"
       height="35.389831"
       id="rect1984" />
    <rect
       x="21.279661"
       y="-2.8983051"
       width="36.228814"
       height="33.330508"
       id="rect1978" />
    <rect
       x="17.313559"
       y="1.9067797"
       width="18.228814"
       height="14.338983"
       id="rect1972" />
    <rect
       x="22.576271"
       y="-1.4491525"
       width="29.516949"
       height="22.957627"
       id="rect1966" />
  </defs>
  <g
     id="g1783"
     transform="translate(-452.85504,-37.644012)">
    <text
       xml:space="preserve"
       transform="translate(452.85504,37.644012)"
       id="text1964"
       style="white-space:pre;shape-inside:url(#rect1966);display:inline;fill:#000000" />
    <text
       xml:space="preserve"
       transform="translate(452.85504,37.644012)"
       id="text1970"
       style="white-space:pre;shape-inside:url(#rect1972);display:inline;fill:#000000" />
    <text
       xml:space="preserve"
       transform="translate(452.85504,37.644012)"
       id="text1976"
       style="white-space:pre;shape-inside:url(#rect1978);display:inline;fill:#000000" />
    <text
       xml:space="preserve"
       transform="translate(452.85504,37.644012)"
       id="text1982"
       style="white-space:pre;shape-inside:url(#rect1984);display:inline;fill:#000000" />
    <text
       xml:space="preserve"
       transform="translate(452.85504,37.644012)"
       id="text1988"
       style="white-space:pre;shape-inside:url(#rect1990);display:inline;fill:#000000" />
  </g>
  <path
     id="rect3101"
     style="opacity:0.98;fill:#000000;fill-opacity:1;stroke:none;stroke-width:1.28507;stroke-dasharray:none;stroke-opacity:1;paint-order:markers fill stroke"
     d="M 2.30859,0 C 1.02979,0 0,1.02978 0,2.3086 v 13.38274 c 0,1.27884 1.02979,2.30862 2.30859,2.30862 H 15.6914 c 1.2788,0 2.30859,-1.02978 2.30859,-2.30862 V 2.3086 C 17.99999,1.02978 16.9702,0 15.6914,0 Z m 6.59765,4.49989 c 0.58475,0 1.08173,0.21599 1.49024,0.64854 0.40852,0.43256 0.61328,0.97791 0.61328,1.63474 0,0.40043 -0.0874,0.75408 -0.26367,1.06248 -0.17222,0.30843 -0.41611,0.55031 -0.72851,0.72655 0.28837,0.0804 0.5266,0.21229 0.71484,0.39657 0.18824,0.18421 0.34088,0.43177 0.45703,0.74017 0.11615,0.30838 0.17383,0.65268 0.17383,1.03325 0,0.80896 -0.23825,1.47161 -0.71484,1.98823 -0.47661,0.51269 -1.0461,0.7695 -1.71094,0.7695 -0.61678,0 -1.13981,-0.22522 -1.56836,-0.67385 C 6.94059,12.37759 6.6968,11.77452 6.63672,11.01747 L 7.52539,10.8749 c 0.18423,1.1535 0.65144,1.72861 1.40039,1.72861 0.40451,0 0.75441,-0.16938 1.05078,-0.50976 0.29638,-0.3445 0.44335,-0.78937 0.44335,-1.33402 0,-0.51263 -0.13584,-0.92595 -0.40819,-1.23829 C 9.73937,9.2091 9.40627,9.05463 9.00976,9.05463 c -0.16821,0 -0.37669,0.0395 -0.625,0.11913 L 8.48632,8.2245 8.625,8.2364 c 0.43655,0 0.79015,-0.13401 1.0625,-0.40236 0.27234,-0.26829 0.4082,-0.62567 0.4082,-1.07423 0,-0.41248 -0.11351,-0.74386 -0.3418,-0.9922 C 9.52561,5.51535 9.24638,5.38874 8.91796,5.38874 8.57754,5.38874 8.29098,5.52091 8.05469,5.7852 7.82239,6.04556 7.67345,6.44197 7.60937,6.97466 L 6.72655,6.78327 C 6.8387,6.03034 7.08991,5.46076 7.48242,5.07625 7.87492,4.69176 8.34954,4.49999 8.90624,4.49999 Z" />
</svg>
