<?xml version="1.0" encoding="UTF-8" standalone="no"?>
<svg
   version="1.1"
   width="18"
   height="18"
   viewBox="0 0 18 18"
   id="svg1714"
   xmlns="http://www.w3.org/2000/svg"
   xmlns:svg="http://www.w3.org/2000/svg">
  <defs
     id="defs1718">
    <rect
       x="32.567797"
       y="-13.805085"
       width="44.389831"
       height="38.898305"
       id="rect2002" />
    <rect
       x="22.5"
       y="-2.2118644"
       width="28.525424"
       height="24.559322"
       id="rect1996" />
    <rect
       x="40.805085"
       y="-10.525424"
       width="65.898305"
       height="40.652542"
       id="rect1990" />
    <rect
       x="39.661017"
       y="-9.1525424"
       width="44.237288"
       height="35.389831"
       id="rect1984" />
    <rect
       x="21.279661"
       y="-2.8983051"
       width="36.228814"
       height="33.330508"
       id="rect1978" />
    <rect
       x="17.313559"
       y="1.9067797"
       width="18.228814"
       height="14.338983"
       id="rect1972" />
    <rect
       x="22.576271"
       y="-1.4491525"
       width="29.516949"
       height="22.957627"
       id="rect1966" />
  </defs>
  <g
     id="g1783"
     transform="translate(-452.85504,-37.644012)">
    <text
       xml:space="preserve"
       transform="translate(452.85504,37.644012)"
       id="text1964"
       style="white-space:pre;shape-inside:url(#rect1966);display:inline;fill:#000000" />
    <text
       xml:space="preserve"
       transform="translate(452.85504,37.644012)"
       id="text1970"
       style="white-space:pre;shape-inside:url(#rect1972);display:inline;fill:#000000" />
    <text
       xml:space="preserve"
       transform="translate(452.85504,37.644012)"
       id="text1976"
       style="white-space:pre;shape-inside:url(#rect1978);display:inline;fill:#000000" />
    <text
       xml:space="preserve"
       transform="translate(452.85504,37.644012)"
       id="text1982"
       style="white-space:pre;shape-inside:url(#rect1984);display:inline;fill:#000000" />
    <text
       xml:space="preserve"
       transform="translate(452.85504,37.644012)"
       id="text1988"
       style="white-space:pre;shape-inside:url(#rect1990);display:inline;fill:#000000" />
    <g
       id="g3216"
       transform="translate(6.8620593,-17.00161)">
      <circle
         style="fill:none;fill-opacity:1;stroke:#000000;stroke-width:1.19912;stroke-dasharray:none;stroke-opacity:1"
         id="circle773"
         cx="454.99298"
         cy="63.645622"
         r="8.4004402" />
      <path
         id="text777"
         style="font-stretch:condensed;font-size:12.3046px;font-family:'Arial Narrow';-inkscape-font-specification:'Arial Narrow Condensed';opacity:0.98;fill:#000000;stroke-width:0.307614;paint-order:markers fill stroke"
         d="m 452.1,59.147201 c -0.55675,0 -1.03128,0.19166 -1.42381,0.576179 -0.39253,0.384518 -0.6437,0.952083 -0.75585,1.705098 l 0.8828,0.193362 c 0.0641,-0.532718 0.21104,-0.929117 0.44335,-1.189468 0.23632,-0.264356 0.52477,-0.396489 0.86523,-0.396489 0.32844,0 0.60762,0.126571 0.83592,0.378911 0.22831,0.248335 0.3418,0.57769 0.3418,0.990246 0,0.448605 -0.13583,0.807824 -0.4082,1.076185 -0.27237,0.268362 -0.6259,0.402349 -1.06249,0.402349 l -0.13867,-0.01172 -0.10156,0.94923 c 0.24834,-0.08011 0.45677,-0.121095 0.62499,-0.121095 0.39654,0 0.72958,0.156335 1.00194,0.468756 0.27237,0.312421 0.4082,0.725605 0.4082,1.238296 0,0.544734 -0.14695,0.989536 -0.44335,1.334001 -0.2964,0.340459 -0.64623,0.509771 -1.05077,0.509771 -0.74901,0 -1.21613,-0.576934 -1.40037,-1.730489 l -0.89062,0.144533 c 0.0601,0.75702 0.30579,1.360011 0.73437,1.808615 0.42858,0.448605 0.95151,0.673837 1.56834,0.673837 0.66489,0 1.23427,-0.25685 1.71091,-0.769541 0.47665,-0.516696 0.71484,-1.179215 0.71484,-1.988305 0,-0.380513 -0.0577,-0.7248 -0.17383,-1.033216 -0.11615,-0.308416 -0.26877,-0.555995 -0.45702,-0.740243 -0.18826,-0.184249 -0.42645,-0.316381 -0.71484,-0.396489 0.31242,-0.176238 0.55628,-0.418156 0.72851,-0.726572 0.17624,-0.308415 0.26367,-0.663926 0.26367,-1.064466 0,-0.656885 -0.20472,-1.200249 -0.61328,-1.632832 C 453.18166,59.363062 452.68479,59.1472 452.1,59.147201 Z m 5.6972,0 c -0.77705,0 -1.36702,0.379613 -1.76756,1.140638 -0.39654,0.761026 -0.59374,1.881424 -0.59374,3.359416 0,1.650225 0.2177,2.81151 0.65428,3.484417 0.4406,0.672907 1.00441,1.007825 1.69334,1.007825 0.78106,0 1.37103,-0.379613 1.76756,-1.140639 0.39653,-0.765031 0.59374,-1.881621 0.59374,-3.351603 0,-1.638208 -0.24004,-2.831211 -0.72069,-3.576215 -0.39654,-0.616832 -0.93801,-0.923839 -1.62693,-0.923839 z m -0.043,0.894542 c 0.43659,0 0.79012,0.241918 1.06248,0.726571 0.27638,0.484653 0.41601,1.445008 0.41601,2.878941 0,1.417912 -0.13583,2.372605 -0.40819,2.865269 -0.27237,0.492664 -0.61107,0.73829 -1.01562,0.73829 -0.42857,0 -0.7822,-0.241918 -1.05858,-0.726571 -0.27236,-0.488659 -0.4082,-1.44706 -0.4082,-2.876988 0,-1.417911 0.13398,-2.374558 0.40234,-2.867222 0.27237,-0.492664 0.60922,-0.73829 1.00976,-0.73829 z"
         transform="scale(1.0000121,0.99998789)" />
    </g>
  </g>
</svg>
