<?xml version="1.0" encoding="UTF-8" standalone="no"?>
<svg
   version="1.1"
   width="18"
   height="18"
   viewBox="0 0 18 18"
   id="svg1714"
   xmlns="http://www.w3.org/2000/svg"
   xmlns:svg="http://www.w3.org/2000/svg">
  <defs
     id="defs1718">
    <rect
       x="32.567797"
       y="-13.805085"
       width="44.389831"
       height="38.898305"
       id="rect2002" />
    <rect
       x="22.5"
       y="-2.2118644"
       width="28.525424"
       height="24.559322"
       id="rect1996" />
    <rect
       x="40.805085"
       y="-10.525424"
       width="65.898305"
       height="40.652542"
       id="rect1990" />
    <rect
       x="39.661017"
       y="-9.1525424"
       width="44.237288"
       height="35.389831"
       id="rect1984" />
    <rect
       x="21.279661"
       y="-2.8983051"
       width="36.228814"
       height="33.330508"
       id="rect1978" />
    <rect
       x="17.313559"
       y="1.9067797"
       width="18.228814"
       height="14.338983"
       id="rect1972" />
    <rect
       x="22.576271"
       y="-1.4491525"
       width="29.516949"
       height="22.957627"
       id="rect1966" />
  </defs>
  <g
     id="g1783"
     transform="translate(-452.85504,-37.644012)">
    <text
       xml:space="preserve"
       transform="translate(452.85504,37.644012)"
       id="text1964"
       style="white-space:pre;shape-inside:url(#rect1966);display:inline;fill:#000000" />
    <text
       xml:space="preserve"
       transform="translate(452.85504,37.644012)"
       id="text1970"
       style="white-space:pre;shape-inside:url(#rect1972);display:inline;fill:#000000" />
    <text
       xml:space="preserve"
       transform="translate(452.85504,37.644012)"
       id="text1976"
       style="white-space:pre;shape-inside:url(#rect1978);display:inline;fill:#000000" />
    <text
       xml:space="preserve"
       transform="translate(452.85504,37.644012)"
       id="text1982"
       style="white-space:pre;shape-inside:url(#rect1984);display:inline;fill:#000000" />
    <text
       xml:space="preserve"
       transform="translate(452.85504,37.644012)"
       id="text1988"
       style="white-space:pre;shape-inside:url(#rect1990);display:inline;fill:#000000" />
  </g>
  <path
     id="circle955"
     style="fill:#000000;fill-opacity:1;stroke:none;stroke-width:1.04984;stroke-dasharray:none"
     d="M 9.00001,0 A 8.9999995,8.9999997 0 0 0 0,8.999991 a 8.9999995,8.9999997 0 0 0 9.00001,9.000006 8.9999995,8.9999997 0 0 0 9,-9.000006 A 8.9999995,8.9999997 0 0 0 9.00001,0 Z M 6.1133,4.49999 c 0.58478,0 1.0817,0.21587 1.49016,0.64844 0.40861,0.43258 0.61335,0.977889 0.61335,1.634767 0,0.400538 -0.0895,0.754081 -0.26564,1.0625 C 7.77895,8.154105 7.53705,8.397979 7.22461,8.574215 7.513,8.654305 7.75122,8.786449 7.93943,8.970699 8.12777,9.154947 8.28026,9.400573 8.3965,9.70898 c 0.11616,0.308411 0.17381,0.652694 0.17381,1.033206 0,0.809075 -0.23817,1.471589 -0.71483,1.988283 -0.47665,0.51268 -1.04799,0.769525 -1.71293,0.769525 -0.61683,0 -1.13972,-0.225223 -1.56832,-0.673829 -0.4286,-0.4486 -0.67239,-1.049634 -0.73246,-1.80664 l 0.88874,-0.144529 c 0.18423,1.153534 0.65131,1.730466 1.40031,1.730466 0.4046,0 0.75442,-0.171263 1.05083,-0.511716 0.29642,-0.344466 0.44528,-0.789258 0.44528,-1.333987 0,-0.512685 -0.13576,-0.92391 -0.40825,-1.23633 C 6.94632,9.211021 6.61139,9.054678 6.21483,9.054678 c -0.16816,0 -0.37664,0.03902 -0.62501,0.119145 L 5.69333,8.224609 5.8301,8.236349 c 0.43665,0 0.79207,-0.133978 1.06442,-0.402337 C 7.16687,7.565654 7.30276,7.208392 7.30276,6.759785 7.30276,6.347241 7.18923,6.01594 6.96093,5.7676 6.73258,5.51527 6.45339,5.3887 6.12494,5.3887 5.78455,5.3887 5.49612,5.52083 5.25978,5.78518 5.02751,6.04553 4.87852,6.441915 4.81445,6.974636 L 3.93169,6.783228 C 4.04374,6.03022 4.29695,5.46071 4.68947,5.07619 5.08205,4.69168 5.55656,4.50003 6.1133,4.50003 Z m 5.6953,0 c 0.68888,0 1.23237,0.30896 1.62893,0.92579 0.48064,0.744997 0.72068,1.936021 0.72068,3.574211 0,1.469971 -0.1992,2.586545 -0.5957,3.35156 -0.39648,0.761019 -0.98455,1.142581 -1.76557,1.142581 -0.68907,0 -1.25478,-0.336863 -1.69535,-1.009759 -0.43664,-0.672902 -0.65433,-1.834175 -0.65433,-3.484382 0,-1.477964 0.19919,-2.598358 0.59575,-3.359371 0.40049,-0.76101 0.9886,-1.14063 1.76559,-1.14063 z m -0.0415,0.89453 c -0.40048,0 -0.7373,0.24758 -1.00966,0.740241 -0.26842,0.492661 -0.40244,1.447344 -0.40244,2.86523 0,1.429916 0.13584,2.388305 0.40825,2.87696 0.27634,0.484646 0.62803,0.728511 1.05656,0.728511 0.40456,0 0.74337,-0.247571 1.01572,-0.740227 0.27235,-0.492661 0.40811,-1.447351 0.40811,-2.865244 0,-1.43391 -0.13762,-2.3923 -0.41403,-2.87695 C 12.55726,5.63839 12.20368,5.39452 11.7671,5.39452 Z" />
</svg>
