<?xml version="1.0" encoding="UTF-8" standalone="no"?>
<svg
   version="1.1"
   width="18"
   height="18"
   viewBox="0 0 18 18"
   id="svg1714"
   xmlns="http://www.w3.org/2000/svg"
   xmlns:svg="http://www.w3.org/2000/svg">
  <defs
     id="defs1718">
    <rect
       x="32.567797"
       y="-13.805085"
       width="44.389831"
       height="38.898305"
       id="rect2002" />
    <rect
       x="22.5"
       y="-2.2118644"
       width="28.525424"
       height="24.559322"
       id="rect1996" />
    <rect
       x="40.805085"
       y="-10.525424"
       width="65.898305"
       height="40.652542"
       id="rect1990" />
    <rect
       x="39.661017"
       y="-9.1525424"
       width="44.237288"
       height="35.389831"
       id="rect1984" />
    <rect
       x="21.279661"
       y="-2.8983051"
       width="36.228814"
       height="33.330508"
       id="rect1978" />
    <rect
       x="17.313559"
       y="1.9067797"
       width="18.228814"
       height="14.338983"
       id="rect1972" />
    <rect
       x="22.576271"
       y="-1.4491525"
       width="29.516949"
       height="22.957627"
       id="rect1966" />
  </defs>
  <g
     id="g1783"
     transform="translate(-452.85504,-37.644012)">
    <text
       xml:space="preserve"
       transform="translate(452.85504,37.644012)"
       id="text1964"
       style="white-space:pre;shape-inside:url(#rect1966);display:inline;fill:#000000" />
    <text
       xml:space="preserve"
       transform="translate(452.85504,37.644012)"
       id="text1970"
       style="white-space:pre;shape-inside:url(#rect1972);display:inline;fill:#000000" />
    <text
       xml:space="preserve"
       transform="translate(452.85504,37.644012)"
       id="text1976"
       style="white-space:pre;shape-inside:url(#rect1978);display:inline;fill:#000000" />
    <text
       xml:space="preserve"
       transform="translate(452.85504,37.644012)"
       id="text1982"
       style="white-space:pre;shape-inside:url(#rect1984);display:inline;fill:#000000" />
    <text
       xml:space="preserve"
       transform="translate(452.85504,37.644012)"
       id="text1988"
       style="white-space:pre;shape-inside:url(#rect1990);display:inline;fill:#000000" />
  </g>
  <g
     id="g7392"
     transform="translate(-613.31636,65.243999)">
    <path
       id="text1399"
       style="font-stretch:condensed;font-size:12.3048px;font-family:'Arial Narrow';-inkscape-font-specification:'Arial Narrow Condensed';opacity:0.98;fill:#000000;stroke-width:0.307609;paint-order:markers fill stroke"
       d="m 619.43725,-60.7434 c -0.55676,0 -1.03131,0.191641 -1.42384,0.576165 -0.39254,0.384525 -0.64567,0.953983 -0.75783,1.707011 l 0.88283,0.193357 c 0.0641,-0.532727 0.213,-0.931037 0.44531,-1.191392 0.23633,-0.264361 0.52479,-0.39648 0.86525,-0.39648 0.32845,0 0.60764,0.126558 0.83595,0.378902 0.22831,0.248339 0.3418,0.579613 0.3418,0.992176 0,0.448612 -0.13584,0.805839 -0.40821,1.074205 -0.27237,0.268366 -0.62787,0.404292 -1.06447,0.404292 l -0.13672,-0.01367 -0.10351,0.949208 c 0.24834,-0.08011 0.45678,-0.11914 0.625,-0.11914 0.39655,0 0.73155,0.156318 1.00392,0.468745 0.27237,0.312426 0.40821,0.725566 0.40821,1.238266 0,0.544743 -0.14891,0.987545 -0.44532,1.332015 -0.2964,0.340464 -0.64624,0.511712 -1.05079,0.511712 -0.74902,0 -1.21616,-0.576873 -1.40041,-1.730447 l -0.88868,0.144529 c 0.0601,0.757033 0.30384,1.35996 0.73243,1.808572 0.42858,0.448612 0.95154,0.671867 1.56838,0.671867 0.66491,0 1.23626,-0.25487 1.71291,-0.767569 0.47665,-0.516705 0.71485,-1.181106 0.71485,-1.99021 0,-0.380519 -0.0577,-0.72477 -0.17383,-1.033191 -0.11616,-0.308421 -0.26878,-0.554021 -0.45703,-0.738272 -0.18826,-0.184251 -0.42646,-0.31637 -0.71486,-0.39648 0.31243,-0.17624 0.55434,-0.418132 0.72657,-0.726553 0.17624,-0.308421 0.26563,-0.663894 0.26563,-1.06444 0,-0.656897 -0.20473,-1.202156 -0.61329,-1.634746 -0.40855,-0.43259 -0.90545,-0.64843 -1.49025,-0.64843 z m 5.69538,0 c -0.77706,0 -1.3651,0.381526 -1.76564,1.142565 -0.39654,0.761038 -0.59571,1.879364 -0.59571,3.357381 0,1.650251 0.21771,2.811414 0.6543,3.484332 0.4406,0.672918 1.00639,1.009753 1.69533,1.009753 0.78107,0 1.36911,-0.379572 1.76565,-1.140611 0.39654,-0.765044 0.59571,-1.883469 0.59571,-3.353474 0,-1.638236 -0.24006,-2.829159 -0.72071,-3.574176 -0.39654,-0.616841 -0.93999,-0.92577 -1.62893,-0.92577 z m -0.041,0.894521 c 0.43659,0 0.79014,0.243845 1.06251,0.728507 0.27638,0.484661 0.41407,1.442961 0.41407,2.876918 0,1.417934 -0.13584,2.37448 -0.40821,2.867152 -0.27237,0.492672 -0.61109,0.738272 -1.01564,0.738272 -0.42858,0 -0.78027,-0.241892 -1.05665,-0.726553 -0.27237,-0.488667 -0.40821,-1.448921 -0.40821,-2.878871 0,-1.417935 0.13398,-2.372528 0.40235,-2.8652 0.27237,-0.492672 0.60923,-0.740225 1.00978,-0.740225 z"
       transform="scale(0.99998779,1.0000122)" />
    <ellipse
       style="fill:none;fill-opacity:1;stroke:#000000;stroke-width:1.19928;stroke-dasharray:0.755549;stroke-dashoffset:0;stroke-opacity:1"
       id="ellipse1401"
       cx="622.31635"
       cy="-56.239754"
       rx="8.4002981"
       ry="8.4045572" />
  </g>
</svg>
