<?xml version="1.0" encoding="UTF-8" standalone="no"?>
<svg
   version="1.1"
   width="18"
   height="18"
   viewBox="0 0 18 18"
   id="svg1714"
   xmlns="http://www.w3.org/2000/svg"
   xmlns:svg="http://www.w3.org/2000/svg">
  <defs
     id="defs1718">
    <rect
       x="32.567797"
       y="-13.805085"
       width="44.389831"
       height="38.898305"
       id="rect2002" />
    <rect
       x="22.5"
       y="-2.2118644"
       width="28.525424"
       height="24.559322"
       id="rect1996" />
    <rect
       x="40.805085"
       y="-10.525424"
       width="65.898305"
       height="40.652542"
       id="rect1990" />
    <rect
       x="39.661017"
       y="-9.1525424"
       width="44.237288"
       height="35.389831"
       id="rect1984" />
    <rect
       x="21.279661"
       y="-2.8983051"
       width="36.228814"
       height="33.330508"
       id="rect1978" />
    <rect
       x="17.313559"
       y="1.9067797"
       width="18.228814"
       height="14.338983"
       id="rect1972" />
    <rect
       x="22.576271"
       y="-1.4491525"
       width="29.516949"
       height="22.957627"
       id="rect1966" />
  </defs>
  <g
     id="g1783"
     transform="translate(-452.85504,-37.644012)">
    <text
       xml:space="preserve"
       transform="translate(452.85504,37.644012)"
       id="text1964"
       style="white-space:pre;shape-inside:url(#rect1966);display:inline;fill:#000000" />
    <text
       xml:space="preserve"
       transform="translate(452.85504,37.644012)"
       id="text1970"
       style="white-space:pre;shape-inside:url(#rect1972);display:inline;fill:#000000" />
    <text
       xml:space="preserve"
       transform="translate(452.85504,37.644012)"
       id="text1976"
       style="white-space:pre;shape-inside:url(#rect1978);display:inline;fill:#000000" />
    <text
       xml:space="preserve"
       transform="translate(452.85504,37.644012)"
       id="text1982"
       style="white-space:pre;shape-inside:url(#rect1984);display:inline;fill:#000000" />
    <text
       xml:space="preserve"
       transform="translate(452.85504,37.644012)"
       id="text1988"
       style="white-space:pre;shape-inside:url(#rect1990);display:inline;fill:#000000" />
  </g>
  <g
     id="g11778">
    <rect
       style="opacity:0.98;fill:none;stroke:#000000;stroke-width:1.19939;stroke-dasharray:none;stroke-opacity:1;paint-order:markers fill stroke"
       id="rect2885"
       width="16.800611"
       height="16.800611"
       x="0.59969503"
       y="0.59969503"
       rx="2.1544993"
       ry="2.1544993" />
    <path
       id="text2889"
       style="font-stretch:condensed;font-size:12.3046px;font-family:'Arial Narrow';-inkscape-font-specification:'Arial Narrow Condensed';opacity:0.98;fill:#000000;stroke-width:0.307614;paint-order:markers fill stroke"
       d="m 6.1128792,4.5003745 c -0.5567506,0 -1.0312818,0.1916605 -1.4238109,0.5761789 C 4.2965391,5.4610718 4.0434161,6.0305902 3.9312649,6.7836053 l 0.884755,0.1914086 C 4.8801062,6.4422958 5.0270607,6.0458973 5.2593739,5.7855464 5.4956924,5.52119 5.7841388,5.3890572 6.1245978,5.3890572 c 0.3284427,0 0.6076196,0.1265707 0.8359274,0.3789108 0.2283077,0.2483348 0.3417927,0.5776903 0.3417927,0.9902464 0,0.4486048 -0.135831,0.8078232 -0.4081982,1.0761849 C 6.6217525,8.1027611 6.266268,8.236748 5.8296795,8.236748 L 5.6929624,8.2250291 5.589448,9.1742593 c 0.2483348,-0.080108 0.4567656,-0.1191421 0.6249924,-0.1191421 0.3965346,0 0.731527,0.1543814 1.0038941,0.4668026 0.2723672,0.3124211 0.4081982,0.7256052 0.4081982,1.2382962 0,0.544734 -0.1469544,0.989536 -0.443354,1.334001 -0.2963996,0.340459 -0.6481763,0.509771 -1.0527216,0.509771 -0.7490097,0 -1.2141722,-0.574981 -1.3984206,-1.728536 l -0.8906142,0.14258 c 0.060081,0.75702 0.3057883,1.360011 0.7343661,1.808615 0.4285777,0.448605 0.9495557,0.673837 1.5663873,0.673837 0.6648963,0 1.2362273,-0.25685 1.7128699,-0.769541 0.4766425,-0.516696 0.7148351,-1.179215 0.7148351,-1.988305 0,-0.380513 -0.05767,-0.7248 -0.173826,-1.0332159 C 8.2798981,9.4010063 8.1272827,9.1534271 7.9390289,8.9691787 7.7507752,8.7849303 7.5125826,8.6527975 7.2241938,8.5726895 7.536615,8.3964519 7.7785154,8.154534 7.9507475,7.8461182 8.1269851,7.5377025 8.2163693,7.1841453 8.2163693,6.7836053 8.2163693,6.1267198 8.0116463,5.5814031 7.6030955,5.1488199 7.1945447,4.7162368 6.6976675,4.5003745 6.1128792,4.5003745 Z m 5.6952438,0 c -0.777048,0 -1.365064,0.379613 -1.765604,1.1406389 -0.3965344,0.7610259 -0.5956958,1.8814232 -0.5956958,3.3594157 0,1.6502249 0.2196535,2.8115099 0.6562418,3.4844169 0.440594,0.672907 1.00441,1.009778 1.693339,1.009778 0.781053,0 1.371022,-0.381566 1.767557,-1.142592 0.396534,-0.765031 0.593743,-1.881621 0.593743,-3.3516029 0,-1.6382084 -0.240047,-2.8292578 -0.720695,-3.5742621 C 13.040475,4.8093355 12.497051,4.5003745 11.808123,4.5003745 Z m -0.04101,0.8945421 c 0.436588,0 0.79012,0.241918 1.062487,0.7265713 0.276372,0.4846534 0.41601,1.4450081 0.41601,2.8789412 0,1.4179119 -0.137784,2.3726049 -0.410151,2.8652689 -0.272367,0.492664 -0.611067,0.73829 -1.015613,0.73829 -0.428577,0 -0.780255,-0.241918 -1.056627,-0.726571 -0.272368,-0.488659 -0.408199,-1.44706 -0.408199,-2.8769879 0,-1.4179115 0.133977,-2.372605 0.402339,-2.8652691 0.272367,-0.4926642 0.609214,-0.7402434 1.009754,-0.7402434 z"
       transform="scale(1.0000121,0.99998788)" />
  </g>
</svg>
