<?xml version="1.0" encoding="UTF-8" standalone="no"?>
<svg
   version="1.1"
   width="18"
   height="18"
   viewBox="0 0 18 18"
   id="svg1714"
   xmlns="http://www.w3.org/2000/svg"
   xmlns:svg="http://www.w3.org/2000/svg">
  <defs
     id="defs1718">
    <rect
       x="32.567797"
       y="-13.805085"
       width="44.389831"
       height="38.898305"
       id="rect2002" />
    <rect
       x="22.5"
       y="-2.2118644"
       width="28.525424"
       height="24.559322"
       id="rect1996" />
    <rect
       x="40.805085"
       y="-10.525424"
       width="65.898305"
       height="40.652542"
       id="rect1990" />
    <rect
       x="39.661017"
       y="-9.1525424"
       width="44.237288"
       height="35.389831"
       id="rect1984" />
    <rect
       x="21.279661"
       y="-2.8983051"
       width="36.228814"
       height="33.330508"
       id="rect1978" />
    <rect
       x="17.313559"
       y="1.9067797"
       width="18.228814"
       height="14.338983"
       id="rect1972" />
    <rect
       x="22.576271"
       y="-1.4491525"
       width="29.516949"
       height="22.957627"
       id="rect1966" />
  </defs>
  <g
     id="g1783"
     transform="translate(-452.85504,-37.644012)">
    <text
       xml:space="preserve"
       transform="translate(452.85504,37.644012)"
       id="text1964"
       style="white-space:pre;shape-inside:url(#rect1966);display:inline;fill:#000000" />
    <text
       xml:space="preserve"
       transform="translate(452.85504,37.644012)"
       id="text1970"
       style="white-space:pre;shape-inside:url(#rect1972);display:inline;fill:#000000" />
    <text
       xml:space="preserve"
       transform="translate(452.85504,37.644012)"
       id="text1976"
       style="white-space:pre;shape-inside:url(#rect1978);display:inline;fill:#000000" />
    <text
       xml:space="preserve"
       transform="translate(452.85504,37.644012)"
       id="text1982"
       style="white-space:pre;shape-inside:url(#rect1984);display:inline;fill:#000000" />
    <text
       xml:space="preserve"
       transform="translate(452.85504,37.644012)"
       id="text1988"
       style="white-space:pre;shape-inside:url(#rect1990);display:inline;fill:#000000" />
  </g>
  <path
     id="rect3806"
     style="opacity:0.98;fill:#000000;fill-opacity:1;stroke:none;stroke-width:1.28507;stroke-dasharray:none;stroke-opacity:1;paint-order:markers fill stroke"
     d="M 2.30863,0 C 1.02986,0 0,1.02978 0,2.3086 v 13.38274 c 0,1.27884 1.02986,2.30862 2.30863,2.30862 h 13.38283 c 1.27878,0 2.30858,-1.02978 2.30858,-2.30862 V 2.3086 C 18.00004,1.02978 16.97024,0 15.69146,0 Z m 3.80473,4.49989 c 0.58472,0 1.08159,0.21596 1.49024,0.64854 0.40854,0.43259 0.61321,0.97787 0.61321,1.63474 0,0.40046 -0.0894,0.75406 -0.26559,1.06248 -0.17227,0.30846 -0.41411,0.55227 -0.72653,0.72847 0.28836,0.0807 0.52659,0.21228 0.71473,0.39657 0.1883,0.18414 0.34096,0.42983 0.45708,0.73826 0.11617,0.30839 0.17387,0.65264 0.17387,1.03324 0,0.80903 -0.23823,1.47158 -0.71487,1.98823 -0.47665,0.51272 -1.04801,0.7695 -1.71287,0.7695 -0.61682,0 -1.13985,-0.22519 -1.56833,-0.67385 C 4.1457,12.37756 3.90192,11.77654 3.84183,11.01944 L 4.73046,10.8749 c 0.1843,1.15358 0.65143,1.73045 1.4005,1.73045 0.40448,0 0.7543,-0.1712 1.05071,-0.5116 C 7.47814,11.74923 7.627,11.30441 7.627,10.75973 7.627,10.24706 7.49118,9.83578 7.21882,9.52343 6.94647,9.21092 6.61141,9.05463 6.2149,9.05463 c -0.16828,0 -0.37665,0.0395 -0.62502,0.11913 L 5.69347,8.2245 5.83013,8.2364 c 0.43657,0 0.79211,-0.134 1.06446,-0.40236 C 7.16694,7.56573 7.30271,7.20841 7.30271,6.75981 7.30271,6.34731 7.1893,6.01597 6.96094,5.76761 6.73271,5.51533 6.45353,5.38874 6.12509,5.38874 5.78461,5.38874 5.49607,5.5209 5.25978,5.7852 5.02751,6.04558 4.87859,6.44194 4.81453,6.97466 L 3.9317,6.78327 C 4.04388,6.03029 4.29697,5.46079 4.68953,5.07625 5.08204,4.69173 5.55657,4.49999 6.11336,4.49999 Z m 5.6953,0 c 0.68893,0 1.23232,0.30906 1.62883,0.92586 0.48069,0.745 0.72079,1.93599 0.72079,3.57419 0,1.46991 -0.19919,2.58649 -0.59575,3.35156 -0.39656,0.76101 -0.98455,1.14261 -1.76565,1.14261 -0.68886,0 -1.25466,-0.3369 -1.69528,-1.00977 -0.43657,-0.67289 -0.65427,-1.83417 -0.65427,-3.4844 0,-1.47796 0.19913,-2.59831 0.59563,-3.35932 0.40062,-0.76103 0.9886,-1.14073 1.7657,-1.14073 z m -0.0415,0.89456 c -0.40049,0 -0.73744,0.24766 -1.00979,0.74032 -0.26831,0.49264 -0.40231,1.44728 -0.40231,2.86517 0,1.42991 0.13588,2.38832 0.40824,2.87698 0.2764,0.48468 0.62796,0.72843 1.05662,0.72843 0.40455,0 0.74318,-0.24751 1.01555,-0.74017 0.27242,-0.49264 0.40828,-1.44737 0.40828,-2.86524 0,-1.43384 -0.13775,-2.39228 -0.41409,-2.8769 -0.27235,-0.48467 -0.62587,-0.72859 -1.0625,-0.72859 z" />
</svg>
