<?xml version="1.0" encoding="UTF-8" standalone="no"?>
<svg
   version="1.1"
   width="18"
   height="18"
   viewBox="0 0 18 18"
   id="svg1714"
   xmlns="http://www.w3.org/2000/svg"
   xmlns:svg="http://www.w3.org/2000/svg">
  <defs
     id="defs1718">
    <rect
       x="32.567797"
       y="-13.805085"
       width="44.389831"
       height="38.898305"
       id="rect2002" />
    <rect
       x="22.5"
       y="-2.2118644"
       width="28.525424"
       height="24.559322"
       id="rect1996" />
    <rect
       x="40.805085"
       y="-10.525424"
       width="65.898305"
       height="40.652542"
       id="rect1990" />
    <rect
       x="39.661017"
       y="-9.1525424"
       width="44.237288"
       height="35.389831"
       id="rect1984" />
    <rect
       x="21.279661"
       y="-2.8983051"
       width="36.228814"
       height="33.330508"
       id="rect1978" />
    <rect
       x="17.313559"
       y="1.9067797"
       width="18.228814"
       height="14.338983"
       id="rect1972" />
    <rect
       x="22.576271"
       y="-1.4491525"
       width="29.516949"
       height="22.957627"
       id="rect1966" />
  </defs>
  <g
     id="g1783"
     transform="translate(-452.85504,-37.644012)">
    <text
       xml:space="preserve"
       transform="translate(452.85504,37.644012)"
       id="text1964"
       style="white-space:pre;shape-inside:url(#rect1966);display:inline;fill:#000000" />
    <text
       xml:space="preserve"
       transform="translate(452.85504,37.644012)"
       id="text1970"
       style="white-space:pre;shape-inside:url(#rect1972);display:inline;fill:#000000" />
    <text
       xml:space="preserve"
       transform="translate(452.85504,37.644012)"
       id="text1976"
       style="white-space:pre;shape-inside:url(#rect1978);display:inline;fill:#000000" />
    <text
       xml:space="preserve"
       transform="translate(452.85504,37.644012)"
       id="text1982"
       style="white-space:pre;shape-inside:url(#rect1984);display:inline;fill:#000000" />
    <text
       xml:space="preserve"
       transform="translate(452.85504,37.644012)"
       id="text1988"
       style="white-space:pre;shape-inside:url(#rect1990);display:inline;fill:#000000" />
  </g>
  <g
     id="g9588">
    <path
       id="text1395"
       style="font-stretch:condensed;font-size:12.3048px;font-family:'Arial Narrow';-inkscape-font-specification:'Arial Narrow Condensed';opacity:0.98;fill:#000000;stroke-width:0.307609;paint-order:markers fill stroke"
       d="m 6.1131328,4.4993824 c -0.5567596,0 -1.03131,0.1935933 -1.4238455,0.5781179 -0.3925355,0.3845246 -0.6456687,0.95203 -0.7578218,1.7050573 L 4.816242,6.9759146 C 4.8803294,6.4431878 5.0272898,6.0468312 5.2596068,5.786476 5.4959292,5.5221154 5.7843872,5.3899965 6.1248517,5.3899965 c 0.3284481,0 0.6076362,0.1246042 0.8359477,0.3769485 0.2283115,0.2483388 0.3418011,0.5796125 0.3418011,0.9921754 0,0.4486121 -0.1358365,0.8077926 -0.4082081,1.0761588 C 6.6220208,8.1036453 6.2665219,8.237618 5.8299262,8.237618 L 5.6932058,8.2258994 5.5896889,9.1751066 C 5.8380277,9.0949973 6.046467,9.0540143 6.2146966,9.0540143 c 0.396541,0 0.7315469,0.156318 1.0039185,0.4687443 0.2723716,0.3124262 0.4082081,0.7255664 0.4082081,1.2382664 0,0.544743 -0.1469604,0.989498 -0.4433648,1.333968 -0.2964044,0.340464 -0.6481953,0.509759 -1.0527472,0.509759 -0.7490219,0 -1.2161564,-0.576874 -1.4004078,-1.730447 l -0.8886827,0.144529 c 0.060082,0.757033 0.3057992,1.35996 0.734384,1.808572 0.4285847,0.448612 0.9495838,0.67382 1.5664254,0.67382 0.6649071,0 1.2362612,-0.256823 1.7129115,-0.769522 0.4766503,-0.516705 0.7148525,-1.179153 0.7148525,-1.988257 0,-0.380519 -0.057672,-0.726723 -0.1738302,-1.0351438 C 8.2802054,9.3998824 8.1275839,9.1542823 7.939327,8.9700309 7.7510702,8.7857796 7.512868,8.6536607 7.2244745,8.5735514 7.5369008,8.397311 7.7788109,8.1554186 7.9510459,7.8469978 8.1272864,7.538577 8.2166742,7.1831041 8.2166742,6.7825576 8.2166742,6.1256614 8.0119428,5.5823552 7.6033854,5.149765 7.194828,4.7171749 6.6979307,4.4993824 6.1131328,4.4993824 Z m 5.6953822,0 c -0.77706,0 -1.3651,0.3815258 -1.765647,1.1425641 -0.3965407,0.7610383 -0.5957101,1.8793645 -0.5957101,3.357381 0,1.6502515 0.2196624,2.8133675 0.6562581,3.4862855 0.440601,0.672918 1.00444,1.0078 1.69338,1.0078 0.781066,0 1.369106,-0.379573 1.765647,-1.140611 0.396541,-0.765044 0.59571,-1.883469 0.59571,-3.3534745 0,-1.6382351 -0.240056,-2.8291587 -0.720712,-3.5741752 C 13.0409,4.8083107 12.497455,4.4993824 11.808515,4.4993824 Z m -0.04102,0.8964734 c 0.436595,0 0.790141,0.2418924 1.062513,0.7265536 0.276377,0.4846613 0.414067,1.4429617 0.414067,2.8769181 0,1.4179345 -0.135836,2.3744805 -0.408208,2.8671525 -0.272371,0.492672 -0.611085,0.738272 -1.015637,0.738272 -0.428585,0 -0.780277,-0.241892 -1.056654,-0.726553 -0.272371,-0.488667 -0.408208,-1.448921 -0.408208,-2.8788715 0,-1.4179346 0.133983,-2.3725273 0.402349,-2.8651995 0.272371,-0.4926721 0.609231,-0.7382722 1.009778,-0.7382722 z"
       transform="scale(0.99998778,1.0000122)" />
    <rect
       style="opacity:0.98;fill:none;stroke:#000000;stroke-width:1.19939;stroke-dasharray:0.755616;stroke-dashoffset:0;stroke-opacity:1;paint-order:markers fill stroke"
       id="rect1408"
       width="16.800611"
       height="16.800611"
       x="0.59969503"
       y="0.59969503"
       rx="2.1544993"
       ry="2.1544993" />
  </g>
</svg>
