<?xml version="1.0" encoding="UTF-8" standalone="no"?>
<svg
   version="1.1"
   width="18"
   height="18"
   viewBox="0 0 18 18"
   id="svg1714"
   xmlns="http://www.w3.org/2000/svg"
   xmlns:svg="http://www.w3.org/2000/svg">
  <defs
     id="defs1718">
    <rect
       x="32.567797"
       y="-13.805085"
       width="44.389831"
       height="38.898305"
       id="rect2002" />
    <rect
       x="22.5"
       y="-2.2118644"
       width="28.525424"
       height="24.559322"
       id="rect1996" />
    <rect
       x="40.805085"
       y="-10.525424"
       width="65.898305"
       height="40.652542"
       id="rect1990" />
    <rect
       x="39.661017"
       y="-9.1525424"
       width="44.237288"
       height="35.389831"
       id="rect1984" />
    <rect
       x="21.279661"
       y="-2.8983051"
       width="36.228814"
       height="33.330508"
       id="rect1978" />
    <rect
       x="17.313559"
       y="1.9067797"
       width="18.228814"
       height="14.338983"
       id="rect1972" />
    <rect
       x="22.576271"
       y="-1.4491525"
       width="29.516949"
       height="22.957627"
       id="rect1966" />
  </defs>
  <g
     id="g1783"
     transform="translate(-452.85504,-37.644012)">
    <text
       xml:space="preserve"
       transform="translate(452.85504,37.644012)"
       id="text1964"
       style="white-space:pre;shape-inside:url(#rect1966);display:inline;fill:#000000" />
    <text
       xml:space="preserve"
       transform="translate(452.85504,37.644012)"
       id="text1970"
       style="white-space:pre;shape-inside:url(#rect1972);display:inline;fill:#000000" />
    <text
       xml:space="preserve"
       transform="translate(452.85504,37.644012)"
       id="text1976"
       style="white-space:pre;shape-inside:url(#rect1978);display:inline;fill:#000000" />
    <text
       xml:space="preserve"
       transform="translate(452.85504,37.644012)"
       id="text1982"
       style="white-space:pre;shape-inside:url(#rect1984);display:inline;fill:#000000" />
    <text
       xml:space="preserve"
       transform="translate(452.85504,37.644012)"
       id="text1988"
       style="white-space:pre;shape-inside:url(#rect1990);display:inline;fill:#000000" />
  </g>
  <g
     id="g7479"
     transform="translate(3.93816e-7,4.6267516e-5)">
    <path
       id="text1444"
       style="font-stretch:condensed;font-size:12.3048px;font-family:'Arial Narrow';-inkscape-font-specification:'Arial Narrow Condensed';opacity:0.98;fill:#000000;stroke-width:0.307608;paint-order:markers fill stroke"
       d="m 6.0741402,4.4991168 c -0.5567596,0 -1.0313172,0.1935904 -1.4238528,0.578115 C 4.2577519,5.4617564 4.0046148,6.029253 3.8924618,6.7822804 l 0.8847809,0.193356 C 4.8413302,6.4429096 4.9882928,6.0465591 5.2206098,5.7862039 5.4569322,5.5218432 5.7453947,5.3897264 6.0858592,5.3897264 c 0.3284481,0 0.6076404,0.1246023 0.8359519,0.3769466 0.2283115,0.2483388 0.3418028,0.5796075 0.3418028,0.9921703 0,0.4486121 -0.1358386,0.8077871 -0.4082102,1.0761533 C 6.5830321,8.1033627 6.2275278,8.2373334 5.7909322,8.2373334 L 5.6542111,8.2256148 5.5506936,9.1748172 c 0.2483389,-0.080109 0.4567813,-0.1210917 0.6250109,-0.1210917 0.396541,0 0.731552,0.1563156 1.0039236,0.4687419 0.2723716,0.3124262 0.4082102,0.7255606 0.4082102,1.2382596 0,0.544743 -0.1469627,0.989492 -0.4433671,1.333962 -0.2964043,0.340464 -0.6482006,0.509756 -1.0527526,0.509756 -0.7490219,0 -1.2161635,-0.576865 -1.4004148,-1.730438 l -0.8886873,0.144528 c 0.060082,0.757033 0.305803,1.359951 0.7343877,1.808563 0.4285847,0.448612 0.9495918,0.673816 1.5664334,0.673816 0.6649071,0 1.23627,-0.256818 1.7129203,-0.769518 0.4766503,-0.516705 0.7148561,-1.179143 0.7148561,-1.988247 0,-0.380519 -0.057673,-0.724764 -0.1738311,-1.0331849 C 8.2412244,9.4015434 8.0886006,9.153994 7.9003437,8.9697426 7.7120869,8.7854912 7.473881,8.6533744 7.1854876,8.5732651 7.4979138,8.3970246 7.7398277,8.1551359 7.9120627,7.8467151 8.0883031,7.5382943 8.1776923,7.1828269 8.1776923,6.7822804 8.1776923,6.1253842 7.9729578,5.5820864 7.5644004,5.1494962 7.155843,4.716906 6.6589381,4.4991168 6.0741402,4.4991168 Z m 4.1934318,0.1562473 -0.703137,4.5253123 0.835952,0.1308571 c 0.136186,-0.2683661 0.320427,-0.4748339 0.552744,-0.6230361 0.236322,-0.1522076 0.487506,-0.2285116 0.755872,-0.2285116 0.444607,0 0.813089,0.1729999 1.105488,0.5214753 0.296405,0.34447 0.445321,0.8320543 0.445321,1.4609119 0,0.668913 -0.152624,1.19738 -0.45704,1.58591 -0.304415,0.384525 -0.665382,0.576162 -1.085956,0.576162 -0.336459,0 -0.634291,-0.135824 -0.89064,-0.408196 -0.252345,-0.276377 -0.414239,-0.695072 -0.486337,-1.255837 l -0.9316567,0.0957 c 0.060082,0.769049 0.305803,1.371967 0.7343877,1.808563 0.43259,0.43259 0.961113,0.650379 1.585965,0.650379 0.753027,0 1.350346,-0.30707 1.794953,-0.919906 0.448612,-0.616842 0.67384,-1.355584 0.67384,-2.216759 0,-0.8731909 -0.225228,-1.5673422 -0.67384,-2.0800417 -0.444607,-0.516705 -0.969421,-0.7734241 -1.574246,-0.7734241 -0.480656,0 -0.93472,0.184222 -1.363305,0.5527248 l 0.390632,-2.3671466 h 2.878956 V 4.6553641 Z"
       transform="scale(0.99998268,1.0000173)" />
    <ellipse
       style="fill:none;fill-opacity:1;stroke:#000000;stroke-width:1.19928;stroke-dasharray:0.755549;stroke-dashoffset:0;stroke-opacity:1"
       id="ellipse1446"
       cx="8.9999857"
       cy="9.004199"
       rx="8.4002981"
       ry="8.4045572" />
  </g>
</svg>
