<?xml version="1.0" encoding="UTF-8" standalone="no"?>
<svg
   version="1.1"
   width="18"
   height="18"
   viewBox="0 0 18 18"
   id="svg1714"
   xmlns="http://www.w3.org/2000/svg"
   xmlns:svg="http://www.w3.org/2000/svg">
  <defs
     id="defs1718">
    <rect
       x="32.567797"
       y="-13.805085"
       width="44.389831"
       height="38.898305"
       id="rect2002" />
    <rect
       x="22.5"
       y="-2.2118644"
       width="28.525424"
       height="24.559322"
       id="rect1996" />
    <rect
       x="40.805085"
       y="-10.525424"
       width="65.898305"
       height="40.652542"
       id="rect1990" />
    <rect
       x="39.661017"
       y="-9.1525424"
       width="44.237288"
       height="35.389831"
       id="rect1984" />
    <rect
       x="21.279661"
       y="-2.8983051"
       width="36.228814"
       height="33.330508"
       id="rect1978" />
    <rect
       x="17.313559"
       y="1.9067797"
       width="18.228814"
       height="14.338983"
       id="rect1972" />
    <rect
       x="22.576271"
       y="-1.4491525"
       width="29.516949"
       height="22.957627"
       id="rect1966" />
  </defs>
  <g
     id="g1783"
     transform="translate(-452.85504,-37.644012)">
    <text
       xml:space="preserve"
       transform="translate(452.85504,37.644012)"
       id="text1964"
       style="white-space:pre;shape-inside:url(#rect1966);display:inline;fill:#000000" />
    <text
       xml:space="preserve"
       transform="translate(452.85504,37.644012)"
       id="text1970"
       style="white-space:pre;shape-inside:url(#rect1972);display:inline;fill:#000000" />
    <text
       xml:space="preserve"
       transform="translate(452.85504,37.644012)"
       id="text1976"
       style="white-space:pre;shape-inside:url(#rect1978);display:inline;fill:#000000" />
    <text
       xml:space="preserve"
       transform="translate(452.85504,37.644012)"
       id="text1982"
       style="white-space:pre;shape-inside:url(#rect1984);display:inline;fill:#000000" />
    <text
       xml:space="preserve"
       transform="translate(452.85504,37.644012)"
       id="text1988"
       style="white-space:pre;shape-inside:url(#rect1990);display:inline;fill:#000000" />
    <g
       id="g3296"
       transform="translate(-8.8648999,4.1355284)">
      <circle
         style="fill:none;fill-opacity:1;stroke:#000000;stroke-width:1.19912;stroke-dasharray:none;stroke-opacity:1"
         id="circle784"
         cx="470.71994"
         cy="42.508484"
         r="8.4004402" />
      <path
         id="text788"
         style="font-stretch:condensed;font-size:12.3045px;font-family:'Arial Narrow';-inkscape-font-specification:'Arial Narrow Condensed';opacity:0.98;fill:#000000;stroke-width:0.307612;paint-order:markers fill stroke"
         d="m 467.79492,38.007812 c -0.55674,0 -1.03325,0.19361 -1.42578,0.578126 -0.39253,0.384515 -0.64371,0.952069 -0.75586,1.705078 l 0.88281,0.193359 c 0.0641,-0.532714 0.213,-0.929104 0.44532,-1.189453 0.23631,-0.264354 0.52477,-0.396484 0.86523,-0.396484 0.32844,0 0.60568,0.124615 0.83398,0.376953 0.22831,0.248332 0.34376,0.579634 0.34376,0.992187 -10e-6,0.448601 -0.1378,0.807812 -0.41016,1.076172 -0.27237,0.26836 -0.62592,0.402344 -1.0625,0.402344 l -0.13867,-0.01172 -0.10157,0.949219 c 0.24834,-0.08011 0.45678,-0.121094 0.625,-0.121094 0.39654,0 0.73155,0.156331 1.00391,0.46875 0.27237,0.312419 0.4082,0.725594 0.4082,1.238281 0,0.54473 -0.14891,0.989523 -0.44531,1.333985 -0.2964,0.340456 -0.64624,0.509765 -1.05078,0.509765 -0.749,0 -1.21614,-0.576923 -1.40039,-1.730469 l -0.88867,0.144532 c 0.0601,0.757014 0.30385,1.359992 0.73242,1.808594 0.42857,0.448601 0.95153,0.671874 1.56836,0.671874 0.66489,1e-6 1.23625,-0.254891 1.71289,-0.767578 0.47664,-0.516692 0.71484,-1.18115 0.71484,-1.990234 0,-0.38051 -0.0596,-0.72479 -0.17578,-1.033203 -0.11615,-0.308413 -0.26682,-0.554034 -0.45508,-0.738281 -0.18825,-0.184247 -0.42645,-0.316377 -0.71484,-0.396485 0.31242,-0.176236 0.55433,-0.418149 0.72656,-0.726562 0.17624,-0.308414 0.26367,-0.663917 0.26367,-1.064453 0,-0.656881 -0.20473,-1.200233 -0.61328,-1.632813 -0.40854,-0.43258 -0.90349,-0.650391 -1.48828,-0.65039 z m 4.19336,0.15625 -0.70312,4.525391 0.83398,0.130859 c 0.13618,-0.268359 0.32042,-0.476801 0.55274,-0.625 0.23631,-0.152203 0.48945,-0.226562 0.75781,-0.226562 0.44459,0 0.81307,0.173017 1.10547,0.521484 0.29639,0.344462 0.44531,0.832095 0.44531,1.460938 0,0.668896 -0.15262,1.197417 -0.45703,1.585937 -0.30441,0.384516 -0.66733,0.576172 -1.08789,0.576172 -0.33645,0 -0.63233,-0.135838 -0.88867,-0.408203 -0.25234,-0.27637 -0.41424,-0.695108 -0.48633,-1.255859 l -0.93164,0.0957 c 0.0601,0.76903 0.30384,1.372009 0.73242,1.808594 0.43258,0.432579 0.9611,0.648437 1.58594,0.648437 0.753,0 1.35227,-0.305147 1.79687,-0.917969 0.4486,-0.616826 0.67188,-1.355643 0.67188,-2.216796 0,-0.87317 -0.22328,-1.567392 -0.67188,-2.080079 -0.4446,-0.516692 -0.96941,-0.77539 -1.57422,-0.77539 -0.48064,0 -0.93471,0.18424 -1.36328,0.552734 l 0.39063,-2.367187 h 2.87695 v -1.033204 z" />
    </g>
  </g>
</svg>
