<?xml version="1.0" encoding="UTF-8" standalone="no"?>
<svg
   version="1.1"
   width="18"
   height="18"
   viewBox="0 0 18 18"
   id="svg1714"
   xmlns="http://www.w3.org/2000/svg"
   xmlns:svg="http://www.w3.org/2000/svg">
  <defs
     id="defs1718">
    <rect
       x="32.567797"
       y="-13.805085"
       width="44.389831"
       height="38.898305"
       id="rect2002" />
    <rect
       x="22.5"
       y="-2.2118644"
       width="28.525424"
       height="24.559322"
       id="rect1996" />
    <rect
       x="40.805085"
       y="-10.525424"
       width="65.898305"
       height="40.652542"
       id="rect1990" />
    <rect
       x="39.661017"
       y="-9.1525424"
       width="44.237288"
       height="35.389831"
       id="rect1984" />
    <rect
       x="21.279661"
       y="-2.8983051"
       width="36.228814"
       height="33.330508"
       id="rect1978" />
    <rect
       x="17.313559"
       y="1.9067797"
       width="18.228814"
       height="14.338983"
       id="rect1972" />
    <rect
       x="22.576271"
       y="-1.4491525"
       width="29.516949"
       height="22.957627"
       id="rect1966" />
  </defs>
  <g
     id="g1783"
     transform="translate(-452.85504,-37.644012)">
    <text
       xml:space="preserve"
       transform="translate(452.85504,37.644012)"
       id="text1964"
       style="white-space:pre;shape-inside:url(#rect1966);display:inline;fill:#000000" />
    <text
       xml:space="preserve"
       transform="translate(452.85504,37.644012)"
       id="text1970"
       style="white-space:pre;shape-inside:url(#rect1972);display:inline;fill:#000000" />
    <text
       xml:space="preserve"
       transform="translate(452.85504,37.644012)"
       id="text1976"
       style="white-space:pre;shape-inside:url(#rect1978);display:inline;fill:#000000" />
    <text
       xml:space="preserve"
       transform="translate(452.85504,37.644012)"
       id="text1982"
       style="white-space:pre;shape-inside:url(#rect1984);display:inline;fill:#000000" />
    <text
       xml:space="preserve"
       transform="translate(452.85504,37.644012)"
       id="text1988"
       style="white-space:pre;shape-inside:url(#rect1990);display:inline;fill:#000000" />
  </g>
  <path
     id="circle962"
     style="fill:#000000;fill-opacity:1;stroke:none;stroke-width:1.04984;stroke-dasharray:none"
     d="M 9.00001,0 A 8.9999995,8.9999997 0 0 0 0,8.999991 8.9999995,8.9999997 0 0 0 9.00001,17.999997 8.9999995,8.9999997 0 0 0 18.00003,8.999991 8.9999995,8.9999997 0 0 0 9.00001,0 Z M 6.07422,4.49999 c 0.58477,0 1.08171,0.21587 1.49018,0.64844 0.40858,0.43258 0.61333,0.977886 0.61333,1.634767 0,0.40054 -0.0894,0.75408 -0.26564,1.0625 -0.1722,0.30841 -0.41414,0.552282 -0.72655,0.728518 0.28837,0.08009 0.52654,0.212234 0.71488,0.396484 0.18814,0.184249 0.34084,0.429873 0.45699,0.738282 0.11611,0.308412 0.17381,0.652691 0.17381,1.033205 0,0.809079 -0.23817,1.471587 -0.71487,1.988283 -0.47657,0.512682 -1.04796,0.769525 -1.71287,0.769525 -0.61681,0 -1.13974,-0.223273 -1.56832,-0.67188 -0.42859,-0.448595 -0.67234,-1.05158 -0.73241,-1.808589 l 0.88869,-0.144529 c 0.18416,1.153539 0.65137,1.730466 1.40037,1.730466 0.40454,0 0.75437,-0.171262 1.05078,-0.511716 0.29633,-0.344468 0.44532,-0.789255 0.44532,-1.333987 0,-0.512687 -0.13594,-0.923909 -0.40829,-1.23633 C 6.90727,9.21102 6.57231,9.054678 6.17575,9.054678 c -0.16828,0 -0.37665,0.03902 -0.62495,0.119145 L 5.65432,8.22461 5.79096,8.23635 c 0.43657,0 0.79213,-0.133977 1.06449,-0.402336 C 7.1278,7.565654 7.26367,7.208395 7.26367,6.759786 7.26367,6.34724 7.15021,6.01594 6.92186,5.7676 6.69358,5.51527 6.41433,5.3887 6.08589,5.3887 5.74547,5.3887 5.45703,5.52083 5.22071,5.78518 4.98832,6.04553 4.83946,6.441914 4.77538,6.974638 L 3.89251,6.783229 C 4.00468,6.03022 4.25781,5.46072 4.65039,5.07619 5.04285,4.69168 5.51742,4.50003 6.07422,4.50003 Z m 4.19335,0.15625 h 3.58591 v 1.03321 h -2.87691 l -0.39059,2.367186 c 0.42847,-0.368492 0.88259,-0.552735 1.36322,-0.552735 0.60484,0 1.12963,0.2587 1.57424,0.775395 0.44854,0.51268 0.67384,1.204956 0.67384,2.078121 0,0.861156 -0.2253,1.599965 -0.67384,2.216795 -0.44461,0.612827 -1.04193,0.91992 -1.79495,0.91992 -0.62486,0 -1.15532,-0.215848 -1.5879,-0.64843 C 9.71206,12.409114 9.46827,11.806136 9.40818,11.037098 l 0.93165,-0.09569 c 0.0723,0.56075 0.23392,0.979486 0.48638,1.255859 0.25627,0.272369 0.55214,0.4082 0.88862,0.4082 0.42056,0 0.7835,-0.193615 1.08787,-0.578124 0.30445,-0.388523 0.45701,-0.917042 0.45701,-1.585936 0,-0.628842 -0.14887,-1.114525 -0.44528,-1.458983 -0.29236,-0.348463 -0.66085,-0.523441 -1.10546,-0.523441 -0.26837,0 -0.51947,0.07636 -0.75586,0.22851 C 10.72077,8.835695 10.53656,9.044141 10.40038,9.3125 L 9.56446,9.179685 Z" />
</svg>
