<?xml version="1.0" encoding="UTF-8" standalone="no"?>
<svg
   version="1.1"
   width="18"
   height="18"
   viewBox="0 0 18 18"
   id="svg1714"
   xmlns="http://www.w3.org/2000/svg"
   xmlns:svg="http://www.w3.org/2000/svg">
  <defs
     id="defs1718">
    <rect
       x="32.567797"
       y="-13.805085"
       width="44.389831"
       height="38.898305"
       id="rect2002" />
    <rect
       x="22.5"
       y="-2.2118644"
       width="28.525424"
       height="24.559322"
       id="rect1996" />
    <rect
       x="40.805085"
       y="-10.525424"
       width="65.898305"
       height="40.652542"
       id="rect1990" />
    <rect
       x="39.661017"
       y="-9.1525424"
       width="44.237288"
       height="35.389831"
       id="rect1984" />
    <rect
       x="21.279661"
       y="-2.8983051"
       width="36.228814"
       height="33.330508"
       id="rect1978" />
    <rect
       x="17.313559"
       y="1.9067797"
       width="18.228814"
       height="14.338983"
       id="rect1972" />
    <rect
       x="22.576271"
       y="-1.4491525"
       width="29.516949"
       height="22.957627"
       id="rect1966" />
  </defs>
  <g
     id="g1783"
     transform="translate(-452.85504,-37.644012)">
    <text
       xml:space="preserve"
       transform="translate(452.85504,37.644012)"
       id="text1964"
       style="white-space:pre;shape-inside:url(#rect1966);display:inline;fill:#000000" />
    <text
       xml:space="preserve"
       transform="translate(452.85504,37.644012)"
       id="text1970"
       style="white-space:pre;shape-inside:url(#rect1972);display:inline;fill:#000000" />
    <text
       xml:space="preserve"
       transform="translate(452.85504,37.644012)"
       id="text1976"
       style="white-space:pre;shape-inside:url(#rect1978);display:inline;fill:#000000" />
    <text
       xml:space="preserve"
       transform="translate(452.85504,37.644012)"
       id="text1982"
       style="white-space:pre;shape-inside:url(#rect1984);display:inline;fill:#000000" />
    <text
       xml:space="preserve"
       transform="translate(452.85504,37.644012)"
       id="text1988"
       style="white-space:pre;shape-inside:url(#rect1990);display:inline;fill:#000000" />
  </g>
  <path
     id="rect3835"
     style="opacity:0.98;fill:#000000;fill-opacity:1;stroke:none;stroke-width:1.28507;stroke-dasharray:none;stroke-opacity:1;paint-order:markers fill stroke"
     d="M 2.30862,0 C 1.02978,0 0,1.02978 0,2.3086 v 13.38274 c 0,1.27884 1.02978,2.30862 2.30862,2.30862 h 13.38284 c 1.27872,0 2.3085,-1.02978 2.3085,-2.30862 V 2.3086 C 17.99996,1.02978 16.97018,0 15.69146,0 Z m 3.76555,4.49989 c 0.58481,0 1.08171,0.21596 1.49035,0.64854 0.40845,0.43259 0.61322,0.97786 0.61322,1.63474 0,0.40046 -0.0894,0.75406 -0.2656,1.06248 -0.17226,0.30846 -0.41423,0.55227 -0.7266,0.72847 0.28842,0.0807 0.5266,0.21228 0.71488,0.39657 0.18822,0.18414 0.34088,0.42983 0.45698,0.73825 0.11618,0.3084 0.17382,0.65265 0.17382,1.03325 0,0.80903 -0.23817,1.47158 -0.71481,1.98823 -0.47664,0.51273 -1.04803,0.7695 -1.71288,0.7695 -0.61686,0 -1.13979,-0.22326 -1.56837,-0.67187 -0.42859,-0.44858 -0.6724,-1.0515 -0.73241,-1.80861 L 4.69138,10.8749 c 0.18428,1.15359 0.65137,1.73045 1.40043,1.73045 0.40453,0 0.75436,-0.17119 1.05077,-0.5116 0.29641,-0.34452 0.44526,-0.78933 0.44526,-1.33402 0,-0.51267 -0.13576,-0.92395 -0.4081,-1.2363 -0.27236,-0.31251 -0.60743,-0.4688 -1.00399,-0.4688 -0.1682,0 -0.3767,0.0395 -0.62495,0.11913 L 5.65432,8.2245 5.79103,8.2364 C 6.22759,8.2364 6.5831,8.10242 6.85551,7.83404 7.12786,7.56573 7.26367,7.20841 7.26367,6.75981 7.26367,6.3473 7.15013,6.01597 6.92186,5.76761 6.69358,5.51533 6.41444,5.38874 6.086,5.38874 5.74542,5.38874 5.45697,5.52089 5.22071,5.7852 4.98843,6.04558 4.83951,6.44194 4.77538,6.97466 L 3.89262,6.78327 C 4.00479,6.03028 4.25788,5.46079 4.65033,5.07625 5.04296,4.69173 5.51749,4.49999 6.07417,4.49999 Z m 4.19344,0.15636 h 3.58587 V 5.68944 H 10.97656 L 10.58593,8.05663 C 11.01456,7.68811 11.46857,7.5039 11.9492,7.5039 c 0.60484,0 1.12963,0.25872 1.57418,0.77529 0.44872,0.51268 0.6739,1.20495 0.6739,2.07822 0,0.86113 -0.22518,1.59992 -0.6739,2.21673 -0.44455,0.61288 -1.04191,0.91997 -1.79484,0.91997 -0.62485,0 -1.1553,-0.21588 -1.58789,-0.64851 -0.4286,-0.43657 -0.67237,-1.03956 -0.73246,-1.80855 l 0.93165,-0.0956 c 0.0727,0.56071 0.23403,0.97942 0.48631,1.25582 0.25639,0.27234 0.55227,0.40811 0.88864,0.40811 0.42059,0 0.78354,-0.19358 1.08792,-0.5781 0.30443,-0.38852 0.45712,-0.917 0.45712,-1.58591 0,-0.62891 -0.149,-1.11456 -0.44539,-1.45896 -0.29243,-0.34849 -0.66091,-0.52347 -1.10546,-0.52347 -0.26842,0 -0.51953,0.0764 -0.75587,0.2285 -0.23227,0.1482 -0.41655,0.3567 -0.55278,0.62501 L 9.56441,9.17962 Z" />
</svg>
