<?xml version="1.0" encoding="UTF-8" standalone="no"?>
<svg
   version="1.1"
   width="18"
   height="18"
   viewBox="0 0 18 18"
   id="svg1714"
   xmlns="http://www.w3.org/2000/svg"
   xmlns:svg="http://www.w3.org/2000/svg">
  <defs
     id="defs1718">
    <rect
       x="32.567797"
       y="-13.805085"
       width="44.389831"
       height="38.898305"
       id="rect2002" />
    <rect
       x="22.5"
       y="-2.2118644"
       width="28.525424"
       height="24.559322"
       id="rect1996" />
    <rect
       x="40.805085"
       y="-10.525424"
       width="65.898305"
       height="40.652542"
       id="rect1990" />
    <rect
       x="39.661017"
       y="-9.1525424"
       width="44.237288"
       height="35.389831"
       id="rect1984" />
    <rect
       x="21.279661"
       y="-2.8983051"
       width="36.228814"
       height="33.330508"
       id="rect1978" />
    <rect
       x="17.313559"
       y="1.9067797"
       width="18.228814"
       height="14.338983"
       id="rect1972" />
    <rect
       x="22.576271"
       y="-1.4491525"
       width="29.516949"
       height="22.957627"
       id="rect1966" />
  </defs>
  <g
     id="g1783"
     transform="translate(-452.85504,-37.644012)">
    <text
       xml:space="preserve"
       transform="translate(452.85504,37.644012)"
       id="text1964"
       style="white-space:pre;shape-inside:url(#rect1966);display:inline;fill:#000000" />
    <text
       xml:space="preserve"
       transform="translate(452.85504,37.644012)"
       id="text1970"
       style="white-space:pre;shape-inside:url(#rect1972);display:inline;fill:#000000" />
    <text
       xml:space="preserve"
       transform="translate(452.85504,37.644012)"
       id="text1976"
       style="white-space:pre;shape-inside:url(#rect1978);display:inline;fill:#000000" />
    <text
       xml:space="preserve"
       transform="translate(452.85504,37.644012)"
       id="text1982"
       style="white-space:pre;shape-inside:url(#rect1984);display:inline;fill:#000000" />
    <text
       xml:space="preserve"
       transform="translate(452.85504,37.644012)"
       id="text1988"
       style="white-space:pre;shape-inside:url(#rect1990);display:inline;fill:#000000" />
  </g>
  <g
     id="g11855">
    <rect
       style="opacity:0.98;fill:none;stroke:#000000;stroke-width:1.19939;stroke-dasharray:none;stroke-opacity:1;paint-order:markers fill stroke"
       id="rect2896"
       width="16.800611"
       height="16.800611"
       x="0.59969503"
       y="0.59969503"
       rx="2.1544993"
       ry="2.1544993" />
    <path
       id="text2900"
       style="font-stretch:condensed;font-size:12.3045px;font-family:'Arial Narrow';-inkscape-font-specification:'Arial Narrow Condensed';opacity:0.98;fill:#000000;stroke-width:0.307612;paint-order:markers fill stroke"
       d="m 6.0744594,4.50032 c -0.556746,0 -1.0313022,0.1916566 -1.4238282,0.5761719 C 4.2581053,5.4610071 4.004969,6.0305141 3.8928187,6.7835231 L 4.7756312,6.9749294 C 4.8397171,6.4422156 4.9886325,6.0458251 5.2209437,5.7854762 5.4572604,5.521122 5.7457219,5.3889919 6.0861781,5.3889919 c 0.3284401,0 0.6076316,0.1265681 0.8359375,0.3789062 0.2283059,0.2483328 0.3417969,0.5776816 0.3417969,0.9902344 0,0.4486011 -0.1358382,0.8078123 -0.4082031,1.0761719 C 6.5833444,8.102664 6.2278412,8.2366481 5.7912562,8.2366481 L 5.6525844,8.2249294 5.5510219,9.1741481 c 0.2483327,-0.080107 0.4567746,-0.1191406 0.625,-0.1191406 0.3965313,0 0.7315413,0.1543783 1.0039062,0.4667969 0.272365,0.3124186 0.4082031,0.7255946 0.4082031,1.2382816 0,0.54473 -0.1489153,0.989522 -0.4453125,1.333984 -0.2963971,0.340456 -0.6462391,0.511719 -1.0507812,0.511719 -0.7490036,0 -1.2161437,-0.576923 -1.4003906,-1.730469 L 3.802975,11.017898 c 0.060081,0.757014 0.3038476,1.359993 0.7324219,1.808594 0.4285742,0.448601 0.9515328,0.673828 1.5683593,0.673828 0.664891,0 1.236252,-0.256844 1.7128907,-0.769531 0.4766386,-0.516693 0.7148437,-1.179197 0.7148437,-1.988282 0,-0.380509 -0.057672,-0.724789 -0.1738281,-1.0332026 C 8.2415069,9.4008911 8.0888835,9.1533169 7.9006312,8.96907 7.712379,8.7848231 7.4741739,8.652693 7.1857875,8.5725856 7.4982061,8.3963495 7.7401192,8.1544364 7.91235,7.8460231 8.0885861,7.5376099 8.1760219,7.1840598 8.1760219,6.7835231 8.1760219,6.1266429 7.9732412,5.5813371 7.5646937,5.1487575 7.1561463,4.7161779 6.659243,4.50032 6.0744594,4.50032 Z M 10.267819,4.65657 9.5646937,9.1800075 10.400631,9.31282 c 0.136183,-0.2683596 0.320423,-0.4768014 0.552735,-0.625 0.236316,-0.1522039 0.487499,-0.2285156 0.755859,-0.2285156 0.444596,0 0.813077,0.1749705 1.105469,0.5234375 0.296397,0.3444615 0.445312,0.8301417 0.445312,1.4589841 0,0.668897 -0.152623,1.197417 -0.457031,1.585938 -0.304408,0.384515 -0.667327,0.578125 -1.087891,0.578125 -0.33645,0 -0.632328,-0.137792 -0.888672,-0.410157 -0.252338,-0.27637 -0.414231,-0.695107 -0.486328,-1.255859 l -0.9316403,0.09766 c 0.060081,0.769031 0.3038477,1.372009 0.7324223,1.808594 0.432579,0.43258 0.9611,0.648438 1.585937,0.648438 0.753009,0 1.352279,-0.307101 1.796875,-0.919922 0.448601,-0.616827 0.673828,-1.355643 0.673828,-2.216797 0,-0.8731701 -0.225227,-1.5654382 -0.673828,-2.0781251 -0.444596,-0.5166924 -0.969408,-0.7753907 -1.574219,-0.7753907 -0.480644,0 -0.934707,0.1842407 -1.363281,0.5527344 l 0.390625,-2.3671875 h 2.876953 V 4.65657 Z" />
  </g>
</svg>
