<?xml version="1.0" encoding="UTF-8" standalone="no"?>
<svg
   version="1.1"
   width="18"
   height="18"
   viewBox="0 0 18 18"
   id="svg1714"
   xmlns="http://www.w3.org/2000/svg"
   xmlns:svg="http://www.w3.org/2000/svg">
  <defs
     id="defs1718">
    <rect
       x="32.567797"
       y="-13.805085"
       width="44.389831"
       height="38.898305"
       id="rect2002" />
    <rect
       x="22.5"
       y="-2.2118644"
       width="28.525424"
       height="24.559322"
       id="rect1996" />
    <rect
       x="40.805085"
       y="-10.525424"
       width="65.898305"
       height="40.652542"
       id="rect1990" />
    <rect
       x="39.661017"
       y="-9.1525424"
       width="44.237288"
       height="35.389831"
       id="rect1984" />
    <rect
       x="21.279661"
       y="-2.8983051"
       width="36.228814"
       height="33.330508"
       id="rect1978" />
    <rect
       x="17.313559"
       y="1.9067797"
       width="18.228814"
       height="14.338983"
       id="rect1972" />
    <rect
       x="22.576271"
       y="-1.4491525"
       width="29.516949"
       height="22.957627"
       id="rect1966" />
  </defs>
  <g
     id="g1783"
     transform="translate(-452.85504,-37.644012)">
    <text
       xml:space="preserve"
       transform="translate(452.85504,37.644012)"
       id="text1964"
       style="white-space:pre;shape-inside:url(#rect1966);display:inline;fill:#000000" />
    <text
       xml:space="preserve"
       transform="translate(452.85504,37.644012)"
       id="text1970"
       style="white-space:pre;shape-inside:url(#rect1972);display:inline;fill:#000000" />
    <text
       xml:space="preserve"
       transform="translate(452.85504,37.644012)"
       id="text1976"
       style="white-space:pre;shape-inside:url(#rect1978);display:inline;fill:#000000" />
    <text
       xml:space="preserve"
       transform="translate(452.85504,37.644012)"
       id="text1982"
       style="white-space:pre;shape-inside:url(#rect1984);display:inline;fill:#000000" />
    <text
       xml:space="preserve"
       transform="translate(452.85504,37.644012)"
       id="text1988"
       style="white-space:pre;shape-inside:url(#rect1990);display:inline;fill:#000000" />
  </g>
  <g
     id="g9665">
    <path
       id="text1440"
       style="font-stretch:condensed;font-size:12.3048px;font-family:'Arial Narrow';-inkscape-font-specification:'Arial Narrow Condensed';opacity:0.98;fill:#000000;stroke-width:0.307608;paint-order:markers fill stroke"
       d="m 6.0738846,4.4999867 c -0.5567596,0 -1.0313173,0.1916372 -1.4238528,0.5761619 C 4.2574962,5.4606732 4.0063123,6.0301229 3.8941593,6.7831503 L 4.7769871,6.9745532 C 4.8410745,6.4418264 4.9880372,6.0454759 5.2203542,5.7851207 5.4566766,5.52076 5.745139,5.3886432 6.0856035,5.3886432 c 0.3284481,0 0.6076405,0.1265554 0.835952,0.3788996 0.2283115,0.2483389 0.3418028,0.5796075 0.3418028,0.9921704 0,0.448612 -0.1358386,0.805834 -0.4082102,1.0742001 C 6.5827765,8.1022795 6.2292254,8.2362501 5.7926297,8.2362501 L 5.6539554,8.2245316 5.5523912,9.1737339 C 5.80073,9.0936246 6.0072193,9.0545954 6.1754488,9.0545954 c 0.396541,0 0.7315521,0.1563156 1.0039237,0.4687418 0.2723716,0.3124263 0.4082102,0.7236068 0.4082102,1.2363068 0,0.544743 -0.1469627,0.989491 -0.4433671,1.333961 -0.2964044,0.340465 -0.6482007,0.51171 -1.0527526,0.51171 -0.7490219,0 -1.2142103,-0.576865 -1.3984617,-1.730439 l -0.8906404,0.144529 c 0.060082,0.757033 0.3058029,1.359951 0.7343877,1.808563 0.4285847,0.448612 0.9515449,0.671863 1.5683865,0.671863 0.6649072,0 1.2343168,-0.256818 1.7109671,-0.769518 0.4766504,-0.516705 0.7148562,-1.179143 0.7148562,-1.988247 0,-0.380519 -0.057673,-0.724764 -0.1738312,-1.0331851 C 8.2409688,9.4004601 8.0883449,9.1548638 7.9000881,8.9706124 7.7118312,8.7863611 7.4736254,8.6542442 7.1852319,8.5741349 7.4976582,8.3978945 7.739572,8.1540527 7.911807,7.8456319 8.0880475,7.5372111 8.1774366,7.1836968 8.1774366,6.7831503 8.1774366,6.1262541 7.9727022,5.5810031 7.5641448,5.1484129 7.1555874,4.7158227 6.6586824,4.4999867 6.0738846,4.4999867 Z M 10.267317,4.6562339 9.5641794,9.1795932 10.400131,9.3124034 c 0.136186,-0.2683661 0.320427,-0.476787 0.552744,-0.6249892 0.236323,-0.1522077 0.48946,-0.2285117 0.757826,-0.2285117 0.444607,0 0.813089,0.174953 1.105488,0.5234285 0.296404,0.3444699 0.443367,0.8301011 0.443367,1.458959 0,0.668913 -0.152624,1.199333 -0.457039,1.587863 -0.304416,0.384525 -0.665383,0.576162 -1.085957,0.576162 -0.336459,0 -0.63429,-0.135824 -0.89064,-0.408196 -0.252344,-0.276377 -0.414238,-0.695072 -0.486337,-1.255838 l -0.9316563,0.0957 c 0.060082,0.769049 0.305803,1.371967 0.7343873,1.808562 0.432591,0.432591 0.961113,0.648427 1.585965,0.648427 0.753028,0 1.3523,-0.30707 1.796907,-0.919906 0.448612,-0.616842 0.671886,-1.355584 0.671886,-2.216759 0,-0.8731911 -0.223274,-1.5653894 -0.671886,-2.0780889 -0.444607,-0.5167049 -0.969421,-0.7753772 -1.574247,-0.7753772 -0.480655,0 -0.936673,0.1842221 -1.365258,0.5527248 l 0.390632,-2.3671465 h 2.878956 V 4.6562339 Z"
       transform="scale(0.99998268,1.0000173)" />
    <rect
       style="opacity:0.98;fill:none;stroke:#000000;stroke-width:1.19939;stroke-dasharray:0.755616;stroke-dashoffset:0;stroke-opacity:1;paint-order:markers fill stroke"
       id="rect1453"
       width="16.800611"
       height="16.800611"
       x="0.59969503"
       y="0.59969503"
       rx="2.1544993"
       ry="2.1544993" />
  </g>
</svg>
