<?xml version="1.0" encoding="UTF-8" standalone="no"?>
<svg
   version="1.1"
   width="18"
   height="18"
   viewBox="0 0 18 18"
   id="svg1714"
   xmlns="http://www.w3.org/2000/svg"
   xmlns:svg="http://www.w3.org/2000/svg">
  <defs
     id="defs1718">
    <rect
       x="32.567797"
       y="-13.805085"
       width="44.389831"
       height="38.898305"
       id="rect2002" />
    <rect
       x="22.5"
       y="-2.2118644"
       width="28.525424"
       height="24.559322"
       id="rect1996" />
    <rect
       x="40.805085"
       y="-10.525424"
       width="65.898305"
       height="40.652542"
       id="rect1990" />
    <rect
       x="39.661017"
       y="-9.1525424"
       width="44.237288"
       height="35.389831"
       id="rect1984" />
    <rect
       x="21.279661"
       y="-2.8983051"
       width="36.228814"
       height="33.330508"
       id="rect1978" />
    <rect
       x="17.313559"
       y="1.9067797"
       width="18.228814"
       height="14.338983"
       id="rect1972" />
    <rect
       x="22.576271"
       y="-1.4491525"
       width="29.516949"
       height="22.957627"
       id="rect1966" />
  </defs>
  <g
     id="g1783"
     transform="translate(-452.85504,-37.644012)">
    <text
       xml:space="preserve"
       transform="translate(452.85504,37.644012)"
       id="text1964"
       style="white-space:pre;shape-inside:url(#rect1966);display:inline;fill:#000000" />
    <text
       xml:space="preserve"
       transform="translate(452.85504,37.644012)"
       id="text1970"
       style="white-space:pre;shape-inside:url(#rect1972);display:inline;fill:#000000" />
    <text
       xml:space="preserve"
       transform="translate(452.85504,37.644012)"
       id="text1976"
       style="white-space:pre;shape-inside:url(#rect1978);display:inline;fill:#000000" />
    <text
       xml:space="preserve"
       transform="translate(452.85504,37.644012)"
       id="text1982"
       style="white-space:pre;shape-inside:url(#rect1984);display:inline;fill:#000000" />
    <text
       xml:space="preserve"
       transform="translate(452.85504,37.644012)"
       id="text1988"
       style="white-space:pre;shape-inside:url(#rect1990);display:inline;fill:#000000" />
  </g>
  <path
     id="circle969"
     style="fill:#000000;fill-opacity:1;stroke:none;stroke-width:1.04984;stroke-dasharray:none"
     d="M 9.00001,0 A 8.9999995,8.9999997 0 0 0 0,8.999991 8.9999995,8.9999997 0 0 0 9.00001,17.999997 8.9999995,8.9999997 0 0 0 18.00004,8.999991 8.9999995,8.9999997 0 0 0 9.00001,0 Z m 2.95704,4.49999 c 0.68937,0 1.2341,0.30855 1.6309,0.92579 0.4809,0.745491 0.72062,1.938847 0.72062,3.57812 0,1.470944 -0.19888,2.587987 -0.59569,3.353514 -0.39682,0.761525 -0.98603,1.14258 -1.7675,1.14258 -0.68947,0 -1.2545,-0.336415 -1.69542,-1.009764 C 9.81312,11.816882 9.59571,10.6552 9.59571,9.0039 c 0,-1.478956 0.19697,-2.599807 0.59377,-3.36133 0.40081,-0.76153 0.99004,-1.14258 1.76757,-1.14258 z m -4.96481,0.0351 h 0.72067 v 5.71288 h 0.98053 v 0.992185 H 7.71291 v 2.109379 H 6.82422 V 11.240155 H 3.69141 V 10.248 Z M 11.916,5.39641 c -0.4008,0 -0.73714,0.2453 -1.0098,0.738287 -0.26846,0.492986 -0.40223,1.450306 -0.40223,2.869139 0,1.430855 0.13558,2.389932 0.40816,2.878908 0.27653,0.484967 0.62981,0.72656 1.05856,0.72656 0.40485,0 0.74305,-0.245294 1.01571,-0.73828 0.27252,-0.492981 0.40811,-1.44835 0.40811,-2.867188 0,-1.434866 -0.13746,-2.395888 -0.41405,-2.880858 C 12.70794,5.63801 12.35285,5.39641 11.916,5.39641 Z M 6.82422,6.273375 4.56251,10.247979 h 2.26171 z" />
</svg>
