<?xml version="1.0" encoding="UTF-8" standalone="no"?>
<svg
   version="1.1"
   width="18"
   height="18"
   viewBox="0 0 18 18"
   id="svg1714"
   xmlns="http://www.w3.org/2000/svg"
   xmlns:svg="http://www.w3.org/2000/svg">
  <defs
     id="defs1718">
    <rect
       x="32.567797"
       y="-13.805085"
       width="44.389831"
       height="38.898305"
       id="rect2002" />
    <rect
       x="22.5"
       y="-2.2118644"
       width="28.525424"
       height="24.559322"
       id="rect1996" />
    <rect
       x="40.805085"
       y="-10.525424"
       width="65.898305"
       height="40.652542"
       id="rect1990" />
    <rect
       x="39.661017"
       y="-9.1525424"
       width="44.237288"
       height="35.389831"
       id="rect1984" />
    <rect
       x="21.279661"
       y="-2.8983051"
       width="36.228814"
       height="33.330508"
       id="rect1978" />
    <rect
       x="17.313559"
       y="1.9067797"
       width="18.228814"
       height="14.338983"
       id="rect1972" />
    <rect
       x="22.576271"
       y="-1.4491525"
       width="29.516949"
       height="22.957627"
       id="rect1966" />
  </defs>
  <g
     id="g1783"
     transform="translate(-452.85504,-37.644012)">
    <text
       xml:space="preserve"
       transform="translate(452.85504,37.644012)"
       id="text1964"
       style="white-space:pre;shape-inside:url(#rect1966);display:inline;fill:#000000" />
    <text
       xml:space="preserve"
       transform="translate(452.85504,37.644012)"
       id="text1970"
       style="white-space:pre;shape-inside:url(#rect1972);display:inline;fill:#000000" />
    <text
       xml:space="preserve"
       transform="translate(452.85504,37.644012)"
       id="text1976"
       style="white-space:pre;shape-inside:url(#rect1978);display:inline;fill:#000000" />
    <text
       xml:space="preserve"
       transform="translate(452.85504,37.644012)"
       id="text1982"
       style="white-space:pre;shape-inside:url(#rect1984);display:inline;fill:#000000" />
    <text
       xml:space="preserve"
       transform="translate(452.85504,37.644012)"
       id="text1988"
       style="white-space:pre;shape-inside:url(#rect1990);display:inline;fill:#000000" />
    <g
       id="g3376"
       transform="translate(4.4017932,0.45950296)">
      <circle
         style="fill:none;fill-opacity:1;stroke:#000000;stroke-width:1.19912;stroke-dasharray:none;stroke-opacity:1"
         id="circle795"
         cx="457.45325"
         cy="46.184509"
         r="8.4004402" />
      <path
         id="text799"
         style="font-stretch:condensed;font-size:12.3125px;font-family:'Arial Narrow';-inkscape-font-specification:'Arial Narrow Condensed';opacity:0.98;fill:#000000;stroke-width:0.307813;paint-order:markers fill stroke"
         d="m 460.41671,41.683177 c -0.77754,0 -1.3668,0.381052 -1.76759,1.142567 -0.39679,0.761514 -0.59571,1.882353 -0.59571,3.361294 0,1.651284 0.21743,2.812954 0.6543,3.486293 0.44088,0.67334 1.00596,1.009756 1.69533,1.009756 0.78156,0 1.37081,-0.379099 1.7676,-1.140614 0.39679,-0.765522 0.59571,-1.884509 0.59571,-3.355435 0,-1.63926 -0.23976,-2.832606 -0.72071,-3.578089 -0.39679,-0.617228 -0.93956,-0.925772 -1.62893,-0.925772 z m -4.96684,0.03711 -3.30082,5.71088 v 0.992178 h 3.13285 v 2.111307 h 0.88868 v -2.111307 h 0.98048 v -0.992178 h -0.98048 v -5.71088 z m 4.92387,0.859366 c 0.43687,0 0.79193,0.243544 1.06447,0.728509 0.27655,0.484964 0.41406,1.444023 0.41406,2.878877 0,1.418822 -0.13566,2.374178 -0.4082,2.867159 -0.27254,0.49298 -0.61083,0.740227 -1.01564,0.740227 -0.42885,0 -0.78205,-0.243544 -1.0586,-0.728508 -0.27254,-0.488973 -0.40821,-1.448032 -0.40821,-2.878878 0,-1.418822 0.13381,-2.374178 0.40235,-2.867159 0.27254,-0.49298 0.60898,-0.740227 1.00977,-0.740227 z m -5.09184,0.878898 v 3.972616 h -2.26174 z"
         transform="scale(0.99999,1.00001)" />
    </g>
  </g>
</svg>
