<?xml version="1.0" encoding="UTF-8" standalone="no"?>
<svg
   version="1.1"
   width="18"
   height="18"
   viewBox="0 0 18 18"
   id="svg1714"
   xmlns="http://www.w3.org/2000/svg"
   xmlns:svg="http://www.w3.org/2000/svg">
  <defs
     id="defs1718">
    <rect
       x="32.567797"
       y="-13.805085"
       width="44.389831"
       height="38.898305"
       id="rect2002" />
    <rect
       x="22.5"
       y="-2.2118644"
       width="28.525424"
       height="24.559322"
       id="rect1996" />
    <rect
       x="40.805085"
       y="-10.525424"
       width="65.898305"
       height="40.652542"
       id="rect1990" />
    <rect
       x="39.661017"
       y="-9.1525424"
       width="44.237288"
       height="35.389831"
       id="rect1984" />
    <rect
       x="21.279661"
       y="-2.8983051"
       width="36.228814"
       height="33.330508"
       id="rect1978" />
    <rect
       x="17.313559"
       y="1.9067797"
       width="18.228814"
       height="14.338983"
       id="rect1972" />
    <rect
       x="22.576271"
       y="-1.4491525"
       width="29.516949"
       height="22.957627"
       id="rect1966" />
  </defs>
  <g
     id="g1783"
     transform="translate(-452.85504,-37.644012)">
    <text
       xml:space="preserve"
       transform="translate(452.85504,37.644012)"
       id="text1964"
       style="white-space:pre;shape-inside:url(#rect1966);display:inline;fill:#000000" />
    <text
       xml:space="preserve"
       transform="translate(452.85504,37.644012)"
       id="text1970"
       style="white-space:pre;shape-inside:url(#rect1972);display:inline;fill:#000000" />
    <text
       xml:space="preserve"
       transform="translate(452.85504,37.644012)"
       id="text1976"
       style="white-space:pre;shape-inside:url(#rect1978);display:inline;fill:#000000" />
    <text
       xml:space="preserve"
       transform="translate(452.85504,37.644012)"
       id="text1982"
       style="white-space:pre;shape-inside:url(#rect1984);display:inline;fill:#000000" />
    <text
       xml:space="preserve"
       transform="translate(452.85504,37.644012)"
       id="text1988"
       style="white-space:pre;shape-inside:url(#rect1990);display:inline;fill:#000000" />
  </g>
  <g
     id="g11932">
    <rect
       style="opacity:0.98;fill:none;stroke:#000000;stroke-width:1.19939;stroke-dasharray:none;stroke-opacity:1;paint-order:markers fill stroke"
       id="rect2907"
       width="16.800611"
       height="16.800611"
       x="0.59969503"
       y="0.59969503"
       rx="2.1544993"
       ry="2.1544993" />
    <path
       id="text2911"
       style="font-stretch:condensed;font-size:12.3125px;font-family:'Arial Narrow';-inkscape-font-specification:'Arial Narrow Condensed';opacity:0.98;fill:#000000;stroke-width:0.307813;paint-order:markers fill stroke"
       d="m 11.957457,4.500275 c -0.777546,0 -1.366798,0.3810522 -1.767596,1.1425667 -0.3967888,0.7615145 -0.5937556,1.8804 -0.5937556,3.3593414 0,1.6512839 0.2174346,2.8149069 0.6543036,3.4882459 0.440877,0.67334 1.005958,1.009756 1.695329,1.009756 0.781555,0 1.370807,-0.381052 1.767596,-1.142567 0.396789,-0.765522 0.595709,-1.884509 0.595709,-3.3554349 0,-1.6392602 -0.241707,-2.8306535 -0.722663,-3.5761361 C 13.189591,4.8088194 12.646828,4.500275 11.957457,4.500275 Z M 6.9925637,4.5354309 3.6917495,10.248264 v 0.990225 h 3.1328438 v 2.111307 H 7.7132741 V 11.238489 H 8.6937526 V 10.248264 H 7.7132741 V 4.5354309 Z m 4.9238773,0.8593664 c 0.436869,0 0.791922,0.2435438 1.064464,0.7285083 0.27655,0.4849646 0.414067,1.4440238 0.414067,2.8788775 0,1.4188219 -0.135666,2.3761319 -0.408208,2.8691119 -0.272542,0.492981 -0.612783,0.738274 -1.017588,0.738274 -0.428853,0 -0.780101,-0.241591 -1.056651,-0.726555 -0.272542,-0.488973 -0.41016,-1.449985 -0.41016,-2.8808309 0,-1.4188218 0.135766,-2.3741784 0.4043,-2.8671588 0.272542,-0.4929805 0.608979,-0.740227 1.009776,-0.740227 z M 6.8245933,6.2736948 V 10.248264 H 4.5628519 Z"
       transform="scale(0.99998999,1.00001)" />
  </g>
</svg>
