<?xml version="1.0" encoding="UTF-8" standalone="no"?>
<svg
   version="1.1"
   width="18"
   height="18"
   viewBox="0 0 18 18"
   id="svg1714"
   xmlns="http://www.w3.org/2000/svg"
   xmlns:svg="http://www.w3.org/2000/svg">
  <defs
     id="defs1718">
    <rect
       x="32.567797"
       y="-13.805085"
       width="44.389831"
       height="38.898305"
       id="rect2002" />
    <rect
       x="22.5"
       y="-2.2118644"
       width="28.525424"
       height="24.559322"
       id="rect1996" />
    <rect
       x="40.805085"
       y="-10.525424"
       width="65.898305"
       height="40.652542"
       id="rect1990" />
    <rect
       x="39.661017"
       y="-9.1525424"
       width="44.237288"
       height="35.389831"
       id="rect1984" />
    <rect
       x="21.279661"
       y="-2.8983051"
       width="36.228814"
       height="33.330508"
       id="rect1978" />
    <rect
       x="17.313559"
       y="1.9067797"
       width="18.228814"
       height="14.338983"
       id="rect1972" />
    <rect
       x="22.576271"
       y="-1.4491525"
       width="29.516949"
       height="22.957627"
       id="rect1966" />
  </defs>
  <g
     id="g1783"
     transform="translate(-452.85504,-37.644012)">
    <text
       xml:space="preserve"
       transform="translate(452.85504,37.644012)"
       id="text1964"
       style="white-space:pre;shape-inside:url(#rect1966);display:inline;fill:#000000" />
    <text
       xml:space="preserve"
       transform="translate(452.85504,37.644012)"
       id="text1970"
       style="white-space:pre;shape-inside:url(#rect1972);display:inline;fill:#000000" />
    <text
       xml:space="preserve"
       transform="translate(452.85504,37.644012)"
       id="text1976"
       style="white-space:pre;shape-inside:url(#rect1978);display:inline;fill:#000000" />
    <text
       xml:space="preserve"
       transform="translate(452.85504,37.644012)"
       id="text1982"
       style="white-space:pre;shape-inside:url(#rect1984);display:inline;fill:#000000" />
    <text
       xml:space="preserve"
       transform="translate(452.85504,37.644012)"
       id="text1988"
       style="white-space:pre;shape-inside:url(#rect1990);display:inline;fill:#000000" />
  </g>
  <g
     id="g9742">
    <path
       id="text1485"
       style="font-stretch:condensed;font-size:12.3134px;font-family:'Arial Narrow';-inkscape-font-specification:'Arial Narrow Condensed';opacity:0.98;fill:#000000;stroke-width:0.30782;paint-order:markers fill stroke"
       d="m 11.957492,4.4993245 c -0.777603,0 -1.366751,0.3810079 -1.767578,1.1425781 -0.3968178,0.7615702 -0.5957028,1.8822786 -0.5957028,3.3613282 0,1.6514052 0.2193492,2.8129392 0.6562498,3.4863282 0.440909,0.673388 1.005891,1.011719 1.695313,1.011719 0.781611,0 1.37076,-0.381008 1.767578,-1.142578 0.396818,-0.765579 0.595703,-1.884436 0.595703,-3.3554692 0,-1.6393802 -0.239711,-2.8325879 -0.720703,-3.578125 C 13.191534,4.807833 12.646914,4.4993245 11.957492,4.4993245 Z M 6.9926487,4.5364339 3.6918675,10.247371 v 0.992188 h 3.1308594 v 2.111328 h 0.890625 V 11.239559 H 8.6938206 V 10.247371 H 7.7133519 V 4.5364339 Z m 4.9238283,0.859375 c 0.436901,0 0.791891,0.2435156 1.064453,0.7285156 0.27657,0.485 0.414062,1.4439476 0.414062,2.8789063 0,1.4189252 -0.135641,2.3741712 -0.408203,2.8671872 -0.272562,0.493017 -0.612743,0.740235 -1.017578,0.740235 -0.428884,0 -0.78007,-0.241563 -1.05664,-0.726563 -0.272562,-0.489008 -0.410157,-1.449909 -0.410157,-2.8808592 0,-1.4189256 0.135744,-2.374171 0.404297,-2.8671875 0.272562,-0.4930166 0.608939,-0.7402344 1.009766,-0.7402344 z M 6.8227269,6.272762 v 3.974609 H 4.5629612 Z" />
    <rect
       style="opacity:0.98;fill:none;stroke:#000000;stroke-width:1.19939;stroke-dasharray:0.755616;stroke-dashoffset:0;stroke-opacity:1;paint-order:markers fill stroke"
       id="rect1498"
       width="16.800611"
       height="16.800611"
       x="0.59969503"
       y="0.59969503"
       rx="2.1544993"
       ry="2.1544993" />
  </g>
</svg>
