<?xml version="1.0" encoding="UTF-8" standalone="no"?>
<svg
   version="1.1"
   width="18"
   height="18"
   viewBox="0 0 18 18"
   id="svg1714"
   xmlns="http://www.w3.org/2000/svg"
   xmlns:svg="http://www.w3.org/2000/svg">
  <defs
     id="defs1718">
    <rect
       x="32.567797"
       y="-13.805085"
       width="44.389831"
       height="38.898305"
       id="rect2002" />
    <rect
       x="22.5"
       y="-2.2118644"
       width="28.525424"
       height="24.559322"
       id="rect1996" />
    <rect
       x="40.805085"
       y="-10.525424"
       width="65.898305"
       height="40.652542"
       id="rect1990" />
    <rect
       x="39.661017"
       y="-9.1525424"
       width="44.237288"
       height="35.389831"
       id="rect1984" />
    <rect
       x="21.279661"
       y="-2.8983051"
       width="36.228814"
       height="33.330508"
       id="rect1978" />
    <rect
       x="17.313559"
       y="1.9067797"
       width="18.228814"
       height="14.338983"
       id="rect1972" />
    <rect
       x="22.576271"
       y="-1.4491525"
       width="29.516949"
       height="22.957627"
       id="rect1966" />
  </defs>
  <g
     id="g1783"
     transform="translate(-452.85504,-37.644012)">
    <text
       xml:space="preserve"
       transform="translate(452.85504,37.644012)"
       id="text1964"
       style="white-space:pre;shape-inside:url(#rect1966);display:inline;fill:#000000" />
    <text
       xml:space="preserve"
       transform="translate(452.85504,37.644012)"
       id="text1970"
       style="white-space:pre;shape-inside:url(#rect1972);display:inline;fill:#000000" />
    <text
       xml:space="preserve"
       transform="translate(452.85504,37.644012)"
       id="text1976"
       style="white-space:pre;shape-inside:url(#rect1978);display:inline;fill:#000000" />
    <text
       xml:space="preserve"
       transform="translate(452.85504,37.644012)"
       id="text1982"
       style="white-space:pre;shape-inside:url(#rect1984);display:inline;fill:#000000" />
    <text
       xml:space="preserve"
       transform="translate(452.85504,37.644012)"
       id="text1988"
       style="white-space:pre;shape-inside:url(#rect1990);display:inline;fill:#000000" />
  </g>
  <path
     id="rect3864"
     style="opacity:0.98;fill:#000000;fill-opacity:1;stroke:none;stroke-width:1.28507;stroke-dasharray:none;stroke-opacity:1;paint-order:markers fill stroke"
     d="M 2.30862,0 C 1.0298,0 0,1.02978 0,2.3086 v 13.38274 c 0,1.27884 1.0298,2.30862 2.30862,2.30862 h 13.38272 c 1.27885,0 2.30864,-1.02978 2.30864,-2.30862 V 2.3086 C 17.99998,1.02978 16.97019,0 15.69134,0 Z m 9.64842,4.49989 c 0.68929,0 1.23404,0.30865 1.63091,0.92586 0.48083,0.7455 0.72062,1.93885 0.72062,3.57814 0,1.47091 -0.19894,2.58796 -0.5957,3.35347 -0.39675,0.76147 -0.98604,1.14256 -1.7675,1.14256 -0.68948,0 -1.25449,-0.33639 -1.69534,-1.00973 -0.4369,-0.67328 -0.65432,-1.83508 -0.65432,-3.4863 0,-1.47896 0.19696,-2.59983 0.59377,-3.36131 0.4008,-0.76152 0.99002,-1.14269 1.76756,-1.14269 z m -4.96487,0.0356 h 0.72068 v 5.71289 h 0.98053 v 0.99213 H 7.71285 v 2.10945 H 6.82422 V 11.24051 H 3.6914 V 10.24838 Z M 11.916,5.39671 c -0.4008,0 -0.73715,0.2454 -1.00973,0.73839 -0.26852,0.49299 -0.40237,1.45023 -0.40237,2.86912 0,1.43079 0.13566,2.38991 0.40824,2.87891 0.27652,0.48494 0.62973,0.72652 1.05854,0.72652 0.40479,0 0.74313,-0.24522 1.01572,-0.7382 0.27253,-0.49299 0.4081,-1.44844 0.4081,-2.86723 0,-1.43493 -0.13744,-2.3959 -0.41403,-2.88085 C 12.70795,5.63838 12.35284,5.39671 11.916,5.39671 Z M 6.82422,6.27367 4.5625,10.24838 h 2.26172 z" />
</svg>
