<?xml version="1.0" encoding="UTF-8" standalone="no"?>
<svg
   version="1.1"
   width="18"
   height="18"
   viewBox="0 0 18 18"
   id="svg1714"
   xmlns="http://www.w3.org/2000/svg"
   xmlns:svg="http://www.w3.org/2000/svg">
  <defs
     id="defs1718">
    <rect
       x="32.567797"
       y="-13.805085"
       width="44.389831"
       height="38.898305"
       id="rect2002" />
    <rect
       x="22.5"
       y="-2.2118644"
       width="28.525424"
       height="24.559322"
       id="rect1996" />
    <rect
       x="40.805085"
       y="-10.525424"
       width="65.898305"
       height="40.652542"
       id="rect1990" />
    <rect
       x="39.661017"
       y="-9.1525424"
       width="44.237288"
       height="35.389831"
       id="rect1984" />
    <rect
       x="21.279661"
       y="-2.8983051"
       width="36.228814"
       height="33.330508"
       id="rect1978" />
    <rect
       x="17.313559"
       y="1.9067797"
       width="18.228814"
       height="14.338983"
       id="rect1972" />
    <rect
       x="22.576271"
       y="-1.4491525"
       width="29.516949"
       height="22.957627"
       id="rect1966" />
  </defs>
  <g
     id="g1783"
     transform="translate(-452.85504,-37.644012)">
    <text
       xml:space="preserve"
       transform="translate(452.85504,37.644012)"
       id="text1964"
       style="white-space:pre;shape-inside:url(#rect1966);display:inline;fill:#000000" />
    <text
       xml:space="preserve"
       transform="translate(452.85504,37.644012)"
       id="text1970"
       style="white-space:pre;shape-inside:url(#rect1972);display:inline;fill:#000000" />
    <text
       xml:space="preserve"
       transform="translate(452.85504,37.644012)"
       id="text1976"
       style="white-space:pre;shape-inside:url(#rect1978);display:inline;fill:#000000" />
    <text
       xml:space="preserve"
       transform="translate(452.85504,37.644012)"
       id="text1982"
       style="white-space:pre;shape-inside:url(#rect1984);display:inline;fill:#000000" />
    <text
       xml:space="preserve"
       transform="translate(452.85504,37.644012)"
       id="text1988"
       style="white-space:pre;shape-inside:url(#rect1990);display:inline;fill:#000000" />
    <g
       id="g3487"
       transform="translate(-30.957094,31.705704)">
      <circle
         style="fill:none;fill-opacity:1;stroke:#000000;stroke-width:1.19912;stroke-dasharray:none;stroke-opacity:1"
         id="circle806"
         cx="492.81213"
         cy="14.938308"
         r="8.4004402" />
      <g
         id="g3455">
        <path
           id="text810"
           style="font-stretch:condensed;font-size:12.3619px;font-family:'Arial Narrow';-inkscape-font-specification:'Arial Narrow Condensed';opacity:0.98;fill:#000000;stroke-width:0.309047;paint-order:markers fill stroke"
           d="m 490.76817,10.43728 -3.31452,5.734254 v 0.996073 h 3.1446 v 2.119095 h 0.89259 v -2.119095 h 0.9844 v -0.996073 h -0.9844 V 10.43728 Z m 3.47664,0.121091 -0.70705,4.544826 0.83986,0.13281 c 0.13682,-0.269612 0.32131,-0.47805 0.5547,-0.62694 0.23742,-0.152914 0.49017,-0.228511 0.75978,-0.228511 0.44667,0 0.8176,0.173334 1.11136,0.523426 0.29778,0.346069 0.44727,0.83499 0.44727,1.466766 0,0.672017 -0.15316,1.203384 -0.45899,1.593717 -0.30583,0.386309 -0.67125,0.580066 -1.09378,0.580066 -0.33802,0 -0.63505,-0.136512 -0.89259,-0.410148 -0.25352,-0.27766 -0.41586,-0.698325 -0.48829,-1.261692 l -0.93557,0.0957 c 0.0604,0.772618 0.30577,1.379699 0.73634,1.818321 0.4346,0.434598 0.96603,0.650377 1.59379,0.650377 0.75652,0 1.35805,-0.306176 1.80472,-0.921856 0.4507,-0.619704 0.6758,-1.363297 0.6758,-2.228468 0,-0.877244 -0.2251,-1.572768 -0.6758,-2.087847 -0.44667,-0.519103 -0.97443,-0.77928 -1.58206,-0.77928 -0.48289,0 -0.94055,0.184463 -1.37113,0.554676 l 0.39259,-2.376903 h 2.89264 V 10.55837 Z m -3.64656,1.624966 v 3.988197 h -2.26958 z"
           transform="scale(0.99997889,1.0000211)" />
      </g>
    </g>
  </g>
</svg>
