<?xml version="1.0" encoding="UTF-8" standalone="no"?>
<svg
   version="1.1"
   width="18"
   height="18"
   viewBox="0 0 18 18"
   id="svg1714"
   xmlns="http://www.w3.org/2000/svg"
   xmlns:svg="http://www.w3.org/2000/svg">
  <defs
     id="defs1718">
    <rect
       x="32.567797"
       y="-13.805085"
       width="44.389831"
       height="38.898305"
       id="rect2002" />
    <rect
       x="22.5"
       y="-2.2118644"
       width="28.525424"
       height="24.559322"
       id="rect1996" />
    <rect
       x="40.805085"
       y="-10.525424"
       width="65.898305"
       height="40.652542"
       id="rect1990" />
    <rect
       x="39.661017"
       y="-9.1525424"
       width="44.237288"
       height="35.389831"
       id="rect1984" />
    <rect
       x="21.279661"
       y="-2.8983051"
       width="36.228814"
       height="33.330508"
       id="rect1978" />
    <rect
       x="17.313559"
       y="1.9067797"
       width="18.228814"
       height="14.338983"
       id="rect1972" />
    <rect
       x="22.576271"
       y="-1.4491525"
       width="29.516949"
       height="22.957627"
       id="rect1966" />
  </defs>
  <g
     id="g1783"
     transform="translate(-452.85504,-37.644012)">
    <text
       xml:space="preserve"
       transform="translate(452.85504,37.644012)"
       id="text1964"
       style="white-space:pre;shape-inside:url(#rect1966);display:inline;fill:#000000" />
    <text
       xml:space="preserve"
       transform="translate(452.85504,37.644012)"
       id="text1970"
       style="white-space:pre;shape-inside:url(#rect1972);display:inline;fill:#000000" />
    <text
       xml:space="preserve"
       transform="translate(452.85504,37.644012)"
       id="text1976"
       style="white-space:pre;shape-inside:url(#rect1978);display:inline;fill:#000000" />
    <text
       xml:space="preserve"
       transform="translate(452.85504,37.644012)"
       id="text1982"
       style="white-space:pre;shape-inside:url(#rect1984);display:inline;fill:#000000" />
    <text
       xml:space="preserve"
       transform="translate(452.85504,37.644012)"
       id="text1988"
       style="white-space:pre;shape-inside:url(#rect1990);display:inline;fill:#000000" />
  </g>
  <g
     id="g7655"
     transform="translate(3.9381601e-7,4.6267516e-5)">
    <path
       id="text1534"
       style="font-stretch:condensed;font-size:12.3618px;font-family:'Arial Narrow';-inkscape-font-specification:'Arial Narrow Condensed';opacity:0.98;fill:#000000;stroke-width:0.309054;paint-order:markers fill stroke"
       d="M 6.9450731,4.5007371 3.63062,10.235112 v 0.994141 h 3.1445313 v 2.11914 h 0.8945312 v -2.11914 H 8.6521044 V 10.235112 H 7.6696825 V 4.5007371 Z m 3.4765629,0.1191407 -0.7070316,4.546875 0.8398436,0.1328125 c 0.136817,-0.2696094 0.321294,-0.4800176 0.554688,-0.6289063 0.237417,-0.1529127 0.492109,-0.2285156 0.761718,-0.2285156 0.446667,0 0.815622,0.1753009 1.109375,0.5253906 0.297778,0.3460657 0.447266,0.8350258 0.447266,1.466797 0,0.672011 -0.153159,1.201467 -0.458984,1.591797 -0.305826,0.386306 -0.669275,0.580078 -1.091797,0.580078 -0.338018,0 -0.636994,-0.136523 -0.894531,-0.410156 -0.253514,-0.277658 -0.415849,-0.698356 -0.488282,-1.261719 l -0.9355466,0.0957 c 0.06036,0.772612 0.305758,1.379741 0.7363286,1.818359 0.434594,0.434594 0.966002,0.650391 1.59375,0.650391 0.756515,0 1.358021,-0.3062 1.804687,-0.921875 0.45069,-0.619699 0.675781,-1.363351 0.675781,-2.228516 0,-0.8772359 -0.225091,-1.5728158 -0.675781,-2.0878902 -0.446666,-0.5190986 -0.974404,-0.7792969 -1.582031,-0.7792969 -0.482883,0 -0.938571,0.1864308 -1.369141,0.5566406 l 0.392578,-2.3789062 h 2.890625 V 4.6198778 Z m -3.6464847,1.625 V 10.235112 H 4.50562 Z" />
    <ellipse
       style="fill:none;fill-opacity:1;stroke:#000000;stroke-width:1.19928;stroke-dasharray:0.755549;stroke-dashoffset:0;stroke-opacity:1"
       id="ellipse1536"
       cx="8.9999857"
       cy="9.004199"
       rx="8.4002981"
       ry="8.4045572" />
  </g>
</svg>
