<?xml version="1.0" encoding="UTF-8" standalone="no"?>
<svg
   version="1.1"
   width="18"
   height="18"
   viewBox="0 0 18 18"
   id="svg1714"
   xmlns="http://www.w3.org/2000/svg"
   xmlns:svg="http://www.w3.org/2000/svg">
  <defs
     id="defs1718">
    <rect
       x="32.567797"
       y="-13.805085"
       width="44.389831"
       height="38.898305"
       id="rect2002" />
    <rect
       x="22.5"
       y="-2.2118644"
       width="28.525424"
       height="24.559322"
       id="rect1996" />
    <rect
       x="40.805085"
       y="-10.525424"
       width="65.898305"
       height="40.652542"
       id="rect1990" />
    <rect
       x="39.661017"
       y="-9.1525424"
       width="44.237288"
       height="35.389831"
       id="rect1984" />
    <rect
       x="21.279661"
       y="-2.8983051"
       width="36.228814"
       height="33.330508"
       id="rect1978" />
    <rect
       x="17.313559"
       y="1.9067797"
       width="18.228814"
       height="14.338983"
       id="rect1972" />
    <rect
       x="22.576271"
       y="-1.4491525"
       width="29.516949"
       height="22.957627"
       id="rect1966" />
  </defs>
  <g
     id="g1783"
     transform="translate(-452.85504,-37.644012)">
    <text
       xml:space="preserve"
       transform="translate(452.85504,37.644012)"
       id="text1964"
       style="white-space:pre;shape-inside:url(#rect1966);display:inline;fill:#000000" />
    <text
       xml:space="preserve"
       transform="translate(452.85504,37.644012)"
       id="text1970"
       style="white-space:pre;shape-inside:url(#rect1972);display:inline;fill:#000000" />
    <text
       xml:space="preserve"
       transform="translate(452.85504,37.644012)"
       id="text1976"
       style="white-space:pre;shape-inside:url(#rect1978);display:inline;fill:#000000" />
    <text
       xml:space="preserve"
       transform="translate(452.85504,37.644012)"
       id="text1982"
       style="white-space:pre;shape-inside:url(#rect1984);display:inline;fill:#000000" />
    <text
       xml:space="preserve"
       transform="translate(452.85504,37.644012)"
       id="text1988"
       style="white-space:pre;shape-inside:url(#rect1990);display:inline;fill:#000000" />
  </g>
  <path
     id="circle976"
     style="fill:#000000;fill-opacity:1;stroke:none;stroke-width:1.04984;stroke-dasharray:none"
     d="M 8.99997,0 A 8.9999995,8.9999997 0 0 0 0,8.999991 8.9999995,8.9999997 0 0 0 8.99997,17.999997 8.9999995,8.9999997 0 0 0 18.00004,8.999991 8.9999995,8.9999997 0 0 0 8.99997,0 Z M 6.94529,4.49999 h 0.72467 v 5.734382 h 0.98238 v 0.996092 H 7.66996 v 2.119141 H 6.77541 V 11.230464 H 3.63086 v -0.996092 z m 3.47659,0.1211 h 3.60344 V 5.6582 h -2.89251 l -0.39065,2.378907 c 0.4306,-0.370226 0.88626,-0.554693 1.36914,-0.554693 0.60762,0 1.13537,0.258233 1.58208,0.777346 0.45064,0.515087 0.67575,1.212583 0.67575,2.089849 0,0.865188 -0.22511,1.606838 -0.67575,2.226551 -0.44671,0.615702 -1.04822,0.923834 -1.80478,0.923834 -0.62764,0 -1.15909,-0.217741 -1.59369,-0.652337 C 9.86431,12.40902 9.61899,11.803872 9.55856,11.031246 l 0.9356,-0.09567 c 0.0726,0.563377 0.23475,0.982095 0.48823,1.25976 0.25754,0.273646 0.55655,0.412112 0.89454,0.412112 0.42253,0 0.78595,-0.193759 1.09183,-0.580079 0.30581,-0.390339 0.45891,-0.921717 0.45891,-1.59375 0,-0.631785 -0.1495,-1.120716 -0.44719,-1.466804 -0.29372,-0.350096 -0.6647,-0.525386 -1.11138,-0.525386 -0.26955,0 -0.52238,0.07757 -0.75975,0.230473 -0.23336,0.148894 -0.41788,0.357334 -0.5547,0.626948 L 9.71479,9.16604 Z M 6.77541,6.244135 4.50585,10.234372 h 2.26956 z" />
</svg>
