<?xml version="1.0" encoding="UTF-8" standalone="no"?>
<svg
   version="1.1"
   width="18"
   height="18"
   viewBox="0 0 18 18"
   id="svg1714"
   xmlns="http://www.w3.org/2000/svg"
   xmlns:svg="http://www.w3.org/2000/svg">
  <defs
     id="defs1718">
    <rect
       x="32.567797"
       y="-13.805085"
       width="44.389831"
       height="38.898305"
       id="rect2002" />
    <rect
       x="22.5"
       y="-2.2118644"
       width="28.525424"
       height="24.559322"
       id="rect1996" />
    <rect
       x="40.805085"
       y="-10.525424"
       width="65.898305"
       height="40.652542"
       id="rect1990" />
    <rect
       x="39.661017"
       y="-9.1525424"
       width="44.237288"
       height="35.389831"
       id="rect1984" />
    <rect
       x="21.279661"
       y="-2.8983051"
       width="36.228814"
       height="33.330508"
       id="rect1978" />
    <rect
       x="17.313559"
       y="1.9067797"
       width="18.228814"
       height="14.338983"
       id="rect1972" />
    <rect
       x="22.576271"
       y="-1.4491525"
       width="29.516949"
       height="22.957627"
       id="rect1966" />
  </defs>
  <g
     id="g1783"
     transform="translate(-452.85504,-37.644012)">
    <text
       xml:space="preserve"
       transform="translate(452.85504,37.644012)"
       id="text1964"
       style="white-space:pre;shape-inside:url(#rect1966);display:inline;fill:#000000" />
    <text
       xml:space="preserve"
       transform="translate(452.85504,37.644012)"
       id="text1970"
       style="white-space:pre;shape-inside:url(#rect1972);display:inline;fill:#000000" />
    <text
       xml:space="preserve"
       transform="translate(452.85504,37.644012)"
       id="text1976"
       style="white-space:pre;shape-inside:url(#rect1978);display:inline;fill:#000000" />
    <text
       xml:space="preserve"
       transform="translate(452.85504,37.644012)"
       id="text1982"
       style="white-space:pre;shape-inside:url(#rect1984);display:inline;fill:#000000" />
    <text
       xml:space="preserve"
       transform="translate(452.85504,37.644012)"
       id="text1988"
       style="white-space:pre;shape-inside:url(#rect1990);display:inline;fill:#000000" />
  </g>
  <g
     id="g12009">
    <rect
       style="opacity:0.98;fill:none;stroke:#000000;stroke-width:1.19939;stroke-dasharray:none;stroke-opacity:1;paint-order:markers fill stroke"
       id="rect2918"
       width="16.800611"
       height="16.800611"
       x="0.59969503"
       y="0.59969503"
       rx="2.1544993"
       ry="2.1544993" />
    <path
       id="text2922"
       style="font-stretch:condensed;font-size:12.3619px;font-family:'Arial Narrow';-inkscape-font-specification:'Arial Narrow Condensed';opacity:0.98;fill:#000000;stroke-width:0.309047;paint-order:markers fill stroke"
       d="m 6.944721,4.500225 -3.3145231,5.734254 v 0.996073 h 3.1465508 v 2.119096 h 0.892597 V 11.230552 H 8.6537415 V 10.234479 H 7.6693457 V 4.500225 Z m 3.476636,0.1210912 -0.705093,4.544826 0.837908,0.1328097 c 0.136818,-0.2696115 0.321304,-0.480003 0.554699,-0.628893 0.23742,-0.1529139 0.492124,-0.2285108 0.761735,-0.2285108 0.44667,0 0.815643,0.175287 1.109399,0.5253796 0.29778,0.3460685 0.447275,0.8349897 0.447275,1.4667663 0,0.672016 -0.153166,1.203383 -0.458994,1.593716 -0.305828,0.386309 -0.669295,0.578113 -1.09182,0.578113 -0.338021,0 -0.635058,-0.136512 -0.892597,-0.410148 -0.253515,-0.277659 -0.417812,-0.698325 -0.490245,-1.261692 l -0.9355665,0.09765 c 0.060361,0.772618 0.3057701,1.377746 0.7363435,1.816368 0.434598,0.434598 0.966032,0.65233 1.593784,0.65233 0.756522,0 1.358056,-0.308129 1.804725,-0.923808 0.450694,-0.619705 0.675796,-1.361345 0.675796,-2.226516 0,-0.8772434 -0.225102,-1.574721 -0.675796,-2.0897997 C 13.246241,7.7408086 12.718478,7.482584 12.110846,7.482584 c -0.482886,0 -0.938596,0.184463 -1.36917,0.5546758 l 0.392587,-2.3788561 h 2.890686 V 4.6213162 Z M 6.7767487,6.2443289 V 10.234479 H 4.5071696 Z"
       transform="scale(0.99997888,1.0000211)" />
  </g>
</svg>
