<?xml version="1.0" encoding="UTF-8" standalone="no"?>
<svg
   version="1.1"
   width="18"
   height="18"
   viewBox="0 0 18 18"
   id="svg1714"
   xmlns="http://www.w3.org/2000/svg"
   xmlns:svg="http://www.w3.org/2000/svg">
  <defs
     id="defs1718">
    <rect
       x="32.567797"
       y="-13.805085"
       width="44.389831"
       height="38.898305"
       id="rect2002" />
    <rect
       x="22.5"
       y="-2.2118644"
       width="28.525424"
       height="24.559322"
       id="rect1996" />
    <rect
       x="40.805085"
       y="-10.525424"
       width="65.898305"
       height="40.652542"
       id="rect1990" />
    <rect
       x="39.661017"
       y="-9.1525424"
       width="44.237288"
       height="35.389831"
       id="rect1984" />
    <rect
       x="21.279661"
       y="-2.8983051"
       width="36.228814"
       height="33.330508"
       id="rect1978" />
    <rect
       x="17.313559"
       y="1.9067797"
       width="18.228814"
       height="14.338983"
       id="rect1972" />
    <rect
       x="22.576271"
       y="-1.4491525"
       width="29.516949"
       height="22.957627"
       id="rect1966" />
  </defs>
  <g
     id="g1783"
     transform="translate(-452.85504,-37.644012)">
    <text
       xml:space="preserve"
       transform="translate(452.85504,37.644012)"
       id="text1964"
       style="white-space:pre;shape-inside:url(#rect1966);display:inline;fill:#000000" />
    <text
       xml:space="preserve"
       transform="translate(452.85504,37.644012)"
       id="text1970"
       style="white-space:pre;shape-inside:url(#rect1972);display:inline;fill:#000000" />
    <text
       xml:space="preserve"
       transform="translate(452.85504,37.644012)"
       id="text1976"
       style="white-space:pre;shape-inside:url(#rect1978);display:inline;fill:#000000" />
    <text
       xml:space="preserve"
       transform="translate(452.85504,37.644012)"
       id="text1982"
       style="white-space:pre;shape-inside:url(#rect1984);display:inline;fill:#000000" />
    <text
       xml:space="preserve"
       transform="translate(452.85504,37.644012)"
       id="text1988"
       style="white-space:pre;shape-inside:url(#rect1990);display:inline;fill:#000000" />
  </g>
  <g
     id="g9828">
    <path
       id="text1530"
       style="font-stretch:condensed;font-size:12.3618px;font-family:'Arial Narrow';-inkscape-font-specification:'Arial Narrow Condensed';opacity:0.98;fill:#000000;stroke-width:0.309054;paint-order:markers fill stroke"
       d="M 6.9452025,4.5001515 3.6307494,10.234527 v 0.996093 h 3.1445312 v 2.117188 H 7.6698119 V 11.23062 H 8.6522338 V 10.234527 H 7.6698119 V 4.5001515 Z M 10.421765,4.6212453 9.7147338,9.1661671 10.554578,9.2989796 c 0.136816,-0.2696093 0.321294,-0.4800175 0.554687,-0.6289062 0.237417,-0.1529128 0.492109,-0.2285156 0.761719,-0.2285156 0.446666,0 0.815621,0.1753009 1.109375,0.5253906 0.297777,0.3460656 0.447265,0.8350258 0.447265,1.4667966 0,0.672012 -0.153159,1.20342 -0.458984,1.59375 -0.305825,0.386306 -0.669275,0.578125 -1.091797,0.578125 -0.338018,0 -0.636994,-0.136523 -0.894531,-0.410156 -0.253513,-0.277657 -0.415849,-0.698356 -0.488281,-1.261719 l -0.9355472,0.09766 c 0.06036,0.772611 0.305758,1.377788 0.7363282,1.816406 0.434594,0.434594 0.966003,0.652344 1.59375,0.652344 0.756516,0 1.358021,-0.308154 1.804687,-0.923829 0.450691,-0.619699 0.675782,-1.361398 0.675782,-2.226562 0,-0.8772364 -0.225091,-1.5747694 -0.675782,-2.0898439 -0.446666,-0.5190985 -0.974404,-0.7773437 -1.582031,-0.7773437 -0.482882,0 -0.93857,0.1844777 -1.36914,0.5546875 l 0.392578,-2.3789063 h 2.890625 V 4.6212453 Z M 6.7752806,6.2442921 V 10.234527 H 4.5057494 Z" />
    <rect
       style="opacity:0.98;fill:none;stroke:#000000;stroke-width:1.19939;stroke-dasharray:0.755616;stroke-dashoffset:0;stroke-opacity:1;paint-order:markers fill stroke"
       id="rect1543"
       width="16.800611"
       height="16.800611"
       x="0.59969503"
       y="0.59969503"
       rx="2.1544993"
       ry="2.1544993" />
  </g>
</svg>
