<?xml version="1.0" encoding="UTF-8" standalone="no"?>
<svg
   version="1.1"
   width="18"
   height="18"
   viewBox="0 0 18 18"
   id="svg1714"
   xmlns="http://www.w3.org/2000/svg"
   xmlns:svg="http://www.w3.org/2000/svg">
  <defs
     id="defs1718">
    <rect
       x="32.567797"
       y="-13.805085"
       width="44.389831"
       height="38.898305"
       id="rect2002" />
    <rect
       x="22.5"
       y="-2.2118644"
       width="28.525424"
       height="24.559322"
       id="rect1996" />
    <rect
       x="40.805085"
       y="-10.525424"
       width="65.898305"
       height="40.652542"
       id="rect1990" />
    <rect
       x="39.661017"
       y="-9.1525424"
       width="44.237288"
       height="35.389831"
       id="rect1984" />
    <rect
       x="21.279661"
       y="-2.8983051"
       width="36.228814"
       height="33.330508"
       id="rect1978" />
    <rect
       x="17.313559"
       y="1.9067797"
       width="18.228814"
       height="14.338983"
       id="rect1972" />
    <rect
       x="22.576271"
       y="-1.4491525"
       width="29.516949"
       height="22.957627"
       id="rect1966" />
  </defs>
  <g
     id="g1783"
     transform="translate(-452.85504,-37.644012)">
    <text
       xml:space="preserve"
       transform="translate(452.85504,37.644012)"
       id="text1964"
       style="white-space:pre;shape-inside:url(#rect1966);display:inline;fill:#000000" />
    <text
       xml:space="preserve"
       transform="translate(452.85504,37.644012)"
       id="text1970"
       style="white-space:pre;shape-inside:url(#rect1972);display:inline;fill:#000000" />
    <text
       xml:space="preserve"
       transform="translate(452.85504,37.644012)"
       id="text1976"
       style="white-space:pre;shape-inside:url(#rect1978);display:inline;fill:#000000" />
    <text
       xml:space="preserve"
       transform="translate(452.85504,37.644012)"
       id="text1982"
       style="white-space:pre;shape-inside:url(#rect1984);display:inline;fill:#000000" />
    <text
       xml:space="preserve"
       transform="translate(452.85504,37.644012)"
       id="text1988"
       style="white-space:pre;shape-inside:url(#rect1990);display:inline;fill:#000000" />
  </g>
  <g
     id="g6646"
     transform="translate(-434.03349,65.243999)">
    <path
       id="text971"
       style="font-stretch:condensed;font-size:12.5296px;font-family:'Arial Narrow';-inkscape-font-specification:'Arial Narrow Condensed';opacity:0.98;fill:#000000;stroke-width:0.313255;paint-order:markers fill stroke"
       d="m 441.4707,-60.744141 -0.71679,4.607422 0.85156,0.134766 c 0.13867,-0.273269 0.32594,-0.485809 0.5625,-0.636719 0.24064,-0.154988 0.49821,-0.232422 0.77148,-0.232422 0.45273,0 0.82726,0.176408 1.125,0.53125 0.30182,0.350763 0.45313,0.847935 0.45313,1.488282 0,0.681133 -0.15487,1.219606 -0.46485,1.615234 -0.30997,0.391549 -0.67916,0.585937 -1.10742,0.585937 -0.3426,0 -0.64521,-0.138668 -0.90625,-0.416015 -0.25695,-0.281427 -0.42268,-0.706334 -0.49609,-1.277344 l -0.94727,0.09766 c 0.0612,0.783099 0.30968,1.397225 0.7461,1.841797 0.44049,0.440493 0.97896,0.660156 1.61523,0.660156 0.76679,0 1.37735,-0.311514 1.83008,-0.935547 0.45681,-0.62811 0.68359,-1.380904 0.68359,-2.257812 0,-0.889144 -0.22678,-1.595121 -0.68359,-2.117188 -0.45273,-0.526144 -0.98764,-0.789062 -1.60352,-0.789062 -0.48943,0 -0.95225,0.187265 -1.38867,0.5625 l 0.39649,-2.410156 h 2.93164 v -1.052735 z" />
    <ellipse
       style="fill:none;fill-opacity:1;stroke:#000000;stroke-width:1.19928;stroke-dasharray:0.755549;stroke-dashoffset:0;stroke-opacity:1"
       id="ellipse973"
       cx="443.03348"
       cy="-56.239754"
       rx="8.4002981"
       ry="8.4045572" />
  </g>
</svg>
