<?xml version="1.0" encoding="UTF-8" standalone="no"?>
<svg
   version="1.1"
   width="18"
   height="18"
   viewBox="0 0 18 18"
   id="svg1714"
   xmlns="http://www.w3.org/2000/svg"
   xmlns:svg="http://www.w3.org/2000/svg">
  <defs
     id="defs1718">
    <rect
       x="32.567797"
       y="-13.805085"
       width="44.389831"
       height="38.898305"
       id="rect2002" />
    <rect
       x="22.5"
       y="-2.2118644"
       width="28.525424"
       height="24.559322"
       id="rect1996" />
    <rect
       x="40.805085"
       y="-10.525424"
       width="65.898305"
       height="40.652542"
       id="rect1990" />
    <rect
       x="39.661017"
       y="-9.1525424"
       width="44.237288"
       height="35.389831"
       id="rect1984" />
    <rect
       x="21.279661"
       y="-2.8983051"
       width="36.228814"
       height="33.330508"
       id="rect1978" />
    <rect
       x="17.313559"
       y="1.9067797"
       width="18.228814"
       height="14.338983"
       id="rect1972" />
    <rect
       x="22.576271"
       y="-1.4491525"
       width="29.516949"
       height="22.957627"
       id="rect1966" />
  </defs>
  <g
     id="g1783"
     transform="translate(-452.85504,-37.644012)">
    <text
       xml:space="preserve"
       transform="translate(452.85504,37.644012)"
       id="text1964"
       style="white-space:pre;shape-inside:url(#rect1966);display:inline;fill:#000000" />
    <text
       xml:space="preserve"
       transform="translate(452.85504,37.644012)"
       id="text1970"
       style="white-space:pre;shape-inside:url(#rect1972);display:inline;fill:#000000" />
    <text
       xml:space="preserve"
       transform="translate(452.85504,37.644012)"
       id="text1976"
       style="white-space:pre;shape-inside:url(#rect1978);display:inline;fill:#000000" />
    <text
       xml:space="preserve"
       transform="translate(452.85504,37.644012)"
       id="text1982"
       style="white-space:pre;shape-inside:url(#rect1984);display:inline;fill:#000000" />
    <text
       xml:space="preserve"
       transform="translate(452.85504,37.644012)"
       id="text1988"
       style="white-space:pre;shape-inside:url(#rect1990);display:inline;fill:#000000" />
  </g>
  <path
     id="circle355"
     style="fill:#000000;fill-opacity:1;stroke:none;stroke-width:1.04984;stroke-dasharray:none"
     d="M 9.00001,0 A 8.9999995,8.9999997 0 0 0 0,8.999991 8.9999995,8.9999997 0 0 0 9.00001,17.999997 8.9999995,8.9999997 0 0 0 18,8.999991 8.9999995,8.9999997 0 0 0 9.00001,0 Z M 7.4375,4.49999 h 3.65235 V 5.55273 H 8.1582 L 7.76173,7.962886 c 0.4364,-0.375227 0.89923,-0.562508 1.38866,-0.562508 0.61588,0 1.14885,0.262923 1.60157,0.789067 0.4568,0.522065 0.68554,1.228053 0.68554,2.117187 0,0.876901 -0.22874,1.627758 -0.68554,2.255865 -0.45272,0.624029 -1.06135,0.937497 -1.82813,0.937497 -0.63626,0 -1.17475,-0.221618 -1.61523,-0.662108 C 6.87219,12.393313 6.62369,11.781137 6.5625,10.99804 l 0.94727,-0.09962 c 0.0734,0.571 0.23914,0.99787 0.49609,1.279296 0.26103,0.277346 0.56365,0.416023 0.90625,0.416023 0.42826,0 0.79745,-0.196352 1.10743,-0.5879 0.30997,-0.395626 0.46484,-0.934102 0.46484,-1.615235 0,-0.640343 -0.15131,-1.135568 -0.45313,-1.486319 C 9.73351,8.54944 9.35703,8.373035 8.9043,8.373035 c -0.27327,0 -0.52889,0.07742 -0.76953,0.232409 C 7.89821,8.756365 7.71093,8.968902 7.57227,9.242168 L 6.72071,9.107401 Z" />
</svg>
