<?xml version="1.0" encoding="UTF-8" standalone="no"?>
<svg
   version="1.1"
   width="18"
   height="18"
   viewBox="0 0 18 18"
   id="svg1714"
   xmlns="http://www.w3.org/2000/svg"
   xmlns:svg="http://www.w3.org/2000/svg">
  <defs
     id="defs1718">
    <rect
       x="32.567797"
       y="-13.805085"
       width="44.389831"
       height="38.898305"
       id="rect2002" />
    <rect
       x="22.5"
       y="-2.2118644"
       width="28.525424"
       height="24.559322"
       id="rect1996" />
    <rect
       x="40.805085"
       y="-10.525424"
       width="65.898305"
       height="40.652542"
       id="rect1990" />
    <rect
       x="39.661017"
       y="-9.1525424"
       width="44.237288"
       height="35.389831"
       id="rect1984" />
    <rect
       x="21.279661"
       y="-2.8983051"
       width="36.228814"
       height="33.330508"
       id="rect1978" />
    <rect
       x="17.313559"
       y="1.9067797"
       width="18.228814"
       height="14.338983"
       id="rect1972" />
    <rect
       x="22.576271"
       y="-1.4491525"
       width="29.516949"
       height="22.957627"
       id="rect1966" />
  </defs>
  <g
     id="g1783"
     transform="translate(-452.85504,-37.644012)">
    <text
       xml:space="preserve"
       transform="translate(452.85504,37.644012)"
       id="text1964"
       style="white-space:pre;shape-inside:url(#rect1966);display:inline;fill:#000000" />
    <text
       xml:space="preserve"
       transform="translate(452.85504,37.644012)"
       id="text1970"
       style="white-space:pre;shape-inside:url(#rect1972);display:inline;fill:#000000" />
    <text
       xml:space="preserve"
       transform="translate(452.85504,37.644012)"
       id="text1976"
       style="white-space:pre;shape-inside:url(#rect1978);display:inline;fill:#000000" />
    <text
       xml:space="preserve"
       transform="translate(452.85504,37.644012)"
       id="text1982"
       style="white-space:pre;shape-inside:url(#rect1984);display:inline;fill:#000000" />
    <text
       xml:space="preserve"
       transform="translate(452.85504,37.644012)"
       id="text1988"
       style="white-space:pre;shape-inside:url(#rect1990);display:inline;fill:#000000" />
    <g
       id="g2449"
       transform="translate(106.95395,-34.00322)">
      <circle
         style="fill:none;fill-opacity:1;stroke:#000000;stroke-width:1.19912;stroke-dasharray:none;stroke-opacity:1"
         id="circle602"
         cx="354.90109"
         cy="80.647232"
         r="8.4004402" />
      <path
         id="text606"
         style="font-stretch:condensed;font-size:12.5295px;font-family:'Arial Narrow';-inkscape-font-specification:'Arial Narrow Condensed';opacity:0.98;fill:#000000;stroke-width:0.313237;paint-order:markers fill stroke"
         d="m 353.33789,76.146484 -0.71484,4.607422 0.84961,0.134766 c 0.13867,-0.273267 0.32594,-0.48581 0.5625,-0.636719 0.24063,-0.154987 0.49821,-0.232422 0.77148,-0.232422 0.45273,0 0.82726,0.178364 1.125,0.533203 0.30182,0.350761 0.45313,0.845987 0.45313,1.486328 0,0.681128 -0.15487,1.21961 -0.46485,1.615235 -0.30997,0.391546 -0.67917,0.587891 -1.10742,0.587891 -0.3426,0 -0.64522,-0.138671 -0.90625,-0.416016 -0.25695,-0.281424 -0.42073,-0.708292 -0.49414,-1.279297 l -0.94922,0.09766 c 0.0612,0.783093 0.30968,1.397229 0.74609,1.841797 0.44049,0.44049 0.97898,0.660156 1.61524,0.660156 0.76678,0 1.37735,-0.311519 1.83008,-0.935546 0.4568,-0.628106 0.68554,-1.380912 0.68554,-2.257813 0,-0.889137 -0.22874,-1.595126 -0.68554,-2.117187 -0.45273,-0.526141 -0.98765,-0.789063 -1.60352,-0.789063 -0.48943,0 -0.95226,0.187268 -1.38867,0.5625 l 0.39844,-2.410156 h 2.92968 v -1.052735 z" />
    </g>
  </g>
</svg>
