<?xml version="1.0" encoding="UTF-8" standalone="no"?>
<svg
   version="1.1"
   width="18"
   height="18"
   viewBox="0 0 18 18"
   id="svg1714"
   xmlns="http://www.w3.org/2000/svg"
   xmlns:svg="http://www.w3.org/2000/svg">
  <defs
     id="defs1718">
    <rect
       x="32.567797"
       y="-13.805085"
       width="44.389831"
       height="38.898305"
       id="rect2002" />
    <rect
       x="22.5"
       y="-2.2118644"
       width="28.525424"
       height="24.559322"
       id="rect1996" />
    <rect
       x="40.805085"
       y="-10.525424"
       width="65.898305"
       height="40.652542"
       id="rect1990" />
    <rect
       x="39.661017"
       y="-9.1525424"
       width="44.237288"
       height="35.389831"
       id="rect1984" />
    <rect
       x="21.279661"
       y="-2.8983051"
       width="36.228814"
       height="33.330508"
       id="rect1978" />
    <rect
       x="17.313559"
       y="1.9067797"
       width="18.228814"
       height="14.338983"
       id="rect1972" />
    <rect
       x="22.576271"
       y="-1.4491525"
       width="29.516949"
       height="22.957627"
       id="rect1966" />
  </defs>
  <g
     id="g1783"
     transform="translate(-452.85504,-37.644012)">
    <text
       xml:space="preserve"
       transform="translate(452.85504,37.644012)"
       id="text1964"
       style="white-space:pre;shape-inside:url(#rect1966);display:inline;fill:#000000" />
    <text
       xml:space="preserve"
       transform="translate(452.85504,37.644012)"
       id="text1970"
       style="white-space:pre;shape-inside:url(#rect1972);display:inline;fill:#000000" />
    <text
       xml:space="preserve"
       transform="translate(452.85504,37.644012)"
       id="text1976"
       style="white-space:pre;shape-inside:url(#rect1978);display:inline;fill:#000000" />
    <text
       xml:space="preserve"
       transform="translate(452.85504,37.644012)"
       id="text1982"
       style="white-space:pre;shape-inside:url(#rect1984);display:inline;fill:#000000" />
    <text
       xml:space="preserve"
       transform="translate(452.85504,37.644012)"
       id="text1988"
       style="white-space:pre;shape-inside:url(#rect1990);display:inline;fill:#000000" />
  </g>
  <g
     id="g8895">
    <path
       id="text967"
       style="font-stretch:condensed;font-size:12.5296px;font-family:'Arial Narrow';-inkscape-font-specification:'Arial Narrow Condensed';opacity:0.98;fill:#000000;stroke-width:0.313255;paint-order:markers fill stroke"
       d="M 7.4363644,4.4998594 6.7215206,9.1072812 7.57113,9.2420469 C 7.7098038,8.9687779 7.8970688,8.7562379 8.13363,8.6053281 8.3742699,8.4503397 8.6318454,8.3729062 8.9051144,8.3729062 c 0.4527292,0 0.8272591,0.1764082 1.1249996,0.53125 0.30182,0.3507632 0.453125,0.8479345 0.453125,1.4882808 0,0.681134 -0.154867,1.219607 -0.464843,1.615235 -0.3099772,0.391549 -0.6791649,0.585937 -1.1074223,0.585937 -0.3426059,0 -0.6432637,-0.138668 -0.9042968,-0.416015 C 7.7497224,11.896167 7.5839987,11.47126 7.5105831,10.90025 l -0.9492187,0.09766 c 0.06118,0.783099 0.3096791,1.397225 0.7460937,1.841797 0.4404933,0.440493 0.9789663,0.660156 1.6152344,0.660156 0.7667847,0 1.3773485,-0.311514 1.8300785,-0.935547 0.456808,-0.62811 0.685546,-1.380904 0.685546,-2.257812 0,-0.8891439 -0.228738,-1.5951213 -0.685546,-2.1171875 C 10.300041,7.6631677 9.7651299,7.40025 9.149255,7.40025 c -0.489437,0 -0.9522572,0.187265 -1.3886719,0.5625 L 8.1590206,5.5525937 H 11.088708 V 4.4998594 Z" />
    <rect
       style="opacity:0.98;fill:none;stroke:#000000;stroke-width:1.19939;stroke-dasharray:0.755616;stroke-dashoffset:0;stroke-opacity:1;paint-order:markers fill stroke"
       id="rect980"
       width="16.800611"
       height="16.800611"
       x="0.59969503"
       y="0.59969503"
       rx="2.1544993"
       ry="2.1544993" />
  </g>
</svg>
