<?xml version="1.0" encoding="UTF-8" standalone="no"?>
<svg
   version="1.1"
   width="18"
   height="18"
   viewBox="0 0 18 18"
   id="svg1714"
   xmlns="http://www.w3.org/2000/svg"
   xmlns:svg="http://www.w3.org/2000/svg">
  <defs
     id="defs1718">
    <rect
       x="32.567797"
       y="-13.805085"
       width="44.389831"
       height="38.898305"
       id="rect2002" />
    <rect
       x="22.5"
       y="-2.2118644"
       width="28.525424"
       height="24.559322"
       id="rect1996" />
    <rect
       x="40.805085"
       y="-10.525424"
       width="65.898305"
       height="40.652542"
       id="rect1990" />
    <rect
       x="39.661017"
       y="-9.1525424"
       width="44.237288"
       height="35.389831"
       id="rect1984" />
    <rect
       x="21.279661"
       y="-2.8983051"
       width="36.228814"
       height="33.330508"
       id="rect1978" />
    <rect
       x="17.313559"
       y="1.9067797"
       width="18.228814"
       height="14.338983"
       id="rect1972" />
    <rect
       x="22.576271"
       y="-1.4491525"
       width="29.516949"
       height="22.957627"
       id="rect1966" />
  </defs>
  <g
     id="g1783"
     transform="translate(-452.85504,-37.644012)">
    <text
       xml:space="preserve"
       transform="translate(452.85504,37.644012)"
       id="text1964"
       style="white-space:pre;shape-inside:url(#rect1966);display:inline;fill:#000000" />
    <text
       xml:space="preserve"
       transform="translate(452.85504,37.644012)"
       id="text1970"
       style="white-space:pre;shape-inside:url(#rect1972);display:inline;fill:#000000" />
    <text
       xml:space="preserve"
       transform="translate(452.85504,37.644012)"
       id="text1976"
       style="white-space:pre;shape-inside:url(#rect1978);display:inline;fill:#000000" />
    <text
       xml:space="preserve"
       transform="translate(452.85504,37.644012)"
       id="text1982"
       style="white-space:pre;shape-inside:url(#rect1984);display:inline;fill:#000000" />
    <text
       xml:space="preserve"
       transform="translate(452.85504,37.644012)"
       id="text1988"
       style="white-space:pre;shape-inside:url(#rect1990);display:inline;fill:#000000" />
  </g>
  <path
     id="rect3545"
     style="opacity:0.98;fill:#000000;fill-opacity:1;stroke:none;stroke-width:1.28507;stroke-dasharray:none;stroke-opacity:1;paint-order:markers fill stroke"
     d="M 2.3086,0 C 1.02979,0 0,1.02978 0,2.3086 v 13.38274 c 0,1.27884 1.02979,2.30862 2.3086,2.30862 H 15.6914 C 16.97021,17.99996 18,16.97018 18,15.69134 V 2.3086 C 18,1.02978 16.97021,0 15.6914,0 Z m 5.1289,4.49989 h 3.65235 V 5.5527 H 8.1582 L 7.76172,7.96286 C 8.19814,7.58755 8.66096,7.40039 9.1504,7.40039 c 0.61586,0 1.14884,0.26287 1.60155,0.78901 0.45681,0.52209 0.68555,1.22807 0.68555,2.11714 0,0.87691 -0.22874,1.62779 -0.68555,2.25592 -0.45271,0.6241 -1.06134,0.93746 -1.82812,0.93746 -0.63626,0 -1.17474,-0.22159 -1.61523,-0.66205 C 6.87218,12.39323 6.62368,11.78113 6.5625,10.99805 l 0.94727,-0.0999 c 0.0734,0.57095 0.23914,0.99781 0.49609,1.27926 0.26103,0.27732 0.56365,0.41604 0.90625,0.41604 0.42826,0 0.79745,-0.19637 1.10742,-0.58794 0.30997,-0.39558 0.46484,-0.93406 0.46484,-1.61516 0,-0.64034 -0.1513,-1.13558 -0.45312,-1.48641 C 9.73351,8.54917 9.35703,8.37276 8.9043,8.37276 8.63103,8.37276 8.3754,8.45046 8.13476,8.60519 7.89821,8.75609 7.71094,8.96867 7.57227,9.24194 L 6.72071,9.10706 Z" />
</svg>
