<?xml version="1.0" encoding="UTF-8" standalone="no"?>
<svg
   version="1.1"
   width="18"
   height="18"
   viewBox="0 0 18 18"
   id="svg1714"
   xmlns="http://www.w3.org/2000/svg"
   xmlns:svg="http://www.w3.org/2000/svg">
  <defs
     id="defs1718">
    <rect
       x="32.567797"
       y="-13.805085"
       width="44.389831"
       height="38.898305"
       id="rect2002" />
    <rect
       x="22.5"
       y="-2.2118644"
       width="28.525424"
       height="24.559322"
       id="rect1996" />
    <rect
       x="40.805085"
       y="-10.525424"
       width="65.898305"
       height="40.652542"
       id="rect1990" />
    <rect
       x="39.661017"
       y="-9.1525424"
       width="44.237288"
       height="35.389831"
       id="rect1984" />
    <rect
       x="21.279661"
       y="-2.8983051"
       width="36.228814"
       height="33.330508"
       id="rect1978" />
    <rect
       x="17.313559"
       y="1.9067797"
       width="18.228814"
       height="14.338983"
       id="rect1972" />
    <rect
       x="22.576271"
       y="-1.4491525"
       width="29.516949"
       height="22.957627"
       id="rect1966" />
  </defs>
  <g
     id="g1783"
     transform="translate(-452.85504,-37.644012)">
    <text
       xml:space="preserve"
       transform="translate(452.85504,37.644012)"
       id="text1964"
       style="white-space:pre;shape-inside:url(#rect1966);display:inline;fill:#000000" />
    <text
       xml:space="preserve"
       transform="translate(452.85504,37.644012)"
       id="text1970"
       style="white-space:pre;shape-inside:url(#rect1972);display:inline;fill:#000000" />
    <text
       xml:space="preserve"
       transform="translate(452.85504,37.644012)"
       id="text1976"
       style="white-space:pre;shape-inside:url(#rect1978);display:inline;fill:#000000" />
    <text
       xml:space="preserve"
       transform="translate(452.85504,37.644012)"
       id="text1982"
       style="white-space:pre;shape-inside:url(#rect1984);display:inline;fill:#000000" />
    <text
       xml:space="preserve"
       transform="translate(452.85504,37.644012)"
       id="text1988"
       style="white-space:pre;shape-inside:url(#rect1990);display:inline;fill:#000000" />
  </g>
  <g
     id="g11084">
    <rect
       style="opacity:0.98;fill:none;stroke:#000000;stroke-width:1.19939;stroke-dasharray:none;stroke-opacity:1;paint-order:markers fill stroke"
       id="rect1747"
       width="16.800611"
       height="16.800611"
       x="0.59969503"
       y="0.59969503"
       rx="2.1544993"
       ry="2.1544993" />
    <path
       id="text1751"
       style="font-stretch:condensed;font-size:12.5295px;font-family:'Arial Narrow';-inkscape-font-specification:'Arial Narrow Condensed';opacity:0.98;fill:#000000;stroke-width:0.313237;paint-order:markers fill stroke"
       d="M 7.4369688,4.50032 6.7201719,9.1077419 7.5717344,9.2405544 C 7.7104071,8.9672876 7.897675,8.7566973 8.1342344,8.6057887 8.3748723,8.4508016 8.6324519,8.3733669 8.9057188,8.3733669 c 0.4527256,0 0.8272615,0.176411 1.1250002,0.53125 0.301817,0.3507604 0.453125,0.8459865 0.453125,1.4863281 0,0.681128 -0.15487,1.219609 -0.464844,1.615234 -0.3099743,0.391547 -0.6791679,0.587891 -1.1074219,0.587891 -0.3426031,0 -0.645219,-0.13867 -0.90625,-0.416016 C 7.7483757,11.89663 7.5846025,11.469763 7.5111875,10.898757 l -0.9492187,0.09766 c 0.061179,0.783093 0.3096825,1.397228 0.7460937,1.841797 0.4404898,0.440489 0.9789713,0.662109 1.6152344,0.662109 0.7667785,0 1.3773521,-0.313473 1.8300781,-0.9375 0.456804,-0.628106 0.685547,-1.380912 0.685547,-2.257813 0,-0.8891363 -0.228743,-1.5931719 -0.685547,-2.1152339 C 10.300649,7.6636325 9.7657294,7.4007106 9.1498594,7.4007106 c -0.4894331,0 -0.9522607,0.187268 -1.3886719,0.5625 L 8.159625,5.5530544 h 2.929688 V 4.50032 Z" />
  </g>
</svg>
