<?xml version="1.0" encoding="UTF-8" standalone="no"?>
<svg
   version="1.1"
   width="18"
   height="18"
   viewBox="0 0 18 18"
   id="svg1714"
   sodipodi:docname="50-circle.svg"
   inkscape:version="1.2.1 (9c6d41e, 2022-07-14)"
   xmlns:inkscape="http://www.inkscape.org/namespaces/inkscape"
   xmlns:sodipodi="http://sodipodi.sourceforge.net/DTD/sodipodi-0.dtd"
   xmlns="http://www.w3.org/2000/svg"
   xmlns:svg="http://www.w3.org/2000/svg">
  <defs
     id="defs1718">
    <rect
       x="32.567797"
       y="-13.805085"
       width="44.389831"
       height="38.898305"
       id="rect2002" />
    <rect
       x="22.5"
       y="-2.2118644"
       width="28.525424"
       height="24.559322"
       id="rect1996" />
    <rect
       x="40.805085"
       y="-10.525424"
       width="65.898305"
       height="40.652542"
       id="rect1990" />
    <rect
       x="39.661017"
       y="-9.1525424"
       width="44.237288"
       height="35.389831"
       id="rect1984" />
    <rect
       x="21.279661"
       y="-2.8983051"
       width="36.228814"
       height="33.330508"
       id="rect1978" />
    <rect
       x="17.313559"
       y="1.9067797"
       width="18.228814"
       height="14.338983"
       id="rect1972" />
    <rect
       x="22.576271"
       y="-1.4491525"
       width="29.516949"
       height="22.957627"
       id="rect1966" />
  </defs>
  <sodipodi:namedview
     id="namedview1716"
     pagecolor="#ffffff"
     bordercolor="#000000"
     borderopacity="0.25"
     inkscape:showpageshadow="2"
     inkscape:pageopacity="0.0"
     inkscape:pagecheckerboard="0"
     inkscape:deskcolor="#d1d1d1"
     showgrid="false"
     inkscape:zoom="13.111111"
     inkscape:cx="7.3220339"
     inkscape:cy="10.90678"
     inkscape:window-width="1920"
     inkscape:window-height="962"
     inkscape:window-x="1440"
     inkscape:window-y="25"
     inkscape:window-maximized="0"
     inkscape:current-layer="g1783" />
  <g
     id="g1783"
     transform="translate(-452.85504,-37.644012)">
    <text
       xml:space="preserve"
       transform="translate(452.85504,37.644012)"
       id="text1964"
       style="white-space:pre;shape-inside:url(#rect1966);display:inline;fill:#000000" />
    <text
       xml:space="preserve"
       transform="translate(452.85504,37.644012)"
       id="text1970"
       style="white-space:pre;shape-inside:url(#rect1972);display:inline;fill:#000000" />
    <text
       xml:space="preserve"
       transform="translate(452.85504,37.644012)"
       id="text1976"
       style="white-space:pre;shape-inside:url(#rect1978);display:inline;fill:#000000" />
    <text
       xml:space="preserve"
       transform="translate(452.85504,37.644012)"
       id="text1982"
       style="white-space:pre;shape-inside:url(#rect1984);display:inline;fill:#000000" />
    <text
       xml:space="preserve"
       transform="translate(452.85504,37.644012)"
       id="text1988"
       style="white-space:pre;shape-inside:url(#rect1990);display:inline;fill:#000000" />
    <g
       id="g3573"
       transform="translate(13.031249,-32.62471)">
      <circle
         style="fill:none;fill-opacity:1;stroke:#000000;stroke-width:1.19912;stroke-dasharray:none;stroke-opacity:1"
         id="circle817"
         cx="448.82379"
         cy="79.268723"
         r="8.4004402" />
      <path
         id="text821"
         style="font-stretch:condensed;font-size:12.3128px;font-family:'Arial Narrow';-inkscape-font-specification:'Arial Narrow Condensed';opacity:0.98;fill:#000000;stroke-width:0.307821;paint-order:markers fill stroke"
         d="m 451.62877,74.770847 c -0.77757,0 -1.36674,0.379112 -1.76755,1.140645 -0.3968,0.761533 -0.59374,1.88241 -0.59374,3.361388 0,1.651324 0.21741,2.813033 0.65429,3.486389 0.44089,0.673356 1.00589,1.011737 1.69528,1.011737 0.78158,0 1.37075,-0.381065 1.76755,-1.142599 0.3968,-0.765541 0.59569,-1.884566 0.59569,-3.355527 0,-1.639301 -0.23972,-2.830734 -0.72069,-3.576235 -0.3968,-0.617243 -0.94144,-0.925798 -1.63083,-0.925798 z m -7.11706,0.156253 -0.70311,4.52547 0.83396,0.132815 c 0.13628,-0.268541 0.32221,-0.476712 0.55468,-0.625011 0.23648,-0.152307 0.48926,-0.22852 0.7578,-0.22852 0.4449,0 0.81286,0.174745 1.10545,0.523447 0.2966,0.344694 0.44531,0.831697 0.44531,1.460963 0,0.669348 -0.15241,1.199136 -0.45703,1.587919 -0.30461,0.384775 -0.66702,0.576182 -1.08787,0.576182 -0.33668,0 -0.63409,-0.135662 -0.89061,-0.40821 -0.25251,-0.276557 -0.41417,-0.696705 -0.48632,-1.257835 l -0.93162,0.09766 c 0.0601,0.769549 0.30354,1.371746 0.73241,1.808626 0.43287,0.432871 0.9626,0.650402 1.58786,0.650402 0.75352,0 1.35195,-0.306704 1.79684,-0.919938 0.44891,-0.617243 0.67382,-1.357055 0.67382,-2.218789 0,-0.87376 -0.22491,-1.567082 -0.67382,-2.080115 -0.44489,-0.517041 -0.96897,-0.775405 -1.57419,-0.775405 -0.48097,0 -0.93634,0.184002 -1.36521,0.552745 l 0.39062,-2.369183 h 2.87886 V 74.9271 Z m 7.07605,0.738294 c 0.43687,0 0.79188,0.243552 1.06443,0.728529 0.27656,0.484976 0.41405,1.444068 0.41405,2.878957 0,1.418856 -0.13564,2.374245 -0.40819,2.867238 -0.27255,0.492992 -0.61079,0.740247 -1.01561,0.740247 -0.42886,0 -0.78202,-0.241599 -1.05857,-0.726575 -0.27255,-0.488985 -0.41015,-1.45003 -0.41015,-2.88091 0,-1.418857 0.13575,-2.374246 0.40429,-2.867238 0.27255,-0.492993 0.60894,-0.740248 1.00975,-0.740248 z"
         transform="scale(1.0000176,0.9999824)" />
    </g>
  </g>
</svg>
