<?xml version="1.0" encoding="UTF-8" standalone="no"?>
<svg
   version="1.1"
   width="18"
   height="18"
   viewBox="0 0 18 18"
   id="svg1714"
   xmlns="http://www.w3.org/2000/svg"
   xmlns:svg="http://www.w3.org/2000/svg">
  <defs
     id="defs1718">
    <rect
       x="32.567797"
       y="-13.805085"
       width="44.389831"
       height="38.898305"
       id="rect2002" />
    <rect
       x="22.5"
       y="-2.2118644"
       width="28.525424"
       height="24.559322"
       id="rect1996" />
    <rect
       x="40.805085"
       y="-10.525424"
       width="65.898305"
       height="40.652542"
       id="rect1990" />
    <rect
       x="39.661017"
       y="-9.1525424"
       width="44.237288"
       height="35.389831"
       id="rect1984" />
    <rect
       x="21.279661"
       y="-2.8983051"
       width="36.228814"
       height="33.330508"
       id="rect1978" />
    <rect
       x="17.313559"
       y="1.9067797"
       width="18.228814"
       height="14.338983"
       id="rect1972" />
    <rect
       x="22.576271"
       y="-1.4491525"
       width="29.516949"
       height="22.957627"
       id="rect1966" />
  </defs>
  <g
     id="g1783"
     transform="translate(-452.85504,-37.644012)">
    <text
       xml:space="preserve"
       transform="translate(452.85504,37.644012)"
       id="text1964"
       style="white-space:pre;shape-inside:url(#rect1966);display:inline;fill:#000000" />
    <text
       xml:space="preserve"
       transform="translate(452.85504,37.644012)"
       id="text1970"
       style="white-space:pre;shape-inside:url(#rect1972);display:inline;fill:#000000" />
    <text
       xml:space="preserve"
       transform="translate(452.85504,37.644012)"
       id="text1976"
       style="white-space:pre;shape-inside:url(#rect1978);display:inline;fill:#000000" />
    <text
       xml:space="preserve"
       transform="translate(452.85504,37.644012)"
       id="text1982"
       style="white-space:pre;shape-inside:url(#rect1984);display:inline;fill:#000000" />
    <text
       xml:space="preserve"
       transform="translate(452.85504,37.644012)"
       id="text1988"
       style="white-space:pre;shape-inside:url(#rect1990);display:inline;fill:#000000" />
  </g>
  <g
     id="g7732"
     transform="translate(3.93816e-7,4.6267516e-5)">
    <path
       id="text1579"
       style="font-stretch:condensed;font-size:12.3132px;font-family:'Arial Narrow';-inkscape-font-specification:'Arial Narrow Condensed';opacity:0.98;fill:#000000;stroke-width:0.307814;paint-order:markers fill stroke"
       d="m 11.813049,4.4991094 c -0.77759,0 -1.366777,0.381008 -1.767597,1.1425658 C 9.6486405,6.403233 9.4516958,7.5239415 9.4516958,9.002967 c 0,1.651378 0.2174103,2.814866 0.6543042,3.488244 0.440902,0.673377 1.00592,1.009754 1.695331,1.009754 0.781598,0 1.370785,-0.381008 1.767597,-1.142565 0.396812,-0.765567 0.595709,-1.884424 0.595709,-3.355433 0,-1.6393534 -0.239727,-2.8325613 -0.720711,-3.5780863 C 13.047115,4.807618 12.50246,4.4991094 11.813049,4.4991094 Z M 4.6957851,4.6553577 3.9926525,9.1826526 4.8266459,9.3154636 C 4.9629246,9.0469143 5.1488638,8.8387738 5.3813394,8.6904704 5.6178231,8.5381588 5.8706107,8.4619572 6.1391601,8.4619572 c 0.4449101,0 0.8128821,0.1747186 1.1054806,0.5234319 0.2966068,0.3447051 0.4453174,0.8316344 0.4453174,1.4609219 0,0.669369 -0.1524131,1.199078 -0.4570362,1.587873 -0.3046232,0.384787 -0.6670415,0.576166 -1.0879024,0.576166 -0.3366887,0 -0.6341099,-0.135641 -0.8906346,-0.408199 C 5.0018683,11.925585 4.8401991,11.5055 4.7680515,10.944352 l -0.9316507,0.09765 c 0.060123,0.769575 0.3035525,1.371681 0.7324298,1.808575 0.4328855,0.432885 0.9626287,0.650383 1.5879078,0.650383 0.7535414,0 1.3519843,-0.306657 1.7968944,-0.919912 0.4489183,-0.617262 0.6738354,-1.356963 0.6738354,-2.218726 0,-0.8737871 -0.2249171,-1.5670058 -0.6738354,-2.0800553 C 7.5087227,7.765214 6.9846351,7.5068894 6.379397,7.5068894 c -0.4809839,0 -0.9363718,0.1839741 -1.3652491,0.5527284 L 5.4047771,5.6905028 H 8.2837145 V 4.6553577 Z m 7.0762479,0.7402264 c 0.436894,0 0.791907,0.2435157 1.064465,0.7285078 0.276566,0.4849921 0.414067,1.4439398 0.414067,2.8788751 0,1.418903 -0.13565,2.374148 -0.408208,2.867157 -0.272557,0.493008 -0.610807,0.740226 -1.015636,0.740226 -0.428877,0 -0.782039,-0.241563 -1.058605,-0.726555 -0.272557,-0.489 -0.41016,-1.449901 -0.41016,-2.880828 0,-1.4189025 0.135752,-2.374148 0.404301,-2.8671565 0.272557,-0.4930085 0.608956,-0.7402264 1.009776,-0.7402264 z"
       transform="scale(0.9999892,1.0000108)" />
    <ellipse
       style="fill:none;fill-opacity:1;stroke:#000000;stroke-width:1.19928;stroke-dasharray:0.755549;stroke-dashoffset:0;stroke-opacity:1"
       id="ellipse1581"
       cx="8.9999857"
       cy="9.004199"
       rx="8.4002981"
       ry="8.4045572" />
  </g>
</svg>
