<?xml version="1.0" encoding="UTF-8" standalone="no"?>
<svg
   version="1.1"
   width="18"
   height="18"
   viewBox="0 0 18 18"
   id="svg1714"
   xmlns="http://www.w3.org/2000/svg"
   xmlns:svg="http://www.w3.org/2000/svg">
  <defs
     id="defs1718">
    <rect
       x="32.567797"
       y="-13.805085"
       width="44.389831"
       height="38.898305"
       id="rect2002" />
    <rect
       x="22.5"
       y="-2.2118644"
       width="28.525424"
       height="24.559322"
       id="rect1996" />
    <rect
       x="40.805085"
       y="-10.525424"
       width="65.898305"
       height="40.652542"
       id="rect1990" />
    <rect
       x="39.661017"
       y="-9.1525424"
       width="44.237288"
       height="35.389831"
       id="rect1984" />
    <rect
       x="21.279661"
       y="-2.8983051"
       width="36.228814"
       height="33.330508"
       id="rect1978" />
    <rect
       x="17.313559"
       y="1.9067797"
       width="18.228814"
       height="14.338983"
       id="rect1972" />
    <rect
       x="22.576271"
       y="-1.4491525"
       width="29.516949"
       height="22.957627"
       id="rect1966" />
  </defs>
  <g
     id="g1783"
     transform="translate(-452.85504,-37.644012)">
    <text
       xml:space="preserve"
       transform="translate(452.85504,37.644012)"
       id="text1964"
       style="white-space:pre;shape-inside:url(#rect1966);display:inline;fill:#000000" />
    <text
       xml:space="preserve"
       transform="translate(452.85504,37.644012)"
       id="text1970"
       style="white-space:pre;shape-inside:url(#rect1972);display:inline;fill:#000000" />
    <text
       xml:space="preserve"
       transform="translate(452.85504,37.644012)"
       id="text1976"
       style="white-space:pre;shape-inside:url(#rect1978);display:inline;fill:#000000" />
    <text
       xml:space="preserve"
       transform="translate(452.85504,37.644012)"
       id="text1982"
       style="white-space:pre;shape-inside:url(#rect1984);display:inline;fill:#000000" />
    <text
       xml:space="preserve"
       transform="translate(452.85504,37.644012)"
       id="text1988"
       style="white-space:pre;shape-inside:url(#rect1990);display:inline;fill:#000000" />
  </g>
  <path
     id="circle983"
     style="fill:#000000;fill-opacity:1;stroke:none;stroke-width:1.04984;stroke-dasharray:none"
     d="M 9.00002,0 A 8.9999995,8.9999997 0 0 0 0,8.999991 8.9999995,8.9999997 0 0 0 9.00002,17.999997 8.9999995,8.9999997 0 0 0 18.00003,8.999991 8.9999995,8.9999997 0 0 0 9.00002,0 Z m 2.81438,4.49999 c 0.68952,0 1.23217,0.30855 1.62893,0.92579 0.48104,0.745489 0.72074,1.938854 0.72074,3.57812 0,1.47094 -0.19891,2.587989 -0.59575,3.353514 -0.39678,0.761523 -0.986,1.14258 -1.76755,1.14258 -0.68939,0 -1.25437,-0.336417 -1.69531,-1.009764 C 9.6686,11.816885 9.45121,10.655195 9.45121,9.0039 c 0,-1.478953 0.19886,-2.599809 0.59569,-3.36133 0.40076,-0.76152 0.98998,-1.14258 1.7675,-1.14258 z M 4.69527,4.65624 H 8.28521 V 5.68945 H 5.40434 L 5.01369,8.058593 c 0.42885,-0.368738 0.88429,-0.552737 1.3652,-0.552737 0.60525,0 1.12927,0.258358 1.57425,0.77539 0.44891,0.513023 0.67381,1.206332 0.67381,2.080072 0,0.861721 -0.2249,1.601517 -0.67381,2.218756 -0.44498,0.613222 -1.04339,0.91992 -1.79688,0.91992 -0.62529,0 -1.15495,-0.215571 -1.58789,-0.648437 -0.4289,-0.436868 -0.67236,-1.041004 -0.73246,-1.810544 l 0.93165,-0.0957 c 0.0724,0.561119 0.23389,0.979302 0.48636,1.255862 0.25651,0.27254 0.5539,0.408197 0.89061,0.408197 0.42085,0 0.78327,-0.191401 1.08788,-0.576172 C 7.53704,11.644425 7.68946,11.11465 7.68946,10.445307 7.68946,9.816052 7.5408,9.329064 7.24419,8.98438 6.95156,8.635681 6.58358,8.462882 6.13862,8.462882 c -0.26851,0 -0.52125,0.0743 -0.75773,0.226567 C 5.14839,8.83775 4.96443,9.047869 4.8281,9.316406 L 3.99219,9.183599 Z m 7.07624,0.74024 c -0.40084,0 -0.73726,0.2453 -1.0098,0.738281 -0.26855,0.492983 -0.40237,1.45031 -0.40237,2.869139 0,1.430851 0.1357,2.389934 0.40823,2.878908 0.2766,0.484964 0.62967,0.72656 1.05863,0.72656 0.40481,0 0.74303,-0.245296 1.01557,-0.738281 0.27255,-0.492979 0.40824,-1.448353 0.40824,-2.867187 0,-1.434862 -0.1375,-2.39589 -0.41409,-2.880859 C 12.56339,5.63808 12.20838,5.39648 11.77151,5.39648 Z" />
</svg>
