<?xml version="1.0" encoding="UTF-8" standalone="no"?>
<svg
   version="1.1"
   width="18"
   height="18"
   viewBox="0 0 18 18"
   id="svg1714"
   xmlns="http://www.w3.org/2000/svg"
   xmlns:svg="http://www.w3.org/2000/svg">
  <defs
     id="defs1718">
    <rect
       x="32.567797"
       y="-13.805085"
       width="44.389831"
       height="38.898305"
       id="rect2002" />
    <rect
       x="22.5"
       y="-2.2118644"
       width="28.525424"
       height="24.559322"
       id="rect1996" />
    <rect
       x="40.805085"
       y="-10.525424"
       width="65.898305"
       height="40.652542"
       id="rect1990" />
    <rect
       x="39.661017"
       y="-9.1525424"
       width="44.237288"
       height="35.389831"
       id="rect1984" />
    <rect
       x="21.279661"
       y="-2.8983051"
       width="36.228814"
       height="33.330508"
       id="rect1978" />
    <rect
       x="17.313559"
       y="1.9067797"
       width="18.228814"
       height="14.338983"
       id="rect1972" />
    <rect
       x="22.576271"
       y="-1.4491525"
       width="29.516949"
       height="22.957627"
       id="rect1966" />
  </defs>
  <g
     id="g1783"
     transform="translate(-452.85504,-37.644012)">
    <text
       xml:space="preserve"
       transform="translate(452.85504,37.644012)"
       id="text1964"
       style="white-space:pre;shape-inside:url(#rect1966);display:inline;fill:#000000" />
    <text
       xml:space="preserve"
       transform="translate(452.85504,37.644012)"
       id="text1970"
       style="white-space:pre;shape-inside:url(#rect1972);display:inline;fill:#000000" />
    <text
       xml:space="preserve"
       transform="translate(452.85504,37.644012)"
       id="text1976"
       style="white-space:pre;shape-inside:url(#rect1978);display:inline;fill:#000000" />
    <text
       xml:space="preserve"
       transform="translate(452.85504,37.644012)"
       id="text1982"
       style="white-space:pre;shape-inside:url(#rect1984);display:inline;fill:#000000" />
    <text
       xml:space="preserve"
       transform="translate(452.85504,37.644012)"
       id="text1988"
       style="white-space:pre;shape-inside:url(#rect1990);display:inline;fill:#000000" />
  </g>
  <g
     id="g9905">
    <path
       id="text1575"
       style="font-stretch:condensed;font-size:12.3132px;font-family:'Arial Narrow';-inkscape-font-specification:'Arial Narrow Condensed';opacity:0.98;fill:#000000;stroke-width:0.307814;paint-order:markers fill stroke"
       d="m 11.814234,4.5002885 c -0.777591,0 -1.366777,0.381008 -1.767597,1.1425658 -0.3968121,0.7615578 -0.5957099,1.8803133 -0.5957099,3.3593387 0,1.651378 0.2193634,2.814866 0.6562569,3.488244 0.440902,0.673377 1.005921,1.009754 1.695331,1.009754 0.781599,0 1.370785,-0.381008 1.767597,-1.142565 0.396812,-0.765566 0.593757,-1.884424 0.593757,-3.355433 0,-1.6393534 -0.239727,-2.8306082 -0.720711,-3.5761332 C 13.046346,4.8087971 12.503644,4.5002885 11.814234,4.5002885 Z M 4.6950163,4.6565368 3.9918837,9.1838317 4.8278303,9.3166428 C 4.964109,9.0480934 5.1480951,8.8379998 5.3805706,8.6896964 5.6170544,8.5373848 5.869842,8.4611832 6.1383913,8.4611832 c 0.4449101,0 0.8128821,0.1747186 1.1054807,0.5234319 0.2966067,0.3447051 0.4453173,0.8316345 0.4453173,1.4609219 0,0.669369 -0.1524131,1.199078 -0.4570362,1.587873 -0.3046231,0.384787 -0.6670415,0.576166 -1.0879024,0.576166 -0.3366887,0 -0.6341098,-0.135641 -0.8906346,-0.408199 C 5.0010996,11.924811 4.8394303,11.506679 4.7672827,10.945531 l -0.9316507,0.0957 c 0.060123,0.769574 0.3055057,1.373633 0.734383,1.810527 0.4328855,0.432885 0.9606755,0.64843 1.5859546,0.64843 0.7535414,0 1.3539375,-0.306657 1.7988476,-0.919912 0.4489183,-0.617262 0.6718822,-1.356963 0.6718822,-2.218726 0,-0.8737871 -0.2229639,-1.5670058 -0.6718822,-2.0800553 C 7.5099071,7.76444 6.9838663,7.5061154 6.3786283,7.5061154 c -0.4809839,0 -0.9363719,0.1839741 -1.3652492,0.5527284 l 0.3906293,-2.369115 h 2.8808905 v -1.033192 z m 7.0762487,0.7382733 c 0.436893,0 0.791907,0.2435157 1.064464,0.7285078 0.276566,0.4849921 0.41602,1.4439398 0.41602,2.8788751 0,1.418903 -0.137603,2.376101 -0.41016,2.86911 -0.272558,0.493008 -0.610808,0.738273 -1.015636,0.738273 -0.428878,0 -0.78204,-0.241563 -1.058605,-0.726555 -0.272558,-0.489 -0.408208,-1.449901 -0.408208,-2.880828 0,-1.4189025 0.133799,-2.374148 0.402348,-2.8671565 0.272558,-0.4930085 0.608957,-0.7402264 1.009777,-0.7402264 z"
       transform="scale(0.9999892,1.0000108)" />
    <rect
       style="opacity:0.98;fill:none;stroke:#000000;stroke-width:1.19939;stroke-dasharray:0.755616;stroke-dashoffset:0;stroke-opacity:1;paint-order:markers fill stroke"
       id="rect1588"
       width="16.800611"
       height="16.800611"
       x="0.59969503"
       y="0.59969503"
       rx="2.1544993"
       ry="2.1544993" />
  </g>
</svg>
