<?xml version="1.0" encoding="UTF-8" standalone="no"?>
<svg
   version="1.1"
   width="18"
   height="18"
   viewBox="0 0 18 18"
   id="svg1714"
   xmlns="http://www.w3.org/2000/svg"
   xmlns:svg="http://www.w3.org/2000/svg">
  <defs
     id="defs1718">
    <rect
       x="32.567797"
       y="-13.805085"
       width="44.389831"
       height="38.898305"
       id="rect2002" />
    <rect
       x="22.5"
       y="-2.2118644"
       width="28.525424"
       height="24.559322"
       id="rect1996" />
    <rect
       x="40.805085"
       y="-10.525424"
       width="65.898305"
       height="40.652542"
       id="rect1990" />
    <rect
       x="39.661017"
       y="-9.1525424"
       width="44.237288"
       height="35.389831"
       id="rect1984" />
    <rect
       x="21.279661"
       y="-2.8983051"
       width="36.228814"
       height="33.330508"
       id="rect1978" />
    <rect
       x="17.313559"
       y="1.9067797"
       width="18.228814"
       height="14.338983"
       id="rect1972" />
    <rect
       x="22.576271"
       y="-1.4491525"
       width="29.516949"
       height="22.957627"
       id="rect1966" />
  </defs>
  <g
     id="g1783"
     transform="translate(-452.85504,-37.644012)">
    <text
       xml:space="preserve"
       transform="translate(452.85504,37.644012)"
       id="text1964"
       style="white-space:pre;shape-inside:url(#rect1966);display:inline;fill:#000000" />
    <text
       xml:space="preserve"
       transform="translate(452.85504,37.644012)"
       id="text1970"
       style="white-space:pre;shape-inside:url(#rect1972);display:inline;fill:#000000" />
    <text
       xml:space="preserve"
       transform="translate(452.85504,37.644012)"
       id="text1976"
       style="white-space:pre;shape-inside:url(#rect1978);display:inline;fill:#000000" />
    <text
       xml:space="preserve"
       transform="translate(452.85504,37.644012)"
       id="text1982"
       style="white-space:pre;shape-inside:url(#rect1984);display:inline;fill:#000000" />
    <text
       xml:space="preserve"
       transform="translate(452.85504,37.644012)"
       id="text1988"
       style="white-space:pre;shape-inside:url(#rect1990);display:inline;fill:#000000" />
  </g>
  <path
     id="rect3922"
     style="opacity:0.98;fill:#000000;fill-opacity:1;stroke:none;stroke-width:1.28507;stroke-dasharray:none;stroke-opacity:1;paint-order:markers fill stroke"
     d="M 2.30858,0 C 1.02974,0 0,1.02978 0,2.3086 v 13.38274 c 0,1.27884 1.02974,2.30862 2.30858,2.30862 h 13.38277 c 1.27876,0 2.30862,-1.02978 2.30862,-2.30862 V 2.3086 C 17.99997,1.02978 16.97011,0 15.69135,0 Z m 9.50583,4.49989 c 0.68944,0 1.2321,0.30865 1.62885,0.92586 0.48104,0.7455 0.72075,1.93886 0.72075,3.57814 0,1.4709 -0.19885,2.58796 -0.59568,3.35347 -0.39684,0.76147 -0.98599,1.14256 -1.76764,1.14256 -0.68939,0 -1.25434,-0.33639 -1.69528,-1.00973 -0.43687,-0.67328 -0.65426,-1.83509 -0.65426,-3.4863 0,-1.47895 0.19886,-2.59983 0.59564,-3.36131 0.40088,-0.76152 0.99004,-1.14269 1.76762,-1.14269 z M 4.69527,4.65625 H 8.28513 V 5.68944 H 5.40428 L 5.01363,8.05859 c 0.4289,-0.36881 0.88429,-0.55277 1.36519,-0.55277 0.60527,0 1.1294,0.25843 1.57426,0.77535 0.44896,0.513 0.67383,1.20635 0.67383,2.08006 0,0.86177 -0.22487,1.60156 -0.67383,2.21884 -0.44486,0.61322 -1.04331,0.91985 -1.79683,0.91985 -0.62527,0 -1.15501,-0.2156 -1.58788,-0.6484 -0.42895,-0.43685 -0.67234,-1.04101 -0.7324,-1.81058 l 0.93164,-0.0958 c 0.0724,0.56114 0.23373,0.97935 0.48626,1.25593 0.25651,0.27254 0.554,0.4081 0.89065,0.4081 0.42079,0 0.78322,-0.19132 1.08793,-0.5761 0.30454,-0.38885 0.45701,-0.9186 0.45701,-1.58789 0,-0.62933 -0.14872,-1.11631 -0.44535,-1.46099 C 6.9515,8.63551 6.58353,8.4627 6.13866,8.4627 5.87012,8.4627 5.61732,8.5372 5.38081,8.68928 5.1484,8.83756 4.96436,9.04765 4.82811,9.31626 L 3.99212,9.18344 Z m 7.07618,0.74013 c -0.40083,0 -0.73727,0.24539 -1.0098,0.73839 -0.26853,0.49298 -0.40229,1.45023 -0.40229,2.86912 0,1.43081 0.13563,2.3899 0.40816,2.87889 0.27659,0.48497 0.62978,0.72652 1.05861,0.72652 0.40481,0 0.74305,-0.24519 1.01559,-0.73818 0.27253,-0.49298 0.40823,-1.44846 0.40823,-2.86723 0,-1.43494 -0.13744,-2.39592 -0.41404,-2.88085 -0.27253,-0.48499 -0.6276,-0.72666 -1.06446,-0.72666 z" />
</svg>
