<?xml version="1.0" encoding="UTF-8" standalone="no"?>
<svg
   version="1.1"
   width="18"
   height="18"
   viewBox="0 0 18 18"
   id="svg1714"
   xmlns="http://www.w3.org/2000/svg"
   xmlns:svg="http://www.w3.org/2000/svg">
  <defs
     id="defs1718">
    <rect
       x="32.567797"
       y="-13.805085"
       width="44.389831"
       height="38.898305"
       id="rect2002" />
    <rect
       x="22.5"
       y="-2.2118644"
       width="28.525424"
       height="24.559322"
       id="rect1996" />
    <rect
       x="40.805085"
       y="-10.525424"
       width="65.898305"
       height="40.652542"
       id="rect1990" />
    <rect
       x="39.661017"
       y="-9.1525424"
       width="44.237288"
       height="35.389831"
       id="rect1984" />
    <rect
       x="21.279661"
       y="-2.8983051"
       width="36.228814"
       height="33.330508"
       id="rect1978" />
    <rect
       x="17.313559"
       y="1.9067797"
       width="18.228814"
       height="14.338983"
       id="rect1972" />
    <rect
       x="22.576271"
       y="-1.4491525"
       width="29.516949"
       height="22.957627"
       id="rect1966" />
  </defs>
  <g
     id="g1783"
     transform="translate(-452.85504,-37.644012)">
    <text
       xml:space="preserve"
       transform="translate(452.85504,37.644012)"
       id="text1964"
       style="white-space:pre;shape-inside:url(#rect1966);display:inline;fill:#000000" />
    <text
       xml:space="preserve"
       transform="translate(452.85504,37.644012)"
       id="text1970"
       style="white-space:pre;shape-inside:url(#rect1972);display:inline;fill:#000000" />
    <text
       xml:space="preserve"
       transform="translate(452.85504,37.644012)"
       id="text1976"
       style="white-space:pre;shape-inside:url(#rect1978);display:inline;fill:#000000" />
    <text
       xml:space="preserve"
       transform="translate(452.85504,37.644012)"
       id="text1982"
       style="white-space:pre;shape-inside:url(#rect1984);display:inline;fill:#000000" />
    <text
       xml:space="preserve"
       transform="translate(452.85504,37.644012)"
       id="text1988"
       style="white-space:pre;shape-inside:url(#rect1990);display:inline;fill:#000000" />
  </g>
  <g
     id="g12086">
    <rect
       style="opacity:0.98;fill:none;stroke:#000000;stroke-width:1.19939;stroke-dasharray:none;stroke-opacity:1;paint-order:markers fill stroke"
       id="rect2929"
       width="16.800611"
       height="16.800611"
       x="0.59969503"
       y="0.59969503"
       rx="2.1544993"
       ry="2.1544993" />
    <path
       id="text2933"
       style="font-stretch:condensed;font-size:12.3128px;font-family:'Arial Narrow';-inkscape-font-specification:'Arial Narrow Condensed';opacity:0.98;fill:#000000;stroke-width:0.307821;paint-order:markers fill stroke"
       d="m 11.814291,4.5003992 c -0.777565,0 -1.36674,0.3810651 -1.767547,1.1425982 -0.3967984,0.7615332 -0.5956922,1.8804567 -0.5956922,3.3594342 0,1.6513244 0.2174058,2.8149874 0.6542852,3.4883424 0.440888,0.673356 1.005895,1.009784 1.695283,1.009784 0.781573,0 1.370748,-0.381066 1.767547,-1.142599 0.396799,-0.765541 0.595692,-1.884566 0.595692,-3.3555274 0,-1.6393003 -0.239722,-2.830734 -0.72069,-3.5762348 C 13.04637,4.8089541 12.503679,4.5003992 11.814291,4.5003992 Z M 4.6952761,4.656652 3.9921635,9.1840754 4.8280863,9.3149371 C 4.9643606,9.0463964 5.1483429,8.8382246 5.3808109,8.6899261 5.617287,8.5376194 5.8700695,8.4614064 6.1386101,8.4614064 c 0.4448956,0 0.8128602,0.1747447 1.1054493,0.5234467 0.2965971,0.344694 0.4453046,0.8316964 0.4453046,1.4609629 0,0.669348 -0.1524099,1.199136 -0.4570232,1.587919 -0.3046132,0.384775 -0.6670242,0.576182 -1.0878714,0.576182 -0.3366778,0 -0.6340929,-0.135662 -0.8906094,-0.40821 C 5.0013517,11.92515 4.8396857,11.506955 4.7675405,10.945825 l -0.9316243,0.09571 c 0.060121,0.769549 0.3035456,1.371746 0.732409,1.808626 0.4328715,0.432871 0.9626039,0.650402 1.5878627,0.650402 0.753517,0 1.3519477,-0.306704 1.7968434,-0.919938 0.4489037,-0.617243 0.6738162,-1.357055 0.6738162,-2.21879 0,-0.8737586 -0.2249125,-1.5670814 -0.6738162,-2.0801142 C 7.5081356,7.7646749 6.9840587,7.5063115 6.3788402,7.5063115 c -0.4809683,0 -0.9363469,0.1840017 -1.3652103,0.5527441 L 5.404248,5.6898733 H 8.2850567 V 4.656652 Z m 7.0760469,0.7382942 c 0.43688,0 0.791886,0.2435521 1.064435,0.7285284 0.276557,0.4849764 0.414055,1.4440683 0.414055,2.878957 0,1.4188564 -0.135647,2.3761984 -0.408196,2.8691914 -0.272549,0.492992 -0.610792,0.738294 -1.015607,0.738294 -0.428863,0 -0.782018,-0.241599 -1.058575,-0.726575 -0.272549,-0.488985 -0.408196,-1.45003 -0.408196,-2.8809104 0,-1.4188565 0.133796,-2.3742455 0.402337,-2.867238 0.272548,-0.4929925 0.608941,-0.7402474 1.009747,-0.7402474 z"
       transform="scale(1.0000176,0.9999824)" />
  </g>
</svg>
