<?xml version="1.0" encoding="UTF-8" standalone="no"?>
<svg
   version="1.1"
   width="18"
   height="18"
   viewBox="0 0 18 18"
   id="svg1714"
   sodipodi:docname="55-circle.svg"
   inkscape:version="1.2.1 (9c6d41e, 2022-07-14)"
   xmlns:inkscape="http://www.inkscape.org/namespaces/inkscape"
   xmlns:sodipodi="http://sodipodi.sourceforge.net/DTD/sodipodi-0.dtd"
   xmlns="http://www.w3.org/2000/svg"
   xmlns:svg="http://www.w3.org/2000/svg">
  <defs
     id="defs1718">
    <rect
       x="32.567797"
       y="-13.805085"
       width="44.389831"
       height="38.898305"
       id="rect2002" />
    <rect
       x="22.5"
       y="-2.2118644"
       width="28.525424"
       height="24.559322"
       id="rect1996" />
    <rect
       x="40.805085"
       y="-10.525424"
       width="65.898305"
       height="40.652542"
       id="rect1990" />
    <rect
       x="39.661017"
       y="-9.1525424"
       width="44.237288"
       height="35.389831"
       id="rect1984" />
    <rect
       x="21.279661"
       y="-2.8983051"
       width="36.228814"
       height="33.330508"
       id="rect1978" />
    <rect
       x="17.313559"
       y="1.9067797"
       width="18.228814"
       height="14.338983"
       id="rect1972" />
    <rect
       x="22.576271"
       y="-1.4491525"
       width="29.516949"
       height="22.957627"
       id="rect1966" />
  </defs>
  <sodipodi:namedview
     id="namedview1716"
     pagecolor="#ffffff"
     bordercolor="#000000"
     borderopacity="0.25"
     inkscape:showpageshadow="2"
     inkscape:pageopacity="0.0"
     inkscape:pagecheckerboard="0"
     inkscape:deskcolor="#d1d1d1"
     showgrid="false"
     inkscape:zoom="13.111111"
     inkscape:cx="7.3220339"
     inkscape:cy="10.90678"
     inkscape:window-width="1920"
     inkscape:window-height="962"
     inkscape:window-x="1440"
     inkscape:window-y="25"
     inkscape:window-maximized="0"
     inkscape:current-layer="g1783" />
  <g
     id="g1783"
     transform="translate(-452.85504,-37.644012)">
    <text
       xml:space="preserve"
       transform="translate(452.85504,37.644012)"
       id="text1964"
       style="white-space:pre;shape-inside:url(#rect1966);display:inline;fill:#000000" />
    <text
       xml:space="preserve"
       transform="translate(452.85504,37.644012)"
       id="text1970"
       style="white-space:pre;shape-inside:url(#rect1972);display:inline;fill:#000000" />
    <text
       xml:space="preserve"
       transform="translate(452.85504,37.644012)"
       id="text1976"
       style="white-space:pre;shape-inside:url(#rect1978);display:inline;fill:#000000" />
    <text
       xml:space="preserve"
       transform="translate(452.85504,37.644012)"
       id="text1982"
       style="white-space:pre;shape-inside:url(#rect1984);display:inline;fill:#000000" />
    <text
       xml:space="preserve"
       transform="translate(452.85504,37.644012)"
       id="text1988"
       style="white-space:pre;shape-inside:url(#rect1990);display:inline;fill:#000000" />
    <g
       id="g3653"
       transform="translate(-26.401887,-6.4330408)">
      <circle
         style="fill:none;fill-opacity:1;stroke:#000000;stroke-width:1.19912;stroke-dasharray:none;stroke-opacity:1"
         id="circle828"
         cx="488.25693"
         cy="53.077053"
         r="8.4004402" />
      <path
         id="text832"
         style="font-stretch:condensed;font-size:12.5304px;font-family:'Arial Narrow';-inkscape-font-specification:'Arial Narrow Condensed';opacity:0.98;fill:#000000;stroke-width:0.313259;paint-order:markers fill stroke"
         d="m 483.83594,48.576172 -0.71485,4.607422 0.84961,0.134765 c 0.13869,-0.273286 0.32593,-0.485799 0.5625,-0.636718 0.24066,-0.154999 0.4982,-0.232422 0.77149,-0.232422 0.45276,0 0.82724,0.178338 1.125,0.533203 0.30184,0.350785 0.45312,0.84594 0.45312,1.486328 0,0.681177 -0.15484,1.219581 -0.46484,1.615234 -0.31,0.391575 -0.67914,0.587891 -1.10742,0.587891 -0.34263,0 -0.64325,-0.13865 -0.9043,-0.416016 -0.25697,-0.281444 -0.42267,-0.70825 -0.49609,-1.279297 l -0.94922,0.09766 c 0.0612,0.783149 0.30965,1.397196 0.74609,1.841797 0.44052,0.440521 0.97893,0.662109 1.61524,0.662109 0.76683,0 1.37732,-0.313428 1.83007,-0.9375 0.45684,-0.628151 0.68555,-1.380849 0.68555,-2.257813 0,-0.8892 -0.22871,-1.595088 -0.68555,-2.117187 -0.45275,-0.526178 -0.9876,-0.789063 -1.60351,-0.789063 -0.48947,0 -0.95223,0.189195 -1.38867,0.564454 l 0.39843,-2.41211 h 2.92969 v -1.052734 z m 5.71484,0 -0.71484,4.607422 0.84961,0.134765 c 0.13868,-0.273286 0.32592,-0.485799 0.5625,-0.636718 0.24065,-0.154999 0.49819,-0.232422 0.77148,-0.232422 0.45276,0 0.82724,0.178338 1.125,0.533203 0.30184,0.350785 0.45313,0.84594 0.45313,1.486328 0,0.681177 -0.15485,1.219581 -0.46485,1.615234 -0.30999,0.391575 -0.67913,0.587891 -1.10742,0.587891 -0.34263,0 -0.6452,-0.13865 -0.90625,-0.416016 -0.25697,-0.281444 -0.42072,-0.70825 -0.49414,-1.279297 l -0.94922,0.09766 c 0.0612,0.783149 0.30965,1.397196 0.7461,1.841797 0.44052,0.440521 0.97892,0.662109 1.61523,0.662109 0.76683,0 1.37732,-0.313428 1.83008,-0.9375 0.45683,-0.628151 0.68554,-1.380849 0.68554,-2.257813 0,-0.8892 -0.22871,-1.595088 -0.68554,-2.117187 -0.45276,-0.526178 -0.9876,-0.789063 -1.60352,-0.789063 -0.48947,0 -0.95223,0.189195 -1.38867,0.564454 l 0.39844,-2.41211 h 2.92968 v -1.052734 z" />
    </g>
  </g>
</svg>
