<?xml version="1.0" encoding="UTF-8" standalone="no"?>
<svg
   version="1.1"
   width="18"
   height="18"
   viewBox="0 0 18 18"
   id="svg1714"
   xmlns="http://www.w3.org/2000/svg"
   xmlns:svg="http://www.w3.org/2000/svg">
  <defs
     id="defs1718">
    <rect
       x="32.567797"
       y="-13.805085"
       width="44.389831"
       height="38.898305"
       id="rect2002" />
    <rect
       x="22.5"
       y="-2.2118644"
       width="28.525424"
       height="24.559322"
       id="rect1996" />
    <rect
       x="40.805085"
       y="-10.525424"
       width="65.898305"
       height="40.652542"
       id="rect1990" />
    <rect
       x="39.661017"
       y="-9.1525424"
       width="44.237288"
       height="35.389831"
       id="rect1984" />
    <rect
       x="21.279661"
       y="-2.8983051"
       width="36.228814"
       height="33.330508"
       id="rect1978" />
    <rect
       x="17.313559"
       y="1.9067797"
       width="18.228814"
       height="14.338983"
       id="rect1972" />
    <rect
       x="22.576271"
       y="-1.4491525"
       width="29.516949"
       height="22.957627"
       id="rect1966" />
  </defs>
  <g
     id="g1783"
     transform="translate(-452.85504,-37.644012)">
    <text
       xml:space="preserve"
       transform="translate(452.85504,37.644012)"
       id="text1964"
       style="white-space:pre;shape-inside:url(#rect1966);display:inline;fill:#000000" />
    <text
       xml:space="preserve"
       transform="translate(452.85504,37.644012)"
       id="text1970"
       style="white-space:pre;shape-inside:url(#rect1972);display:inline;fill:#000000" />
    <text
       xml:space="preserve"
       transform="translate(452.85504,37.644012)"
       id="text1976"
       style="white-space:pre;shape-inside:url(#rect1978);display:inline;fill:#000000" />
    <text
       xml:space="preserve"
       transform="translate(452.85504,37.644012)"
       id="text1982"
       style="white-space:pre;shape-inside:url(#rect1984);display:inline;fill:#000000" />
    <text
       xml:space="preserve"
       transform="translate(452.85504,37.644012)"
       id="text1988"
       style="white-space:pre;shape-inside:url(#rect1990);display:inline;fill:#000000" />
  </g>
  <path
     id="circle990"
     style="fill:#000000;fill-opacity:1;stroke:none;stroke-width:1.04984;stroke-dasharray:none"
     d="M 9.00002,0 A 8.9999995,8.9999997 0 0 0 0,8.999991 8.9999995,8.9999997 0 0 0 9.00002,17.999997 8.9999995,8.9999997 0 0 0 17.99996,8.999991 8.9999995,8.9999997 0 0 0 9.00002,0 Z M 4.58008,4.49999 H 8.23243 V 5.55272 H 5.3007 L 4.90426,7.962885 C 5.34075,7.58763 5.80348,7.400377 6.29297,7.400377 c 0.61589,0 1.15071,0.262884 1.60345,0.789067 0.45691,0.522103 0.68362,1.227988 0.68362,2.117188 0,0.876964 -0.22671,1.62967 -0.68362,2.257814 -0.45274,0.624074 -1.06314,0.935548 -1.82997,0.935548 -0.63639,0 -1.17474,-0.219627 -1.6153,-0.660152 C 4.01473,12.395232 3.7663,11.781188 3.7051,10.99804 L 4.65232,10.9004 c 0.0742,0.571051 0.23916,0.995902 0.49612,1.277347 0.26109,0.277367 0.56362,0.416022 0.90621,0.416022 0.42838,0 0.79748,-0.194372 1.1075,-0.585941 C 7.47213,11.612166 7.62693,11.07377 7.62693,10.392593 7.62693,9.752204 7.47566,9.257041 7.17381,8.906259 6.87603,8.551401 6.49961,8.373066 6.04688,8.373066 c -0.27328,0 -0.52885,0.07739 -0.76949,0.23241 C 5.04073,8.756408 4.85353,8.968914 4.71484,9.242199 L 3.86324,9.107434 Z m 5.71483,0 h 3.65232 v 1.05273 h -2.93165 l -0.39645,2.410165 c 0.43643,-0.375255 0.89923,-0.562508 1.38864,-0.562508 0.61595,0 1.1488,0.262884 1.6016,0.789067 0.45679,0.522103 0.68555,1.227988 0.68555,2.117188 0,0.876964 -0.22876,1.62967 -0.68555,2.257814 -0.4528,0.624074 -1.06127,0.935548 -1.82811,0.935548 -0.63633,0 -1.17476,-0.219627 -1.61524,-0.660152 C 9.7296,12.395232 9.48109,11.781188 9.41991,10.99804 l 0.94727,-0.09764 c 0.0736,0.571051 0.23909,0.995902 0.49613,1.277347 0.26097,0.277367 0.56163,0.416022 0.90424,0.416022 0.4283,0 0.79747,-0.194372 1.10744,-0.585941 0.31003,-0.395662 0.4668,-0.934058 0.4668,-1.615235 0,-0.640389 -0.15132,-1.135552 -0.4531,-1.486334 -0.29779,-0.354858 -0.6742,-0.533193 -1.12694,-0.533193 -0.27328,0 -0.5289,0.07739 -0.76957,0.23241 -0.23652,0.150932 -0.4258,0.363438 -0.56438,0.636723 L 9.57812,9.107434 Z" />
</svg>
