<?xml version="1.0" encoding="UTF-8" standalone="no"?>
<svg
   version="1.1"
   width="18"
   height="18"
   viewBox="0 0 18 18"
   id="svg1714"
   xmlns="http://www.w3.org/2000/svg"
   xmlns:svg="http://www.w3.org/2000/svg">
  <defs
     id="defs1718">
    <rect
       x="32.567797"
       y="-13.805085"
       width="44.389831"
       height="38.898305"
       id="rect2002" />
    <rect
       x="22.5"
       y="-2.2118644"
       width="28.525424"
       height="24.559322"
       id="rect1996" />
    <rect
       x="40.805085"
       y="-10.525424"
       width="65.898305"
       height="40.652542"
       id="rect1990" />
    <rect
       x="39.661017"
       y="-9.1525424"
       width="44.237288"
       height="35.389831"
       id="rect1984" />
    <rect
       x="21.279661"
       y="-2.8983051"
       width="36.228814"
       height="33.330508"
       id="rect1978" />
    <rect
       x="17.313559"
       y="1.9067797"
       width="18.228814"
       height="14.338983"
       id="rect1972" />
    <rect
       x="22.576271"
       y="-1.4491525"
       width="29.516949"
       height="22.957627"
       id="rect1966" />
  </defs>
  <g
     id="g1783"
     transform="translate(-452.85504,-37.644012)">
    <text
       xml:space="preserve"
       transform="translate(452.85504,37.644012)"
       id="text1964"
       style="white-space:pre;shape-inside:url(#rect1966);display:inline;fill:#000000" />
    <text
       xml:space="preserve"
       transform="translate(452.85504,37.644012)"
       id="text1970"
       style="white-space:pre;shape-inside:url(#rect1972);display:inline;fill:#000000" />
    <text
       xml:space="preserve"
       transform="translate(452.85504,37.644012)"
       id="text1976"
       style="white-space:pre;shape-inside:url(#rect1978);display:inline;fill:#000000" />
    <text
       xml:space="preserve"
       transform="translate(452.85504,37.644012)"
       id="text1982"
       style="white-space:pre;shape-inside:url(#rect1984);display:inline;fill:#000000" />
    <text
       xml:space="preserve"
       transform="translate(452.85504,37.644012)"
       id="text1988"
       style="white-space:pre;shape-inside:url(#rect1990);display:inline;fill:#000000" />
  </g>
  <g
     id="g7810"
     transform="translate(-708.8028,67.199808)">
    <g
       id="g1631"
       transform="translate(708.8028,-67.199762)">
      <path
         id="text1624"
         style="font-stretch:condensed;font-size:12.5295px;font-family:'Arial Narrow';-inkscape-font-specification:'Arial Narrow Condensed';opacity:0.98;fill:#000000;stroke-width:0.313253;paint-order:markers fill stroke"
         d="M 4.5800125,4.5005433 3.8632156,9.106012 4.7147781,9.2407776 C 4.8534508,8.9675108 5.0407188,8.7569205 5.2772781,8.606012 5.5179161,8.4510249 5.7754957,8.371637 6.0487625,8.371637 c 0.4527256,0 0.8272615,0.1783641 1.125,0.5332031 0.3018171,0.3507604 0.453125,0.8459865 0.453125,1.4863279 0,0.681128 -0.1548695,1.21961 -0.4648438,1.615235 -0.3099742,0.391546 -0.6791679,0.58789 -1.1074218,0.58789 -0.3426032,0 -0.645219,-0.13867 -0.90625,-0.416015 C 4.8914195,11.896854 4.7276462,11.469986 4.6542312,10.898981 l -0.9492187,0.09766 c 0.061179,0.783093 0.3096826,1.397228 0.7460937,1.841797 0.4404898,0.44049 0.9789714,0.660156 1.6152344,0.660156 0.7667786,0 1.3773525,-0.31152 1.8300781,-0.935547 0.4568043,-0.628106 0.6835938,-1.380911 0.6835938,-2.257812 0,-0.8891371 -0.2267895,-1.5931726 -0.6835938,-2.1152346 C 7.4436931,7.6638558 6.9087731,7.3989808 6.2929031,7.3989808 c -0.4894331,0 -0.9522607,0.189221 -1.3886719,0.5644531 L 5.3026687,5.5513245 H 8.2323562 V 4.5005433 Z m 5.7148435,0 -0.7167966,4.6054687 0.8496096,0.1347656 c 0.138672,-0.2732668 0.327894,-0.4838571 0.564453,-0.6347656 0.240638,-0.1549871 0.496264,-0.234375 0.769531,-0.234375 0.452726,0 0.829215,0.1783641 1.126953,0.5332031 0.301817,0.3507604 0.451172,0.8459865 0.451172,1.4863279 0,0.681128 -0.154869,1.21961 -0.464844,1.615235 -0.309974,0.391546 -0.679168,0.58789 -1.107422,0.58789 -0.342603,0 -0.643265,-0.13867 -0.904296,-0.416015 -0.256953,-0.281424 -0.422679,-0.708292 -0.496094,-1.279297 l -0.9472658,0.09766 c 0.061179,0.783093 0.3096826,1.397228 0.7460938,1.841797 0.44049,0.44049 0.978971,0.660156 1.615234,0.660156 0.766779,0 1.3754,-0.31152 1.828125,-0.935547 0.456805,-0.628106 0.685547,-1.380911 0.685547,-2.257812 0,-0.8891371 -0.228742,-1.5931726 -0.685547,-2.1152346 -0.452725,-0.5261406 -0.985692,-0.7910156 -1.601562,-0.7910156 -0.489433,0 -0.952261,0.189221 -1.388672,0.5644531 L 11.015559,5.5513245 H 13.9472 V 4.5005433 Z" />
      <ellipse
         style="fill:none;fill-opacity:1;stroke:#000000;stroke-width:1.19928;stroke-dasharray:0.755549;stroke-dashoffset:0;stroke-opacity:1"
         id="ellipse1626"
         cx="8.9999857"
         cy="9.004199"
         rx="8.4002981"
         ry="8.4045572" />
    </g>
  </g>
</svg>
