<?xml version="1.0" encoding="UTF-8" standalone="no"?>
<svg
   version="1.1"
   width="18"
   height="18"
   viewBox="0 0 18 18"
   id="svg1714"
   xmlns="http://www.w3.org/2000/svg"
   xmlns:svg="http://www.w3.org/2000/svg">
  <defs
     id="defs1718">
    <rect
       x="32.567797"
       y="-13.805085"
       width="44.389831"
       height="38.898305"
       id="rect2002" />
    <rect
       x="22.5"
       y="-2.2118644"
       width="28.525424"
       height="24.559322"
       id="rect1996" />
    <rect
       x="40.805085"
       y="-10.525424"
       width="65.898305"
       height="40.652542"
       id="rect1990" />
    <rect
       x="39.661017"
       y="-9.1525424"
       width="44.237288"
       height="35.389831"
       id="rect1984" />
    <rect
       x="21.279661"
       y="-2.8983051"
       width="36.228814"
       height="33.330508"
       id="rect1978" />
    <rect
       x="17.313559"
       y="1.9067797"
       width="18.228814"
       height="14.338983"
       id="rect1972" />
    <rect
       x="22.576271"
       y="-1.4491525"
       width="29.516949"
       height="22.957627"
       id="rect1966" />
  </defs>
  <g
     id="g1783"
     transform="translate(-452.85504,-37.644012)">
    <text
       xml:space="preserve"
       transform="translate(452.85504,37.644012)"
       id="text1964"
       style="white-space:pre;shape-inside:url(#rect1966);display:inline;fill:#000000" />
    <text
       xml:space="preserve"
       transform="translate(452.85504,37.644012)"
       id="text1970"
       style="white-space:pre;shape-inside:url(#rect1972);display:inline;fill:#000000" />
    <text
       xml:space="preserve"
       transform="translate(452.85504,37.644012)"
       id="text1976"
       style="white-space:pre;shape-inside:url(#rect1978);display:inline;fill:#000000" />
    <text
       xml:space="preserve"
       transform="translate(452.85504,37.644012)"
       id="text1982"
       style="white-space:pre;shape-inside:url(#rect1984);display:inline;fill:#000000" />
    <text
       xml:space="preserve"
       transform="translate(452.85504,37.644012)"
       id="text1988"
       style="white-space:pre;shape-inside:url(#rect1990);display:inline;fill:#000000" />
  </g>
  <g
     id="g9982">
    <path
       id="text1620"
       style="font-stretch:condensed;font-size:12.5295px;font-family:'Arial Narrow';-inkscape-font-specification:'Arial Narrow Condensed';opacity:0.98;fill:#000000;stroke-width:0.313253;paint-order:markers fill stroke"
       d="M 4.5798687,4.5002996 3.865025,9.1057684 4.7146344,9.240534 C 4.8533071,8.9672672 5.040575,8.7566769 5.2771344,8.6057684 5.5177723,8.4507812 5.7753519,8.3733465 6.0486187,8.3733465 c 0.4527257,0 0.8272616,0.176411 1.125,0.53125 0.3018171,0.3507604 0.453125,0.8459865 0.453125,1.4863285 0,0.681127 -0.1548694,1.219609 -0.4648437,1.615234 -0.3099743,0.391546 -0.6791679,0.587891 -1.1074219,0.587891 -0.3426031,0 -0.645219,-0.138671 -0.90625,-0.416016 C 4.8912757,11.89661 4.7275025,11.469742 4.6540875,10.898737 l -0.9492188,0.09766 c 0.061179,0.783093 0.3096826,1.397229 0.7460938,1.841797 0.4404898,0.44049 0.9789713,0.66211 1.6152344,0.66211 0.7667785,0 1.3773525,-0.313473 1.8300781,-0.9375 0.4568042,-0.628106 0.6855469,-1.380912 0.6855469,-2.257813 0,-0.8891367 -0.2287427,-1.5931723 -0.6855469,-2.1152343 C 7.4435494,7.6636122 6.9086294,7.4006902 6.2927594,7.4006902 c -0.4894331,0 -0.9522607,0.187268 -1.3886719,0.5625 L 5.302525,5.553034 H 8.2322125 V 4.5002996 Z m 5.7148433,0 -0.7167964,4.6054688 0.8515624,0.1347656 c 0.138673,-0.2732668 0.325941,-0.4838571 0.5625,-0.6347656 0.240638,-0.1549872 0.496265,-0.2324219 0.769531,-0.2324219 0.452726,0 0.829215,0.176411 1.126953,0.53125 0.301818,0.3507604 0.453125,0.8459865 0.453125,1.4863285 0,0.681127 -0.156822,1.219609 -0.466796,1.615234 -0.309975,0.391546 -0.677215,0.587891 -1.105469,0.587891 -0.342603,0 -0.645219,-0.138671 -0.90625,-0.416016 -0.256953,-0.281424 -0.422679,-0.708292 -0.496094,-1.279297 l -0.9472655,0.09766 c 0.061179,0.783093 0.3096826,1.397229 0.7460935,1.841797 0.44049,0.44049 0.978972,0.66211 1.615235,0.66211 0.766778,0 1.375399,-0.313473 1.828125,-0.9375 0.456804,-0.628106 0.685546,-1.380912 0.685546,-2.257813 0,-0.8891367 -0.228742,-1.5931723 -0.685546,-2.1152343 -0.452726,-0.5261405 -0.985693,-0.7890625 -1.601563,-0.7890625 -0.489433,0 -0.952261,0.187268 -1.388672,0.5625 L 11.015416,5.553034 h 2.93164 V 4.5002996 Z" />
    <rect
       style="opacity:0.98;fill:none;stroke:#000000;stroke-width:1.19939;stroke-dasharray:0.755616;stroke-dashoffset:0;stroke-opacity:1;paint-order:markers fill stroke"
       id="rect1633"
       width="16.800611"
       height="16.800611"
       x="0.59969503"
       y="0.59969503"
       rx="2.1544993"
       ry="2.1544993" />
  </g>
</svg>
