<?xml version="1.0" encoding="UTF-8" standalone="no"?>
<svg
   version="1.1"
   width="18"
   height="18"
   viewBox="0 0 18 18"
   id="svg1714"
   xmlns="http://www.w3.org/2000/svg"
   xmlns:svg="http://www.w3.org/2000/svg">
  <defs
     id="defs1718">
    <rect
       x="32.567797"
       y="-13.805085"
       width="44.389831"
       height="38.898305"
       id="rect2002" />
    <rect
       x="22.5"
       y="-2.2118644"
       width="28.525424"
       height="24.559322"
       id="rect1996" />
    <rect
       x="40.805085"
       y="-10.525424"
       width="65.898305"
       height="40.652542"
       id="rect1990" />
    <rect
       x="39.661017"
       y="-9.1525424"
       width="44.237288"
       height="35.389831"
       id="rect1984" />
    <rect
       x="21.279661"
       y="-2.8983051"
       width="36.228814"
       height="33.330508"
       id="rect1978" />
    <rect
       x="17.313559"
       y="1.9067797"
       width="18.228814"
       height="14.338983"
       id="rect1972" />
    <rect
       x="22.576271"
       y="-1.4491525"
       width="29.516949"
       height="22.957627"
       id="rect1966" />
  </defs>
  <g
     id="g1783"
     transform="translate(-452.85504,-37.644012)">
    <text
       xml:space="preserve"
       transform="translate(452.85504,37.644012)"
       id="text1964"
       style="white-space:pre;shape-inside:url(#rect1966);display:inline;fill:#000000" />
    <text
       xml:space="preserve"
       transform="translate(452.85504,37.644012)"
       id="text1970"
       style="white-space:pre;shape-inside:url(#rect1972);display:inline;fill:#000000" />
    <text
       xml:space="preserve"
       transform="translate(452.85504,37.644012)"
       id="text1976"
       style="white-space:pre;shape-inside:url(#rect1978);display:inline;fill:#000000" />
    <text
       xml:space="preserve"
       transform="translate(452.85504,37.644012)"
       id="text1982"
       style="white-space:pre;shape-inside:url(#rect1984);display:inline;fill:#000000" />
    <text
       xml:space="preserve"
       transform="translate(452.85504,37.644012)"
       id="text1988"
       style="white-space:pre;shape-inside:url(#rect1990);display:inline;fill:#000000" />
  </g>
  <path
     id="rect3951"
     style="opacity:0.98;fill:#000000;fill-opacity:1;stroke:none;stroke-width:1.28507;stroke-dasharray:none;stroke-opacity:1;paint-order:markers fill stroke"
     d="M 2.30856,0 C 1.02966,0 0,1.02978 0,2.3086 v 13.38274 c 0,1.27884 1.02966,2.30862 2.30856,2.30862 h 13.38278 c 1.27877,0 2.30862,-1.02978 2.30862,-2.30862 V 2.3086 C 17.99996,1.02978 16.97011,0 15.69134,0 Z M 4.58002,4.49989 H 8.23235 V 5.55271 H 5.30064 L 4.9042,7.96286 C 5.34068,7.58752 5.80347,7.40039 6.2929,7.40039 c 0.61594,0 1.15077,0.26284 1.6035,0.78901 0.45686,0.52212 0.68359,1.22801 0.68359,2.11714 0,0.87698 -0.22673,1.62973 -0.68359,2.25783 -0.45273,0.62414 -1.06325,0.93555 -1.83008,0.93555 -0.63626,0 -1.17469,-0.21958 -1.61519,-0.66014 C 4.01465,12.39517 3.76618,11.78119 3.70504,10.99805 l 0.94727,-0.0979 c 0.0736,0.57099 0.23909,0.99582 0.49613,1.27729 0.26096,0.27734 0.56354,0.41604 0.90615,0.41604 0.42835,0 0.79745,-0.19437 1.10743,-0.58597 C 7.47199,11.61192 7.6269,11.07341 7.6269,10.39236 7.6269,9.75192 7.47559,9.25679 7.17382,8.90594 6.87597,8.55114 6.49955,8.37278 6.04683,8.37278 5.77346,8.37278 5.51791,8.45048 5.27731,8.60523 5.04072,8.75612 4.85347,8.96868 4.71477,9.24196 L 3.86317,9.10709 Z m 5.71488,0 h 3.65231 v 1.05282 h -2.93163 l -0.39652,2.41015 c 0.43642,-0.37534 0.89922,-0.56247 1.3887,-0.56247 0.61589,0 1.14879,0.26284 1.60154,0.78901 0.45679,0.52212 0.68562,1.22801 0.68562,2.11714 0,0.87698 -0.22883,1.62973 -0.68562,2.25783 -0.45275,0.62414 -1.06128,0.93555 -1.82812,0.93555 -0.63632,0 -1.17473,-0.21958 -1.61522,-0.66014 C 9.72953,12.39517 9.48104,11.78119 9.41991,10.99805 l 0.94719,-0.0979 c 0.0738,0.57099 0.23917,0.99582 0.49613,1.27729 0.26104,0.27734 0.56166,0.41604 0.90425,0.41604 0.4283,0 0.79739,-0.19437 1.10743,-0.58597 0.31005,-0.39559 0.46683,-0.9341 0.46683,-1.61515 0,-0.64044 -0.15134,-1.13557 -0.45313,-1.48642 -0.29778,-0.3548 -0.67413,-0.53316 -1.12698,-0.53316 -0.27329,0 -0.52887,0.0777 -0.7695,0.23245 -0.23654,0.15089 -0.42576,0.36345 -0.5644,0.63673 L 9.57805,9.10709 Z" />
</svg>
