<?xml version="1.0" encoding="UTF-8" standalone="no"?>
<svg
   version="1.1"
   width="18"
   height="18"
   viewBox="0 0 18 18"
   id="svg1714"
   xmlns="http://www.w3.org/2000/svg"
   xmlns:svg="http://www.w3.org/2000/svg">
  <defs
     id="defs1718">
    <rect
       x="32.567797"
       y="-13.805085"
       width="44.389831"
       height="38.898305"
       id="rect2002" />
    <rect
       x="22.5"
       y="-2.2118644"
       width="28.525424"
       height="24.559322"
       id="rect1996" />
    <rect
       x="40.805085"
       y="-10.525424"
       width="65.898305"
       height="40.652542"
       id="rect1990" />
    <rect
       x="39.661017"
       y="-9.1525424"
       width="44.237288"
       height="35.389831"
       id="rect1984" />
    <rect
       x="21.279661"
       y="-2.8983051"
       width="36.228814"
       height="33.330508"
       id="rect1978" />
    <rect
       x="17.313559"
       y="1.9067797"
       width="18.228814"
       height="14.338983"
       id="rect1972" />
    <rect
       x="22.576271"
       y="-1.4491525"
       width="29.516949"
       height="22.957627"
       id="rect1966" />
  </defs>
  <g
     id="g1783"
     transform="translate(-452.85504,-37.644012)">
    <text
       xml:space="preserve"
       transform="translate(452.85504,37.644012)"
       id="text1964"
       style="white-space:pre;shape-inside:url(#rect1966);display:inline;fill:#000000" />
    <text
       xml:space="preserve"
       transform="translate(452.85504,37.644012)"
       id="text1970"
       style="white-space:pre;shape-inside:url(#rect1972);display:inline;fill:#000000" />
    <text
       xml:space="preserve"
       transform="translate(452.85504,37.644012)"
       id="text1976"
       style="white-space:pre;shape-inside:url(#rect1978);display:inline;fill:#000000" />
    <text
       xml:space="preserve"
       transform="translate(452.85504,37.644012)"
       id="text1982"
       style="white-space:pre;shape-inside:url(#rect1984);display:inline;fill:#000000" />
    <text
       xml:space="preserve"
       transform="translate(452.85504,37.644012)"
       id="text1988"
       style="white-space:pre;shape-inside:url(#rect1990);display:inline;fill:#000000" />
  </g>
  <g
     id="g12163">
    <path
       id="text2942"
       style="font-stretch:condensed;font-size:12.5304px;font-family:'Arial Narrow';-inkscape-font-specification:'Arial Narrow Condensed';opacity:0.98;fill:#000000;stroke-width:0.313259;paint-order:markers fill stroke"
       d="M 4.5791731,4.50032 3.8643294,9.1077419 4.7139388,9.2425075 C 4.8526214,8.969221 5.0398624,8.7567081 5.2764388,8.6057887 5.517094,8.4507905 5.7746367,8.3733669 6.0479231,8.3733669 c 0.4527582,0 0.8272402,0.1763855 1.125,0.53125 0.3018388,0.3507856 0.453125,0.8478936 0.453125,1.4882811 0,0.681177 -0.1548472,1.219581 -0.4648437,1.615234 -0.3099966,0.391575 -0.6791372,0.585938 -1.1074219,0.585938 -0.3426278,0 -0.6452003,-0.13865 -0.90625,-0.416016 C 4.8905617,11.89661 4.7268121,11.471757 4.6533919,10.900711 l -0.9492188,0.09766 c 0.061184,0.783149 0.3096512,1.397196 0.7460938,1.841797 0.4405214,0.440521 0.9789256,0.660156 1.6152344,0.660156 0.7668336,0 1.3773199,-0.311475 1.8300781,-0.935547 0.456837,-0.628151 0.6855469,-1.380848 0.6855469,-2.257812 0,-0.8892011 -0.2287099,-1.5950884 -0.6855469,-2.1171879 C 7.4428212,7.6635947 6.907978,7.4007106 6.2920638,7.4007106 c -0.4894683,0 -0.9522294,0.187241 -1.3886719,0.5625 L 5.3018294,5.5530544 H 8.2315169 V 4.50032 Z m 5.7148439,0 -0.716797,4.6074219 0.851563,0.1347656 c 0.138682,-0.2732865 0.325923,-0.4857994 0.5625,-0.6367188 0.240655,-0.1549982 0.498197,-0.2324218 0.771484,-0.2324218 0.452758,0 0.82724,0.1763855 1.125,0.53125 0.301839,0.3507856 0.453125,0.8478936 0.453125,1.4882811 0,0.681177 -0.154847,1.219581 -0.464844,1.615234 -0.309996,0.391575 -0.679137,0.585938 -1.107422,0.585938 -0.342628,0 -0.6452,-0.13865 -0.90625,-0.416016 -0.256971,-0.281444 -0.42072,-0.706297 -0.49414,-1.277343 l -0.9492191,0.09766 c 0.061183,0.783149 0.3096512,1.397196 0.7460941,1.841797 0.440521,0.440521 0.978925,0.660156 1.615234,0.660156 0.766834,0 1.37732,-0.311475 1.830078,-0.935547 0.456837,-0.628151 0.685547,-1.380848 0.685547,-2.257812 0,-0.8892011 -0.22871,-1.5950884 -0.685547,-2.1171879 -0.452758,-0.5261784 -0.987601,-0.7890625 -1.603515,-0.7890625 -0.489469,0 -0.95223,0.187241 -1.388672,0.5625 l 0.398437,-2.4101562 h 2.929688 V 4.50032 Z" />
    <rect
       style="opacity:0.98;fill:none;stroke:#000000;stroke-width:1.19939;stroke-dasharray:none;stroke-opacity:1;paint-order:markers fill stroke"
       id="rect2944"
       width="16.800611"
       height="16.800611"
       x="0.59969503"
       y="0.59969503"
       rx="2.1544993"
       ry="2.1544993" />
  </g>
</svg>
