<?xml version="1.0" encoding="UTF-8" standalone="no"?>
<svg
   version="1.1"
   width="18"
   height="18"
   viewBox="0 0 18 18"
   id="svg1714"
   xmlns="http://www.w3.org/2000/svg"
   xmlns:svg="http://www.w3.org/2000/svg">
  <defs
     id="defs1718">
    <rect
       x="32.567797"
       y="-13.805085"
       width="44.389831"
       height="38.898305"
       id="rect2002" />
    <rect
       x="22.5"
       y="-2.2118644"
       width="28.525424"
       height="24.559322"
       id="rect1996" />
    <rect
       x="40.805085"
       y="-10.525424"
       width="65.898305"
       height="40.652542"
       id="rect1990" />
    <rect
       x="39.661017"
       y="-9.1525424"
       width="44.237288"
       height="35.389831"
       id="rect1984" />
    <rect
       x="21.279661"
       y="-2.8983051"
       width="36.228814"
       height="33.330508"
       id="rect1978" />
    <rect
       x="17.313559"
       y="1.9067797"
       width="18.228814"
       height="14.338983"
       id="rect1972" />
    <rect
       x="22.576271"
       y="-1.4491525"
       width="29.516949"
       height="22.957627"
       id="rect1966" />
  </defs>
  <g
     id="g1783"
     transform="translate(-452.85504,-37.644012)">
    <text
       xml:space="preserve"
       transform="translate(452.85504,37.644012)"
       id="text1964"
       style="white-space:pre;shape-inside:url(#rect1966);display:inline;fill:#000000" />
    <text
       xml:space="preserve"
       transform="translate(452.85504,37.644012)"
       id="text1970"
       style="white-space:pre;shape-inside:url(#rect1972);display:inline;fill:#000000" />
    <text
       xml:space="preserve"
       transform="translate(452.85504,37.644012)"
       id="text1976"
       style="white-space:pre;shape-inside:url(#rect1978);display:inline;fill:#000000" />
    <text
       xml:space="preserve"
       transform="translate(452.85504,37.644012)"
       id="text1982"
       style="white-space:pre;shape-inside:url(#rect1984);display:inline;fill:#000000" />
    <text
       xml:space="preserve"
       transform="translate(452.85504,37.644012)"
       id="text1988"
       style="white-space:pre;shape-inside:url(#rect1990);display:inline;fill:#000000" />
  </g>
  <path
     id="circle362"
     style="fill:#000000;fill-opacity:1;stroke:none;stroke-width:1.04984;stroke-dasharray:none"
     d="M 9.00001,0 A 8.9999995,8.9999997 0 0 0 0,8.999991 a 8.9999995,8.9999997 0 0 0 9.00001,9.000006 8.9999995,8.9999997 0 0 0 9,-9.000006 A 8.9999995,8.9999997 0 0 0 9.00001,0 Z m 0.20507,4.49999 c 0.54915,0 1.00818,0.18767 1.37696,0.56446 0.37278,0.37278 0.59756,0.91736 0.67773,1.63086 L 10.37696,6.77926 C 10.29286,6.326304 10.16825,6.00291 10.00391,5.8105 9.76742,5.52992 9.4831,5.39058 9.1504,5.39058 8.63331,5.39058 8.21891,5.71018 7.90625,6.351519 7.63769,6.904679 7.50011,7.722378 7.4961,8.804645 7.70053,8.41984 7.95698,8.129968 8.26563,7.933553 8.57427,7.733129 8.90138,7.632771 9.2461,7.632771 c 0.5732,0 1.07316,0.260158 1.49805,0.781246 0.42889,0.517091 0.64258,1.210254 0.64258,2.080078 0,0.58924 -0.10777,1.124468 -0.32422,1.605464 -0.21245,0.477004 -0.48752,0.830128 -0.82422,1.058599 -0.33671,0.228474 -0.70648,0.341797 -1.11133,0.341797 -0.72953,0 -1.3317,-0.327004 -1.80469,-0.984377 C 6.84928,11.858205 6.61329,10.761738 6.61329,9.226521 6.61329,7.52295 6.85483,6.309359 7.33986,5.58784 7.82487,4.86233 8.4475,4.49996 9.20508,4.49996 Z M 9.07227,8.587886 c -0.38481,0 -0.72116,0.172854 -1.00976,0.517579 -0.28459,0.340714 -0.42774,0.803438 -0.42774,1.388668 0,0.637338 0.15055,1.15025 0.45118,1.539063 0.30063,0.38481 0.65004,0.578129 1.04687,0.578129 0.34873,0 0.65907,-0.182108 0.93164,-0.546871 0.27658,-0.364778 0.41406,-0.866579 0.41406,-1.503919 0,-0.625302 -0.13563,-1.110346 -0.4082,-1.45507 C 9.79774,8.76074 9.4651,8.587886 9.07227,8.587886 Z" />
</svg>
