<?xml version="1.0" encoding="UTF-8" standalone="no"?>
<svg
   version="1.1"
   width="18"
   height="18"
   viewBox="0 0 18 18"
   id="svg1714"
   xmlns="http://www.w3.org/2000/svg"
   xmlns:svg="http://www.w3.org/2000/svg">
  <defs
     id="defs1718">
    <rect
       x="32.567797"
       y="-13.805085"
       width="44.389831"
       height="38.898305"
       id="rect2002" />
    <rect
       x="22.5"
       y="-2.2118644"
       width="28.525424"
       height="24.559322"
       id="rect1996" />
    <rect
       x="40.805085"
       y="-10.525424"
       width="65.898305"
       height="40.652542"
       id="rect1990" />
    <rect
       x="39.661017"
       y="-9.1525424"
       width="44.237288"
       height="35.389831"
       id="rect1984" />
    <rect
       x="21.279661"
       y="-2.8983051"
       width="36.228814"
       height="33.330508"
       id="rect1978" />
    <rect
       x="17.313559"
       y="1.9067797"
       width="18.228814"
       height="14.338983"
       id="rect1972" />
    <rect
       x="22.576271"
       y="-1.4491525"
       width="29.516949"
       height="22.957627"
       id="rect1966" />
  </defs>
  <g
     id="g1783"
     transform="translate(-452.85504,-37.644012)">
    <text
       xml:space="preserve"
       transform="translate(452.85504,37.644012)"
       id="text1964"
       style="white-space:pre;shape-inside:url(#rect1966);display:inline;fill:#000000" />
    <text
       xml:space="preserve"
       transform="translate(452.85504,37.644012)"
       id="text1970"
       style="white-space:pre;shape-inside:url(#rect1972);display:inline;fill:#000000" />
    <text
       xml:space="preserve"
       transform="translate(452.85504,37.644012)"
       id="text1976"
       style="white-space:pre;shape-inside:url(#rect1978);display:inline;fill:#000000" />
    <text
       xml:space="preserve"
       transform="translate(452.85504,37.644012)"
       id="text1982"
       style="white-space:pre;shape-inside:url(#rect1984);display:inline;fill:#000000" />
    <text
       xml:space="preserve"
       transform="translate(452.85504,37.644012)"
       id="text1988"
       style="white-space:pre;shape-inside:url(#rect1990);display:inline;fill:#000000" />
  </g>
  <g
     id="g6732"
     transform="translate(-454.38999,65.244)">
    <g
       id="g1028"
       transform="translate(454.38999,-65.243954)">
      <text
         xml:space="preserve"
         style="font-stretch:condensed;font-size:12.3135px;font-family:'Arial Narrow';-inkscape-font-specification:'Arial Narrow Condensed';opacity:0.98;fill:#000000;stroke-width:0.307823;paint-order:markers fill stroke"
         x="6.2521205"
         y="13.350451"
         id="text1021"
         transform="scale(1.00002,0.99997999)"><tspan
           id="tspan1019"
           x="6.2521205"
           y="13.350451"
           style="fill:#000000;stroke-width:0.307823">6</tspan></text>
      <ellipse
         style="fill:none;fill-opacity:1;stroke:#000000;stroke-width:1.19928;stroke-dasharray:0.755549;stroke-dashoffset:0;stroke-opacity:1"
         id="ellipse1023"
         cx="8.9999857"
         cy="9.004199"
         rx="8.4002981"
         ry="8.4045572" />
    </g>
    <path
       id="text1017"
       style="font-stretch:condensed;font-size:12.3135px;font-family:'Arial Narrow';-inkscape-font-specification:'Arial Narrow Condensed';opacity:0.98;fill:#000000;stroke-width:0.307823;paint-order:markers fill stroke"
       d="m 463.58448,-60.745356 c -0.75757,0 -1.37824,0.362411 -1.86325,1.087913 -0.485,0.721493 -0.72654,1.935218 -0.72654,3.638745 0,1.535177 0.23599,2.631767 0.70897,3.289128 0.47298,0.65736 1.07318,0.984394 1.80269,0.984394 0.40484,0 0.77657,-0.11333 1.11326,-0.341803 0.3367,-0.228473 0.61177,-0.581628 0.82421,-1.058615 0.21644,-0.480996 0.32421,-1.016281 0.32421,-1.605501 0,-0.8698 -0.21563,-1.563049 -0.64452,-2.08012 -0.42488,-0.521078 -0.92288,-0.781265 -1.49606,-0.781265 -0.34472,0 -0.67181,0.100372 -0.98045,0.300787 -0.30864,0.196406 -0.5651,0.486315 -0.76952,0.871111 0.004,-1.08224 0.13964,-1.900029 0.4082,-2.453174 0.31264,-0.641328 0.72899,-0.960957 1.24606,-0.960957 0.33269,0 0.61701,0.13935 0.8535,0.419931 0.16434,0.192398 0.28887,0.515831 0.37304,0.968769 l 0.8828,-0.08399 c -0.0802,-0.713477 -0.3069,-1.258121 -0.67968,-1.630892 -0.36876,-0.37678 -0.82779,-0.564465 -1.37692,-0.564465 z m -0.13086,4.087973 c 0.39281,0 0.72546,0.172875 0.99803,0.517588 0.27256,0.344714 0.40819,0.829813 0.40819,1.455108 0,0.637319 -0.13748,1.139181 -0.41405,1.503936 -0.27256,0.364755 -0.58485,0.546886 -0.93358,0.546886 -0.39682,0 -0.74427,-0.19334 -1.0449,-0.578137 -0.30062,-0.388805 -0.45116,-0.901774 -0.45116,-1.539093 0,-0.585211 0.14118,-1.047994 0.42577,-1.3887 0.2886,-0.344713 0.62691,-0.517588 1.0117,-0.517588 z"
       transform="scale(1.00002,0.99998)" />
  </g>
</svg>
