<?xml version="1.0" encoding="UTF-8" standalone="no"?>
<svg
   version="1.1"
   width="18"
   height="18"
   viewBox="0 0 18 18"
   id="svg1714"
   xmlns="http://www.w3.org/2000/svg"
   xmlns:svg="http://www.w3.org/2000/svg">
  <defs
     id="defs1718">
    <rect
       x="32.567797"
       y="-13.805085"
       width="44.389831"
       height="38.898305"
       id="rect2002" />
    <rect
       x="22.5"
       y="-2.2118644"
       width="28.525424"
       height="24.559322"
       id="rect1996" />
    <rect
       x="40.805085"
       y="-10.525424"
       width="65.898305"
       height="40.652542"
       id="rect1990" />
    <rect
       x="39.661017"
       y="-9.1525424"
       width="44.237288"
       height="35.389831"
       id="rect1984" />
    <rect
       x="21.279661"
       y="-2.8983051"
       width="36.228814"
       height="33.330508"
       id="rect1978" />
    <rect
       x="17.313559"
       y="1.9067797"
       width="18.228814"
       height="14.338983"
       id="rect1972" />
    <rect
       x="22.576271"
       y="-1.4491525"
       width="29.516949"
       height="22.957627"
       id="rect1966" />
  </defs>
  <g
     id="g1783"
     transform="translate(-452.85504,-37.644012)">
    <text
       xml:space="preserve"
       transform="translate(452.85504,37.644012)"
       id="text1964"
       style="white-space:pre;shape-inside:url(#rect1966);display:inline;fill:#000000" />
    <text
       xml:space="preserve"
       transform="translate(452.85504,37.644012)"
       id="text1970"
       style="white-space:pre;shape-inside:url(#rect1972);display:inline;fill:#000000" />
    <text
       xml:space="preserve"
       transform="translate(452.85504,37.644012)"
       id="text1976"
       style="white-space:pre;shape-inside:url(#rect1978);display:inline;fill:#000000" />
    <text
       xml:space="preserve"
       transform="translate(452.85504,37.644012)"
       id="text1982"
       style="white-space:pre;shape-inside:url(#rect1984);display:inline;fill:#000000" />
    <text
       xml:space="preserve"
       transform="translate(452.85504,37.644012)"
       id="text1988"
       style="white-space:pre;shape-inside:url(#rect1990);display:inline;fill:#000000" />
    <g
       id="g2535"
       transform="translate(-70.923158,-24.813156)">
      <circle
         style="fill:none;fill-opacity:1;stroke:#000000;stroke-width:1.19912;stroke-dasharray:none;stroke-opacity:1"
         id="circle613"
         cx="532.7782"
         cy="71.457169"
         r="8.4004402" />
      <path
         id="text617"
         style="font-stretch:condensed;font-size:12.3138px;font-family:'Arial Narrow';-inkscape-font-specification:'Arial Narrow Condensed';opacity:0.98;fill:#000000;stroke-width:0.307846;paint-order:markers fill stroke"
         d="m 532.98242,66.957031 c -0.75758,0 -1.37826,0.362371 -1.86328,1.087891 -0.48502,0.721511 -0.72852,1.935104 -0.72852,3.638672 0,1.535215 0.23795,2.631686 0.71094,3.289062 0.47299,0.657377 1.07321,0.986328 1.80274,0.986328 0.40484,0 0.77657,-0.115271 1.11328,-0.34375 0.3367,-0.228478 0.60982,-0.581594 0.82226,-1.058593 0.21646,-0.481008 0.32618,-1.016235 0.32618,-1.605469 0,-0.869822 -0.21564,-1.562995 -0.64454,-2.080078 -0.42489,-0.521092 -0.92289,-0.78125 -1.49609,-0.78125 -0.34472,0 -0.67182,0.100361 -0.98047,0.300781 -0.30864,0.196411 -0.5651,0.486288 -0.76953,0.871094 0.004,-1.082267 0.13964,-1.899967 0.4082,-2.453125 0.31266,-0.641343 0.72706,-0.960938 1.24414,-0.960938 0.3327,0 0.61898,0.139335 0.85547,0.419922 0.16435,0.192403 0.28692,0.515802 0.3711,0.96875 l 0.88476,-0.08398 c -0.0802,-0.713494 -0.3069,-1.258079 -0.67968,-1.63086 -0.36878,-0.376789 -0.82781,-0.564453 -1.37696,-0.564453 z m -0.13281,4.087891 c 0.39282,0 0.72548,0.172856 0.99805,0.517578 0.27257,0.344722 0.41015,0.829769 0.41015,1.455078 0,0.637335 -0.13943,1.139142 -0.41601,1.503906 -0.27257,0.364764 -0.58291,0.546875 -0.93164,0.546875 -0.39683,0 -0.7443,-0.193319 -1.04493,-0.578125 -0.30063,-0.388814 -0.45117,-0.901727 -0.45117,-1.539062 0,-0.585226 0.14119,-1.047958 0.42578,-1.388672 0.28861,-0.344722 0.62496,-0.517578 1.00977,-0.517578 z" />
    </g>
  </g>
</svg>
