<?xml version="1.0" encoding="UTF-8" standalone="no"?>
<svg
   version="1.1"
   width="18"
   height="18"
   viewBox="0 0 18 18"
   id="svg1714"
   xmlns="http://www.w3.org/2000/svg"
   xmlns:svg="http://www.w3.org/2000/svg">
  <defs
     id="defs1718">
    <rect
       x="32.567797"
       y="-13.805085"
       width="44.389831"
       height="38.898305"
       id="rect2002" />
    <rect
       x="22.5"
       y="-2.2118644"
       width="28.525424"
       height="24.559322"
       id="rect1996" />
    <rect
       x="40.805085"
       y="-10.525424"
       width="65.898305"
       height="40.652542"
       id="rect1990" />
    <rect
       x="39.661017"
       y="-9.1525424"
       width="44.237288"
       height="35.389831"
       id="rect1984" />
    <rect
       x="21.279661"
       y="-2.8983051"
       width="36.228814"
       height="33.330508"
       id="rect1978" />
    <rect
       x="17.313559"
       y="1.9067797"
       width="18.228814"
       height="14.338983"
       id="rect1972" />
    <rect
       x="22.576271"
       y="-1.4491525"
       width="29.516949"
       height="22.957627"
       id="rect1966" />
  </defs>
  <g
     id="g1783"
     transform="translate(-452.85504,-37.644012)">
    <text
       xml:space="preserve"
       transform="translate(452.85504,37.644012)"
       id="text1964"
       style="white-space:pre;shape-inside:url(#rect1966);display:inline;fill:#000000" />
    <text
       xml:space="preserve"
       transform="translate(452.85504,37.644012)"
       id="text1970"
       style="white-space:pre;shape-inside:url(#rect1972);display:inline;fill:#000000" />
    <text
       xml:space="preserve"
       transform="translate(452.85504,37.644012)"
       id="text1976"
       style="white-space:pre;shape-inside:url(#rect1978);display:inline;fill:#000000" />
    <text
       xml:space="preserve"
       transform="translate(452.85504,37.644012)"
       id="text1982"
       style="white-space:pre;shape-inside:url(#rect1984);display:inline;fill:#000000" />
    <text
       xml:space="preserve"
       transform="translate(452.85504,37.644012)"
       id="text1988"
       style="white-space:pre;shape-inside:url(#rect1990);display:inline;fill:#000000" />
  </g>
  <path
     id="rect3574"
     style="opacity:0.98;fill:#000000;fill-opacity:1;stroke:none;stroke-width:1.28507;stroke-dasharray:none;stroke-opacity:1;paint-order:markers fill stroke"
     d="M 2.30859,0 C 1.02979,0 0,1.02978 0,2.3086 v 13.38274 c 0,1.27884 1.02979,2.30862 2.30859,2.30862 H 15.69141 C 16.9702,17.99996 18,16.97018 18,15.69134 V 2.3086 C 18,1.02978 16.9702,0 15.69141,0 Z m 6.89648,4.49989 c 0.54916,0 1.00818,0.18769 1.37696,0.56453 0.37278,0.37277 0.59756,0.91733 0.67773,1.63083 l -0.88281,0.0844 C 10.29285,6.32666 10.16824,6.00325 10.0039,5.8109 9.76741,5.53031 9.48308,5.39094 9.15039,5.39094 8.63331,5.39094 8.2189,5.71055 7.90625,6.35192 7.63768,6.90508 7.5001,7.72279 7.49609,8.80509 7.70052,8.42028 7.95697,8.13033 8.26562,7.93394 8.57427,7.73346 8.90137,7.63315 9.24609,7.63315 c 0.57319,0 1.07316,0.2602 1.49805,0.78124 0.4289,0.5171 0.64258,1.21033 0.64258,2.08006 0,0.58926 -0.10777,1.12454 -0.32423,1.60549 -0.21243,0.47699 -0.48751,0.83013 -0.82421,1.05859 C 9.90157,13.387 9.5318,13.5003 9.12694,13.5003 8.39742,13.5003 7.79525,13.17329 7.32226,12.51594 6.84927,11.85856 6.61327,10.76208 6.61327,9.22691 6.61327,7.52333 6.85482,6.3097 7.33984,5.58822 7.82485,4.86273 8.44749,4.50027 9.20507,4.50027 Z M 9.07226,8.58788 c -0.38481,0 -0.72116,0.17284 -1.00976,0.51754 -0.2846,0.34073 -0.42774,0.80345 -0.42774,1.38865 0,0.63735 0.15054,1.15025 0.45118,1.53913 0.30062,0.38483 0.65004,0.57809 1.04687,0.57809 0.34873,0 0.65906,-0.1821 0.93164,-0.54693 0.27658,-0.36473 0.41406,-0.86652 0.41406,-1.50386 0,-0.62534 -0.13564,-1.11041 -0.4082,-1.45508 C 9.79774,8.76072 9.46509,8.58788 9.07226,8.58788 Z" />
</svg>
