<?xml version="1.0" encoding="UTF-8" standalone="no"?>
<svg
   version="1.1"
   width="18"
   height="18"
   viewBox="0 0 18 18"
   id="svg1714"
   xmlns="http://www.w3.org/2000/svg"
   xmlns:svg="http://www.w3.org/2000/svg">
  <defs
     id="defs1718">
    <rect
       x="32.567797"
       y="-13.805085"
       width="44.389831"
       height="38.898305"
       id="rect2002" />
    <rect
       x="22.5"
       y="-2.2118644"
       width="28.525424"
       height="24.559322"
       id="rect1996" />
    <rect
       x="40.805085"
       y="-10.525424"
       width="65.898305"
       height="40.652542"
       id="rect1990" />
    <rect
       x="39.661017"
       y="-9.1525424"
       width="44.237288"
       height="35.389831"
       id="rect1984" />
    <rect
       x="21.279661"
       y="-2.8983051"
       width="36.228814"
       height="33.330508"
       id="rect1978" />
    <rect
       x="17.313559"
       y="1.9067797"
       width="18.228814"
       height="14.338983"
       id="rect1972" />
    <rect
       x="22.576271"
       y="-1.4491525"
       width="29.516949"
       height="22.957627"
       id="rect1966" />
  </defs>
  <g
     id="g1783"
     transform="translate(-452.85504,-37.644012)">
    <text
       xml:space="preserve"
       transform="translate(452.85504,37.644012)"
       id="text1964"
       style="white-space:pre;shape-inside:url(#rect1966);display:inline;fill:#000000" />
    <text
       xml:space="preserve"
       transform="translate(452.85504,37.644012)"
       id="text1970"
       style="white-space:pre;shape-inside:url(#rect1972);display:inline;fill:#000000" />
    <text
       xml:space="preserve"
       transform="translate(452.85504,37.644012)"
       id="text1976"
       style="white-space:pre;shape-inside:url(#rect1978);display:inline;fill:#000000" />
    <text
       xml:space="preserve"
       transform="translate(452.85504,37.644012)"
       id="text1982"
       style="white-space:pre;shape-inside:url(#rect1984);display:inline;fill:#000000" />
    <text
       xml:space="preserve"
       transform="translate(452.85504,37.644012)"
       id="text1988"
       style="white-space:pre;shape-inside:url(#rect1990);display:inline;fill:#000000" />
  </g>
  <g
     id="g8972">
    <rect
       style="opacity:0.98;fill:none;stroke:#000000;stroke-width:1.19939;stroke-dasharray:0.755616;stroke-dashoffset:0;stroke-opacity:1;paint-order:markers fill stroke"
       id="rect1038"
       width="16.800611"
       height="16.800611"
       x="0.59969503"
       y="0.59969503"
       rx="2.1544993"
       ry="2.1544993" />
    <path
       id="text1047"
       style="font-stretch:condensed;font-size:12.3135px;font-family:'Arial Narrow';-inkscape-font-specification:'Arial Narrow Condensed';opacity:0.98;fill:#000000;stroke-width:0.307823;paint-order:markers fill stroke"
       d="m 9.2050003,4.4999494 c -0.7575681,0 -1.3801932,0.3624107 -1.8651971,1.0879124 -0.4850039,0.7214935 -0.726548,1.9352185 -0.726548,3.6387447 0,1.5351775 0.2359912,2.6298145 0.7089702,3.2871755 0.4729791,0.65736 1.0751414,0.986348 1.8046514,0.986348 0.404838,0 0.774609,-0.113331 1.1113062,-0.341804 0.336697,-0.228473 0.611762,-0.581628 0.824202,-1.058615 0.216448,-0.480996 0.324212,-1.016281 0.324212,-1.605501 0,-0.8698004 -0.213677,-1.5630495 -0.642565,-2.0801198 C 10.319153,7.8930116 9.8192015,7.6328246 9.2460151,7.6328246 8.9013015,7.6328246 8.5742048,7.733197 8.2655659,7.9336119 7.9569271,8.1300184 7.7004732,8.4199266 7.4960501,8.8047231 7.5000584,7.7224829 7.6376422,6.9046939 7.9061981,6.351549 8.2188453,5.7102215 8.6332436,5.3905922 9.1503139,5.3905922 c 0.3326886,0 0.617009,0.1393495 0.8534981,0.4199303 0.164341,0.1923983 0.288866,0.5158319 0.37304,0.9687694 l 0.882795,-0.083986 C 11.179481,5.981829 10.954697,5.4371855 10.581926,5.0644138 10.213163,4.6876339 9.754137,4.4999494 9.2050003,4.4999494 Z M 9.0721904,8.5879218 c 0.3928131,0 0.7254628,0.172875 0.9980266,0.5175885 0.272565,0.3447136 0.408195,0.829813 0.408195,1.4551077 0,0.637319 -0.137481,1.139181 -0.414054,1.503936 C 9.7917939,12.429309 9.4814579,12.61144 9.1327361,12.61144 8.7359147,12.61144 8.3865043,12.4181 8.085882,12.033303 7.7852598,11.644498 7.6347192,11.131529 7.6347192,10.49421 7.6347192,9.9089986 7.7778559,9.4462156 8.062445,9.1055103 8.3510424,8.7607968 8.6873939,8.5879218 9.0721904,8.5879218 Z"
       transform="scale(1.00002,0.99997999)" />
  </g>
</svg>
