<?xml version="1.0" encoding="UTF-8" standalone="no"?>
<svg
   version="1.1"
   width="18"
   height="18"
   viewBox="0 0 18 18"
   id="svg1714"
   xmlns="http://www.w3.org/2000/svg"
   xmlns:svg="http://www.w3.org/2000/svg">
  <defs
     id="defs1718">
    <rect
       x="32.567797"
       y="-13.805085"
       width="44.389831"
       height="38.898305"
       id="rect2002" />
    <rect
       x="22.5"
       y="-2.2118644"
       width="28.525424"
       height="24.559322"
       id="rect1996" />
    <rect
       x="40.805085"
       y="-10.525424"
       width="65.898305"
       height="40.652542"
       id="rect1990" />
    <rect
       x="39.661017"
       y="-9.1525424"
       width="44.237288"
       height="35.389831"
       id="rect1984" />
    <rect
       x="21.279661"
       y="-2.8983051"
       width="36.228814"
       height="33.330508"
       id="rect1978" />
    <rect
       x="17.313559"
       y="1.9067797"
       width="18.228814"
       height="14.338983"
       id="rect1972" />
    <rect
       x="22.576271"
       y="-1.4491525"
       width="29.516949"
       height="22.957627"
       id="rect1966" />
  </defs>
  <g
     id="g1783"
     transform="translate(-452.85504,-37.644012)">
    <text
       xml:space="preserve"
       transform="translate(452.85504,37.644012)"
       id="text1964"
       style="white-space:pre;shape-inside:url(#rect1966);display:inline;fill:#000000" />
    <text
       xml:space="preserve"
       transform="translate(452.85504,37.644012)"
       id="text1970"
       style="white-space:pre;shape-inside:url(#rect1972);display:inline;fill:#000000" />
    <text
       xml:space="preserve"
       transform="translate(452.85504,37.644012)"
       id="text1976"
       style="white-space:pre;shape-inside:url(#rect1978);display:inline;fill:#000000" />
    <text
       xml:space="preserve"
       transform="translate(452.85504,37.644012)"
       id="text1982"
       style="white-space:pre;shape-inside:url(#rect1984);display:inline;fill:#000000" />
    <text
       xml:space="preserve"
       transform="translate(452.85504,37.644012)"
       id="text1988"
       style="white-space:pre;shape-inside:url(#rect1990);display:inline;fill:#000000" />
  </g>
  <g
     id="g11161">
    <rect
       style="opacity:0.98;fill:none;stroke:#000000;stroke-width:1.19939;stroke-dasharray:none;stroke-opacity:1;paint-order:markers fill stroke"
       id="rect1758"
       width="16.800611"
       height="16.800611"
       x="0.59969503"
       y="0.59969503"
       rx="2.1544993"
       ry="2.1544993" />
    <path
       id="text1762"
       style="font-stretch:condensed;font-size:12.3138px;font-family:'Arial Narrow';-inkscape-font-specification:'Arial Narrow Condensed';opacity:0.98;fill:#000000;stroke-width:0.307846;paint-order:markers fill stroke"
       d="m 9.2045488,4.50032 c -0.7575866,0 -1.3782656,0.3623712 -1.8632813,1.0878906 -0.4850157,0.721511 -0.7285156,1.9331512 -0.7285156,3.6367188 0,1.5352146 0.2359938,2.6316856 0.7089844,3.2890626 0.4729905,0.657377 1.0751597,0.986328 1.8046875,0.986328 0.4048478,0 0.7746229,-0.113318 1.1113282,-0.341797 0.336705,-0.228478 0.611774,-0.581595 0.824219,-1.058594 0.216453,-0.481007 0.324218,-1.016234 0.324218,-1.605468 0,-0.869822 -0.21368,-1.5629956 -0.642578,-2.0800785 -0.42489,-0.5210913 -0.9248462,-0.78125 -1.4980466,-0.78125 -0.3447219,0 -0.6698693,0.1003615 -0.9785156,0.3007812 C 7.9584024,8.1303251 7.7019456,8.4202016 7.4975175,8.8050075 7.5015259,7.722741 7.6371582,6.9050409 7.9057206,6.3518825 8.2183754,5.7105394 8.6327784,5.3889919 9.1498613,5.3889919 c 0.3326967,0 0.6170203,0.1412874 0.8535157,0.421875 0.164344,0.1924029 0.28887,0.5158014 0.373047,0.96875 l 0.884765,-0.085937 C 11.181021,5.9801852 10.954283,5.4375538 10.581502,5.0647731 10.21273,4.6879841 9.7536988,4.50032 9.2045488,4.50032 Z M 9.0717363,8.5882106 c 0.3928226,0 0.725476,0.1728562 0.9980467,0.5175781 0.272571,0.344722 0.410156,0.8297687 0.410156,1.4550783 0,0.637335 -0.139436,1.139142 -0.416015,1.503906 -0.2725711,0.364764 -0.5829106,0.546875 -0.9316409,0.546875 -0.396831,0 -0.7462454,-0.193319 -1.046875,-0.578125 -0.3006296,-0.388814 -0.4511718,-0.901728 -0.4511718,-1.539062 0,-0.585226 0.1431383,-1.0479587 0.4277343,-1.3886723 C 8.350575,8.7610668 8.6869304,8.5882106 9.0717363,8.5882106 Z" />
  </g>
</svg>
