<?xml version="1.0" encoding="UTF-8" standalone="no"?>
<svg
   version="1.1"
   width="18"
   height="18"
   viewBox="0 0 18 18"
   id="svg1714"
   xmlns="http://www.w3.org/2000/svg"
   xmlns:svg="http://www.w3.org/2000/svg">
  <defs
     id="defs1718">
    <rect
       x="32.567797"
       y="-13.805085"
       width="44.389831"
       height="38.898305"
       id="rect2002" />
    <rect
       x="22.5"
       y="-2.2118644"
       width="28.525424"
       height="24.559322"
       id="rect1996" />
    <rect
       x="40.805085"
       y="-10.525424"
       width="65.898305"
       height="40.652542"
       id="rect1990" />
    <rect
       x="39.661017"
       y="-9.1525424"
       width="44.237288"
       height="35.389831"
       id="rect1984" />
    <rect
       x="21.279661"
       y="-2.8983051"
       width="36.228814"
       height="33.330508"
       id="rect1978" />
    <rect
       x="17.313559"
       y="1.9067797"
       width="18.228814"
       height="14.338983"
       id="rect1972" />
    <rect
       x="22.576271"
       y="-1.4491525"
       width="29.516949"
       height="22.957627"
       id="rect1966" />
  </defs>
  <g
     id="g1783"
     transform="translate(-452.85504,-37.644012)">
    <text
       xml:space="preserve"
       transform="translate(452.85504,37.644012)"
       id="text1964"
       style="white-space:pre;shape-inside:url(#rect1966);display:inline;fill:#000000" />
    <text
       xml:space="preserve"
       transform="translate(452.85504,37.644012)"
       id="text1970"
       style="white-space:pre;shape-inside:url(#rect1972);display:inline;fill:#000000" />
    <text
       xml:space="preserve"
       transform="translate(452.85504,37.644012)"
       id="text1976"
       style="white-space:pre;shape-inside:url(#rect1978);display:inline;fill:#000000" />
    <text
       xml:space="preserve"
       transform="translate(452.85504,37.644012)"
       id="text1982"
       style="white-space:pre;shape-inside:url(#rect1984);display:inline;fill:#000000" />
    <text
       xml:space="preserve"
       transform="translate(452.85504,37.644012)"
       id="text1988"
       style="white-space:pre;shape-inside:url(#rect1990);display:inline;fill:#000000" />
  </g>
  <path
     id="circle480"
     style="fill:#000000;fill-opacity:1;stroke:none;stroke-width:1.04984;stroke-dasharray:none"
     d="M 8.99997,0 A 8.9999995,8.9999997 0 0 0 0,8.999991 8.9999995,8.9999997 0 0 0 8.99997,17.999997 8.9999995,8.9999997 0 0 0 17.99999,8.999991 8.9999995,8.9999997 0 0 0 8.99997,0 Z M 6.40624,4.49999 c 0.54913,0 1.00822,0.1877 1.37698,0.56446 0.37276,0.37275 0.59955,0.91742 0.67969,1.630859 L 7.57812,6.779279 C 7.49362,6.326367 7.3694,6.00291 7.20507,5.81052 6.96857,5.52996 6.68427,5.39059 6.35155,5.39059 5.83454,5.39059 5.42003,5.71026 5.1074,6.351537 4.83887,6.904648 4.70322,7.7225 4.6993,8.804663 4.9036,8.419896 5.16008,8.129968 5.46879,7.933571 5.77738,7.733167 6.1026,7.632789 6.44729,7.632789 c 0.57321,0 1.07318,0.260209 1.49807,0.781246 0.42883,0.517041 0.6426,1.210338 0.6426,2.080079 0,0.589183 -0.10782,1.124515 -0.32429,1.605464 -0.21243,0.476959 -0.48754,0.830149 -0.82419,1.0586 -0.3367,0.228451 -0.7065,0.341796 -1.11138,0.341796 -0.72949,0 -1.33175,-0.329017 -1.80471,-0.986328 C 4.05046,11.856339 3.81443,10.759658 3.81443,9.224582 3.81443,7.521174 4.05607,6.309309 4.54103,5.58786 5.02606,4.86242 5.64874,4.49998 6.40624,4.49998 Z m 5.42779,0 c 0.68934,0 1.23396,0.30855 1.63085,0.92579 0.48091,0.745492 0.72068,1.938846 0.72068,3.57812 0,1.470946 -0.1989,2.587986 -0.59569,3.353514 -0.39683,0.761526 -0.98599,1.14258 -1.76757,1.14258 -0.68944,0 -1.25447,-0.336414 -1.69533,-1.009764 C 9.6901,11.816882 9.47264,10.655201 9.47264,9.0039 c 0,-1.478957 0.19695,-2.599806 0.59382,-3.36133 0.40078,-0.76153 0.98995,-1.14258 1.76757,-1.14258 z m -0.0415,0.89649 c -0.40083,0 -0.7372,0.24529 -1.00979,0.73828 -0.26855,0.492986 -0.40428,1.450305 -0.40428,2.86914 0,1.430857 0.1376,2.389932 0.41014,2.878908 0.27658,0.484966 0.62974,0.72656 1.05861,0.72656 0.40483,0 0.74306,-0.245294 1.01565,-0.738281 0.27254,-0.492981 0.40818,-1.448347 0.40818,-2.867187 0,-1.434868 -0.13745,-2.395889 -0.41403,-2.880859 C 12.58448,5.63808 12.2294,5.39648 11.79253,5.39648 Z M 6.27295,8.587885 c -0.38472,0 -0.72115,0.172888 -1.00973,0.517579 -0.28458,0.340682 -0.42773,0.803495 -0.42773,1.388669 0,0.637284 0.15058,1.150287 0.45117,1.539063 0.30061,0.384773 0.65008,0.576172 1.04684,0.576172 0.34874,0 0.65911,-0.182144 0.93164,-0.546866 0.2766,-0.36474 0.41404,-0.864683 0.41404,-1.501967 0,-0.625243 -0.13556,-1.11038 -0.4081,-1.455071 C 6.99854,8.760773 6.66579,8.587885 6.27295,8.587885 Z" />
</svg>
