<?xml version="1.0" encoding="UTF-8" standalone="no"?>
<svg
   version="1.1"
   width="18"
   height="18"
   viewBox="0 0 18 18"
   id="svg1714"
   xmlns="http://www.w3.org/2000/svg"
   xmlns:svg="http://www.w3.org/2000/svg">
  <defs
     id="defs1718">
    <rect
       x="32.567797"
       y="-13.805085"
       width="44.389831"
       height="38.898305"
       id="rect2002" />
    <rect
       x="22.5"
       y="-2.2118644"
       width="28.525424"
       height="24.559322"
       id="rect1996" />
    <rect
       x="40.805085"
       y="-10.525424"
       width="65.898305"
       height="40.652542"
       id="rect1990" />
    <rect
       x="39.661017"
       y="-9.1525424"
       width="44.237288"
       height="35.389831"
       id="rect1984" />
    <rect
       x="21.279661"
       y="-2.8983051"
       width="36.228814"
       height="33.330508"
       id="rect1978" />
    <rect
       x="17.313559"
       y="1.9067797"
       width="18.228814"
       height="14.338983"
       id="rect1972" />
    <rect
       x="22.576271"
       y="-1.4491525"
       width="29.516949"
       height="22.957627"
       id="rect1966" />
  </defs>
  <g
     id="g1783"
     transform="translate(-452.85504,-37.644012)">
    <text
       xml:space="preserve"
       transform="translate(452.85504,37.644012)"
       id="text1964"
       style="white-space:pre;shape-inside:url(#rect1966);display:inline;fill:#000000" />
    <text
       xml:space="preserve"
       transform="translate(452.85504,37.644012)"
       id="text1970"
       style="white-space:pre;shape-inside:url(#rect1972);display:inline;fill:#000000" />
    <text
       xml:space="preserve"
       transform="translate(452.85504,37.644012)"
       id="text1976"
       style="white-space:pre;shape-inside:url(#rect1978);display:inline;fill:#000000" />
    <text
       xml:space="preserve"
       transform="translate(452.85504,37.644012)"
       id="text1982"
       style="white-space:pre;shape-inside:url(#rect1984);display:inline;fill:#000000" />
    <text
       xml:space="preserve"
       transform="translate(452.85504,37.644012)"
       id="text1988"
       style="white-space:pre;shape-inside:url(#rect1990);display:inline;fill:#000000" />
  </g>
  <g
     id="g7893"
     transform="translate(3.93816e-7,4.6267516e-5)">
    <path
       id="text1669"
       style="font-stretch:condensed;font-size:12.3131px;font-family:'Arial Narrow';-inkscape-font-specification:'Arial Narrow Condensed';opacity:0.98;fill:#000000;stroke-width:0.307812;paint-order:markers fill stroke"
       d="m 6.4065606,4.4997825 c -0.7575435,0 -1.3802741,0.3623962 -1.8652622,1.0878744 C 4.0563102,6.3091268 3.814725,7.5228038 3.814725,9.2262745 c 0,1.5351275 0.2360313,2.6297215 0.708995,3.2870605 0.4729636,0.657339 1.0752281,0.986313 1.8047144,0.986313 0.4048248,0 0.7746587,-0.113326 1.1113447,-0.341791 0.336686,-0.228466 0.6117982,-0.581607 0.8242311,-1.058578 0.216441,-0.48098 0.3242236,-1.016245 0.3242236,-1.605445 0,-0.8697724 -0.2137139,-1.5629939 -0.6425878,-2.0800474 C 7.5207804,7.892725 7.0207446,7.6325483 6.4475768,7.6325483 6.1028745,7.6325483 5.7757223,7.7329167 5.4670934,7.933325 5.1584646,8.1297252 4.9019672,8.4196218 4.6975507,8.8044058 4.7015589,7.7222009 4.8391659,6.9044443 5.1077131,6.3513174 5.4203501,5.7100107 5.8348188,5.3903942 6.3518723,5.3903942 c 0.3326778,0 0.6170465,0.1393439 0.8535283,0.4199156 0.1643349,0.192392 0.288881,0.5158128 0.3730525,0.9687356 L 8.4612787,6.6950622 C 8.3811154,5.9816086 8.1562937,5.4369867 7.7835343,5.0642272 7.4147829,4.6874595 6.9556794,4.4997825 6.4065606,4.4997825 Z m 5.4278154,0 c -0.777584,0 -1.366788,0.3810094 -1.767605,1.1425611 -0.396808,0.7615516 -0.5937584,1.8822646 -0.5937584,3.361278 0,1.6513644 0.2174165,2.8129044 0.6543064,3.4862764 0.440899,0.673372 1.005933,1.00975 1.695338,1.00975 0.781592,0 1.370796,-0.381009 1.767605,-1.142561 0.396808,-0.76556 0.595712,-1.882468 0.595712,-3.3534654 0,-1.6393401 -0.241688,-2.8325527 -0.722668,-3.5780717 -0.396808,-0.6172576 -0.939525,-0.9257674 -1.62893,-0.9257674 z m -0.04102,0.896471 c 0.43689,0 0.791913,0.2415635 1.064469,0.7265516 0.276563,0.4849882 0.414068,1.4458929 0.414068,2.8808165 0,1.4188914 -0.135654,2.3741404 -0.408209,2.8671444 -0.272555,0.493005 -0.612768,0.740224 -1.017593,0.740224 -0.428874,0 -0.780093,-0.243517 -1.056657,-0.728505 -0.272555,-0.488996 -0.410162,-1.447948 -0.410162,-2.8788634 0,-1.418891 0.135756,-2.3760934 0.404303,-2.8690979 0.272555,-0.4930045 0.608964,-0.7382702 1.009781,-0.7382702 z M 6.2737461,8.5876122 c 0.3928003,0 0.7255064,0.1728681 0.9980618,0.5175704 0.2725553,0.3447023 0.4082092,0.8297825 0.4082092,1.4550564 0,0.637299 -0.1375052,1.139141 -0.4140687,1.503884 -0.2725553,0.364743 -0.582944,0.546867 -0.9316545,0.546867 -0.3968085,0 -0.7462781,-0.193333 -1.0468906,-0.578117 -0.3006125,-0.388792 -0.4511786,-0.901741 -0.4511786,-1.539039 0,-0.5851925 0.1431609,-1.0479573 0.4277407,-1.3886514 0.288588,-0.3447023 0.6249967,-0.5175704 1.0097807,-0.5175704 z"
       transform="scale(0.99998508,1.0000149)" />
    <ellipse
       style="fill:none;fill-opacity:1;stroke:#000000;stroke-width:1.19928;stroke-dasharray:0.755549;stroke-dashoffset:0;stroke-opacity:1"
       id="ellipse1671"
       cx="8.9999857"
       cy="9.004199"
       rx="8.4002981"
       ry="8.4045572" />
  </g>
</svg>
