<?xml version="1.0" encoding="UTF-8" standalone="no"?>
<svg
   version="1.1"
   width="18"
   height="18"
   viewBox="0 0 18 18"
   id="svg1714"
   sodipodi:docname="60-circle.svg"
   inkscape:version="1.2.1 (9c6d41e, 2022-07-14)"
   xmlns:inkscape="http://www.inkscape.org/namespaces/inkscape"
   xmlns:sodipodi="http://sodipodi.sourceforge.net/DTD/sodipodi-0.dtd"
   xmlns="http://www.w3.org/2000/svg"
   xmlns:svg="http://www.w3.org/2000/svg">
  <defs
     id="defs1718">
    <rect
       x="32.567797"
       y="-13.805085"
       width="44.389831"
       height="38.898305"
       id="rect2002" />
    <rect
       x="22.5"
       y="-2.2118644"
       width="28.525424"
       height="24.559322"
       id="rect1996" />
    <rect
       x="40.805085"
       y="-10.525424"
       width="65.898305"
       height="40.652542"
       id="rect1990" />
    <rect
       x="39.661017"
       y="-9.1525424"
       width="44.237288"
       height="35.389831"
       id="rect1984" />
    <rect
       x="21.279661"
       y="-2.8983051"
       width="36.228814"
       height="33.330508"
       id="rect1978" />
    <rect
       x="17.313559"
       y="1.9067797"
       width="18.228814"
       height="14.338983"
       id="rect1972" />
    <rect
       x="22.576271"
       y="-1.4491525"
       width="29.516949"
       height="22.957627"
       id="rect1966" />
  </defs>
  <sodipodi:namedview
     id="namedview1716"
     pagecolor="#ffffff"
     bordercolor="#000000"
     borderopacity="0.25"
     inkscape:showpageshadow="2"
     inkscape:pageopacity="0.0"
     inkscape:pagecheckerboard="0"
     inkscape:deskcolor="#d1d1d1"
     showgrid="false"
     inkscape:zoom="13.111111"
     inkscape:cx="7.3220339"
     inkscape:cy="10.90678"
     inkscape:window-width="1920"
     inkscape:window-height="962"
     inkscape:window-x="1440"
     inkscape:window-y="25"
     inkscape:window-maximized="0"
     inkscape:current-layer="g1783" />
  <g
     id="g1783"
     transform="translate(-452.85504,-37.644012)">
    <text
       xml:space="preserve"
       transform="translate(452.85504,37.644012)"
       id="text1964"
       style="white-space:pre;shape-inside:url(#rect1966);display:inline;fill:#000000" />
    <text
       xml:space="preserve"
       transform="translate(452.85504,37.644012)"
       id="text1970"
       style="white-space:pre;shape-inside:url(#rect1972);display:inline;fill:#000000" />
    <text
       xml:space="preserve"
       transform="translate(452.85504,37.644012)"
       id="text1976"
       style="white-space:pre;shape-inside:url(#rect1978);display:inline;fill:#000000" />
    <text
       xml:space="preserve"
       transform="translate(452.85504,37.644012)"
       id="text1982"
       style="white-space:pre;shape-inside:url(#rect1984);display:inline;fill:#000000" />
    <text
       xml:space="preserve"
       transform="translate(452.85504,37.644012)"
       id="text1988"
       style="white-space:pre;shape-inside:url(#rect1990);display:inline;fill:#000000" />
    <g
       id="g3873"
       transform="translate(-67.651552,11.487575)">
      <circle
         style="fill:none;fill-opacity:1;stroke:#000000;stroke-width:1.19912;stroke-dasharray:none;stroke-opacity:1"
         id="circle839"
         cx="529.50659"
         cy="35.156437"
         r="8.4004402" />
      <path
         id="text843"
         style="font-stretch:condensed;font-size:12.3128px;font-family:'Arial Narrow';-inkscape-font-specification:'Arial Narrow Condensed';opacity:0.98;fill:#000000;stroke-width:0.30782;paint-order:markers fill stroke"
         d="m 526.905,30.656664 c -0.75753,0 -1.37828,0.362444 -1.86326,1.087905 -0.48498,0.721452 -0.72851,1.935291 -0.72851,3.638721 0,1.53509 0.23798,2.62983 0.71093,3.287154 0.47295,0.657323 1.07324,0.986341 1.80271,0.986341 0.40482,0 0.77659,-0.113342 1.11327,-0.341802 0.33668,-0.228459 0.60983,-0.581647 0.82225,-1.058608 0.21644,-0.480968 0.32617,-1.016304 0.32617,-1.60549 0,-0.869751 -0.21566,-1.563065 -0.64452,-2.080106 -0.42486,-0.521049 -0.92292,-0.781261 -1.49608,-0.781261 -0.34469,0 -0.67183,0.100382 -0.98045,0.300786 -0.30862,0.196395 -0.56511,0.486331 -0.76952,0.871105 0.004,-1.082179 0.13965,-1.900044 0.4082,-2.453158 0.31262,-0.641291 0.72708,-0.96095 1.24412,-0.96095 0.33267,0 0.61898,0.139362 0.85546,0.419927 0.16433,0.192387 0.28692,0.515851 0.37109,0.968763 l 0.88475,-0.08398 c -0.0802,-0.713437 -0.30693,-1.258131 -0.67968,-1.630882 -0.36874,-0.376758 -0.82783,-0.56446 -1.37693,-0.56446 z m 5.42961,0 c -0.77757,0 -1.36675,0.38106 -1.76755,1.142593 -0.3968,0.761533 -0.5957,1.882396 -0.5957,3.361374 0,1.651324 0.21936,2.813019 0.65624,3.486375 0.44089,0.673355 1.0059,1.009779 1.69529,1.009779 0.78158,0 1.37076,-0.38106 1.76756,-1.142594 0.39679,-0.765541 0.59374,-1.882599 0.59374,-3.35356 0,-1.639301 -0.23973,-2.832673 -0.7207,-3.578174 -0.39679,-0.617242 -0.93949,-0.925793 -1.62888,-0.925793 z m -0.043,0.896496 c 0.43688,0 0.79189,0.241596 1.06444,0.726572 0.27656,0.484977 0.41406,1.44601 0.41406,2.880899 0,1.418856 -0.13565,2.374233 -0.4082,2.867226 -0.27255,0.492992 -0.6108,0.740244 -1.01561,0.740244 -0.42886,0 -0.78202,-0.243549 -1.05858,-0.728525 -0.27255,-0.488985 -0.4082,-1.448065 -0.4082,-2.878945 0,-1.418857 0.1338,-2.376187 0.40234,-2.86918 0.27255,-0.492992 0.60895,-0.738291 1.00975,-0.738291 z m -5.51945,3.191449 c 0.39279,0 0.72548,0.172891 0.99803,0.517585 0.27255,0.344694 0.41015,0.829839 0.41015,1.455098 0,0.637283 -0.13945,1.137239 -0.41601,1.501974 -0.27255,0.364734 -0.58293,0.548835 -0.93163,0.548835 -0.3968,0 -0.7443,-0.193358 -1.04491,-0.578133 -0.3006,-0.388782 -0.45116,-0.9018 -0.45116,-1.539083 0,-0.585178 0.1412,-1.048005 0.42577,-1.388691 0.28858,-0.344694 0.62498,-0.517585 1.00976,-0.517585 z"
         transform="scale(1.0000135,0.99998651)" />
    </g>
  </g>
</svg>
