<?xml version="1.0" encoding="UTF-8" standalone="no"?>
<svg
   version="1.1"
   width="18"
   height="18"
   viewBox="0 0 18 18"
   id="svg1714"
   xmlns="http://www.w3.org/2000/svg"
   xmlns:svg="http://www.w3.org/2000/svg">
  <defs
     id="defs1718">
    <rect
       x="32.567797"
       y="-13.805085"
       width="44.389831"
       height="38.898305"
       id="rect2002" />
    <rect
       x="22.5"
       y="-2.2118644"
       width="28.525424"
       height="24.559322"
       id="rect1996" />
    <rect
       x="40.805085"
       y="-10.525424"
       width="65.898305"
       height="40.652542"
       id="rect1990" />
    <rect
       x="39.661017"
       y="-9.1525424"
       width="44.237288"
       height="35.389831"
       id="rect1984" />
    <rect
       x="21.279661"
       y="-2.8983051"
       width="36.228814"
       height="33.330508"
       id="rect1978" />
    <rect
       x="17.313559"
       y="1.9067797"
       width="18.228814"
       height="14.338983"
       id="rect1972" />
    <rect
       x="22.576271"
       y="-1.4491525"
       width="29.516949"
       height="22.957627"
       id="rect1966" />
  </defs>
  <g
     id="g1783"
     transform="translate(-452.85504,-37.644012)">
    <text
       xml:space="preserve"
       transform="translate(452.85504,37.644012)"
       id="text1964"
       style="white-space:pre;shape-inside:url(#rect1966);display:inline;fill:#000000" />
    <text
       xml:space="preserve"
       transform="translate(452.85504,37.644012)"
       id="text1970"
       style="white-space:pre;shape-inside:url(#rect1972);display:inline;fill:#000000" />
    <text
       xml:space="preserve"
       transform="translate(452.85504,37.644012)"
       id="text1976"
       style="white-space:pre;shape-inside:url(#rect1978);display:inline;fill:#000000" />
    <text
       xml:space="preserve"
       transform="translate(452.85504,37.644012)"
       id="text1982"
       style="white-space:pre;shape-inside:url(#rect1984);display:inline;fill:#000000" />
    <text
       xml:space="preserve"
       transform="translate(452.85504,37.644012)"
       id="text1988"
       style="white-space:pre;shape-inside:url(#rect1990);display:inline;fill:#000000" />
  </g>
  <g
     id="g10060"
     transform="translate(-729.20009,47.056801)">
    <g
       id="g1683"
       transform="translate(729.20009,-47.056801)">
      <path
         id="text1665"
         style="font-stretch:condensed;font-size:12.3131px;font-family:'Arial Narrow';-inkscape-font-specification:'Arial Narrow Condensed';opacity:0.98;fill:#000000;stroke-width:0.307812;paint-order:markers fill stroke"
         d="m 6.4054743,4.5000933 c -0.7575435,0 -1.3783209,0.3623963 -1.863309,1.0878744 -0.4849882,0.72147 -0.7285265,1.9331938 -0.7285265,3.6366646 0,1.5351277 0.2379844,2.6316737 0.7109481,3.2890137 0.4729636,0.657339 1.0732749,0.986313 1.8027613,0.986313 0.4048248,0 0.7766118,-0.113326 1.1132978,-0.341792 0.336686,-0.228465 0.6098451,-0.581606 0.8222779,-1.058578 0.216441,-0.48098 0.3261767,-1.016244 0.3261767,-1.605444 0,-0.8697725 -0.215667,-1.562994 -0.6445408,-2.0800475 C 7.5196941,7.8930359 7.0216115,7.6328591 6.4484437,7.6328591 c -0.3447023,0 -0.6718545,0.1003685 -0.9804834,0.3007768 C 5.1593315,8.1300361 4.9028341,8.4199327 4.6984176,8.8047167 4.7024258,7.7225117 4.8380797,6.9047552 5.1066268,6.3516282 5.4192638,5.7103216 5.8337325,5.3907051 6.350786,5.3907051 c 0.3326778,0 0.6189997,0.1393439 0.8554815,0.4199156 0.1643348,0.192392 0.2869278,0.5158127 0.3710993,0.9687355 L 8.4621456,6.6953731 C 8.3819823,5.9819195 8.1552075,5.4372975 7.782448,5.064538 7.4136967,4.6877704 6.9545931,4.5000933 6.4054743,4.5000933 Z m 5.4297687,0 c -0.777584,0 -1.366788,0.3810095 -1.767605,1.1425611 -0.3968082,0.7615517 -0.5957117,1.8822646 -0.5957117,3.3612781 0,1.6513645 0.2193697,2.8129045 0.6562597,3.4862765 0.440898,0.673372 1.005933,1.00975 1.695338,1.00975 0.781592,0 1.370796,-0.381009 1.767604,-1.142561 0.396809,-0.76556 0.593759,-1.882468 0.593759,-3.3534655 0,-1.6393401 -0.239734,-2.8325527 -0.720714,-3.5780717 -0.396808,-0.6172577 -0.939526,-0.9257675 -1.62893,-0.9257675 z m -0.04297,0.896471 c 0.436891,0 0.791914,0.2415636 1.064469,0.7265517 0.276564,0.4849882 0.416022,1.4458929 0.416022,2.8808165 0,1.4188905 -0.137607,2.3741405 -0.410162,2.8671445 -0.272555,0.493005 -0.610815,0.740224 -1.01564,0.740224 -0.428874,0 -0.782046,-0.243517 -1.05861,-0.728505 -0.272555,-0.488996 -0.408209,-1.447948 -0.408209,-2.8788635 0,-1.418891 0.133803,-2.3760934 0.40235,-2.8690979 0.272555,-0.4930045 0.608964,-0.7382703 1.00978,-0.7382703 z M 6.2726598,8.587923 c 0.3928004,0 0.7255065,0.1728681 0.9980618,0.5175705 0.2725553,0.3447023 0.4101624,0.8297824 0.4101624,1.4550565 0,0.637298 -0.1394584,1.137187 -0.4160219,1.501931 -0.2725553,0.364743 -0.582944,0.54882 -0.9316545,0.54882 -0.3968085,0 -0.744325,-0.193333 -1.0449374,-0.578117 -0.3006125,-0.388792 -0.4511787,-0.901741 -0.4511787,-1.539039 0,-0.5851927 0.1412078,-1.0479574 0.4257876,-1.3886515 C 5.5514671,8.7607911 5.8878759,8.587923 6.2726598,8.587923 Z"
         transform="scale(0.99998508,1.0000149)" />
      <rect
         style="opacity:0.98;fill:none;stroke:#000000;stroke-width:1.19939;stroke-dasharray:0.755616;stroke-dashoffset:0;stroke-opacity:1;paint-order:markers fill stroke"
         id="rect1678"
         width="16.800611"
         height="16.800611"
         x="0.59969503"
         y="0.59969503"
         rx="2.1544993"
         ry="2.1544993" />
    </g>
  </g>
</svg>
