<?xml version="1.0" encoding="UTF-8" standalone="no"?>
<svg
   version="1.1"
   width="18"
   height="18"
   viewBox="0 0 18 18"
   id="svg1714"
   xmlns="http://www.w3.org/2000/svg"
   xmlns:svg="http://www.w3.org/2000/svg">
  <defs
     id="defs1718">
    <rect
       x="32.567797"
       y="-13.805085"
       width="44.389831"
       height="38.898305"
       id="rect2002" />
    <rect
       x="22.5"
       y="-2.2118644"
       width="28.525424"
       height="24.559322"
       id="rect1996" />
    <rect
       x="40.805085"
       y="-10.525424"
       width="65.898305"
       height="40.652542"
       id="rect1990" />
    <rect
       x="39.661017"
       y="-9.1525424"
       width="44.237288"
       height="35.389831"
       id="rect1984" />
    <rect
       x="21.279661"
       y="-2.8983051"
       width="36.228814"
       height="33.330508"
       id="rect1978" />
    <rect
       x="17.313559"
       y="1.9067797"
       width="18.228814"
       height="14.338983"
       id="rect1972" />
    <rect
       x="22.576271"
       y="-1.4491525"
       width="29.516949"
       height="22.957627"
       id="rect1966" />
  </defs>
  <g
     id="g1783"
     transform="translate(-452.85504,-37.644012)">
    <text
       xml:space="preserve"
       transform="translate(452.85504,37.644012)"
       id="text1964"
       style="white-space:pre;shape-inside:url(#rect1966);display:inline;fill:#000000" />
    <text
       xml:space="preserve"
       transform="translate(452.85504,37.644012)"
       id="text1970"
       style="white-space:pre;shape-inside:url(#rect1972);display:inline;fill:#000000" />
    <text
       xml:space="preserve"
       transform="translate(452.85504,37.644012)"
       id="text1976"
       style="white-space:pre;shape-inside:url(#rect1978);display:inline;fill:#000000" />
    <text
       xml:space="preserve"
       transform="translate(452.85504,37.644012)"
       id="text1982"
       style="white-space:pre;shape-inside:url(#rect1984);display:inline;fill:#000000" />
    <text
       xml:space="preserve"
       transform="translate(452.85504,37.644012)"
       id="text1988"
       style="white-space:pre;shape-inside:url(#rect1990);display:inline;fill:#000000" />
  </g>
  <path
     id="rect3980"
     style="opacity:0.98;fill:#000000;fill-opacity:1;stroke:none;stroke-width:1.28507;stroke-dasharray:none;stroke-opacity:1;paint-order:markers fill stroke"
     d="M 2.30856,0 C 1.0298,0 0,1.02978 0,2.3086 v 13.38274 c 0,1.27884 1.0298,2.30862 2.30856,2.30862 h 13.38285 c 1.27883,0 2.3085,-1.02978 2.3085,-2.30862 V 2.3086 C 17.99991,1.02978 16.97024,0 15.69141,0 Z m 4.09767,4.49989 c 0.54914,0 1.00821,0.18773 1.37697,0.56453 0.37276,0.37274 0.5995,0.91739 0.6797,1.63083 L 7.57811,6.77965 C 7.49391,6.32671 7.36939,6.00324 7.20506,5.8109 6.96862,5.53034 6.6842,5.39094 6.35155,5.39094 5.83448,5.39094 5.42003,5.71062 5.10745,6.35192 4.83885,6.90502 4.70328,7.72289 4.69922,8.80509 4.9036,8.42031 5.16014,8.13031 5.46879,7.93394 5.77737,7.73348 6.10253,7.63315 6.44722,7.63315 c 0.57319,0 1.07317,0.26025 1.49808,0.78124 0.42887,0.51706 0.64259,1.21041 0.64259,2.08006 0,0.5892 -0.10775,1.12458 -0.32418,1.60549 C 8.05124,12.57689 7.77613,12.9301 7.43949,13.15853 7.10269,13.38698 6.73296,13.5003 6.3281,13.5003 5.59866,13.5003 4.99641,13.17128 4.52344,12.51397 4.05045,11.85666 3.81443,10.76001 3.81443,9.22493 3.81443,7.52152 4.05601,6.30963 4.54102,5.58822 5.02598,4.86279 5.64873,4.50027 6.40623,4.50027 Z m 5.42774,0 c 0.68933,0 1.23407,0.30865 1.63091,0.92586 0.4809,0.7455 0.72067,1.93885 0.72067,3.57814 0,1.47091 -0.19892,2.58796 -0.59569,3.35347 -0.39678,0.76147 -0.986,1.14256 -1.76756,1.14256 -0.68939,0 -1.25448,-0.33639 -1.69535,-1.00973 -0.43687,-0.67328 -0.65432,-1.83508 -0.65432,-3.4863 0,-1.47896 0.19694,-2.59983 0.59378,-3.36131 0.40081,-0.76152 0.99003,-1.14269 1.76756,-1.14269 z m -0.0415,0.89648 c -0.40075,0 -0.73711,0.2454 -1.00966,0.73839 -0.26861,0.49299 -0.40434,1.45023 -0.40434,2.86913 0,1.43082 0.1376,2.3899 0.41014,2.87889 0.27653,0.48497 0.62973,0.72652 1.05855,0.72652 0.40482,0 0.74317,-0.24519 1.01571,-0.73818 0.27256,-0.49298 0.40812,-1.44846 0.40812,-2.86723 0,-1.43494 -0.13745,-2.39591 -0.41404,-2.88085 C 12.58441,5.63805 12.22935,5.39637 11.79247,5.39637 Z M 6.27296,8.58788 c -0.38473,0 -0.72116,0.17287 -1.00974,0.51754 -0.28457,0.3407 -0.4278,0.80351 -0.4278,1.38865 0,0.63729 0.15059,1.15029 0.45121,1.53913 0.30066,0.38479 0.65011,0.5761 1.04688,0.5761 0.34874,0 0.65906,-0.18213 0.93159,-0.54686 C 7.54168,11.69768 7.67925,11.19778 7.67925,10.5605 7.67925,9.93522 7.54356,9.45006 7.27102,9.10542 6.99848,8.76075 6.66574,8.58788 6.27296,8.58788 Z" />
</svg>
