<?xml version="1.0" encoding="UTF-8" standalone="no"?>
<svg
   version="1.1"
   width="18"
   height="18"
   viewBox="0 0 18 18"
   id="svg1714"
   xmlns="http://www.w3.org/2000/svg"
   xmlns:svg="http://www.w3.org/2000/svg">
  <defs
     id="defs1718">
    <rect
       x="32.567797"
       y="-13.805085"
       width="44.389831"
       height="38.898305"
       id="rect2002" />
    <rect
       x="22.5"
       y="-2.2118644"
       width="28.525424"
       height="24.559322"
       id="rect1996" />
    <rect
       x="40.805085"
       y="-10.525424"
       width="65.898305"
       height="40.652542"
       id="rect1990" />
    <rect
       x="39.661017"
       y="-9.1525424"
       width="44.237288"
       height="35.389831"
       id="rect1984" />
    <rect
       x="21.279661"
       y="-2.8983051"
       width="36.228814"
       height="33.330508"
       id="rect1978" />
    <rect
       x="17.313559"
       y="1.9067797"
       width="18.228814"
       height="14.338983"
       id="rect1972" />
    <rect
       x="22.576271"
       y="-1.4491525"
       width="29.516949"
       height="22.957627"
       id="rect1966" />
  </defs>
  <g
     id="g1783"
     transform="translate(-452.85504,-37.644012)">
    <text
       xml:space="preserve"
       transform="translate(452.85504,37.644012)"
       id="text1964"
       style="white-space:pre;shape-inside:url(#rect1966);display:inline;fill:#000000" />
    <text
       xml:space="preserve"
       transform="translate(452.85504,37.644012)"
       id="text1970"
       style="white-space:pre;shape-inside:url(#rect1972);display:inline;fill:#000000" />
    <text
       xml:space="preserve"
       transform="translate(452.85504,37.644012)"
       id="text1976"
       style="white-space:pre;shape-inside:url(#rect1978);display:inline;fill:#000000" />
    <text
       xml:space="preserve"
       transform="translate(452.85504,37.644012)"
       id="text1982"
       style="white-space:pre;shape-inside:url(#rect1984);display:inline;fill:#000000" />
    <text
       xml:space="preserve"
       transform="translate(452.85504,37.644012)"
       id="text1988"
       style="white-space:pre;shape-inside:url(#rect1990);display:inline;fill:#000000" />
  </g>
  <g
     id="g12252">
    <path
       id="text2953"
       style="font-stretch:condensed;font-size:12.3128px;font-family:'Arial Narrow';-inkscape-font-specification:'Arial Narrow Condensed';opacity:0.98;fill:#000000;stroke-width:0.30782;paint-order:markers fill stroke"
       d="m 6.4047367,4.5003807 c -0.7575251,0 -1.3782798,0.3624448 -1.8632561,1.0879053 -0.4849764,0.7214524 -0.7265527,1.9333385 -0.7265527,3.6367678 0,1.5350902 0.2360226,2.6317832 0.7089748,3.2891072 0.4729521,0.657323 1.0732415,0.986341 1.80271,0.986341 0.404815,0 0.7765884,-0.115295 1.1132662,-0.343755 0.3366778,-0.228459 0.61178,-0.579694 0.8242077,-1.056654 0.2164357,-0.480969 0.3242143,-1.016305 0.3242143,-1.605491 0,-0.8697508 -0.213706,-1.5630651 -0.6425694,-2.080106 C 7.5208762,7.893447 7.0208587,7.6332355 6.4477048,7.6332355 c -0.3446939,0 -0.6718342,0.098429 -0.9804555,0.2988321 C 5.158628,8.128463 4.90214,8.4203517 4.6977285,8.8051263 4.7017365,7.7229476 4.8393385,6.9050817 5.1078792,6.3519682 5.4205086,5.7106771 5.8349621,5.3890646 6.352003,5.3890646 c 0.3326697,0 0.617028,0.1413158 0.8535041,0.4218807 0.1643308,0.1923873 0.2888724,0.5138981 0.3730418,0.9668099 L 8.4613495,6.6937697 C 8.3811881,5.9803334 8.1544216,5.4375919 7.7816712,5.0648414 7.4129288,4.688083 6.9538421,4.5003807 6.4047367,4.5003807 Z m 5.4296143,0 c -0.777566,0 -1.366747,0.3810604 -1.767554,1.1425935 -0.3967992,0.7615332 -0.5956955,1.8804429 -0.5956955,3.3594204 0,1.6513244 0.2193616,2.8149724 0.6562415,3.4883284 0.440887,0.673355 1.005901,1.009779 1.695289,1.009779 0.781574,0 1.370756,-0.38106 1.767555,-1.142593 0.396798,-0.765542 0.595695,-1.884553 0.595695,-3.3555144 0,-1.6393003 -0.241679,-2.8307193 -0.722647,-3.5762202 C 13.066436,4.8089318 12.523739,4.5003807 11.834351,4.5003807 Z m -0.04101,0.8945433 c 0.436879,0 0.789937,0.2435491 1.062485,0.7285255 0.276557,0.4849763 0.41601,1.4440564 0.41601,2.8789451 0,1.4188564 -0.135648,2.3761864 -0.408197,2.8691794 -0.272549,0.492992 -0.61275,0.738291 -1.017565,0.738291 -0.428863,0 -0.780069,-0.241596 -1.056626,-0.726572 -0.272549,-0.488985 -0.410151,-1.450018 -0.410151,-2.8808984 0,-1.4188565 0.133798,-2.3742337 0.402339,-2.8672262 0.272543,-0.4929925 0.610893,-0.7402444 1.0117,-0.7402444 z M 6.2738791,8.5883265 c 0.3927907,0 0.7254847,0.1728912 0.9980334,0.5175851 0.2725486,0.3446939 0.4081976,0.829839 0.4081976,1.4550974 0,0.637283 -0.1375002,1.137239 -0.4140569,1.501974 -0.2725487,0.364734 -0.5829261,0.546882 -0.9316281,0.546882 -0.3967988,0 -0.7462557,-0.191405 -1.0468609,-0.57618 -0.3006051,-0.388782 -0.4511657,-0.9018 -0.4511657,-1.539083 0,-0.5851779 0.1431557,-1.0480045 0.4277286,-1.3886904 C 5.552708,8.7612177 5.8891044,8.5883265 6.2738791,8.5883265 Z"
       transform="scale(1.0000135,0.99998651)" />
    <rect
       style="opacity:0.98;fill:none;stroke:#000000;stroke-width:1.19939;stroke-dasharray:none;stroke-opacity:1;paint-order:markers fill stroke"
       id="rect2955"
       width="16.800611"
       height="16.800611"
       x="0.59969503"
       y="0.59969503"
       rx="2.1544993"
       ry="2.1544993" />
  </g>
</svg>
