<?xml version="1.0" encoding="UTF-8" standalone="no"?>
<svg
   version="1.1"
   width="18"
   height="18"
   viewBox="0 0 18 18"
   id="svg1714"
   xmlns="http://www.w3.org/2000/svg"
   xmlns:svg="http://www.w3.org/2000/svg">
  <defs
     id="defs1718">
    <rect
       x="32.567797"
       y="-13.805085"
       width="44.389831"
       height="38.898305"
       id="rect2002" />
    <rect
       x="22.5"
       y="-2.2118644"
       width="28.525424"
       height="24.559322"
       id="rect1996" />
    <rect
       x="40.805085"
       y="-10.525424"
       width="65.898305"
       height="40.652542"
       id="rect1990" />
    <rect
       x="39.661017"
       y="-9.1525424"
       width="44.237288"
       height="35.389831"
       id="rect1984" />
    <rect
       x="21.279661"
       y="-2.8983051"
       width="36.228814"
       height="33.330508"
       id="rect1978" />
    <rect
       x="17.313559"
       y="1.9067797"
       width="18.228814"
       height="14.338983"
       id="rect1972" />
    <rect
       x="22.576271"
       y="-1.4491525"
       width="29.516949"
       height="22.957627"
       id="rect1966" />
  </defs>
  <g
     id="g1783"
     transform="translate(-452.85504,-37.644012)">
    <text
       xml:space="preserve"
       transform="translate(452.85504,37.644012)"
       id="text1964"
       style="white-space:pre;shape-inside:url(#rect1966);display:inline;fill:#000000" />
    <text
       xml:space="preserve"
       transform="translate(452.85504,37.644012)"
       id="text1970"
       style="white-space:pre;shape-inside:url(#rect1972);display:inline;fill:#000000" />
    <text
       xml:space="preserve"
       transform="translate(452.85504,37.644012)"
       id="text1976"
       style="white-space:pre;shape-inside:url(#rect1978);display:inline;fill:#000000" />
    <text
       xml:space="preserve"
       transform="translate(452.85504,37.644012)"
       id="text1982"
       style="white-space:pre;shape-inside:url(#rect1984);display:inline;fill:#000000" />
    <text
       xml:space="preserve"
       transform="translate(452.85504,37.644012)"
       id="text1988"
       style="white-space:pre;shape-inside:url(#rect1990);display:inline;fill:#000000" />
  </g>
  <g
     id="g7971"
     transform="translate(3.93816e-7,4.6267516e-5)">
    <path
       id="text1716"
       style="font-stretch:condensed;font-size:12.313px;font-family:'Arial Narrow';-inkscape-font-specification:'Arial Narrow Condensed';opacity:0.98;fill:#000000;stroke-width:0.30781;paint-order:markers fill stroke"
       d="m 6.3675551,4.5002971 c -0.7575373,0 -1.3802921,0.3623939 -1.8652763,1.0878662 C 4.0172946,6.3096274 3.7757,7.5213433 3.7757,9.2248002 c 0,1.5351148 0.2360405,2.6316548 0.7090003,3.2889888 0.4729598,0.657334 1.0752477,0.986306 1.8047281,0.986306 0.4048215,0 0.7746699,-0.113326 1.1113531,-0.34179 0.3366833,-0.228463 0.6118062,-0.581602 0.8242373,-1.058569 0.2164392,-0.480977 0.3242261,-1.016237 0.3242261,-1.605433 0,-0.8697652 -0.2137223,-1.5629822 -0.6425926,-2.0800314 C 7.4817901,7.8932141 6.9817348,7.6330391 6.4085717,7.6330391 c -0.3446995,0 -0.6718645,0.1003678 -0.9804908,0.3007745 C 5.1194546,8.1302122 4.8629471,8.4201069 4.6585323,8.8048878 4.6625405,7.7226916 4.8001528,6.9049404 5.0686978,6.351818 5.3813322,5.7105165 5.7958171,5.388949 6.3128664,5.388949 c 0.3326751,0 0.6170549,0.1412961 0.8535348,0.4218655 0.1643335,0.1923904 0.2888845,0.513856 0.3730553,0.9667751 L 8.4222889,6.6936071 C 8.3421262,5.9801593 8.1172957,5.437494 7.7445393,5.0647375 7.3757909,4.687973 6.9166695,4.5002971 6.3675551,4.5002971 Z M 10.293425,4.6565436 9.5902839,9.1837855 10.424287,9.316595 c 0.136277,-0.268545 0.322228,-0.4786381 0.5547,-0.626939 0.23648,-0.1523091 0.487331,-0.2285105 0.755876,-0.2285105 0.444903,0 0.814853,0.1747181 1.107447,0.5234257 0.296602,0.3446995 0.445323,0.8316276 0.445323,1.4609048 0,0.669358 -0.152424,1.199066 -0.457042,1.587855 -0.304618,0.384781 -0.667061,0.576159 -1.087915,0.576159 -0.336683,0 -0.634124,-0.135641 -0.890645,-0.408194 -0.252512,-0.276562 -0.414193,-0.694693 -0.486339,-1.255831 l -0.9316616,0.0957 c 0.060122,0.769561 0.303568,1.373619 0.7324386,1.810506 0.432878,0.432878 0.962657,0.648423 1.587926,0.648423 0.753529,0 1.352013,-0.306657 1.796916,-0.919902 0.448911,-0.617252 0.673843,-1.356951 0.673843,-2.2187 0,-0.8737728 -0.224932,-1.5669898 -0.673843,-2.080031 -0.444903,-0.5170492 -0.969026,-0.7753731 -1.574255,-0.7753731 -0.480976,0 -0.936394,0.1839736 -1.365265,0.5527219 l 0.390634,-2.3690873 h 2.878971 V 4.6565436 Z M 6.2347397,8.5880958 c 0.3927971,0 0.7255162,0.1728669 0.9980693,0.5175664 0.2725531,0.3446996 0.4082123,0.8297765 0.4082123,1.4550458 0,0.637293 -0.1375106,1.137179 -0.4140718,1.501919 -0.2725531,0.36474 -0.582954,0.546863 -0.9316616,0.546863 -0.3968053,0 -0.7462885,-0.191378 -1.0468986,-0.576159 -0.30061,-0.388789 -0.451182,-0.901735 -0.451182,-1.539028 0,-0.5851877 0.1431665,-1.0479494 0.427744,-1.3886408 C 5.513537,8.7609627 5.8499588,8.5880958 6.2347397,8.5880958 Z"
       transform="scale(0.9999775,1.0000225)" />
    <ellipse
       style="fill:none;fill-opacity:1;stroke:#000000;stroke-width:1.19928;stroke-dasharray:0.755549;stroke-dashoffset:0;stroke-opacity:1"
       id="ellipse1718"
       cx="8.9999857"
       cy="9.004199"
       rx="8.4002981"
       ry="8.4045572" />
  </g>
</svg>
