<?xml version="1.0" encoding="UTF-8" standalone="no"?>
<svg
   version="1.1"
   width="18"
   height="18"
   viewBox="0 0 18 18"
   id="svg1714"
   xmlns="http://www.w3.org/2000/svg"
   xmlns:svg="http://www.w3.org/2000/svg">
  <defs
     id="defs1718">
    <rect
       x="32.567797"
       y="-13.805085"
       width="44.389831"
       height="38.898305"
       id="rect2002" />
    <rect
       x="22.5"
       y="-2.2118644"
       width="28.525424"
       height="24.559322"
       id="rect1996" />
    <rect
       x="40.805085"
       y="-10.525424"
       width="65.898305"
       height="40.652542"
       id="rect1990" />
    <rect
       x="39.661017"
       y="-9.1525424"
       width="44.237288"
       height="35.389831"
       id="rect1984" />
    <rect
       x="21.279661"
       y="-2.8983051"
       width="36.228814"
       height="33.330508"
       id="rect1978" />
    <rect
       x="17.313559"
       y="1.9067797"
       width="18.228814"
       height="14.338983"
       id="rect1972" />
    <rect
       x="22.576271"
       y="-1.4491525"
       width="29.516949"
       height="22.957627"
       id="rect1966" />
  </defs>
  <g
     id="g1783"
     transform="translate(-452.85504,-37.644012)">
    <text
       xml:space="preserve"
       transform="translate(452.85504,37.644012)"
       id="text1964"
       style="white-space:pre;shape-inside:url(#rect1966);display:inline;fill:#000000" />
    <text
       xml:space="preserve"
       transform="translate(452.85504,37.644012)"
       id="text1970"
       style="white-space:pre;shape-inside:url(#rect1972);display:inline;fill:#000000" />
    <text
       xml:space="preserve"
       transform="translate(452.85504,37.644012)"
       id="text1976"
       style="white-space:pre;shape-inside:url(#rect1978);display:inline;fill:#000000" />
    <text
       xml:space="preserve"
       transform="translate(452.85504,37.644012)"
       id="text1982"
       style="white-space:pre;shape-inside:url(#rect1984);display:inline;fill:#000000" />
    <text
       xml:space="preserve"
       transform="translate(452.85504,37.644012)"
       id="text1988"
       style="white-space:pre;shape-inside:url(#rect1990);display:inline;fill:#000000" />
  </g>
  <path
     id="circle487"
     style="fill:#000000;fill-opacity:1;stroke:none;stroke-width:1.04984;stroke-dasharray:none"
     d="M 9.00002,0 A 8.9999995,8.9999997 0 0 0 0,8.999991 8.9999995,8.9999997 0 0 0 9.00002,17.999997 8.9999995,8.9999997 0 0 0 18.00004,8.999991 8.9999995,8.9999997 0 0 0 9.00002,0 Z M 6.36717,4.49999 c 0.54912,0 1.00827,0.1877 1.37698,0.56446 C 8.1169,5.4372 8.34174,5.98187 8.42193,6.695309 L 7.53911,6.779279 C 7.45471,6.326365 7.33038,6.00291 7.16605,5.81052 6.9295,5.52996 6.6452,5.39059 6.31249,5.39059 c -0.517,0 -0.93152,0.31966 -1.24416,0.960947 C 4.79986,6.904651 4.66415,7.722494 4.66022,8.804663 4.86459,8.419894 5.12102,8.129969 5.42965,7.933572 5.73836,7.733166 6.06358,7.632789 6.40821,7.632789 c 0.57313,0 1.0732,0.260207 1.49808,0.781246 0.42882,0.517044 0.6426,1.210333 0.6426,2.080079 0,0.589186 -0.10789,1.124512 -0.32429,1.605464 -0.2124,0.476962 -0.48754,0.830148 -0.82426,1.0586 -0.33658,0.228452 -0.70644,0.341796 -1.11124,0.341796 -0.72954,0 -1.33182,-0.329013 -1.80473,-0.986328 C 4.01141,11.856336 3.77541,10.759666 3.77541,9.224582 3.77541,7.521165 4.01894,6.309313 4.5039,5.58786 4.98894,4.86242 5.60969,4.49998 6.36717,4.49998 Z m 3.92582,0.15625 h 3.58784 v 1.03321 h -2.87888 l -0.39059,2.369143 c 0.42882,-0.368742 0.88424,-0.552737 1.36525,-0.552737 0.60525,0 1.12929,0.258353 1.57419,0.77539 0.4489,0.513027 0.67388,1.206323 0.67388,2.080072 0,0.861729 -0.22498,1.601512 -0.67388,2.218756 -0.4449,0.613228 -1.04339,0.91992 -1.79687,0.91992 -0.62527,0 -1.15509,-0.215567 -1.58789,-0.648437 C 9.73716,12.414685 9.49375,11.810561 9.43358,11.041013 l 0.93164,-0.0957 c 0.0728,0.561125 0.2338,0.979299 0.4863,1.255862 0.25658,0.272542 0.55397,0.408197 0.89067,0.408197 0.4209,0 0.78335,-0.191397 1.08788,-0.576172 0.30464,-0.388778 0.45705,-0.918542 0.45705,-1.587893 0,-0.629261 -0.14873,-1.11624 -0.44533,-1.460927 -0.29262,-0.348702 -0.66056,-0.521499 -1.10545,-0.521499 -0.26855,0 -0.5213,0.0743 -0.75784,0.226568 -0.23244,0.148302 -0.41641,0.358418 -0.55273,0.626957 L 9.58992,9.183599 Z M 6.23441,8.587885 c -0.38479,0 -0.72118,0.172886 -1.00979,0.51758 -0.28457,0.340683 -0.42774,0.803491 -0.42774,1.388668 0,0.637287 0.1506,1.150285 0.45119,1.539063 0.30059,0.384775 0.65012,0.576172 1.04687,0.576172 0.3487,0 0.65912,-0.182142 0.93166,-0.546866 0.27652,-0.364742 0.41399,-0.864679 0.41399,-1.501967 0,-0.625246 -0.1356,-1.110378 -0.40813,-1.45507 C 6.95993,8.760771 6.62717,8.587885 6.23441,8.587885 Z" />
</svg>
