<?xml version="1.0" encoding="UTF-8" standalone="no"?>
<svg
   version="1.1"
   width="18"
   height="18"
   viewBox="0 0 18 18"
   id="svg1714"
   sodipodi:docname="65-circle.svg"
   inkscape:version="1.2.1 (9c6d41e, 2022-07-14)"
   xmlns:inkscape="http://www.inkscape.org/namespaces/inkscape"
   xmlns:sodipodi="http://sodipodi.sourceforge.net/DTD/sodipodi-0.dtd"
   xmlns="http://www.w3.org/2000/svg"
   xmlns:svg="http://www.w3.org/2000/svg">
  <defs
     id="defs1718">
    <rect
       x="32.567797"
       y="-13.805085"
       width="44.389831"
       height="38.898305"
       id="rect2002" />
    <rect
       x="22.5"
       y="-2.2118644"
       width="28.525424"
       height="24.559322"
       id="rect1996" />
    <rect
       x="40.805085"
       y="-10.525424"
       width="65.898305"
       height="40.652542"
       id="rect1990" />
    <rect
       x="39.661017"
       y="-9.1525424"
       width="44.237288"
       height="35.389831"
       id="rect1984" />
    <rect
       x="21.279661"
       y="-2.8983051"
       width="36.228814"
       height="33.330508"
       id="rect1978" />
    <rect
       x="17.313559"
       y="1.9067797"
       width="18.228814"
       height="14.338983"
       id="rect1972" />
    <rect
       x="22.576271"
       y="-1.4491525"
       width="29.516949"
       height="22.957627"
       id="rect1966" />
  </defs>
  <sodipodi:namedview
     id="namedview1716"
     pagecolor="#ffffff"
     bordercolor="#000000"
     borderopacity="0.25"
     inkscape:showpageshadow="2"
     inkscape:pageopacity="0.0"
     inkscape:pagecheckerboard="0"
     inkscape:deskcolor="#d1d1d1"
     showgrid="false"
     inkscape:zoom="13.111111"
     inkscape:cx="7.3220339"
     inkscape:cy="10.90678"
     inkscape:window-width="1920"
     inkscape:window-height="962"
     inkscape:window-x="1440"
     inkscape:window-y="25"
     inkscape:window-maximized="0"
     inkscape:current-layer="g1783" />
  <g
     id="g1783"
     transform="translate(-452.85504,-37.644012)">
    <text
       xml:space="preserve"
       transform="translate(452.85504,37.644012)"
       id="text1964"
       style="white-space:pre;shape-inside:url(#rect1966);display:inline;fill:#000000" />
    <text
       xml:space="preserve"
       transform="translate(452.85504,37.644012)"
       id="text1970"
       style="white-space:pre;shape-inside:url(#rect1972);display:inline;fill:#000000" />
    <text
       xml:space="preserve"
       transform="translate(452.85504,37.644012)"
       id="text1976"
       style="white-space:pre;shape-inside:url(#rect1978);display:inline;fill:#000000" />
    <text
       xml:space="preserve"
       transform="translate(452.85504,37.644012)"
       id="text1982"
       style="white-space:pre;shape-inside:url(#rect1984);display:inline;fill:#000000" />
    <text
       xml:space="preserve"
       transform="translate(452.85504,37.644012)"
       id="text1988"
       style="white-space:pre;shape-inside:url(#rect1990);display:inline;fill:#000000" />
    <g
       id="g3968"
       transform="translate(-71.690797,-8.7305567)">
      <circle
         style="fill:none;fill-opacity:1;stroke:#000000;stroke-width:1.19912;stroke-dasharray:none;stroke-opacity:1"
         id="circle850"
         cx="533.54584"
         cy="55.374569"
         r="8.4004402" />
      <path
         id="text854"
         style="font-stretch:condensed;font-size:12.3127px;font-family:'Arial Narrow';-inkscape-font-specification:'Arial Narrow Condensed';opacity:0.98;fill:#000000;stroke-width:0.307818;paint-order:markers fill stroke"
         d="m 530.91211,50.875 c -0.75752,0 -1.37831,0.362436 -1.86328,1.087891 -0.48497,0.721446 -0.72656,1.933303 -0.72656,3.636718 0,1.535078 0.23603,2.631745 0.70898,3.289063 0.47295,0.657318 1.07327,0.986328 1.80273,0.986328 0.40482,0 0.77661,-0.115292 1.11329,-0.34375 0.33667,-0.228458 0.60984,-0.579684 0.82226,-1.056641 0.21644,-0.480964 0.32617,-1.016287 0.32617,-1.605468 0,-0.869744 -0.21567,-1.563042 -0.64453,-2.080079 -0.42485,-0.521044 -0.92294,-0.78125 -1.49609,-0.78125 -0.34469,10e-7 -0.67185,0.09843 -0.98047,0.298829 -0.30862,0.196393 -0.56512,0.488275 -0.76953,0.873047 0.004,-1.08217 0.13966,-1.900016 0.4082,-2.453126 0.31263,-0.641285 0.72711,-0.96289 1.24414,-0.96289 0.33267,0 0.619,0.141312 0.85547,0.421875 0.16433,0.192386 0.28693,0.513889 0.37109,0.966797 l 0.88477,-0.08398 c -0.0802,-0.71343 -0.30694,-1.256158 -0.67969,-1.628906 -0.36874,-0.37676 -0.82785,-0.564458 -1.37695,-0.564458 z m 3.92578,0.15625 -0.70312,4.527344 0.83593,0.130859 c 0.13628,-0.268538 0.32027,-0.476703 0.55274,-0.625 0.23647,-0.152305 0.48927,-0.228515 0.75781,-0.228515 0.44489,0 0.81288,0.174738 1.10547,0.523437 0.29659,0.344691 0.44531,0.831676 0.44531,1.460937 0,0.669343 -0.15242,1.199112 -0.45703,1.587891 -0.30461,0.384772 -0.66705,0.576172 -1.08789,0.576172 -0.33668,0 -0.63216,-0.135657 -0.88867,-0.408203 -0.25251,-0.276555 -0.41614,-0.694734 -0.48828,-1.25586 l -0.93164,0.0957 c 0.0601,0.769543 0.30551,1.371717 0.73437,1.808593 0.43287,0.432868 0.96068,0.650391 1.58594,0.650391 0.75351,0 1.35393,-0.306692 1.79883,-0.919922 0.4489,-0.617237 0.67187,-1.357022 0.67187,-2.21875 0,-0.873752 -0.22297,-1.567049 -0.67187,-2.080078 -0.4449,-0.517037 -0.97096,-0.775391 -1.57618,-0.775391 -0.48096,0 -0.93637,0.183995 -1.36523,0.552735 l 0.39063,-2.369141 h 2.88085 V 51.03125 Z m -4.05859,3.931641 c 0.39278,0 0.7255,0.172887 0.99804,0.517578 0.27255,0.344691 0.41016,0.829824 0.41016,1.455078 0,0.637278 -0.13946,1.137222 -0.41602,1.501953 -0.27254,0.364731 -0.58294,0.546875 -0.93164,0.546875 -0.39679,0 -0.74432,-0.1914 -1.04492,-0.576172 -0.3006,-0.388779 -0.45117,-0.901785 -0.45117,-1.539062 0,-0.585174 0.14121,-1.047989 0.42578,-1.388672 0.28858,-0.344691 0.625,-0.517578 1.00977,-0.517578 z" />
    </g>
  </g>
</svg>
