<?xml version="1.0" encoding="UTF-8" standalone="no"?>
<svg
   version="1.1"
   width="18"
   height="18"
   viewBox="0 0 18 18"
   id="svg1714"
   xmlns="http://www.w3.org/2000/svg"
   xmlns:svg="http://www.w3.org/2000/svg">
  <defs
     id="defs1718">
    <rect
       x="32.567797"
       y="-13.805085"
       width="44.389831"
       height="38.898305"
       id="rect2002" />
    <rect
       x="22.5"
       y="-2.2118644"
       width="28.525424"
       height="24.559322"
       id="rect1996" />
    <rect
       x="40.805085"
       y="-10.525424"
       width="65.898305"
       height="40.652542"
       id="rect1990" />
    <rect
       x="39.661017"
       y="-9.1525424"
       width="44.237288"
       height="35.389831"
       id="rect1984" />
    <rect
       x="21.279661"
       y="-2.8983051"
       width="36.228814"
       height="33.330508"
       id="rect1978" />
    <rect
       x="17.313559"
       y="1.9067797"
       width="18.228814"
       height="14.338983"
       id="rect1972" />
    <rect
       x="22.576271"
       y="-1.4491525"
       width="29.516949"
       height="22.957627"
       id="rect1966" />
  </defs>
  <g
     id="g1783"
     transform="translate(-452.85504,-37.644012)">
    <text
       xml:space="preserve"
       transform="translate(452.85504,37.644012)"
       id="text1964"
       style="white-space:pre;shape-inside:url(#rect1966);display:inline;fill:#000000" />
    <text
       xml:space="preserve"
       transform="translate(452.85504,37.644012)"
       id="text1970"
       style="white-space:pre;shape-inside:url(#rect1972);display:inline;fill:#000000" />
    <text
       xml:space="preserve"
       transform="translate(452.85504,37.644012)"
       id="text1976"
       style="white-space:pre;shape-inside:url(#rect1978);display:inline;fill:#000000" />
    <text
       xml:space="preserve"
       transform="translate(452.85504,37.644012)"
       id="text1982"
       style="white-space:pre;shape-inside:url(#rect1984);display:inline;fill:#000000" />
    <text
       xml:space="preserve"
       transform="translate(452.85504,37.644012)"
       id="text1988"
       style="white-space:pre;shape-inside:url(#rect1990);display:inline;fill:#000000" />
  </g>
  <g
     id="g10160">
    <path
       id="text1712"
       style="font-stretch:condensed;font-size:12.313px;font-family:'Arial Narrow';-inkscape-font-specification:'Arial Narrow Condensed';opacity:0.98;fill:#000000;stroke-width:0.30781;paint-order:markers fill stroke"
       d="m 6.3665232,4.4999333 c -0.7575365,0 -1.3783394,0.3623946 -1.8633231,1.0878661 -0.4849837,0.7214634 -0.728532,1.9351348 -0.728532,3.63859 0,1.5351136 0.237994,2.6297016 0.7109535,3.2870356 0.4729593,0.657333 1.0732952,0.986306 1.8027749,0.986306 0.4048211,0 0.7766233,-0.113327 1.1133063,-0.341789 0.3366829,-0.228464 0.6098532,-0.581603 0.8222841,-1.05857 0.216439,-0.480976 0.3261792,-1.016238 0.3261792,-1.605433 0,-0.8697641 -0.2156759,-1.5629825 -0.6445457,-2.0800313 C 7.4807586,7.8928508 6.9826555,7.6326753 6.409493,7.6326753 c -0.3446993,0 -0.6718649,0.100368 -0.9804908,0.3007744 C 5.1203761,8.1298482 4.8638682,8.4197434 4.6594536,8.8045239 4.6634617,7.7223288 4.7991212,6.904576 5.0676659,6.3514541 5.3803,5.7101533 5.7947857,5.3905382 6.3118345,5.3905382 c 0.3326748,0 0.6190084,0.1393434 0.855488,0.4199124 0.1643334,0.1923903 0.2869314,0.5158096 0.3711021,0.9687282 L 8.4232101,6.6951964 C 8.3430476,5.9817492 8.1162634,5.4371297 7.7435074,5.0643737 7.3747593,4.6876095 6.9156371,4.4999333 6.3665232,4.4999333 Z m 3.9258698,0.1562464 -0.703141,4.5272419 0.835956,0.1328095 c 0.136277,-0.2685446 0.320275,-0.4766851 0.552747,-0.6249859 0.23648,-0.152309 0.489285,-0.2285105 0.75783,-0.2285105 0.444902,0 0.812901,0.1727653 1.105493,0.5214727 0.296602,0.3446991 0.445323,0.8316282 0.445323,1.4609046 0,0.669357 -0.152424,1.199066 -0.457042,1.587855 -0.304617,0.38478 -0.667061,0.578112 -1.087915,0.578112 -0.336682,0 -0.634124,-0.137594 -0.890645,-0.410147 -0.252512,-0.276561 -0.414193,-0.694694 -0.486339,-1.255831 l -0.9316615,0.0957 c 0.060122,0.76956 0.3055216,1.373619 0.7343915,1.810506 0.432878,0.432877 0.960705,0.648423 1.585973,0.648423 0.753528,0 1.353966,-0.306658 1.798869,-0.919901 0.44891,-0.617253 0.67189,-1.356952 0.67189,-2.218701 0,-0.8737713 -0.22298,-1.5669902 -0.67189,-2.0800308 C 13.107329,7.7640494 12.581253,7.505725 11.976024,7.505725 c -0.480975,0 -0.936394,0.183974 -1.365265,0.5527219 l 0.390634,-2.3690873 h 2.880924 V 4.6561797 Z M 6.2337078,8.5877319 c 0.3927967,0 0.7255165,0.1728673 0.9980693,0.5175665 0.2725528,0.3446991 0.4101655,0.8297769 0.4101655,1.4550456 0,0.637292 -0.1394641,1.139133 -0.416025,1.503872 -0.2725528,0.36474 -0.5829544,0.546863 -0.9316616,0.546863 -0.3968049,0 -0.7443356,-0.193332 -1.0449454,-0.578112 -0.3006097,-0.388789 -0.451182,-0.901736 -0.451182,-1.539028 0,-0.5851869 0.1412136,-1.0479496 0.4257908,-1.3886406 C 5.5125048,8.7605992 5.8489272,8.5877319 6.2337078,8.5877319 Z"
       transform="scale(0.9999775,1.0000225)" />
    <rect
       style="opacity:0.98;fill:none;stroke:#000000;stroke-width:1.19939;stroke-dasharray:0.755616;stroke-dashoffset:0;stroke-opacity:1;paint-order:markers fill stroke"
       id="rect1726"
       width="16.800611"
       height="16.800611"
       x="0.59969503"
       y="0.59969503"
       rx="2.1544993"
       ry="2.1544993" />
  </g>
</svg>
