<?xml version="1.0" encoding="UTF-8" standalone="no"?>
<svg
   version="1.1"
   width="18"
   height="18"
   viewBox="0 0 18 18"
   id="svg1714"
   xmlns="http://www.w3.org/2000/svg"
   xmlns:svg="http://www.w3.org/2000/svg">
  <defs
     id="defs1718">
    <rect
       x="32.567797"
       y="-13.805085"
       width="44.389831"
       height="38.898305"
       id="rect2002" />
    <rect
       x="22.5"
       y="-2.2118644"
       width="28.525424"
       height="24.559322"
       id="rect1996" />
    <rect
       x="40.805085"
       y="-10.525424"
       width="65.898305"
       height="40.652542"
       id="rect1990" />
    <rect
       x="39.661017"
       y="-9.1525424"
       width="44.237288"
       height="35.389831"
       id="rect1984" />
    <rect
       x="21.279661"
       y="-2.8983051"
       width="36.228814"
       height="33.330508"
       id="rect1978" />
    <rect
       x="17.313559"
       y="1.9067797"
       width="18.228814"
       height="14.338983"
       id="rect1972" />
    <rect
       x="22.576271"
       y="-1.4491525"
       width="29.516949"
       height="22.957627"
       id="rect1966" />
  </defs>
  <g
     id="g1783"
     transform="translate(-452.85504,-37.644012)">
    <text
       xml:space="preserve"
       transform="translate(452.85504,37.644012)"
       id="text1964"
       style="white-space:pre;shape-inside:url(#rect1966);display:inline;fill:#000000" />
    <text
       xml:space="preserve"
       transform="translate(452.85504,37.644012)"
       id="text1970"
       style="white-space:pre;shape-inside:url(#rect1972);display:inline;fill:#000000" />
    <text
       xml:space="preserve"
       transform="translate(452.85504,37.644012)"
       id="text1976"
       style="white-space:pre;shape-inside:url(#rect1978);display:inline;fill:#000000" />
    <text
       xml:space="preserve"
       transform="translate(452.85504,37.644012)"
       id="text1982"
       style="white-space:pre;shape-inside:url(#rect1984);display:inline;fill:#000000" />
    <text
       xml:space="preserve"
       transform="translate(452.85504,37.644012)"
       id="text1988"
       style="white-space:pre;shape-inside:url(#rect1990);display:inline;fill:#000000" />
  </g>
  <g
     id="g12329">
    <path
       id="text2968"
       style="font-stretch:condensed;font-size:12.3127px;font-family:'Arial Narrow';-inkscape-font-specification:'Arial Narrow Condensed';opacity:0.98;fill:#000000;stroke-width:0.307818;paint-order:markers fill stroke"
       d="m 6.3664012,4.50032 c -0.7575188,0 -1.3783088,0.362436 -1.8632812,1.0878906 -0.4849724,0.7214466 -0.7285156,1.9333033 -0.7285156,3.6367188 0,1.5350776 0.2379892,2.6317446 0.7109375,3.2890626 0.4729483,0.657318 1.0732717,0.986328 1.8027343,0.986328 0.4048117,0 0.7766062,-0.115292 1.1132813,-0.34375 0.3366751,-0.228458 0.6098397,-0.579684 0.8222656,-1.056641 0.216434,-0.480964 0.3261719,-1.016287 0.3261719,-1.605468 0,-0.8697443 -0.2156714,-1.5630418 -0.6445313,-2.0800785 -0.4248518,-0.5210447 -0.9229445,-0.78125 -1.4960937,-0.78125 -0.3446911,0 -0.6718499,0.098426 -0.9804688,0.2988281 C 5.1202824,8.1283544 4.8637799,8.420236 4.65937,8.8050075 4.663378,7.7228377 4.7990347,6.9049915 5.0675731,6.3518825 5.3802,5.7105967 5.794677,5.3889919 6.3117137,5.3889919 c 0.3326671,0 0.6189946,0.1413124 0.8554688,0.421875 0.1643295,0.1923857 0.286925,0.5138887 0.3710937,0.9667968 L 8.4230419,6.6936794 C 8.3428811,5.9802489 8.1161018,5.4375205 7.7433544,5.0647731 7.374615,4.6880177 6.9155022,4.50032 6.3664012,4.50032 Z M 10.292182,4.65657 9.5890575,9.1839137 10.424995,9.3147731 c 0.136273,-0.2685384 0.320268,-0.4767026 0.552734,-0.625 0.236475,-0.1523054 0.489274,-0.2285156 0.757813,-0.2285156 0.444892,0 0.812882,0.1747383 1.105469,0.5234375 0.296594,0.3446911 0.445312,0.8316758 0.445312,1.460937 0,0.669343 -0.15242,1.199112 -0.457031,1.587891 -0.304611,0.384772 -0.667047,0.576172 -1.087891,0.576172 -0.336675,0 -0.63411,-0.135657 -0.890625,-0.408203 -0.252506,-0.276555 -0.414183,-0.694734 -0.486328,-1.25586 l -0.9316405,0.0957 c 0.060121,0.769543 0.3055151,1.371717 0.7343745,1.808593 0.432868,0.432868 0.960684,0.650391 1.585938,0.650391 0.753511,0 1.353936,-0.306692 1.798828,-0.919922 0.4489,-0.617237 0.671875,-1.357022 0.671875,-2.21875 0,-0.8737518 -0.222975,-1.5670493 -0.671875,-2.080078 -0.444892,-0.5170367 -0.970958,-0.7753906 -1.576172,-0.7753906 -0.480964,0 -0.936374,0.183995 -1.365234,0.5527343 l 0.390625,-2.3691406 h 2.880859 V 4.65657 Z M 6.2335887,8.5882106 c 0.3927876,0 0.7255004,0.172887 0.9980469,0.5175781 0.2725465,0.3446912 0.4101563,0.8298245 0.4101563,1.4550783 0,0.637278 -0.1394611,1.137222 -0.4160157,1.501953 -0.2725464,0.364731 -0.5829414,0.546875 -0.9316406,0.546875 -0.3967956,0 -0.7443191,-0.1914 -1.0449219,-0.576172 -0.3006027,-0.388779 -0.4511718,-0.901785 -0.4511718,-1.539062 0,-0.5851737 0.1412106,-1.0479892 0.4257812,-1.3886723 C 5.5124017,8.7610976 5.8488173,8.5882106 6.2335887,8.5882106 Z" />
    <rect
       style="opacity:0.98;fill:none;stroke:#000000;stroke-width:1.19939;stroke-dasharray:none;stroke-opacity:1;paint-order:markers fill stroke"
       id="rect2970"
       width="16.800611"
       height="16.800611"
       x="0.59969503"
       y="0.59969503"
       rx="2.1544993"
       ry="2.1544993" />
  </g>
</svg>
