<?xml version="1.0" encoding="UTF-8" standalone="no"?>
<svg
   version="1.1"
   width="18"
   height="18"
   viewBox="0 0 18 18"
   id="svg1714"
   xmlns="http://www.w3.org/2000/svg"
   xmlns:svg="http://www.w3.org/2000/svg">
  <defs
     id="defs1718">
    <rect
       x="32.567797"
       y="-13.805085"
       width="44.389831"
       height="38.898305"
       id="rect2002" />
    <rect
       x="22.5"
       y="-2.2118644"
       width="28.525424"
       height="24.559322"
       id="rect1996" />
    <rect
       x="40.805085"
       y="-10.525424"
       width="65.898305"
       height="40.652542"
       id="rect1990" />
    <rect
       x="39.661017"
       y="-9.1525424"
       width="44.237288"
       height="35.389831"
       id="rect1984" />
    <rect
       x="21.279661"
       y="-2.8983051"
       width="36.228814"
       height="33.330508"
       id="rect1978" />
    <rect
       x="17.313559"
       y="1.9067797"
       width="18.228814"
       height="14.338983"
       id="rect1972" />
    <rect
       x="22.576271"
       y="-1.4491525"
       width="29.516949"
       height="22.957627"
       id="rect1966" />
  </defs>
  <g
     id="g1783"
     transform="translate(-452.85504,-37.644012)">
    <text
       xml:space="preserve"
       transform="translate(452.85504,37.644012)"
       id="text1964"
       style="white-space:pre;shape-inside:url(#rect1966);display:inline;fill:#000000" />
    <text
       xml:space="preserve"
       transform="translate(452.85504,37.644012)"
       id="text1970"
       style="white-space:pre;shape-inside:url(#rect1972);display:inline;fill:#000000" />
    <text
       xml:space="preserve"
       transform="translate(452.85504,37.644012)"
       id="text1976"
       style="white-space:pre;shape-inside:url(#rect1978);display:inline;fill:#000000" />
    <text
       xml:space="preserve"
       transform="translate(452.85504,37.644012)"
       id="text1982"
       style="white-space:pre;shape-inside:url(#rect1984);display:inline;fill:#000000" />
    <text
       xml:space="preserve"
       transform="translate(452.85504,37.644012)"
       id="text1988"
       style="white-space:pre;shape-inside:url(#rect1990);display:inline;fill:#000000" />
  </g>
  <path
     id="rect2981"
     style="opacity:0.98;fill:#000000;fill-opacity:1;stroke:none;stroke-width:1.28507;stroke-dasharray:none;stroke-opacity:1;paint-order:markers fill stroke"
     d="M 2.30868,0 C 1.0298,0 0,1.02978 0,2.3086 v 13.38274 c 0,1.27884 1.0298,2.30862 2.30868,2.30862 h 13.38279 c 1.27877,0 2.30857,-1.02978 2.30857,-2.30862 V 2.3086 C 18.00004,1.02978 16.97024,0 15.69147,0 Z m 4.05855,4.49989 c 0.5491,0 1.00815,0.18773 1.37696,0.56453 0.3727,0.37274 0.59752,0.91739 0.67773,1.63083 L 7.5391,6.77965 C 7.4549,6.32671 7.33036,6.00324 7.16603,5.8109 6.92962,5.53034 6.64519,5.39094 6.31254,5.39094 5.79548,5.39094 5.38102,5.71061 5.06832,6.35192 4.79985,6.90503 4.66419,7.72288 4.66021,8.80509 4.86459,8.42031 5.12113,8.13031 5.42977,7.93394 5.73836,7.73348 6.06352,7.63315 6.4082,7.63315 c 0.57319,0 1.0732,0.26024 1.49807,0.78124 0.42889,0.51706 0.64261,1.2104 0.64261,2.08006 0,0.58921 -0.10777,1.12458 -0.32423,1.60549 -0.21248,0.47695 -0.48754,0.83016 -0.82419,1.05859 -0.33677,0.22845 -0.70658,0.34177 -1.11138,0.34177 -0.72941,0 -1.33169,-0.32901 -1.80472,-0.98633 -0.4729,-0.65731 -0.709,-1.75395 -0.709,-3.28904 0,-1.70342 0.24361,-2.9153 0.72857,-3.63671 0.485,-0.72543 1.10575,-1.08795 1.8633,-1.08795 z m 3.92571,0.15636 h 3.58794 v 1.03319 h -2.87894 l -0.39058,2.36915 c 0.42881,-0.36881 0.88424,-0.55277 1.36519,-0.55277 0.60526,0 1.12933,0.25842 1.57424,0.77535 0.4489,0.51301 0.67384,1.20634 0.67384,2.08006 0,0.86178 -0.22494,1.60155 -0.67384,2.21884 -0.44491,0.61323 -1.04334,0.91985 -1.79687,0.91985 -0.62522,0 -1.15496,-0.2156 -1.58789,-0.6484 -0.42887,-0.43685 -0.67231,-1.041 -0.73241,-1.81058 l 0.93164,-0.0958 c 0.0726,0.56114 0.23388,0.97935 0.48637,1.25593 0.25646,0.27254 0.55391,0.4081 0.89061,0.4081 0.42084,0 0.78324,-0.19131 1.08788,-0.5761 0.30458,-0.38885 0.45699,-0.91859 0.45699,-1.58789 0,-0.62933 -0.14872,-1.11631 -0.44527,-1.46099 C 12.54929,8.63551 12.18122,8.4627 11.73632,8.4627 c -0.26849,0 -0.52128,0.0745 -0.75777,0.22658 -0.2325,0.14829 -0.41647,0.35836 -0.55274,0.62698 L 9.5899,9.18344 Z M 6.23439,8.58788 c -0.38478,0 -0.72122,0.17287 -1.00973,0.51754 -0.28456,0.3407 -0.4278,0.80351 -0.4278,1.38865 0,0.63729 0.1506,1.15028 0.45121,1.53913 0.30058,0.38479 0.65006,0.5761 1.04682,0.5761 0.34873,0 0.65911,-0.18213 0.93163,-0.54686 0.2766,-0.36476 0.41417,-0.86465 0.41417,-1.50194 0,-0.62529 -0.1357,-1.11044 -0.40823,-1.45508 C 6.95991,8.76075 6.62716,8.58788 6.23439,8.58788 Z" />
</svg>
