<?xml version="1.0" encoding="UTF-8" standalone="no"?>
<svg
   version="1.1"
   width="18"
   height="18"
   viewBox="0 0 18 18"
   id="svg1714"
   xmlns="http://www.w3.org/2000/svg"
   xmlns:svg="http://www.w3.org/2000/svg">
  <defs
     id="defs1718">
    <rect
       x="32.567797"
       y="-13.805085"
       width="44.389831"
       height="38.898305"
       id="rect2002" />
    <rect
       x="22.5"
       y="-2.2118644"
       width="28.525424"
       height="24.559322"
       id="rect1996" />
    <rect
       x="40.805085"
       y="-10.525424"
       width="65.898305"
       height="40.652542"
       id="rect1990" />
    <rect
       x="39.661017"
       y="-9.1525424"
       width="44.237288"
       height="35.389831"
       id="rect1984" />
    <rect
       x="21.279661"
       y="-2.8983051"
       width="36.228814"
       height="33.330508"
       id="rect1978" />
    <rect
       x="17.313559"
       y="1.9067797"
       width="18.228814"
       height="14.338983"
       id="rect1972" />
    <rect
       x="22.576271"
       y="-1.4491525"
       width="29.516949"
       height="22.957627"
       id="rect1966" />
  </defs>
  <g
     id="g1783"
     transform="translate(-452.85504,-37.644012)">
    <text
       xml:space="preserve"
       transform="translate(452.85504,37.644012)"
       id="text1964"
       style="white-space:pre;shape-inside:url(#rect1966);display:inline;fill:#000000" />
    <text
       xml:space="preserve"
       transform="translate(452.85504,37.644012)"
       id="text1970"
       style="white-space:pre;shape-inside:url(#rect1972);display:inline;fill:#000000" />
    <text
       xml:space="preserve"
       transform="translate(452.85504,37.644012)"
       id="text1976"
       style="white-space:pre;shape-inside:url(#rect1978);display:inline;fill:#000000" />
    <text
       xml:space="preserve"
       transform="translate(452.85504,37.644012)"
       id="text1982"
       style="white-space:pre;shape-inside:url(#rect1984);display:inline;fill:#000000" />
    <text
       xml:space="preserve"
       transform="translate(452.85504,37.644012)"
       id="text1988"
       style="white-space:pre;shape-inside:url(#rect1990);display:inline;fill:#000000" />
  </g>
  <g
     id="g9049">
    <path
       id="text1079"
       style="font-stretch:condensed;font-size:12.7381px;font-family:'Arial Narrow';-inkscape-font-specification:'Arial Narrow Condensed';opacity:0.98;fill:#000000;stroke-width:0.318457;paint-order:markers fill stroke"
       d="m 6.58113,4.4998594 v 1.0761718 h 3.65625 C 9.7729706,6.2228872 9.3407636,7.0070679 8.9385519,7.9275937 8.5363401,8.8481196 8.2176316,9.815995 7.9854269,10.831891 7.7573687,11.847786 7.6384914,12.736901 7.6260519,13.499859 H 8.5713644 C 8.6542946,12.023701 8.9693372,10.536053 9.5166769,9.0350156 10.064017,7.5298315 10.697527,6.308065 11.419021,5.3709531 V 4.4998594 Z" />
    <rect
       style="opacity:0.98;fill:none;stroke:#000000;stroke-width:1.19939;stroke-dasharray:0.755616;stroke-dashoffset:0;stroke-opacity:1;paint-order:markers fill stroke"
       id="rect1092"
       width="16.800611"
       height="16.800611"
       x="0.59969503"
       y="0.59969503"
       rx="2.1544993"
       ry="2.1544993" />
  </g>
</svg>
