<?xml version="1.0" encoding="UTF-8" standalone="no"?>
<svg
   version="1.1"
   width="18"
   height="18"
   viewBox="0 0 18 18"
   id="svg1714"
   xmlns="http://www.w3.org/2000/svg"
   xmlns:svg="http://www.w3.org/2000/svg">
  <defs
     id="defs1718">
    <rect
       x="32.567797"
       y="-13.805085"
       width="44.389831"
       height="38.898305"
       id="rect2002" />
    <rect
       x="22.5"
       y="-2.2118644"
       width="28.525424"
       height="24.559322"
       id="rect1996" />
    <rect
       x="40.805085"
       y="-10.525424"
       width="65.898305"
       height="40.652542"
       id="rect1990" />
    <rect
       x="39.661017"
       y="-9.1525424"
       width="44.237288"
       height="35.389831"
       id="rect1984" />
    <rect
       x="21.279661"
       y="-2.8983051"
       width="36.228814"
       height="33.330508"
       id="rect1978" />
    <rect
       x="17.313559"
       y="1.9067797"
       width="18.228814"
       height="14.338983"
       id="rect1972" />
    <rect
       x="22.576271"
       y="-1.4491525"
       width="29.516949"
       height="22.957627"
       id="rect1966" />
  </defs>
  <g
     id="g1783"
     transform="translate(-452.85504,-37.644012)">
    <text
       xml:space="preserve"
       transform="translate(452.85504,37.644012)"
       id="text1964"
       style="white-space:pre;shape-inside:url(#rect1966);display:inline;fill:#000000" />
    <text
       xml:space="preserve"
       transform="translate(452.85504,37.644012)"
       id="text1970"
       style="white-space:pre;shape-inside:url(#rect1972);display:inline;fill:#000000" />
    <text
       xml:space="preserve"
       transform="translate(452.85504,37.644012)"
       id="text1976"
       style="white-space:pre;shape-inside:url(#rect1978);display:inline;fill:#000000" />
    <text
       xml:space="preserve"
       transform="translate(452.85504,37.644012)"
       id="text1982"
       style="white-space:pre;shape-inside:url(#rect1984);display:inline;fill:#000000" />
    <text
       xml:space="preserve"
       transform="translate(452.85504,37.644012)"
       id="text1988"
       style="white-space:pre;shape-inside:url(#rect1990);display:inline;fill:#000000" />
  </g>
  <g
     id="g8048"
     transform="translate(3.93816e-7,4.6267516e-5)">
    <path
       id="text1783"
       style="font-stretch:condensed;font-size:12.3132px;font-family:'Arial Narrow';-inkscape-font-specification:'Arial Narrow Condensed';opacity:0.98;fill:#000000;stroke-width:0.307816;paint-order:markers fill stroke"
       d="m 11.782751,4.5002843 c -0.77759,-10e-8 -1.366758,0.3810202 -1.767578,1.1425781 -0.3968116,0.7615578 -0.5937499,1.8823026 -0.5937499,3.3613281 0,1.6513785 0.2174032,2.8129505 0.6542969,3.4863285 0.440902,0.673377 1.005902,1.009765 1.695313,1.009765 0.781598,0 1.370766,-0.38102 1.767578,-1.142578 0.396811,-0.765566 0.595703,-1.882506 0.595703,-3.3535155 0,-1.6393534 -0.239719,-2.8326 -0.720703,-3.578125 -0.396812,-0.6172627 -0.94145,-0.9257813 -1.63086,-0.9257812 z M 3.8647825,4.6506749 V 5.6897374 H 7.3999388 C 6.9510204,6.3150164 6.5328747,7.0733547 6.1440794,7.9631749 5.7552841,8.8529951 5.4486167,9.7897598 5.2241575,10.771769 5.0037065,11.753777 4.8885258,12.612385 4.8765013,13.349894 H 5.7886106 C 5.8687746,11.922975 6.1735908,10.484455 6.7026731,9.0334874 7.2317554,7.5785111 7.8450902,6.3983248 8.5425169,5.4924718 V 4.6506749 Z m 7.8769535,0.7460937 c 0.436893,0 0.791895,0.2415704 1.064453,0.7265625 0.276565,0.4849921 0.414062,1.4459241 0.414062,2.8808594 0,1.4189025 -0.135645,2.3741795 -0.408203,2.8671875 -0.272557,0.493008 -0.610797,0.738281 -1.015625,0.738281 -0.428877,0 -0.782028,-0.24157 -1.058594,-0.726562 -0.272557,-0.489001 -0.408203,-1.447979 -0.408203,-2.8789065 0,-1.4189025 0.133795,-2.3761321 0.402344,-2.8691406 0.272558,-0.4930085 0.608946,-0.7382813 1.009766,-0.7382813 z" />
    <ellipse
       style="fill:none;fill-opacity:1;stroke:#000000;stroke-width:1.19928;stroke-dasharray:0.755549;stroke-dashoffset:0;stroke-opacity:1"
       id="ellipse1785"
       cx="8.9999857"
       cy="9.004199"
       rx="8.4002981"
       ry="8.4045572" />
  </g>
</svg>
