<?xml version="1.0" encoding="UTF-8" standalone="no"?>
<svg
   version="1.1"
   width="18"
   height="18"
   viewBox="0 0 18 18"
   id="svg1714"
   xmlns="http://www.w3.org/2000/svg"
   xmlns:svg="http://www.w3.org/2000/svg">
  <defs
     id="defs1718">
    <rect
       x="32.567797"
       y="-13.805085"
       width="44.389831"
       height="38.898305"
       id="rect2002" />
    <rect
       x="22.5"
       y="-2.2118644"
       width="28.525424"
       height="24.559322"
       id="rect1996" />
    <rect
       x="40.805085"
       y="-10.525424"
       width="65.898305"
       height="40.652542"
       id="rect1990" />
    <rect
       x="39.661017"
       y="-9.1525424"
       width="44.237288"
       height="35.389831"
       id="rect1984" />
    <rect
       x="21.279661"
       y="-2.8983051"
       width="36.228814"
       height="33.330508"
       id="rect1978" />
    <rect
       x="17.313559"
       y="1.9067797"
       width="18.228814"
       height="14.338983"
       id="rect1972" />
    <rect
       x="22.576271"
       y="-1.4491525"
       width="29.516949"
       height="22.957627"
       id="rect1966" />
  </defs>
  <g
     id="g1783"
     transform="translate(-452.85504,-37.644012)">
    <text
       xml:space="preserve"
       transform="translate(452.85504,37.644012)"
       id="text1964"
       style="white-space:pre;shape-inside:url(#rect1966);display:inline;fill:#000000" />
    <text
       xml:space="preserve"
       transform="translate(452.85504,37.644012)"
       id="text1970"
       style="white-space:pre;shape-inside:url(#rect1972);display:inline;fill:#000000" />
    <text
       xml:space="preserve"
       transform="translate(452.85504,37.644012)"
       id="text1976"
       style="white-space:pre;shape-inside:url(#rect1978);display:inline;fill:#000000" />
    <text
       xml:space="preserve"
       transform="translate(452.85504,37.644012)"
       id="text1982"
       style="white-space:pre;shape-inside:url(#rect1984);display:inline;fill:#000000" />
    <text
       xml:space="preserve"
       transform="translate(452.85504,37.644012)"
       id="text1988"
       style="white-space:pre;shape-inside:url(#rect1990);display:inline;fill:#000000" />
    <g
       id="g4048"
       transform="translate(-71.121278,4.1355284)">
      <circle
         style="fill:none;fill-opacity:1;stroke:#000000;stroke-width:1.19912;stroke-dasharray:none;stroke-opacity:1"
         id="circle861"
         cx="532.97632"
         cy="42.508484"
         r="8.4004402" />
      <path
         id="text865"
         style="font-stretch:condensed;font-size:12.3129px;font-family:'Arial Narrow';-inkscape-font-specification:'Arial Narrow Condensed';opacity:0.98;fill:#000000;stroke-width:0.307823;paint-order:markers fill stroke"
         d="m 535.74712,38.008709 c -0.77757,0 -1.36672,0.381066 -1.76753,1.142605 -0.39681,0.761539 -0.59569,1.882418 -0.59569,3.361407 0,1.651338 0.21935,2.81305 0.65623,3.486411 0.44089,0.673361 1.00588,1.009789 1.69527,1.009789 0.78158,0 1.37074,-0.381066 1.76754,-1.142605 0.3968,-0.765547 0.59569,-1.882622 0.59569,-3.353595 0,-1.639313 -0.24167,-2.832702 -0.72264,-3.578209 -0.3968,-0.617248 -0.93947,-0.925803 -1.62887,-0.925803 z m -7.91778,0.150394 v 1.04104 h 3.53507 c -0.4489,0.625264 -0.86704,1.38174 -1.25583,2.271538 -0.38878,0.889799 -0.69544,1.826675 -0.9199,2.80866 -0.22044,0.981985 -0.33757,1.840695 -0.3496,2.578186 h 0.91404 c 0.0802,-1.426884 0.38497,-2.865576 0.91404,-4.316508 0.52907,-1.454941 1.14239,-2.635268 1.8398,-3.541099 v -0.841817 z m 7.87677,0.746111 c 0.43688,0 0.78992,0.2416 1.06247,0.72658 0.27656,0.48498 0.41601,1.446027 0.41601,2.880927 0,1.418868 -0.13564,2.374259 -0.4082,2.867255 -0.27255,0.492997 -0.61273,0.740252 -1.01755,0.740252 -0.42887,0 -0.78006,-0.243552 -1.05662,-0.728533 -0.27255,-0.488988 -0.41014,-1.448082 -0.41014,-2.878974 0,-1.418868 0.13379,-2.374258 0.40233,-2.867255 0.27255,-0.492996 0.61089,-0.740252 1.0117,-0.740252 z"
         transform="scale(1.0000236,0.99997642)" />
    </g>
  </g>
</svg>
