<?xml version="1.0" encoding="UTF-8" standalone="no"?>
<svg
   version="1.1"
   width="18"
   height="18"
   viewBox="0 0 18 18"
   id="svg1714"
   xmlns="http://www.w3.org/2000/svg"
   xmlns:svg="http://www.w3.org/2000/svg">
  <defs
     id="defs1718">
    <rect
       x="32.567797"
       y="-13.805085"
       width="44.389831"
       height="38.898305"
       id="rect2002" />
    <rect
       x="22.5"
       y="-2.2118644"
       width="28.525424"
       height="24.559322"
       id="rect1996" />
    <rect
       x="40.805085"
       y="-10.525424"
       width="65.898305"
       height="40.652542"
       id="rect1990" />
    <rect
       x="39.661017"
       y="-9.1525424"
       width="44.237288"
       height="35.389831"
       id="rect1984" />
    <rect
       x="21.279661"
       y="-2.8983051"
       width="36.228814"
       height="33.330508"
       id="rect1978" />
    <rect
       x="17.313559"
       y="1.9067797"
       width="18.228814"
       height="14.338983"
       id="rect1972" />
    <rect
       x="22.576271"
       y="-1.4491525"
       width="29.516949"
       height="22.957627"
       id="rect1966" />
  </defs>
  <g
     id="g1783"
     transform="translate(-452.85504,-37.644012)">
    <text
       xml:space="preserve"
       transform="translate(452.85504,37.644012)"
       id="text1964"
       style="white-space:pre;shape-inside:url(#rect1966);display:inline;fill:#000000" />
    <text
       xml:space="preserve"
       transform="translate(452.85504,37.644012)"
       id="text1970"
       style="white-space:pre;shape-inside:url(#rect1972);display:inline;fill:#000000" />
    <text
       xml:space="preserve"
       transform="translate(452.85504,37.644012)"
       id="text1976"
       style="white-space:pre;shape-inside:url(#rect1978);display:inline;fill:#000000" />
    <text
       xml:space="preserve"
       transform="translate(452.85504,37.644012)"
       id="text1982"
       style="white-space:pre;shape-inside:url(#rect1984);display:inline;fill:#000000" />
    <text
       xml:space="preserve"
       transform="translate(452.85504,37.644012)"
       id="text1988"
       style="white-space:pre;shape-inside:url(#rect1990);display:inline;fill:#000000" />
  </g>
  <path
     id="circle494"
     style="fill:#000000;fill-opacity:1;stroke:none;stroke-width:1.04984;stroke-dasharray:none"
     d="M 9.00002,0 A 8.9999995,8.9999997 0 0 0 0,8.999991 8.9999995,8.9999997 0 0 0 9.00002,17.999997 8.9999995,8.9999997 0 0 0 17.99999,8.999991 8.9999995,8.9999997 0 0 0 9.00002,0 Z m 2.78321,4.49999 c 0.68941,0 1.23205,0.30855 1.62883,0.92579 0.48103,0.74549 0.72277,1.938849 0.72277,3.57812 0,1.470943 -0.19892,2.587988 -0.59576,3.353514 -0.39684,0.761524 -0.98598,1.14258 -1.76762,1.14258 -0.68935,0 -1.25436,-0.336415 -1.69529,-1.009764 C 9.63928,11.816883 9.41992,10.655198 9.41992,9.0039 c 0,-1.478956 0.19892,-2.599808 0.5957,-3.36133 0.40082,-0.76153 0.98997,-1.14258 1.76761,-1.14258 z M 3.86522,4.65038 H 8.54296 V 5.49219 C 7.84557,6.397989 7.23225,7.578295 6.70312,9.033198 6.17407,10.484091 5.86928,11.922755 5.78908,13.349605 H 4.87501 C 4.88711,12.612137 5.0042,11.753441 5.22461,10.77148 5.44914,9.789523 5.75581,8.852666 6.14453,7.962885 6.53333,7.073109 6.95143,6.314696 7.40047,5.68945 H 3.86522 Z m 7.87697,0.7461 c -0.40076,0 -0.73724,0.2453 -1.00979,0.73828 -0.26849,0.492985 -0.40428,1.450308 -0.40428,2.86914 0,1.430854 0.13766,2.389933 0.41021,2.878908 0.27659,0.484965 0.62767,0.72656 1.05663,0.72656 0.40483,0 0.74496,-0.245295 1.01751,-0.738281 0.27255,-0.49298 0.40823,-1.44835 0.40823,-2.867187 0,-1.434865 -0.13755,-2.39589 -0.41403,-2.880859 C 12.53406,5.63808 12.17913,5.39648 11.74219,5.39648 Z" />
</svg>
