<?xml version="1.0" encoding="UTF-8" standalone="no"?>
<svg
   version="1.1"
   width="18"
   height="18"
   viewBox="0 0 18 18"
   id="svg1714"
   xmlns="http://www.w3.org/2000/svg"
   xmlns:svg="http://www.w3.org/2000/svg">
  <defs
     id="defs1718">
    <rect
       x="32.567797"
       y="-13.805085"
       width="44.389831"
       height="38.898305"
       id="rect2002" />
    <rect
       x="22.5"
       y="-2.2118644"
       width="28.525424"
       height="24.559322"
       id="rect1996" />
    <rect
       x="40.805085"
       y="-10.525424"
       width="65.898305"
       height="40.652542"
       id="rect1990" />
    <rect
       x="39.661017"
       y="-9.1525424"
       width="44.237288"
       height="35.389831"
       id="rect1984" />
    <rect
       x="21.279661"
       y="-2.8983051"
       width="36.228814"
       height="33.330508"
       id="rect1978" />
    <rect
       x="17.313559"
       y="1.9067797"
       width="18.228814"
       height="14.338983"
       id="rect1972" />
    <rect
       x="22.576271"
       y="-1.4491525"
       width="29.516949"
       height="22.957627"
       id="rect1966" />
  </defs>
  <g
     id="g1783"
     transform="translate(-452.85504,-37.644012)">
    <text
       xml:space="preserve"
       transform="translate(452.85504,37.644012)"
       id="text1964"
       style="white-space:pre;shape-inside:url(#rect1966);display:inline;fill:#000000" />
    <text
       xml:space="preserve"
       transform="translate(452.85504,37.644012)"
       id="text1970"
       style="white-space:pre;shape-inside:url(#rect1972);display:inline;fill:#000000" />
    <text
       xml:space="preserve"
       transform="translate(452.85504,37.644012)"
       id="text1976"
       style="white-space:pre;shape-inside:url(#rect1978);display:inline;fill:#000000" />
    <text
       xml:space="preserve"
       transform="translate(452.85504,37.644012)"
       id="text1982"
       style="white-space:pre;shape-inside:url(#rect1984);display:inline;fill:#000000" />
    <text
       xml:space="preserve"
       transform="translate(452.85504,37.644012)"
       id="text1988"
       style="white-space:pre;shape-inside:url(#rect1990);display:inline;fill:#000000" />
  </g>
  <g
     id="g12406">
    <path
       id="text4011"
       style="font-stretch:condensed;font-size:12.3129px;font-family:'Arial Narrow';-inkscape-font-specification:'Arial Narrow Condensed';opacity:0.98;fill:#000000;stroke-width:0.307823;paint-order:markers fill stroke"
       d="m 11.784097,4.5004261 c -0.777572,0 -1.366726,0.3810658 -1.767537,1.142605 -0.3968015,0.7615393 -0.5956886,1.8804648 -0.5956886,3.3594542 0,1.6513377 0.2173984,2.8150027 0.6542816,3.4883637 0.440891,0.673361 1.005879,1.009789 1.695272,1.009789 0.78158,0 1.372688,-0.381066 1.76949,-1.142605 0.396802,-0.765547 0.593736,-1.884574 0.593736,-3.3555477 0,-1.6393134 -0.239714,-2.8307493 -0.720686,-3.5762562 C 13.016163,4.8089815 12.47349,4.5004261 11.784097,4.5004261 Z M 3.866315,4.6508202 v 1.039087 H 7.4013878 C 6.9524805,6.315171 6.5323908,7.0735998 6.143605,7.9633983 5.7548192,8.8531968 5.4481585,9.7881203 5.2237048,10.770105 5.0032593,11.75209 4.8880811,12.612753 4.8760568,13.350244 H 5.7900977 C 5.8702598,11.92336 6.1731162,10.484669 6.7021856,9.0337361 7.231255,7.5787953 7.8445763,6.3984679 8.5419859,5.492637 V 4.6508202 Z m 7.874814,0.7441582 c 0.436883,0 0.791877,0.2435525 1.064428,0.7285328 0.276559,0.4849803 0.414053,1.4440738 0.414053,2.8789741 0,1.4188677 -0.135643,2.3762117 -0.408194,2.8692087 -0.27255,0.492996 -0.610782,0.738298 -1.015601,0.738298 -0.428866,0 -0.782009,-0.241599 -1.058568,-0.726579 -0.272551,-0.488989 -0.408194,-1.450036 -0.408194,-2.8809277 0,-1.4188679 0.133792,-2.3742586 0.402334,-2.8672551 0.272551,-0.4929964 0.608932,-0.7402518 1.009742,-0.7402518 z"
       transform="scale(1.0000236,0.99997643)" />
    <rect
       style="opacity:0.98;fill:none;stroke:#000000;stroke-width:1.19939;stroke-dasharray:none;stroke-opacity:1;paint-order:markers fill stroke"
       id="rect4013"
       width="16.800611"
       height="16.800611"
       x="0.59969503"
       y="0.59969503"
       rx="2.1544993"
       ry="2.1544993" />
  </g>
</svg>
