<?xml version="1.0" encoding="UTF-8" standalone="no"?>
<svg
   version="1.1"
   width="18"
   height="18"
   viewBox="0 0 18 18"
   id="svg1714"
   xmlns="http://www.w3.org/2000/svg"
   xmlns:svg="http://www.w3.org/2000/svg">
  <defs
     id="defs1718">
    <rect
       x="32.567797"
       y="-13.805085"
       width="44.389831"
       height="38.898305"
       id="rect2002" />
    <rect
       x="22.5"
       y="-2.2118644"
       width="28.525424"
       height="24.559322"
       id="rect1996" />
    <rect
       x="40.805085"
       y="-10.525424"
       width="65.898305"
       height="40.652542"
       id="rect1990" />
    <rect
       x="39.661017"
       y="-9.1525424"
       width="44.237288"
       height="35.389831"
       id="rect1984" />
    <rect
       x="21.279661"
       y="-2.8983051"
       width="36.228814"
       height="33.330508"
       id="rect1978" />
    <rect
       x="17.313559"
       y="1.9067797"
       width="18.228814"
       height="14.338983"
       id="rect1972" />
    <rect
       x="22.576271"
       y="-1.4491525"
       width="29.516949"
       height="22.957627"
       id="rect1966" />
  </defs>
  <g
     id="g1783"
     transform="translate(-452.85504,-37.644012)">
    <text
       xml:space="preserve"
       transform="translate(452.85504,37.644012)"
       id="text1964"
       style="white-space:pre;shape-inside:url(#rect1966);display:inline;fill:#000000" />
    <text
       xml:space="preserve"
       transform="translate(452.85504,37.644012)"
       id="text1970"
       style="white-space:pre;shape-inside:url(#rect1972);display:inline;fill:#000000" />
    <text
       xml:space="preserve"
       transform="translate(452.85504,37.644012)"
       id="text1976"
       style="white-space:pre;shape-inside:url(#rect1978);display:inline;fill:#000000" />
    <text
       xml:space="preserve"
       transform="translate(452.85504,37.644012)"
       id="text1982"
       style="white-space:pre;shape-inside:url(#rect1984);display:inline;fill:#000000" />
    <text
       xml:space="preserve"
       transform="translate(452.85504,37.644012)"
       id="text1988"
       style="white-space:pre;shape-inside:url(#rect1990);display:inline;fill:#000000" />
  </g>
  <path
     id="rect4020"
     style="opacity:0.98;fill:#000000;fill-opacity:1;stroke:none;stroke-width:1.28507;stroke-dasharray:none;stroke-opacity:1;paint-order:markers fill stroke"
     d="M 2.30868,0 C 1.02986,0 0,1.02978 0,2.3086 v 13.38274 c 0,1.27884 1.02986,2.30862 2.30868,2.30862 h 13.38279 c 1.27884,0 2.30856,-1.02978 2.30856,-2.30862 V 2.3086 C 18.00003,1.02978 16.97031,0 15.69147,0 Z m 9.4746,4.49989 c 0.68941,0 1.23204,0.30865 1.62888,0.92586 0.48097,0.7455 0.72265,1.93885 0.72265,3.57814 0,1.47091 -0.19886,2.58796 -0.59562,3.35347 -0.3969,0.76147 -0.98599,1.14256 -1.76763,1.14256 -0.68941,0 -1.25448,-0.33639 -1.69534,-1.00973 -0.43693,-0.67328 -0.6563,-1.83508 -0.6563,-3.4863 0,-1.47896 0.1989,-2.59983 0.59574,-3.36131 0.4009,-0.76152 0.99004,-1.14269 1.76762,-1.14269 z M 3.86534,4.65033 H 8.54302 V 5.4921 C 7.84563,6.39798 7.23224,7.57826 6.70317,9.03316 6.17412,10.48404 5.86933,11.92275 5.78912,13.34963 H 4.87501 C 4.88721,12.61205 5.0042,11.75338 5.22466,10.77145 5.44914,9.78954 5.75579,8.85262 6.14465,7.96286 6.53338,7.07312 6.95154,6.31462 7.40046,5.68944 H 3.86534 Z m 7.87691,0.74605 c -0.40084,0 -0.73719,0.24539 -1.00979,0.73839 -0.26856,0.49298 -0.40423,1.45022 -0.40423,2.86912 0,1.43082 0.13754,2.3899 0.41009,2.87889 0.27659,0.48497 0.6278,0.72652 1.05669,0.72652 0.40478,0 0.74497,-0.24519 1.01757,-0.73818 0.27255,-0.49298 0.40817,-1.44846 0.40817,-2.86723 0,-1.43494 -0.13749,-2.39591 -0.41403,-2.88085 -0.27254,-0.48499 -0.6276,-0.72666 -1.06447,-0.72666 z" />
</svg>
