<?xml version="1.0" encoding="UTF-8" standalone="no"?>
<svg
   version="1.1"
   width="18"
   height="18"
   viewBox="0 0 18 18"
   id="svg1714"
   xmlns="http://www.w3.org/2000/svg"
   xmlns:svg="http://www.w3.org/2000/svg">
  <defs
     id="defs1718">
    <rect
       x="32.567797"
       y="-13.805085"
       width="44.389831"
       height="38.898305"
       id="rect2002" />
    <rect
       x="22.5"
       y="-2.2118644"
       width="28.525424"
       height="24.559322"
       id="rect1996" />
    <rect
       x="40.805085"
       y="-10.525424"
       width="65.898305"
       height="40.652542"
       id="rect1990" />
    <rect
       x="39.661017"
       y="-9.1525424"
       width="44.237288"
       height="35.389831"
       id="rect1984" />
    <rect
       x="21.279661"
       y="-2.8983051"
       width="36.228814"
       height="33.330508"
       id="rect1978" />
    <rect
       x="17.313559"
       y="1.9067797"
       width="18.228814"
       height="14.338983"
       id="rect1972" />
    <rect
       x="22.576271"
       y="-1.4491525"
       width="29.516949"
       height="22.957627"
       id="rect1966" />
  </defs>
  <g
     id="g1783"
     transform="translate(-452.85504,-37.644012)">
    <text
       xml:space="preserve"
       transform="translate(452.85504,37.644012)"
       id="text1964"
       style="white-space:pre;shape-inside:url(#rect1966);display:inline;fill:#000000" />
    <text
       xml:space="preserve"
       transform="translate(452.85504,37.644012)"
       id="text1970"
       style="white-space:pre;shape-inside:url(#rect1972);display:inline;fill:#000000" />
    <text
       xml:space="preserve"
       transform="translate(452.85504,37.644012)"
       id="text1976"
       style="white-space:pre;shape-inside:url(#rect1978);display:inline;fill:#000000" />
    <text
       xml:space="preserve"
       transform="translate(452.85504,37.644012)"
       id="text1982"
       style="white-space:pre;shape-inside:url(#rect1984);display:inline;fill:#000000" />
    <text
       xml:space="preserve"
       transform="translate(452.85504,37.644012)"
       id="text1988"
       style="white-space:pre;shape-inside:url(#rect1990);display:inline;fill:#000000" />
  </g>
  <g
     id="g10237">
    <path
       id="text1779"
       style="font-stretch:condensed;font-size:12.3132px;font-family:'Arial Narrow';-inkscape-font-specification:'Arial Narrow Condensed';opacity:0.98;fill:#000000;stroke-width:0.307816;paint-order:markers fill stroke"
       d="m 11.783598,4.5004049 c -0.777591,0 -1.366758,0.3810203 -1.767578,1.1425781 -0.3968117,0.7615578 -0.5957031,1.8803495 -0.5957031,3.359375 0,1.651378 0.2193563,2.814904 0.6562501,3.488281 0.440902,0.673378 1.005902,1.009766 1.695312,1.009766 0.781599,0 1.370767,-0.38102 1.767579,-1.142578 0.396811,-0.765566 0.595703,-1.88446 0.595703,-3.355469 0,-1.6393534 -0.241673,-2.8306468 -0.722657,-3.5761719 C 13.015693,4.8089235 12.473008,4.5004049 11.783598,4.5004049 Z M 3.8656294,4.6507955 V 5.689858 H 7.4007856 C 6.9518673,6.3151371 6.5337216,7.0734753 6.1449263,7.9632955 5.7561309,8.8531157 5.4494635,9.7879273 5.2250044,10.769936 5.0045534,11.751945 4.8874196,12.612506 4.875395,13.350014 H 5.7894575 C 5.8696215,11.923095 6.1744377,10.484576 6.70352,9.033608 7.2326023,7.5786317 7.8459371,6.3984454 8.5433638,5.4925924 V 4.6507955 Z m 7.8769536,0.7441406 c 0.436893,0 0.789942,0.2435236 1.0625,0.7285157 0.276565,0.484992 0.416015,1.4439709 0.416015,2.8789062 0,1.418902 -0.137599,2.376132 -0.410156,2.869141 -0.272558,0.493008 -0.610797,0.738281 -1.015625,0.738281 -0.428877,0 -0.782028,-0.241571 -1.058594,-0.726563 -0.272557,-0.489 -0.408203,-1.449932 -0.408203,-2.880859 0,-1.4189025 0.133794,-2.374179 0.402344,-2.8671875 0.272557,-0.4930085 0.610899,-0.7402344 1.011719,-0.7402344 z" />
    <rect
       style="opacity:0.98;fill:none;stroke:#000000;stroke-width:1.19939;stroke-dasharray:0.755616;stroke-dashoffset:0;stroke-opacity:1;paint-order:markers fill stroke"
       id="rect1792"
       width="16.800611"
       height="16.800611"
       x="0.59969503"
       y="0.59969503"
       rx="2.1544993"
       ry="2.1544993" />
  </g>
</svg>
