<?xml version="1.0" encoding="UTF-8" standalone="no"?>
<svg
   version="1.1"
   width="18"
   height="18"
   viewBox="0 0 18 18"
   id="svg1714"
   xmlns="http://www.w3.org/2000/svg"
   xmlns:svg="http://www.w3.org/2000/svg">
  <defs
     id="defs1718">
    <rect
       x="32.567797"
       y="-13.805085"
       width="44.389831"
       height="38.898305"
       id="rect2002" />
    <rect
       x="22.5"
       y="-2.2118644"
       width="28.525424"
       height="24.559322"
       id="rect1996" />
    <rect
       x="40.805085"
       y="-10.525424"
       width="65.898305"
       height="40.652542"
       id="rect1990" />
    <rect
       x="39.661017"
       y="-9.1525424"
       width="44.237288"
       height="35.389831"
       id="rect1984" />
    <rect
       x="21.279661"
       y="-2.8983051"
       width="36.228814"
       height="33.330508"
       id="rect1978" />
    <rect
       x="17.313559"
       y="1.9067797"
       width="18.228814"
       height="14.338983"
       id="rect1972" />
    <rect
       x="22.576271"
       y="-1.4491525"
       width="29.516949"
       height="22.957627"
       id="rect1966" />
  </defs>
  <g
     id="g1783"
     transform="translate(-452.85504,-37.644012)">
    <text
       xml:space="preserve"
       transform="translate(452.85504,37.644012)"
       id="text1964"
       style="white-space:pre;shape-inside:url(#rect1966);display:inline;fill:#000000" />
    <text
       xml:space="preserve"
       transform="translate(452.85504,37.644012)"
       id="text1970"
       style="white-space:pre;shape-inside:url(#rect1972);display:inline;fill:#000000" />
    <text
       xml:space="preserve"
       transform="translate(452.85504,37.644012)"
       id="text1976"
       style="white-space:pre;shape-inside:url(#rect1978);display:inline;fill:#000000" />
    <text
       xml:space="preserve"
       transform="translate(452.85504,37.644012)"
       id="text1982"
       style="white-space:pre;shape-inside:url(#rect1984);display:inline;fill:#000000" />
    <text
       xml:space="preserve"
       transform="translate(452.85504,37.644012)"
       id="text1988"
       style="white-space:pre;shape-inside:url(#rect1990);display:inline;fill:#000000" />
  </g>
  <g
     id="g8125"
     transform="translate(3.93816e-7,4.6267516e-5)">
    <path
       id="text1824"
       style="font-stretch:condensed;font-size:12.5214px;font-family:'Arial Narrow';-inkscape-font-specification:'Arial Narrow Condensed';opacity:0.98;fill:#000000;stroke-width:0.313045;paint-order:markers fill stroke"
       d="M 3.7398773,4.4996909 V 5.5582737 H 7.3336644 C 6.8771554,6.1941255 6.4516768,6.9639309 6.0563074,7.8687968 5.6609381,8.7736628 5.3490054,9.7256229 5.1207509,10.724236 4.8965724,11.722849 4.7775064,12.597277 4.7652785,13.347256 H 5.6949756 C 5.776495,11.89621 6.0866443,10.432178 6.6246727,8.9566762 7.1627011,7.4770982 7.7865665,6.2763207 8.4957857,5.3551508 V 4.4996909 Z m 6.5235047,0.00586 -0.7168042,4.6034682 0.8496182,0.1347643 c 0.138583,-0.2730902 0.326099,-0.4839481 0.562506,-0.6347591 0.240482,-0.154887 0.498402,-0.2324195 0.771492,-0.2324195 0.452433,0 0.827466,0.1766349 1.125012,0.5312445 0.301622,0.3505337 0.453129,0.8463851 0.453129,1.4863127 0,0.680688 -0.155074,1.217896 -0.464848,1.613265 -0.309774,0.391293 -0.679456,0.587885 -1.107434,0.587885 -0.342381,0 -0.643443,-0.138846 -0.904306,-0.416012 -0.256786,-0.281242 -0.422731,-0.706694 -0.496099,-1.27733 l -0.947275,0.09766 c 0.06114,0.782587 0.3099724,1.395544 0.746101,1.839825 0.440206,0.440205 0.977447,0.660149 1.613298,0.660149 0.766283,0 1.375711,-0.311913 1.828144,-0.935537 0.456509,-0.6277 0.685554,-1.379502 0.685554,-2.255836 0,-0.8885625 -0.229045,-1.5934886 -0.685554,-2.1152131 -0.452433,-0.5258004 -0.986107,-0.7890543 -1.601579,-0.7890543 -0.489117,0 -0.950604,0.1875047 -1.386733,0.5624942 l 0.396489,-2.4081784 h 2.927764 V 4.5055502 Z"
       transform="scale(0.99998969,1.0000103)" />
    <ellipse
       style="fill:none;fill-opacity:1;stroke:#000000;stroke-width:1.19928;stroke-dasharray:0.755549;stroke-dashoffset:0;stroke-opacity:1"
       id="ellipse1826"
       cx="8.9999857"
       cy="9.004199"
       rx="8.4002981"
       ry="8.4045572" />
  </g>
</svg>
