<?xml version="1.0" encoding="UTF-8" standalone="no"?>
<svg
   version="1.1"
   width="18"
   height="18"
   viewBox="0 0 18 18"
   id="svg1714"
   xmlns="http://www.w3.org/2000/svg"
   xmlns:svg="http://www.w3.org/2000/svg">
  <defs
     id="defs1718">
    <rect
       x="32.567797"
       y="-13.805085"
       width="44.389831"
       height="38.898305"
       id="rect2002" />
    <rect
       x="22.5"
       y="-2.2118644"
       width="28.525424"
       height="24.559322"
       id="rect1996" />
    <rect
       x="40.805085"
       y="-10.525424"
       width="65.898305"
       height="40.652542"
       id="rect1990" />
    <rect
       x="39.661017"
       y="-9.1525424"
       width="44.237288"
       height="35.389831"
       id="rect1984" />
    <rect
       x="21.279661"
       y="-2.8983051"
       width="36.228814"
       height="33.330508"
       id="rect1978" />
    <rect
       x="17.313559"
       y="1.9067797"
       width="18.228814"
       height="14.338983"
       id="rect1972" />
    <rect
       x="22.576271"
       y="-1.4491525"
       width="29.516949"
       height="22.957627"
       id="rect1966" />
  </defs>
  <g
     id="g1783"
     transform="translate(-452.85504,-37.644012)">
    <text
       xml:space="preserve"
       transform="translate(452.85504,37.644012)"
       id="text1964"
       style="white-space:pre;shape-inside:url(#rect1966);display:inline;fill:#000000" />
    <text
       xml:space="preserve"
       transform="translate(452.85504,37.644012)"
       id="text1970"
       style="white-space:pre;shape-inside:url(#rect1972);display:inline;fill:#000000" />
    <text
       xml:space="preserve"
       transform="translate(452.85504,37.644012)"
       id="text1976"
       style="white-space:pre;shape-inside:url(#rect1978);display:inline;fill:#000000" />
    <text
       xml:space="preserve"
       transform="translate(452.85504,37.644012)"
       id="text1982"
       style="white-space:pre;shape-inside:url(#rect1984);display:inline;fill:#000000" />
    <text
       xml:space="preserve"
       transform="translate(452.85504,37.644012)"
       id="text1988"
       style="white-space:pre;shape-inside:url(#rect1990);display:inline;fill:#000000" />
  </g>
  <path
     id="circle501"
     style="fill:#000000;fill-opacity:1;stroke:none;stroke-width:1.04984;stroke-dasharray:none"
     d="M 8.99995,0 A 8.9999995,8.9999997 0 0 0 0,8.999991 8.9999995,8.9999997 0 0 0 8.99995,17.999997 8.9999995,8.9999997 0 0 0 17.99997,8.999991 8.9999995,8.9999997 0 0 0 8.99995,0 Z M 3.73826,4.49999 h 4.7578 V 5.35546 C 7.78681,6.276659 7.16297,7.477405 6.62498,8.957032 6.08694,10.432563 5.77677,11.896568 5.69531,13.347649 H 4.76564 C 4.77804,12.597648 4.89693,11.723243 5.12104,10.7246 5.34927,9.72596 5.66126,8.774025 6.05659,7.86914 6.4519,6.964246 6.87742,6.194459 7.33393,5.55859 H 3.73826 Z m 6.52344,0.006 h 3.65042 V 5.55872 H 10.9843 l -0.39837,2.408203 c 0.4361,-0.375005 0.89951,-0.562499 1.38864,-0.562499 0.61543,0 1.14913,0.263247 1.60153,0.78906 0.45653,0.521734 0.68562,1.226648 0.68562,2.115229 0,0.876356 -0.22909,1.628148 -0.68562,2.255864 -0.4524,0.623638 -1.06183,0.935548 -1.82811,0.935548 -0.63585,0 -1.17309,-0.219936 -1.61326,-0.660151 C 9.6986,12.395672 9.44979,11.782734 9.38857,11.000127 l 0.94732,-0.09767 c 0.0736,0.570651 0.23929,0.996092 0.49608,1.27734 0.2609,0.277178 0.562,0.416025 0.90435,0.416025 0.42793,0 0.7956,-0.196594 1.1054,-0.587895 0.30981,-0.395385 0.46491,-0.932581 0.46491,-1.613283 0,-0.639943 -0.14959,-1.135785 -0.45121,-1.486329 -0.2975,-0.354614 -0.67262,-0.531249 -1.12502,-0.531249 -0.27307,0 -0.531,0.07755 -0.77147,0.232419 -0.23642,0.150816 -0.42389,0.36167 -0.56256,0.634764 L 9.54682,9.109482 Z" />
</svg>
