<?xml version="1.0" encoding="UTF-8" standalone="no"?>
<svg
   version="1.1"
   width="18"
   height="18"
   viewBox="0 0 18 18"
   id="svg1714"
   xmlns="http://www.w3.org/2000/svg"
   xmlns:svg="http://www.w3.org/2000/svg">
  <defs
     id="defs1718">
    <rect
       x="32.567797"
       y="-13.805085"
       width="44.389831"
       height="38.898305"
       id="rect2002" />
    <rect
       x="22.5"
       y="-2.2118644"
       width="28.525424"
       height="24.559322"
       id="rect1996" />
    <rect
       x="40.805085"
       y="-10.525424"
       width="65.898305"
       height="40.652542"
       id="rect1990" />
    <rect
       x="39.661017"
       y="-9.1525424"
       width="44.237288"
       height="35.389831"
       id="rect1984" />
    <rect
       x="21.279661"
       y="-2.8983051"
       width="36.228814"
       height="33.330508"
       id="rect1978" />
    <rect
       x="17.313559"
       y="1.9067797"
       width="18.228814"
       height="14.338983"
       id="rect1972" />
    <rect
       x="22.576271"
       y="-1.4491525"
       width="29.516949"
       height="22.957627"
       id="rect1966" />
  </defs>
  <g
     id="g1783"
     transform="translate(-452.85504,-37.644012)">
    <text
       xml:space="preserve"
       transform="translate(452.85504,37.644012)"
       id="text1964"
       style="white-space:pre;shape-inside:url(#rect1966);display:inline;fill:#000000" />
    <text
       xml:space="preserve"
       transform="translate(452.85504,37.644012)"
       id="text1970"
       style="white-space:pre;shape-inside:url(#rect1972);display:inline;fill:#000000" />
    <text
       xml:space="preserve"
       transform="translate(452.85504,37.644012)"
       id="text1976"
       style="white-space:pre;shape-inside:url(#rect1978);display:inline;fill:#000000" />
    <text
       xml:space="preserve"
       transform="translate(452.85504,37.644012)"
       id="text1982"
       style="white-space:pre;shape-inside:url(#rect1984);display:inline;fill:#000000" />
    <text
       xml:space="preserve"
       transform="translate(452.85504,37.644012)"
       id="text1988"
       style="white-space:pre;shape-inside:url(#rect1990);display:inline;fill:#000000" />
    <g
       id="g4144"
       transform="translate(-71.046998,19.299124)">
      <circle
         style="fill:none;fill-opacity:1;stroke:#000000;stroke-width:1.19912;stroke-dasharray:none;stroke-opacity:1"
         id="circle872"
         cx="532.90204"
         cy="27.344889"
         r="8.4004402" />
      <path
         id="text876"
         style="font-stretch:condensed;font-size:12.5215px;font-family:'Arial Narrow';-inkscape-font-specification:'Arial Narrow Condensed';opacity:0.98;fill:#000000;stroke-width:0.313038;paint-order:markers fill stroke"
         d="m 527.65028,22.845285 v 1.056621 h 3.59577 c -0.45651,0.635857 -0.88199,1.405632 -1.27737,2.310505 -0.39537,0.904873 -0.7073,1.856795 -0.93556,2.855416 -0.22418,0.998622 -0.34325,1.873014 -0.35548,2.622999 h 0.92971 c 0.0815,-1.451057 0.39167,-2.913077 0.9297,-4.388591 0.53804,-1.47959 1.16191,-2.68032 1.87113,-3.601497 v -0.855453 z m 6.52356,0.0059 -0.71486,4.603432 0.84963,0.134763 c 0.13858,-0.273092 0.3261,-0.485895 0.56251,-0.636707 0.24048,-0.154888 0.4984,-0.232418 0.77149,-0.232418 0.45244,0 0.82748,0.178581 1.12503,0.533194 0.30162,0.350536 0.45118,0.844415 0.45118,1.484347 0,0.680693 -0.15508,1.219833 -0.46486,1.615205 -0.30977,0.391297 -0.67751,0.585927 -1.10549,0.585927 -0.34238,0 -0.6454,-0.13884 -0.90626,-0.416008 -0.25679,-0.281244 -0.42078,-0.70668 -0.49415,-1.27732 l -0.94728,0.09765 c 0.0611,0.782593 0.30997,1.395526 0.7461,1.83981 0.44021,0.440209 0.97746,0.662097 1.61331,0.662097 0.76629,0 1.37573,-0.311901 1.82816,-0.935529 0.45651,-0.627705 0.68361,-1.381431 0.68361,-2.257772 0,-0.888569 -0.2271,-1.593467 -0.68361,-2.115195 -0.45243,-0.525805 -0.98611,-0.787095 -1.60159,-0.787095 -0.48912,0 -0.95256,0.187497 -1.3887,0.562489 l 0.39845,-2.410112 h 2.92779 v -1.050762 z"
         transform="scale(0.9999817,1.0000183)" />
    </g>
  </g>
</svg>
