<?xml version="1.0" encoding="UTF-8" standalone="no"?>
<svg
   version="1.1"
   width="18"
   height="18"
   viewBox="0 0 18 18"
   id="svg1714"
   xmlns="http://www.w3.org/2000/svg"
   xmlns:svg="http://www.w3.org/2000/svg">
  <defs
     id="defs1718">
    <rect
       x="32.567797"
       y="-13.805085"
       width="44.389831"
       height="38.898305"
       id="rect2002" />
    <rect
       x="22.5"
       y="-2.2118644"
       width="28.525424"
       height="24.559322"
       id="rect1996" />
    <rect
       x="40.805085"
       y="-10.525424"
       width="65.898305"
       height="40.652542"
       id="rect1990" />
    <rect
       x="39.661017"
       y="-9.1525424"
       width="44.237288"
       height="35.389831"
       id="rect1984" />
    <rect
       x="21.279661"
       y="-2.8983051"
       width="36.228814"
       height="33.330508"
       id="rect1978" />
    <rect
       x="17.313559"
       y="1.9067797"
       width="18.228814"
       height="14.338983"
       id="rect1972" />
    <rect
       x="22.576271"
       y="-1.4491525"
       width="29.516949"
       height="22.957627"
       id="rect1966" />
  </defs>
  <g
     id="g1783"
     transform="translate(-452.85504,-37.644012)">
    <text
       xml:space="preserve"
       transform="translate(452.85504,37.644012)"
       id="text1964"
       style="white-space:pre;shape-inside:url(#rect1966);display:inline;fill:#000000" />
    <text
       xml:space="preserve"
       transform="translate(452.85504,37.644012)"
       id="text1970"
       style="white-space:pre;shape-inside:url(#rect1972);display:inline;fill:#000000" />
    <text
       xml:space="preserve"
       transform="translate(452.85504,37.644012)"
       id="text1976"
       style="white-space:pre;shape-inside:url(#rect1978);display:inline;fill:#000000" />
    <text
       xml:space="preserve"
       transform="translate(452.85504,37.644012)"
       id="text1982"
       style="white-space:pre;shape-inside:url(#rect1984);display:inline;fill:#000000" />
    <text
       xml:space="preserve"
       transform="translate(452.85504,37.644012)"
       id="text1988"
       style="white-space:pre;shape-inside:url(#rect1990);display:inline;fill:#000000" />
  </g>
  <g
     id="g10314">
    <path
       id="text1820"
       style="font-stretch:condensed;font-size:12.5214px;font-family:'Arial Narrow';-inkscape-font-specification:'Arial Narrow Condensed';opacity:0.98;fill:#000000;stroke-width:0.313045;paint-order:markers fill stroke"
       d="M 3.7399148,4.4990518 V 5.5576346 H 7.3337019 C 6.8771929,6.1934864 6.4517143,6.9632918 6.0563449,7.8681577 5.6609756,8.7730236 5.3490429,9.7249838 5.1207884,10.723597 4.8966099,11.72221 4.7775439,12.596638 4.765316,13.346617 H 5.6950131 C 5.7765325,11.895571 6.0866818,10.431539 6.6247102,8.9560371 7.1627386,7.4764591 7.786604,6.2776346 8.4958232,5.3564648 V 4.4990518 Z M 10.26342,4.5068618 9.5466153,9.11033 10.396233,9.2450943 c 0.138584,-0.2730902 0.3261,-0.4859013 0.562506,-0.6367122 0.240483,-0.154887 0.498402,-0.2324195 0.771493,-0.2324195 0.452433,0 0.827465,0.1766349 1.125011,0.5312445 0.301622,0.3505337 0.451177,0.8463851 0.451177,1.4863129 0,0.680688 -0.153122,1.219849 -0.462896,1.615218 -0.309774,0.391293 -0.679456,0.585932 -1.107433,0.585932 -0.342382,0 -0.643444,-0.138846 -0.904306,-0.416012 -0.256786,-0.281242 -0.422732,-0.706694 -0.496099,-1.27733 l -0.9472755,0.09765 c 0.06114,0.782587 0.3099724,1.395544 0.7461015,1.839825 0.440205,0.440205 0.977446,0.660149 1.613298,0.660149 0.766283,0 1.375711,-0.311913 1.828144,-0.935537 0.456509,-0.6277 0.685554,-1.379502 0.685554,-2.255836 0,-0.8885627 -0.229045,-1.5934888 -0.685554,-2.1152133 -0.452433,-0.5258005 -0.986107,-0.7890544 -1.601579,-0.7890544 -0.489117,0 -0.950604,0.1875048 -1.386733,0.5624943 l 0.396488,-2.408171 h 2.927765 V 4.5068642 Z"
       transform="scale(0.99998969,1.0000103)" />
    <rect
       style="opacity:0.98;fill:none;stroke:#000000;stroke-width:1.19939;stroke-dasharray:0.755616;stroke-dashoffset:0;stroke-opacity:1;paint-order:markers fill stroke"
       id="rect1833"
       width="16.800611"
       height="16.800611"
       x="0.59969503"
       y="0.59969503"
       rx="2.1544993"
       ry="2.1544993" />
  </g>
</svg>
