<?xml version="1.0" encoding="UTF-8" standalone="no"?>
<svg
   version="1.1"
   width="18"
   height="18"
   viewBox="0 0 18 18"
   id="svg1714"
   xmlns="http://www.w3.org/2000/svg"
   xmlns:svg="http://www.w3.org/2000/svg">
  <defs
     id="defs1718">
    <rect
       x="32.567797"
       y="-13.805085"
       width="44.389831"
       height="38.898305"
       id="rect2002" />
    <rect
       x="22.5"
       y="-2.2118644"
       width="28.525424"
       height="24.559322"
       id="rect1996" />
    <rect
       x="40.805085"
       y="-10.525424"
       width="65.898305"
       height="40.652542"
       id="rect1990" />
    <rect
       x="39.661017"
       y="-9.1525424"
       width="44.237288"
       height="35.389831"
       id="rect1984" />
    <rect
       x="21.279661"
       y="-2.8983051"
       width="36.228814"
       height="33.330508"
       id="rect1978" />
    <rect
       x="17.313559"
       y="1.9067797"
       width="18.228814"
       height="14.338983"
       id="rect1972" />
    <rect
       x="22.576271"
       y="-1.4491525"
       width="29.516949"
       height="22.957627"
       id="rect1966" />
  </defs>
  <g
     id="g1783"
     transform="translate(-452.85504,-37.644012)">
    <text
       xml:space="preserve"
       transform="translate(452.85504,37.644012)"
       id="text1964"
       style="white-space:pre;shape-inside:url(#rect1966);display:inline;fill:#000000" />
    <text
       xml:space="preserve"
       transform="translate(452.85504,37.644012)"
       id="text1970"
       style="white-space:pre;shape-inside:url(#rect1972);display:inline;fill:#000000" />
    <text
       xml:space="preserve"
       transform="translate(452.85504,37.644012)"
       id="text1976"
       style="white-space:pre;shape-inside:url(#rect1978);display:inline;fill:#000000" />
    <text
       xml:space="preserve"
       transform="translate(452.85504,37.644012)"
       id="text1982"
       style="white-space:pre;shape-inside:url(#rect1984);display:inline;fill:#000000" />
    <text
       xml:space="preserve"
       transform="translate(452.85504,37.644012)"
       id="text1988"
       style="white-space:pre;shape-inside:url(#rect1990);display:inline;fill:#000000" />
  </g>
  <path
     id="rect4060"
     style="opacity:0.98;fill:#000000;fill-opacity:1;stroke:none;stroke-width:1.28507;stroke-dasharray:none;stroke-opacity:1;paint-order:markers fill stroke"
     d="M 2.30869,0 C 1.0298,0 0,1.02978 0,2.3086 v 13.38274 c 0,1.27884 1.0298,2.30862 2.30869,2.30862 h 13.38279 c 1.27877,0 2.30857,-1.02978 2.30857,-2.30862 V 2.3086 C 18.00005,1.02978 16.97025,0 15.69148,0 Z M 3.73832,4.49989 H 8.49618 V 5.35545 C 7.78693,6.27659 7.16302,7.47737 6.62498,8.95693 6.08706,10.43255 5.77689,11.89649 5.69531,13.34766 H 4.76563 c 0.0124,-0.75 0.1313,-1.62445 0.35554,-2.62305 C 5.34934,9.72588 5.66131,8.77394 6.05664,7.86912 6.45201,6.96413 6.87747,6.19445 7.334,5.55851 H 3.73832 Z m 6.52344,0.006 h 3.65036 v 1.05269 h -2.92777 l -0.39841,2.40825 c 0.43615,-0.37502 0.89959,-0.56255 1.38871,-0.56255 0.61542,0 1.14912,0.26333 1.60152,0.78908 0.45652,0.5218 0.68562,1.22671 0.68562,2.11523 0,0.87636 -0.2291,1.62819 -0.68562,2.25586 -0.4524,0.6237 -1.06178,0.93554 -1.82805,0.93554 -0.63591,0 -1.1731,-0.21989 -1.61332,-0.66013 -0.4361,-0.4443 -0.68502,-1.05718 -0.74611,-1.83983 l 0.94728,-0.0976 c 0.0742,0.57066 0.23934,0.99607 0.49611,1.27734 0.26078,0.27716 0.5619,0.41603 0.90425,0.41603 0.42804,0 0.79571,-0.19659 1.10552,-0.58792 0.30981,-0.39537 0.46477,-0.9326 0.46477,-1.61324 0,-0.63995 -0.1495,-1.13582 -0.45111,-1.48636 -0.29759,-0.35468 -0.67259,-0.53124 -1.12498,-0.53124 -0.27308,0 -0.531,0.0778 -0.77148,0.23236 C 10.72263,8.76028 10.5351,8.97115 10.3965,9.24424 L 9.54689,9.10943 Z" />
</svg>
