<?xml version="1.0" encoding="UTF-8" standalone="no"?>
<svg
   version="1.1"
   width="18"
   height="18"
   viewBox="0 0 18 18"
   id="svg1714"
   xmlns="http://www.w3.org/2000/svg"
   xmlns:svg="http://www.w3.org/2000/svg">
  <defs
     id="defs1718">
    <rect
       x="32.567797"
       y="-13.805085"
       width="44.389831"
       height="38.898305"
       id="rect2002" />
    <rect
       x="22.5"
       y="-2.2118644"
       width="28.525424"
       height="24.559322"
       id="rect1996" />
    <rect
       x="40.805085"
       y="-10.525424"
       width="65.898305"
       height="40.652542"
       id="rect1990" />
    <rect
       x="39.661017"
       y="-9.1525424"
       width="44.237288"
       height="35.389831"
       id="rect1984" />
    <rect
       x="21.279661"
       y="-2.8983051"
       width="36.228814"
       height="33.330508"
       id="rect1978" />
    <rect
       x="17.313559"
       y="1.9067797"
       width="18.228814"
       height="14.338983"
       id="rect1972" />
    <rect
       x="22.576271"
       y="-1.4491525"
       width="29.516949"
       height="22.957627"
       id="rect1966" />
  </defs>
  <g
     id="g1783"
     transform="translate(-452.85504,-37.644012)">
    <text
       xml:space="preserve"
       transform="translate(452.85504,37.644012)"
       id="text1964"
       style="white-space:pre;shape-inside:url(#rect1966);display:inline;fill:#000000" />
    <text
       xml:space="preserve"
       transform="translate(452.85504,37.644012)"
       id="text1970"
       style="white-space:pre;shape-inside:url(#rect1972);display:inline;fill:#000000" />
    <text
       xml:space="preserve"
       transform="translate(452.85504,37.644012)"
       id="text1976"
       style="white-space:pre;shape-inside:url(#rect1978);display:inline;fill:#000000" />
    <text
       xml:space="preserve"
       transform="translate(452.85504,37.644012)"
       id="text1982"
       style="white-space:pre;shape-inside:url(#rect1984);display:inline;fill:#000000" />
    <text
       xml:space="preserve"
       transform="translate(452.85504,37.644012)"
       id="text1988"
       style="white-space:pre;shape-inside:url(#rect1990);display:inline;fill:#000000" />
  </g>
  <path
     id="circle426"
     style="fill:#000000;fill-opacity:1;stroke:none;stroke-width:1.04984;stroke-dasharray:none"
     d="M 9.00002,0 A 8.9999995,8.9999997 0 0 0 0,8.999991 8.9999995,8.9999997 0 0 0 9.00002,17.999997 8.9999995,8.9999997 0 0 0 17.99998,8.999991 8.9999995,8.9999997 0 0 0 9.00002,0 Z m -0.0119,4.49999 c 0.60125,0 1.09918,0.21368 1.49603,0.64258 0.40086,0.4289 0.60155,0.98274 0.60155,1.660158 0,0.424897 -0.0875,0.785413 -0.26367,1.082034 -0.17632,0.29261 -0.44398,0.521207 -0.8008,0.685553 0.4369,0.172352 0.77147,0.451118 1.00393,0.835931 0.23651,0.384808 0.35546,0.862444 0.35546,1.431636 0,0.785653 -0.22857,1.426789 -0.68556,1.923831 -0.45293,0.493037 -1.016,0.738281 -1.68942,0.738281 -0.68146,0 -1.25009,-0.245244 -1.70707,-0.738281 -0.45293,-0.497042 -0.67969,-1.14939 -0.67969,-1.955077 0,-0.589237 0.12088,-1.074279 0.36138,-1.455076 C 7.2247,8.966741 7.56113,8.706593 7.99001,8.570315 7.6333,8.409972 7.36189,8.181391 7.17754,7.884762 6.99716,7.584132 6.90804,7.212509 6.90804,6.767576 6.90804,6.09817 7.10303,5.55174 7.49584,5.13086 7.89277,4.70997 8.3908,4.49999 8.98812,4.49999 Z m 0.006,0.89062 c -0.32065,0 -0.5976,0.12824 -0.83005,0.38477 -0.22858,0.25655 -0.34182,0.576139 -0.34182,0.96094 0,0.432914 0.11324,0.77862 0.34182,1.035158 0.22845,0.256547 0.50909,0.38476 0.84177,0.38476 0.3247,0 0.60159,-0.126367 0.83005,-0.378898 0.2285,-0.252531 0.34183,-0.579635 0.34183,-0.980469 0,-0.412869 -0.11703,-0.749231 -0.35349,-1.009761 C 9.59177,5.52255 9.31484,5.39061 8.99412,5.39061 Z m -0.0118,3.648453 c -0.40485,0 -0.75056,0.165444 -1.03508,0.494135 -0.28068,0.328692 -0.41999,0.75234 -0.41999,1.273438 0,0.541138 0.14306,0.977851 0.43164,1.310553 0.29258,0.328692 0.64204,0.494136 1.04688,0.494136 0.40879,0 0.75643,-0.159793 1.04102,-0.480471 0.2846,-0.320671 0.42578,-0.749982 0.42578,-1.287108 0,-0.54114 -0.14493,-0.975997 -0.4375,-1.304689 C 9.74243,9.206355 9.39121,9.039063 8.98232,9.039063 Z" />
</svg>
