<?xml version="1.0" encoding="UTF-8" standalone="no"?>
<svg
   version="1.1"
   width="18"
   height="18"
   viewBox="0 0 18 18"
   id="svg1714"
   xmlns="http://www.w3.org/2000/svg"
   xmlns:svg="http://www.w3.org/2000/svg">
  <defs
     id="defs1718">
    <rect
       x="32.567797"
       y="-13.805085"
       width="44.389831"
       height="38.898305"
       id="rect2002" />
    <rect
       x="22.5"
       y="-2.2118644"
       width="28.525424"
       height="24.559322"
       id="rect1996" />
    <rect
       x="40.805085"
       y="-10.525424"
       width="65.898305"
       height="40.652542"
       id="rect1990" />
    <rect
       x="39.661017"
       y="-9.1525424"
       width="44.237288"
       height="35.389831"
       id="rect1984" />
    <rect
       x="21.279661"
       y="-2.8983051"
       width="36.228814"
       height="33.330508"
       id="rect1978" />
    <rect
       x="17.313559"
       y="1.9067797"
       width="18.228814"
       height="14.338983"
       id="rect1972" />
    <rect
       x="22.576271"
       y="-1.4491525"
       width="29.516949"
       height="22.957627"
       id="rect1966" />
  </defs>
  <g
     id="g1783"
     transform="translate(-452.85504,-37.644012)">
    <text
       xml:space="preserve"
       transform="translate(452.85504,37.644012)"
       id="text1964"
       style="white-space:pre;shape-inside:url(#rect1966);display:inline;fill:#000000" />
    <text
       xml:space="preserve"
       transform="translate(452.85504,37.644012)"
       id="text1970"
       style="white-space:pre;shape-inside:url(#rect1972);display:inline;fill:#000000" />
    <text
       xml:space="preserve"
       transform="translate(452.85504,37.644012)"
       id="text1976"
       style="white-space:pre;shape-inside:url(#rect1978);display:inline;fill:#000000" />
    <text
       xml:space="preserve"
       transform="translate(452.85504,37.644012)"
       id="text1982"
       style="white-space:pre;shape-inside:url(#rect1984);display:inline;fill:#000000" />
    <text
       xml:space="preserve"
       transform="translate(452.85504,37.644012)"
       id="text1988"
       style="white-space:pre;shape-inside:url(#rect1990);display:inline;fill:#000000" />
  </g>
  <g
     id="g6910"
     transform="translate(-494.46843,65.243999)">
    <path
       id="text1128"
       style="font-stretch:condensed;font-size:12.3136px;font-family:'Arial Narrow';-inkscape-font-specification:'Arial Narrow Condensed';opacity:0.98;fill:#000000;stroke-width:0.307824;paint-order:markers fill stroke"
       d="m 503.4456,-60.745519 c -0.59724,0 -1.09533,0.209999 -1.49215,0.630874 -0.39282,0.420874 -0.58788,0.967365 -0.58788,1.636756 0,0.444924 0.0892,0.816588 0.26953,1.117212 0.18438,0.296617 0.45574,0.52523 0.81248,0.685563 -0.42889,0.136283 -0.76719,0.396468 -1.0117,0.781268 -0.2405,0.380791 -0.35936,0.865886 -0.35936,1.455111 0,0.805674 0.22673,1.458089 0.67967,1.955122 0.45695,0.493025 1.02557,0.738298 1.70699,0.738298 0.6734,0 1.23647,-0.245273 1.68942,-0.738298 0.45695,-0.497033 0.68553,-1.138239 0.68553,-1.923872 0,-0.569182 -0.11897,-1.046873 -0.35546,-1.431673 -0.23249,-0.384799 -0.56698,-0.663598 -1.00389,-0.835956 0.35674,-0.164342 0.6244,-0.392954 0.80077,-0.685563 0.17636,-0.296616 0.26366,-0.657172 0.26366,-1.082055 0,-0.677408 -0.20071,-1.231303 -0.60155,-1.660194 -0.39682,-0.428891 -0.89481,-0.642593 -1.49606,-0.642593 z m 0.006,0.890645 c 0.32067,0 0.59758,0.131944 0.83006,0.396494 0.23649,0.260541 0.35351,0.59693 0.35351,1.009788 0,0.400833 -0.11332,0.727966 -0.34179,0.980491 -0.22847,0.252525 -0.50538,0.378915 -0.83006,0.378915 -0.33269,0 -0.6133,-0.128241 -0.84178,-0.384774 -0.22847,-0.256533 -0.34374,-0.602281 -0.34374,-1.03518 0,-0.3848 0.11527,-0.704426 0.34374,-0.960959 0.23249,-0.256533 0.5094,-0.384775 0.83006,-0.384775 z m -0.0117,3.648521 c 0.40885,0 0.75815,0.16732 1.05076,0.500011 0.29261,0.328683 0.43944,0.763593 0.43944,1.304717 0,0.537116 -0.14313,0.964519 -0.42772,1.285185 -0.28459,0.320667 -0.63019,0.482433 -1.03904,0.482433 -0.40484,0 -0.75424,-0.165469 -1.04685,-0.494152 -0.2886,-0.332691 -0.43163,-0.769452 -0.43163,-1.310576 0,-0.521083 0.13933,-0.944784 0.41991,-1.273467 0.28459,-0.328683 0.63029,-0.494151 1.03513,-0.494151 z"
       transform="scale(1.0000227,0.99997731)" />
    <ellipse
       style="fill:none;fill-opacity:1;stroke:#000000;stroke-width:1.19928;stroke-dasharray:0.755549;stroke-dashoffset:0;stroke-opacity:1"
       id="ellipse1130"
       cx="503.46841"
       cy="-56.239754"
       rx="8.4002981"
       ry="8.4045572" />
  </g>
</svg>
