<?xml version="1.0" encoding="UTF-8" standalone="no"?>
<svg
   version="1.1"
   width="18"
   height="18"
   viewBox="0 0 18 18"
   id="svg1714"
   xmlns="http://www.w3.org/2000/svg"
   xmlns:svg="http://www.w3.org/2000/svg">
  <defs
     id="defs1718">
    <rect
       x="32.567797"
       y="-13.805085"
       width="44.389831"
       height="38.898305"
       id="rect2002" />
    <rect
       x="22.5"
       y="-2.2118644"
       width="28.525424"
       height="24.559322"
       id="rect1996" />
    <rect
       x="40.805085"
       y="-10.525424"
       width="65.898305"
       height="40.652542"
       id="rect1990" />
    <rect
       x="39.661017"
       y="-9.1525424"
       width="44.237288"
       height="35.389831"
       id="rect1984" />
    <rect
       x="21.279661"
       y="-2.8983051"
       width="36.228814"
       height="33.330508"
       id="rect1978" />
    <rect
       x="17.313559"
       y="1.9067797"
       width="18.228814"
       height="14.338983"
       id="rect1972" />
    <rect
       x="22.576271"
       y="-1.4491525"
       width="29.516949"
       height="22.957627"
       id="rect1966" />
  </defs>
  <g
     id="g1783"
     transform="translate(-452.85504,-37.644012)">
    <text
       xml:space="preserve"
       transform="translate(452.85504,37.644012)"
       id="text1964"
       style="white-space:pre;shape-inside:url(#rect1966);display:inline;fill:#000000" />
    <text
       xml:space="preserve"
       transform="translate(452.85504,37.644012)"
       id="text1970"
       style="white-space:pre;shape-inside:url(#rect1972);display:inline;fill:#000000" />
    <text
       xml:space="preserve"
       transform="translate(452.85504,37.644012)"
       id="text1976"
       style="white-space:pre;shape-inside:url(#rect1978);display:inline;fill:#000000" />
    <text
       xml:space="preserve"
       transform="translate(452.85504,37.644012)"
       id="text1982"
       style="white-space:pre;shape-inside:url(#rect1984);display:inline;fill:#000000" />
    <text
       xml:space="preserve"
       transform="translate(452.85504,37.644012)"
       id="text1988"
       style="white-space:pre;shape-inside:url(#rect1990);display:inline;fill:#000000" />
    <g
       id="g2655"
       transform="translate(-7.3940748,-10.568569)">
      <circle
         style="fill:none;fill-opacity:1;stroke:#000000;stroke-width:1.19912;stroke-dasharray:none;stroke-opacity:1"
         id="circle635"
         cx="469.24911"
         cy="57.212582"
         r="8.4004402" />
      <path
         id="text639"
         style="font-stretch:condensed;font-size:12.3139px;font-family:'Arial Narrow';-inkscape-font-specification:'Arial Narrow Condensed';opacity:0.98;fill:#000000;stroke-width:0.307847;paint-order:markers fill stroke"
         d="m 469.23633,52.712891 c -0.59726,0 -1.0934,0.209974 -1.49024,0.630859 -0.39282,0.420885 -0.58984,0.965358 -0.58984,1.634766 0,0.444935 0.0911,0.818508 0.27148,1.11914 0.18439,0.296624 0.4538,0.52521 0.81055,0.685547 -0.4289,0.136287 -0.76525,0.396441 -1.00976,0.78125 -0.24051,0.380801 -0.36133,0.865839 -0.36133,1.455078 0,0.805694 0.22673,1.458033 0.67969,1.955078 0.45696,0.493037 1.02755,0.738282 1.70898,0.738282 0.67342,0 1.2365,-0.245245 1.68945,-0.738282 0.45696,-0.497045 0.68555,-1.138176 0.68555,-1.923828 0,-0.569196 -0.11897,-1.046831 -0.35547,-1.43164 -0.23249,-0.384809 -0.56699,-0.663576 -1.00391,-0.835938 0.35675,-0.164345 0.62246,-0.392932 0.79883,-0.685547 0.17637,-0.296623 0.26563,-0.657138 0.26563,-1.082031 0,-0.677424 -0.20072,-1.231255 -0.60156,-1.660156 -0.39684,-0.428902 -0.89679,-0.642578 -1.49805,-0.642578 z m 0.006,0.888671 c 0.32067,0 0.59759,0.133882 0.83008,0.398438 0.23649,0.260548 0.35546,0.596898 0.35546,1.009766 0,0.400842 -0.11527,0.727937 -0.34375,0.980468 -0.22848,0.252531 -0.50344,0.378907 -0.82812,0.378907 -0.3327,0 -0.61332,-0.128227 -0.8418,-0.384766 -0.22848,-0.256539 -0.34375,-0.602246 -0.34375,-1.035156 0,-0.384809 0.11527,-0.706352 0.34375,-0.962891 0.23249,-0.256539 0.50745,-0.384766 0.82813,-0.384766 z m -0.0117,3.650391 c 0.40886,0 0.76012,0.167301 1.05273,0.5 0.29262,0.328691 0.43946,0.76355 0.43946,1.304688 0,0.537129 -0.14314,0.964482 -0.42774,1.285156 -0.2846,0.320674 -0.6302,0.482422 -1.03906,0.482422 -0.40485,0 -0.75426,-0.16545 -1.04688,-0.494141 -0.2886,-0.332699 -0.43359,-0.769409 -0.43359,-1.310547 0,-0.521095 0.14129,-0.944746 0.42188,-1.273437 0.28459,-0.328691 0.62835,-0.494141 1.0332,-0.494141 z" />
    </g>
  </g>
</svg>
