<?xml version="1.0" encoding="UTF-8" standalone="no"?>
<svg
   version="1.1"
   width="18"
   height="18"
   viewBox="0 0 18 18"
   id="svg1714"
   xmlns="http://www.w3.org/2000/svg"
   xmlns:svg="http://www.w3.org/2000/svg">
  <defs
     id="defs1718">
    <rect
       x="32.567797"
       y="-13.805085"
       width="44.389831"
       height="38.898305"
       id="rect2002" />
    <rect
       x="22.5"
       y="-2.2118644"
       width="28.525424"
       height="24.559322"
       id="rect1996" />
    <rect
       x="40.805085"
       y="-10.525424"
       width="65.898305"
       height="40.652542"
       id="rect1990" />
    <rect
       x="39.661017"
       y="-9.1525424"
       width="44.237288"
       height="35.389831"
       id="rect1984" />
    <rect
       x="21.279661"
       y="-2.8983051"
       width="36.228814"
       height="33.330508"
       id="rect1978" />
    <rect
       x="17.313559"
       y="1.9067797"
       width="18.228814"
       height="14.338983"
       id="rect1972" />
    <rect
       x="22.576271"
       y="-1.4491525"
       width="29.516949"
       height="22.957627"
       id="rect1966" />
  </defs>
  <g
     id="g1783"
     transform="translate(-452.85504,-37.644012)">
    <text
       xml:space="preserve"
       transform="translate(452.85504,37.644012)"
       id="text1964"
       style="white-space:pre;shape-inside:url(#rect1966);display:inline;fill:#000000" />
    <text
       xml:space="preserve"
       transform="translate(452.85504,37.644012)"
       id="text1970"
       style="white-space:pre;shape-inside:url(#rect1972);display:inline;fill:#000000" />
    <text
       xml:space="preserve"
       transform="translate(452.85504,37.644012)"
       id="text1976"
       style="white-space:pre;shape-inside:url(#rect1978);display:inline;fill:#000000" />
    <text
       xml:space="preserve"
       transform="translate(452.85504,37.644012)"
       id="text1982"
       style="white-space:pre;shape-inside:url(#rect1984);display:inline;fill:#000000" />
    <text
       xml:space="preserve"
       transform="translate(452.85504,37.644012)"
       id="text1988"
       style="white-space:pre;shape-inside:url(#rect1990);display:inline;fill:#000000" />
  </g>
  <g
     id="g9126">
    <path
       id="text1124"
       style="font-stretch:condensed;font-size:12.3136px;font-family:'Arial Narrow';-inkscape-font-specification:'Arial Narrow Condensed';opacity:0.98;fill:#000000;stroke-width:0.307824;paint-order:markers fill stroke"
       d="m 8.9870404,4.4999615 c -0.5972411,0 -1.093376,0.2099991 -1.4902006,0.6308737 -0.3928162,0.4208745 -0.5898303,0.9673649 -0.5898303,1.6367559 0,0.4449245 0.091103,0.8165881 0.2714782,1.1172128 C 7.3628708,8.1814203 7.6322749,8.4100332 7.9890161,8.5703663 7.5601249,8.7066495 7.2237815,8.9668345 6.9792734,9.3516341 6.7387737,9.7324253 6.6179535,10.217521 6.6179535,10.806745 c 0,0.805674 0.2267309,1.45809 0.6796721,1.955123 0.4569495,0.493024 1.0275296,0.738298 1.7089456,0.738298 0.6733993,0 1.2364738,-0.245274 1.6894148,-0.738298 0.456949,-0.497033 0.685531,-1.13824 0.685531,-1.923872 0,-0.569183 -0.118969,-1.0468736 -0.35546,-1.4316732 -0.232484,-0.3847996 -0.566976,-0.6635983 -1.003884,-0.8359565 0.356741,-0.1643415 0.622444,-0.3929544 0.79881,-0.6855624 0.176367,-0.2966164 0.265619,-0.6571729 0.265619,-1.0820558 0,-0.6774076 -0.200716,-1.2313027 -0.601549,-1.6601939 C 10.088229,4.713663 9.5882897,4.4999615 8.9870404,4.4999615 Z m 0.00586,0.8906452 c 0.3206663,0 0.5975762,0.1319436 0.8300593,0.3964934 0.2364913,0.2605414 0.3554613,0.5969306 0.3554613,1.0097885 0,0.4008329 -0.115268,0.7279663 -0.3437428,0.980491 C 9.6062034,8.0299043 9.3312466,8.1562944 9.006572,8.1562944 8.6738807,8.1562944 8.393269,8.0280532 8.1647942,7.7715201 7.9363186,7.514987 7.8210512,7.1692399 7.8210512,6.7363403 7.8210512,6.3515407 7.9363186,6.0319141 8.1647934,5.775381 8.3972765,5.518848 8.6722333,5.3906067 8.9929004,5.3906067 Z M 8.9811811,9.039127 c 0.4088496,0 0.7601025,0.16732 1.0527109,0.5000113 0.292608,0.328683 0.439443,0.7635927 0.439443,1.3047167 0,0.537117 -0.143134,0.964519 -0.427725,1.285186 -0.2845913,0.320666 -0.6301892,0.482433 -1.0390388,0.482433 -0.4048413,0 -0.7542432,-0.165469 -1.0468513,-0.494152 C 7.6711202,11.78463 7.526136,11.34787 7.526136,10.806745 c 0,-0.521083 0.1412824,-0.9447832 0.4218655,-1.2734662 C 8.2325928,9.2045958 8.5763399,9.039127 8.9811811,9.039127 Z"
       transform="scale(1.0000227,0.99997731)" />
    <rect
       style="opacity:0.98;fill:none;stroke:#000000;stroke-width:1.19939;stroke-dasharray:0.755616;stroke-dashoffset:0;stroke-opacity:1;paint-order:markers fill stroke"
       id="rect1137"
       width="16.800611"
       height="16.800611"
       x="0.59969503"
       y="0.59969503"
       rx="2.1544993"
       ry="2.1544993" />
  </g>
</svg>
