<?xml version="1.0" encoding="UTF-8" standalone="no"?>
<svg
   version="1.1"
   width="18"
   height="18"
   viewBox="0 0 18 18"
   id="svg1714"
   xmlns="http://www.w3.org/2000/svg"
   xmlns:svg="http://www.w3.org/2000/svg">
  <defs
     id="defs1718">
    <rect
       x="32.567797"
       y="-13.805085"
       width="44.389831"
       height="38.898305"
       id="rect2002" />
    <rect
       x="22.5"
       y="-2.2118644"
       width="28.525424"
       height="24.559322"
       id="rect1996" />
    <rect
       x="40.805085"
       y="-10.525424"
       width="65.898305"
       height="40.652542"
       id="rect1990" />
    <rect
       x="39.661017"
       y="-9.1525424"
       width="44.237288"
       height="35.389831"
       id="rect1984" />
    <rect
       x="21.279661"
       y="-2.8983051"
       width="36.228814"
       height="33.330508"
       id="rect1978" />
    <rect
       x="17.313559"
       y="1.9067797"
       width="18.228814"
       height="14.338983"
       id="rect1972" />
    <rect
       x="22.576271"
       y="-1.4491525"
       width="29.516949"
       height="22.957627"
       id="rect1966" />
  </defs>
  <g
     id="g1783"
     transform="translate(-452.85504,-37.644012)">
    <text
       xml:space="preserve"
       transform="translate(452.85504,37.644012)"
       id="text1964"
       style="white-space:pre;shape-inside:url(#rect1966);display:inline;fill:#000000" />
    <text
       xml:space="preserve"
       transform="translate(452.85504,37.644012)"
       id="text1970"
       style="white-space:pre;shape-inside:url(#rect1972);display:inline;fill:#000000" />
    <text
       xml:space="preserve"
       transform="translate(452.85504,37.644012)"
       id="text1976"
       style="white-space:pre;shape-inside:url(#rect1978);display:inline;fill:#000000" />
    <text
       xml:space="preserve"
       transform="translate(452.85504,37.644012)"
       id="text1982"
       style="white-space:pre;shape-inside:url(#rect1984);display:inline;fill:#000000" />
    <text
       xml:space="preserve"
       transform="translate(452.85504,37.644012)"
       id="text1988"
       style="white-space:pre;shape-inside:url(#rect1990);display:inline;fill:#000000" />
  </g>
  <path
     id="rect3632"
     style="opacity:0.98;fill:#000000;fill-opacity:1;stroke:none;stroke-width:1.28507;stroke-dasharray:none;stroke-opacity:1;paint-order:markers fill stroke"
     d="M 2.30857,0 C 1.02981,0 0,1.02978 0,2.3086 v 13.38274 c 0,1.27884 1.02981,2.30862 2.30857,2.30862 h 13.38278 c 1.27889,0 2.30869,-1.02978 2.30869,-2.30862 V 2.3086 C 18.00004,1.02978 16.97024,0 15.69135,0 Z m 6.67978,4.49989 c 0.60126,0 1.09918,0.21376 1.49606,0.64269 0.40084,0.42891 0.60154,0.98269 0.60154,1.66008 0,0.42494 -0.0877,0.78538 -0.26368,1.08208 -0.17638,0.29257 -0.44403,0.5212 -0.80073,0.68554 0.4369,0.17234 0.77141,0.45117 1.00386,0.83599 0.23651,0.38482 0.35547,0.86234 0.35547,1.43161 0,0.78559 -0.22857,1.42675 -0.68556,1.92384 -0.45295,0.49303 -1.01595,0.7382 -1.68942,0.7382 -0.68146,0 -1.25009,-0.24517 -1.70708,-0.7382 -0.45293,-0.49709 -0.67963,-1.14939 -0.67963,-1.95515 0,-0.58928 0.12083,-1.07422 0.36127,-1.45498 C 7.225,8.96676 7.56137,8.70658 7.99024,8.57028 7.63348,8.40987 7.36215,8.18136 7.17777,7.88474 6.9974,7.5841 6.90816,7.2125 6.90816,6.76748 6.90816,6.09812 7.10334,5.5517 7.49608,5.13084 7.893,4.70997 8.39103,4.49989 8.98835,4.49989 Z m 0.006,0.89068 c -0.32071,0 -0.59759,0.12831 -0.83005,0.38477 -0.22852,0.25659 -0.34181,0.57616 -0.34181,0.96097 0,0.43293 0.11329,0.77856 0.34181,1.03518 0.22847,0.25644 0.50909,0.38471 0.84178,0.38471 0.3247,0 0.60159,-0.12639 0.83005,-0.37887 0.22852,-0.25255 0.34182,-0.57968 0.34182,-0.98046 0,-0.41296 -0.11697,-0.74928 -0.35355,-1.00979 C 9.59187,5.5225 9.31506,5.39057 8.99435,5.39057 Z m -0.0119,3.64844 c -0.40486,0 -0.75056,0.16547 -1.0351,0.49416 -0.28061,0.32869 -0.41996,0.75237 -0.41996,1.2734 0,0.54112 0.14303,0.97781 0.43162,1.31056 0.29265,0.32869 0.64203,0.49416 1.04689,0.49416 0.40884,0 0.75636,-0.15981 1.04103,-0.48051 0.28459,-0.32064 0.42575,-0.74991 0.42575,-1.28705 0,-0.54113 -0.14492,-0.97609 -0.43749,-1.30478 C 9.74255,9.20634 9.3913,9.03901 8.98245,9.03901 Z" />
</svg>
