<?xml version="1.0" encoding="UTF-8" standalone="no"?>
<svg
   version="1.1"
   width="18"
   height="18"
   viewBox="0 0 18 18"
   id="svg1714"
   xmlns="http://www.w3.org/2000/svg"
   xmlns:svg="http://www.w3.org/2000/svg">
  <defs
     id="defs1718">
    <rect
       x="32.567797"
       y="-13.805085"
       width="44.389831"
       height="38.898305"
       id="rect2002" />
    <rect
       x="22.5"
       y="-2.2118644"
       width="28.525424"
       height="24.559322"
       id="rect1996" />
    <rect
       x="40.805085"
       y="-10.525424"
       width="65.898305"
       height="40.652542"
       id="rect1990" />
    <rect
       x="39.661017"
       y="-9.1525424"
       width="44.237288"
       height="35.389831"
       id="rect1984" />
    <rect
       x="21.279661"
       y="-2.8983051"
       width="36.228814"
       height="33.330508"
       id="rect1978" />
    <rect
       x="17.313559"
       y="1.9067797"
       width="18.228814"
       height="14.338983"
       id="rect1972" />
    <rect
       x="22.576271"
       y="-1.4491525"
       width="29.516949"
       height="22.957627"
       id="rect1966" />
  </defs>
  <g
     id="g1783"
     transform="translate(-452.85504,-37.644012)">
    <text
       xml:space="preserve"
       transform="translate(452.85504,37.644012)"
       id="text1964"
       style="white-space:pre;shape-inside:url(#rect1966);display:inline;fill:#000000" />
    <text
       xml:space="preserve"
       transform="translate(452.85504,37.644012)"
       id="text1970"
       style="white-space:pre;shape-inside:url(#rect1972);display:inline;fill:#000000" />
    <text
       xml:space="preserve"
       transform="translate(452.85504,37.644012)"
       id="text1976"
       style="white-space:pre;shape-inside:url(#rect1978);display:inline;fill:#000000" />
    <text
       xml:space="preserve"
       transform="translate(452.85504,37.644012)"
       id="text1982"
       style="white-space:pre;shape-inside:url(#rect1984);display:inline;fill:#000000" />
    <text
       xml:space="preserve"
       transform="translate(452.85504,37.644012)"
       id="text1988"
       style="white-space:pre;shape-inside:url(#rect1990);display:inline;fill:#000000" />
  </g>
  <g
     id="g11315">
    <rect
       style="opacity:0.98;fill:none;stroke:#000000;stroke-width:1.19939;stroke-dasharray:none;stroke-opacity:1;paint-order:markers fill stroke"
       id="rect1780"
       width="16.800611"
       height="16.800611"
       x="0.59969503"
       y="0.59969503"
       rx="2.1544993"
       ry="2.1544993" />
    <path
       id="text1784"
       style="font-stretch:condensed;font-size:12.3139px;font-family:'Arial Narrow';-inkscape-font-specification:'Arial Narrow Condensed';opacity:0.98;fill:#000000;stroke-width:0.307847;paint-order:markers fill stroke"
       d="m 8.9885644,4.50032 c -0.5972556,0 -1.0953533,0.2099745 -1.4921875,0.6308594 C 7.103551,5.5520642 6.9084862,6.0965377 6.9084863,6.765945 c 0,0.4449354 0.089152,0.8185086 0.2695312,1.1191406 0.1843876,0.2966236 0.45575,0.5252098 0.8125,0.6855469 -0.4289017,0.1362865 -0.7672047,0.396441 -1.0117187,0.78125 -0.2405057,0.3808006 -0.3593751,0.8658395 -0.359375,1.4550785 0,0.805693 0.2267352,1.458033 0.6796875,1.955078 0.4569606,0.493036 1.0255986,0.738281 1.7070312,0.738281 0.6734157,0 1.2365005,-0.245245 1.6894535,-0.738281 0.45696,-0.497045 0.685546,-1.138177 0.685547,-1.923828 0,-0.569197 -0.118972,-1.046832 -0.355469,-1.431641 -0.232489,-0.384809 -0.566988,-0.6635751 -1.003906,-0.8359375 0.35675,-0.1643455 0.62441,-0.3929317 0.800781,-0.6855469 0.176371,-0.2966236 0.263672,-0.657138 0.263672,-1.0820312 0,-0.6774242 -0.20072,-1.2312546 -0.601563,-1.6601563 C 10.087824,4.7139964 9.5898284,4.50032 8.9885644,4.50032 Z m 0.00586,0.8886719 c 0.3206741,0 0.5975893,0.1338813 0.8300781,0.3984375 C 10.061,6.0479771 10.178018,6.384327 10.178019,6.797195 c 0,0.4008427 -0.113317,0.7279379 -0.3417978,0.9804687 C 9.6077403,8.0301946 9.3308251,8.15657 9.0061425,8.15657 8.6734431,8.15657 8.392826,8.0283437 8.1643456,7.7718044 7.9358653,7.515265 7.8205956,7.1695582 7.8205956,6.7366481 c 0,-0.384809 0.1152697,-0.7063513 0.34375,-0.9628906 C 8.3968344,5.5172182 8.6737496,5.3889919 8.9944244,5.3889919 Z M 8.982705,9.0393825 c 0.4088596,0 0.7581661,0.1673006 1.050781,0.5 0.292615,0.328691 0.439453,0.7635495 0.439453,1.3046875 0,0.537129 -0.141183,0.964482 -0.425781,1.285156 -0.2845982,0.320674 -0.6321559,0.482422 -1.0410155,0.482422 -0.4048511,0 -0.7542598,-0.165449 -1.046875,-0.494141 -0.2886067,-0.332699 -0.4316406,-0.769409 -0.4316406,-1.310546 0,-0.521096 0.139332,-0.9447469 0.4199219,-1.2734379 C 8.2321471,9.2048321 8.5778539,9.0393825 8.982705,9.0393825 Z" />
  </g>
</svg>
