<?xml version="1.0" encoding="UTF-8" standalone="no"?>
<svg
   version="1.1"
   width="18"
   height="18"
   viewBox="0 0 18 18"
   id="svg1714"
   xmlns="http://www.w3.org/2000/svg"
   xmlns:svg="http://www.w3.org/2000/svg">
  <defs
     id="defs1718">
    <rect
       x="32.567797"
       y="-13.805085"
       width="44.389831"
       height="38.898305"
       id="rect2002" />
    <rect
       x="22.5"
       y="-2.2118644"
       width="28.525424"
       height="24.559322"
       id="rect1996" />
    <rect
       x="40.805085"
       y="-10.525424"
       width="65.898305"
       height="40.652542"
       id="rect1990" />
    <rect
       x="39.661017"
       y="-9.1525424"
       width="44.237288"
       height="35.389831"
       id="rect1984" />
    <rect
       x="21.279661"
       y="-2.8983051"
       width="36.228814"
       height="33.330508"
       id="rect1978" />
    <rect
       x="17.313559"
       y="1.9067797"
       width="18.228814"
       height="14.338983"
       id="rect1972" />
    <rect
       x="22.576271"
       y="-1.4491525"
       width="29.516949"
       height="22.957627"
       id="rect1966" />
  </defs>
  <g
     id="g1783"
     transform="translate(-452.85504,-37.644012)">
    <text
       xml:space="preserve"
       transform="translate(452.85504,37.644012)"
       id="text1964"
       style="white-space:pre;shape-inside:url(#rect1966);display:inline;fill:#000000" />
    <text
       xml:space="preserve"
       transform="translate(452.85504,37.644012)"
       id="text1970"
       style="white-space:pre;shape-inside:url(#rect1972);display:inline;fill:#000000" />
    <text
       xml:space="preserve"
       transform="translate(452.85504,37.644012)"
       id="text1976"
       style="white-space:pre;shape-inside:url(#rect1978);display:inline;fill:#000000" />
    <text
       xml:space="preserve"
       transform="translate(452.85504,37.644012)"
       id="text1982"
       style="white-space:pre;shape-inside:url(#rect1984);display:inline;fill:#000000" />
    <text
       xml:space="preserve"
       transform="translate(452.85504,37.644012)"
       id="text1988"
       style="white-space:pre;shape-inside:url(#rect1990);display:inline;fill:#000000" />
  </g>
  <g
     id="g8202"
     transform="translate(3.93816e-7,4.6267516e-5)">
    <path
       id="text1865"
       style="font-stretch:condensed;font-size:12.3132px;font-family:'Arial Narrow';-inkscape-font-specification:'Arial Narrow Condensed';opacity:0.98;fill:#000000;stroke-width:0.307813;paint-order:markers fill stroke"
       d="m 6.2010376,4.5002084 c -0.5972217,0 -1.0934397,0.2099913 -1.4902514,0.6308522 -0.3928035,0.4208609 -0.5898505,0.9653778 -0.5898505,1.634747 0,0.4449101 0.091118,0.818513 0.2714875,1.1191279 0.1843772,0.2966067 0.4538264,0.5252111 0.8105561,0.685539 -0.4288773,0.1362788 -0.765277,0.396454 -1.0097771,0.7812411 -0.240492,0.380779 -0.3613323,0.8658564 -0.3613323,1.4550614 0,0.805648 0.2267688,1.456086 0.6796953,1.953103 0.4569347,0.493008 1.0256568,0.740226 1.7070507,0.740226 0.6733774,0 1.2365459,-0.247218 1.6894724,-0.740226 C 8.365023,12.262863 8.593643,11.621681 8.593643,10.836074 8.593643,10.266909 8.4766071,9.7911896 8.2401233,9.4064025 8.0076478,9.0216154 7.6730993,8.7428271 7.2362056,8.5704745 7.5929353,8.4061384 7.8586821,8.177534 8.0350428,7.8849355 8.2114036,7.5883288 8.2987177,7.2277857 8.2987177,6.8029166 c 0,-0.6773857 -0.1987963,-1.23126 -0.5996162,-1.6601374 C 7.3022898,4.7139019 6.8022674,4.5002084 6.2010376,4.5002084 Z m 5.6152984,0 c -0.777591,0 -1.366778,0.3810073 -1.767598,1.1425651 -0.396812,0.7615579 -0.5937571,1.8822644 -0.5937571,3.3612899 0,1.6513776 0.2174106,2.8129106 0.6543041,3.4862886 0.440902,0.673377 1.005922,1.009754 1.695332,1.009754 0.781599,0 1.370787,-0.381007 1.767598,-1.142565 0.396812,-0.765566 0.59571,-1.882469 0.59571,-3.3534776 0,-1.6393535 -0.24168,-2.8325592 -0.722664,-3.5780843 C 13.048449,4.8087165 12.505746,4.5002084 11.816336,4.5002084 Z M 6.206897,5.3888702 c 0.3206559,0 0.597612,0.1338918 0.8300876,0.3984329 0.2364837,0.260533 0.3554728,0.5969097 0.3554728,1.0097542 0,0.4008199 -0.1152866,0.727941 -0.3437539,0.9804575 C 6.8202361,8.0300314 6.54328,8.1544637 6.2186159,8.1544637 5.8859354,8.1544637 5.6052768,8.0262272 5.3768094,7.7697024 5.1483421,7.5131777 5.0350086,7.1693966 5.0350086,6.7365111 5.0350086,6.351724 5.1483421,6.0301562 5.3768094,5.7736314 5.609285,5.5171067 5.8862411,5.3888702 6.206897,5.3888702 Z m 5.568423,0.00781 c 0.436894,0 0.791908,0.2415621 1.064465,0.7265542 0.276566,0.4849921 0.414067,1.4458913 0.414067,2.8808266 0,1.418903 -0.13565,2.374147 -0.408207,2.867155 -0.272558,0.493009 -0.612762,0.740226 -1.01759,0.740226 -0.428877,0 -0.780087,-0.243515 -1.056653,-0.728507 -0.272557,-0.489001 -0.410161,-1.447947 -0.410161,-2.878874 0,-1.4189025 0.135752,-2.3760995 0.404302,-2.869108 C 11.0381,5.6419469 11.3745,5.3966826 11.77532,5.3966826 Z m -5.5801419,3.642539 c 0.4088363,0 0.7601479,0.1653607 1.0527464,0.4980412 0.2925985,0.3286723 0.4394581,0.7635656 0.4394581,1.3046726 0,0.537099 -0.1431571,0.966439 -0.4277392,1.287095 -0.2845822,0.320656 -0.6321912,0.482416 -1.0410275,0.482416 -0.4048281,0 -0.7523353,-0.165463 -1.0449338,-0.494135 -0.2885903,-0.33268 -0.4335987,-0.769425 -0.4335987,-1.310532 0,-0.521066 0.1413059,-0.9467036 0.4218798,-1.2753759 C 5.4465454,9.2027288 5.79035,9.0392192 6.1951781,9.0392192 Z"
       transform="scale(0.9999886,1.0000114)" />
    <ellipse
       style="fill:none;fill-opacity:1;stroke:#000000;stroke-width:1.19928;stroke-dasharray:0.755549;stroke-dashoffset:0;stroke-opacity:1"
       id="ellipse1867"
       cx="8.9999857"
       cy="9.004199"
       rx="8.4002981"
       ry="8.4045572" />
  </g>
</svg>
