<?xml version="1.0" encoding="UTF-8" standalone="no"?>
<svg
   version="1.1"
   width="18"
   height="18"
   viewBox="0 0 18 18"
   id="svg1714"
   xmlns="http://www.w3.org/2000/svg"
   xmlns:svg="http://www.w3.org/2000/svg">
  <defs
     id="defs1718">
    <rect
       x="32.567797"
       y="-13.805085"
       width="44.389831"
       height="38.898305"
       id="rect2002" />
    <rect
       x="22.5"
       y="-2.2118644"
       width="28.525424"
       height="24.559322"
       id="rect1996" />
    <rect
       x="40.805085"
       y="-10.525424"
       width="65.898305"
       height="40.652542"
       id="rect1990" />
    <rect
       x="39.661017"
       y="-9.1525424"
       width="44.237288"
       height="35.389831"
       id="rect1984" />
    <rect
       x="21.279661"
       y="-2.8983051"
       width="36.228814"
       height="33.330508"
       id="rect1978" />
    <rect
       x="17.313559"
       y="1.9067797"
       width="18.228814"
       height="14.338983"
       id="rect1972" />
    <rect
       x="22.576271"
       y="-1.4491525"
       width="29.516949"
       height="22.957627"
       id="rect1966" />
  </defs>
  <g
     id="g1783"
     transform="translate(-452.85504,-37.644012)">
    <text
       xml:space="preserve"
       transform="translate(452.85504,37.644012)"
       id="text1964"
       style="white-space:pre;shape-inside:url(#rect1966);display:inline;fill:#000000" />
    <text
       xml:space="preserve"
       transform="translate(452.85504,37.644012)"
       id="text1970"
       style="white-space:pre;shape-inside:url(#rect1972);display:inline;fill:#000000" />
    <text
       xml:space="preserve"
       transform="translate(452.85504,37.644012)"
       id="text1976"
       style="white-space:pre;shape-inside:url(#rect1978);display:inline;fill:#000000" />
    <text
       xml:space="preserve"
       transform="translate(452.85504,37.644012)"
       id="text1982"
       style="white-space:pre;shape-inside:url(#rect1984);display:inline;fill:#000000" />
    <text
       xml:space="preserve"
       transform="translate(452.85504,37.644012)"
       id="text1988"
       style="white-space:pre;shape-inside:url(#rect1990);display:inline;fill:#000000" />
    <g
       id="g4240"
       transform="translate(-99.580934,8.7305563)">
      <circle
         style="fill:none;fill-opacity:1;stroke:#000000;stroke-width:1.19912;stroke-dasharray:none;stroke-opacity:1"
         id="circle883"
         cx="561.43597"
         cy="37.913456"
         r="8.4004402" />
      <path
         id="text887"
         style="font-stretch:condensed;font-size:12.3128px;font-family:'Arial Narrow';-inkscape-font-specification:'Arial Narrow Condensed';opacity:0.98;fill:#000000;stroke-width:0.307821;paint-order:markers fill stroke"
         d="m 558.62722,33.414631 c -0.5972,0 -1.09341,0.210022 -1.49021,0.63087 -0.39279,0.420847 -0.58983,0.965446 -0.58983,1.634793 0,0.444896 0.0911,0.818555 0.27148,1.11916 0.18437,0.296597 0.45381,0.525235 0.81053,0.685558 -0.42886,0.136275 -0.76525,0.396489 -1.00975,0.781264 -0.24048,0.380766 -0.36132,0.865916 -0.36132,1.455102 0,0.805622 0.22677,1.456158 0.67968,1.953159 0.45692,0.492992 1.02758,0.740247 1.70895,0.740247 0.67336,0 1.23652,-0.247255 1.68943,-0.740247 0.45692,-0.497001 0.68358,-1.13828 0.68358,-1.923861 0,-0.569146 -0.11703,-1.046891 -0.35351,-1.431665 -0.23247,-0.384775 -0.56701,-0.661652 -1.00389,-0.833999 0.35672,-0.164331 0.62246,-0.392969 0.79882,-0.685558 0.17635,-0.296597 0.26562,-0.657195 0.26562,-1.08205 0,-0.677364 -0.20075,-1.231321 -0.60156,-1.660184 -0.3968,-0.428864 -0.89681,-0.642589 -1.49802,-0.642589 z m 5.61514,0 c -0.77756,0 -1.36674,0.381064 -1.76755,1.142597 -0.3968,0.761533 -0.59374,1.880455 -0.59374,3.359432 0,1.651325 0.21741,2.814985 0.65429,3.488341 0.44089,0.673355 1.00589,1.009783 1.69528,1.009783 0.78158,0 1.37075,-0.381065 1.76755,-1.142598 0.3968,-0.765541 0.59569,-1.884564 0.59569,-3.355526 0,-1.6393 -0.23972,-2.830732 -0.72069,-3.576232 -0.3968,-0.617243 -0.94144,-0.925797 -1.63083,-0.925797 z m -5.60928,0.888687 c 0.32065,0 0.5976,0.131958 0.83007,0.396491 0.23647,0.260524 0.35546,0.598904 0.35546,1.011736 0,0.400807 -0.11529,0.726024 -0.34375,0.978532 -0.22846,0.252508 -0.50345,0.378913 -0.82811,0.378913 -0.33267,0 -0.61332,-0.128256 -0.84178,-0.384773 -0.22846,-0.256516 -0.34374,-0.600349 -0.34374,-1.03322 0,-0.384775 0.11528,-0.706391 0.34374,-0.962907 0.23247,-0.256517 0.50747,-0.384772 0.82811,-0.384772 z m 5.56827,0.0059 c 0.43688,0 0.79188,0.243552 1.06443,0.728528 0.27656,0.484976 0.41406,1.444066 0.41406,2.878955 0,1.418857 -0.13565,2.376197 -0.4082,2.86919 -0.27255,0.492992 -0.61079,0.738293 -1.01561,0.738293 -0.42886,0 -0.78202,-0.241598 -1.05857,-0.726574 -0.27255,-0.488985 -0.41015,-1.450028 -0.41015,-2.880909 0,-1.418856 0.13575,-2.374244 0.40429,-2.867236 0.27255,-0.492993 0.60894,-0.740247 1.00975,-0.740247 z m -5.57999,3.644593 c 0.40883,0 0.76013,0.165386 1.05272,0.498056 0.29259,0.328661 0.43944,0.76362 0.43944,1.304709 0,0.537081 -0.14315,0.966486 -0.42772,1.287131 -0.28458,0.320646 -0.63022,0.480477 -1.03905,0.480477 -0.40481,0 -0.75427,-0.163534 -1.04685,-0.492195 -0.28859,-0.33267 -0.43359,-0.76948 -0.43359,-1.31057 0,-0.521049 0.1413,-0.94675 0.42187,-1.275412 0.28457,-0.328662 0.62837,-0.492196 1.03318,-0.492196 z"
         transform="scale(1.000017,0.999983)" />
    </g>
  </g>
</svg>
