<?xml version="1.0" encoding="UTF-8" standalone="no"?>
<svg
   version="1.1"
   width="18"
   height="18"
   viewBox="0 0 18 18"
   id="svg1714"
   xmlns="http://www.w3.org/2000/svg"
   xmlns:svg="http://www.w3.org/2000/svg">
  <defs
     id="defs1718">
    <rect
       x="32.567797"
       y="-13.805085"
       width="44.389831"
       height="38.898305"
       id="rect2002" />
    <rect
       x="22.5"
       y="-2.2118644"
       width="28.525424"
       height="24.559322"
       id="rect1996" />
    <rect
       x="40.805085"
       y="-10.525424"
       width="65.898305"
       height="40.652542"
       id="rect1990" />
    <rect
       x="39.661017"
       y="-9.1525424"
       width="44.237288"
       height="35.389831"
       id="rect1984" />
    <rect
       x="21.279661"
       y="-2.8983051"
       width="36.228814"
       height="33.330508"
       id="rect1978" />
    <rect
       x="17.313559"
       y="1.9067797"
       width="18.228814"
       height="14.338983"
       id="rect1972" />
    <rect
       x="22.576271"
       y="-1.4491525"
       width="29.516949"
       height="22.957627"
       id="rect1966" />
  </defs>
  <g
     id="g1783"
     transform="translate(-452.85504,-37.644012)">
    <text
       xml:space="preserve"
       transform="translate(452.85504,37.644012)"
       id="text1964"
       style="white-space:pre;shape-inside:url(#rect1966);display:inline;fill:#000000" />
    <text
       xml:space="preserve"
       transform="translate(452.85504,37.644012)"
       id="text1970"
       style="white-space:pre;shape-inside:url(#rect1972);display:inline;fill:#000000" />
    <text
       xml:space="preserve"
       transform="translate(452.85504,37.644012)"
       id="text1976"
       style="white-space:pre;shape-inside:url(#rect1978);display:inline;fill:#000000" />
    <text
       xml:space="preserve"
       transform="translate(452.85504,37.644012)"
       id="text1982"
       style="white-space:pre;shape-inside:url(#rect1984);display:inline;fill:#000000" />
    <text
       xml:space="preserve"
       transform="translate(452.85504,37.644012)"
       id="text1988"
       style="white-space:pre;shape-inside:url(#rect1990);display:inline;fill:#000000" />
  </g>
  <path
     id="circle508"
     style="fill:#000000;fill-opacity:1;stroke:none;stroke-width:1.04984;stroke-dasharray:none"
     d="M 9.00002,0 A 8.9999995,8.9999997 0 0 0 0,8.999991 8.9999995,8.9999997 0 0 0 9.00002,17.999997 8.9999995,8.9999997 0 0 0 17.99998,8.999991 8.9999995,8.9999997 0 0 0 9.00002,0 Z M 6.20118,4.49999 c 0.60121,0 1.10126,0.21373 1.49802,0.64258 0.40083,0.42885 0.5996,0.982812 0.5996,1.660158 0,0.424852 -0.0874,0.785439 -0.26371,1.082034 -0.17635,0.292585 -0.44208,0.521225 -0.7988,0.685553 0.43692,0.172334 0.77147,0.45116 1.00392,0.835931 0.23642,0.384766 0.35355,0.860547 0.35355,1.429685 0,0.785571 -0.22867,1.426837 -0.68562,1.923833 -0.45291,0.492985 -1.01606,0.74023 -1.68941,0.74023 -0.68137,0 -1.25014,-0.247245 -1.70708,-0.74023 C 4.0588,12.262768 3.83207,11.612237 3.83207,10.806636 3.83207,10.217462 3.95285,9.732316 4.19333,9.35156 4.43781,8.966783 4.77423,8.706579 5.20312,8.570315 4.84634,8.40999 4.57693,8.181359 4.39258,7.884762 4.21222,7.584164 4.12106,7.210509 4.12106,6.765618 4.12106,6.09628 4.3181,5.5517 4.71095,5.13086 5.10772,4.71001 5.60398,4.49999 6.20118,4.49999 Z m 5.61513,0 c 0.68952,0 1.23217,0.30855 1.62895,0.92579 0.48102,0.74549 0.7227,1.938853 0.7227,3.57812 0,1.470941 -0.19891,2.587989 -0.59576,3.353514 -0.39676,0.761523 -0.98599,1.14258 -1.76753,1.14258 -0.68934,0 -1.25444,-0.336416 -1.69531,-1.009764 C 9.67249,11.816884 9.45312,10.655196 9.45312,9.0039 c 0,-1.478954 0.19892,-2.599808 0.59571,-3.36133 0.40074,-0.76152 0.98998,-1.14258 1.76748,-1.14258 z M 6.20706,5.39061 c -0.32068,0 -0.59768,0.12827 -0.83013,0.38477 -0.22844,0.25652 -0.34175,0.576174 -0.34175,0.96094 0,0.432867 0.11331,0.778648 0.34175,1.035158 0.22852,0.25652 0.50913,0.38476 0.8418,0.38476 0.32467,0 0.6016,-0.126394 0.83004,-0.378898 C 7.27727,7.524837 7.39263,7.197667 7.39263,6.796871 7.39263,6.384047 7.27353,6.04762 7.03705,5.78711 6.80461,5.52258 6.52767,5.39061 6.20706,5.39061 Z m 5.56833,0.006 c -0.40082,0 -0.73922,0.2453 -1.01175,0.738286 -0.26855,0.492985 -0.40232,1.45031 -0.40232,2.869139 0,1.430852 0.13754,2.389933 0.41015,2.878908 0.27652,0.484959 0.62774,0.72656 1.05669,0.72656 0.40483,0 0.74497,-0.245296 1.01752,-0.73828 0.27254,-0.492985 0.40822,-1.448353 0.40822,-2.867188 0,-1.434862 -0.13947,-2.395889 -0.41607,-2.880859 C 12.5653,5.63821 12.21233,5.39661 11.77539,5.39661 Z M 6.19526,9.039197 c -0.40482,0 -0.74859,0.163523 -1.03318,0.492179 -0.28058,0.328657 -0.42187,0.754353 -0.42187,1.275395 0,0.541075 0.14503,0.977881 0.43361,1.310551 0.29254,0.328653 0.64009,0.492181 1.04491,0.492181 0.40886,0 0.7565,-0.159827 1.04102,-0.480469 0.2845,-0.320638 0.42581,-0.750035 0.42581,-1.287104 0,-0.541079 -0.14493,-0.976032 -0.43749,-1.304689 C 6.95545,9.204576 6.60413,9.039197 6.19526,9.039197 Z" />
</svg>
