<?xml version="1.0" encoding="UTF-8" standalone="no"?>
<svg
   version="1.1"
   width="18"
   height="18"
   viewBox="0 0 18 18"
   id="svg1714"
   xmlns="http://www.w3.org/2000/svg"
   xmlns:svg="http://www.w3.org/2000/svg">
  <defs
     id="defs1718">
    <rect
       x="32.567797"
       y="-13.805085"
       width="44.389831"
       height="38.898305"
       id="rect2002" />
    <rect
       x="22.5"
       y="-2.2118644"
       width="28.525424"
       height="24.559322"
       id="rect1996" />
    <rect
       x="40.805085"
       y="-10.525424"
       width="65.898305"
       height="40.652542"
       id="rect1990" />
    <rect
       x="39.661017"
       y="-9.1525424"
       width="44.237288"
       height="35.389831"
       id="rect1984" />
    <rect
       x="21.279661"
       y="-2.8983051"
       width="36.228814"
       height="33.330508"
       id="rect1978" />
    <rect
       x="17.313559"
       y="1.9067797"
       width="18.228814"
       height="14.338983"
       id="rect1972" />
    <rect
       x="22.576271"
       y="-1.4491525"
       width="29.516949"
       height="22.957627"
       id="rect1966" />
  </defs>
  <g
     id="g1783"
     transform="translate(-452.85504,-37.644012)">
    <text
       xml:space="preserve"
       transform="translate(452.85504,37.644012)"
       id="text1964"
       style="white-space:pre;shape-inside:url(#rect1966);display:inline;fill:#000000" />
    <text
       xml:space="preserve"
       transform="translate(452.85504,37.644012)"
       id="text1970"
       style="white-space:pre;shape-inside:url(#rect1972);display:inline;fill:#000000" />
    <text
       xml:space="preserve"
       transform="translate(452.85504,37.644012)"
       id="text1976"
       style="white-space:pre;shape-inside:url(#rect1978);display:inline;fill:#000000" />
    <text
       xml:space="preserve"
       transform="translate(452.85504,37.644012)"
       id="text1982"
       style="white-space:pre;shape-inside:url(#rect1984);display:inline;fill:#000000" />
    <text
       xml:space="preserve"
       transform="translate(452.85504,37.644012)"
       id="text1988"
       style="white-space:pre;shape-inside:url(#rect1990);display:inline;fill:#000000" />
  </g>
  <path
     id="rect4104"
     style="opacity:0.98;fill:#000000;fill-opacity:1;stroke:none;stroke-width:1.28507;stroke-dasharray:none;stroke-opacity:1;paint-order:markers fill stroke"
     d="M 2.3085,0 C 1.02974,0 0,1.02978 0,2.3086 v 13.38274 c 0,1.27884 1.02974,2.30862 2.3085,2.30862 h 13.3829 c 1.27878,0 2.30858,-1.02978 2.30858,-2.30862 V 2.3086 C 17.99998,1.02978 16.97018,0 15.6914,0 Z m 3.89262,4.49989 c 0.60121,0 1.10132,0.2138 1.49807,0.64269 0.40079,0.42887 0.59959,0.98276 0.59959,1.66008 0,0.42489 -0.0876,0.78541 -0.26361,1.08208 C 7.85879,8.17728 7.59302,8.40596 7.23628,8.57028 7.67315,8.7426 8.0077,9.02149 8.24021,9.40627 c 0.23643,0.38478 0.3535,0.86049 0.3535,1.42963 0,0.78552 -0.22855,1.42687 -0.68551,1.92384 -0.45297,0.49298 -1.01612,0.74018 -1.68948,0.74018 -0.68142,0 -1.25006,-0.2472 -1.70696,-0.74018 -0.45303,-0.49697 -0.67975,-1.14749 -0.67975,-1.95317 0,-0.58922 0.12078,-1.07426 0.36132,-1.45498 C 4.43781,8.96681 4.77417,8.70657 5.20312,8.57028 4.84639,8.40988 4.57693,8.18133 4.39251,7.88474 4.21217,7.58414 4.12106,7.21047 4.12106,6.76552 4.12106,6.09622 4.31811,5.55166 4.71088,5.13084 5.10772,4.71001 5.60397,4.49989 6.20112,4.49989 Z m 5.61532,0 c 0.68939,0 1.23203,0.30865 1.62887,0.92586 0.48096,0.7455 0.72265,1.93885 0.72265,3.57814 0,1.4709 -0.19891,2.58796 -0.59575,3.35347 -0.39677,0.76147 -0.98599,1.14256 -1.76756,1.14256 -0.68939,0 -1.25442,-0.33639 -1.69529,-1.00973 -0.43688,-0.67328 -0.65624,-1.83509 -0.65624,-3.4863 0,-1.47896 0.19886,-2.59983 0.59569,-3.36131 0.40077,-0.76152 0.98999,-1.14269 1.76763,-1.14269 z M 6.20706,5.39057 c -0.32069,0 -0.59762,0.12834 -0.83019,0.38477 -0.22839,0.25656 -0.34174,0.5762 -0.34174,0.96097 0,0.43288 0.11335,0.77858 0.34174,1.03518 0.22858,0.25642 0.50918,0.38471 0.84185,0.38471 0.32466,0 0.6016,-0.12642 0.83011,-0.37887 C 7.27729,7.52481 7.39256,7.19761 7.39256,6.79687 7.39256,6.38395 7.27353,6.04756 7.03709,5.78708 6.8046,5.52253 6.52761,5.39057 6.20706,5.39057 Z m 5.56833,0.006 c -0.40082,0 -0.73916,0.2454 -1.01176,0.73839 -0.26849,0.49298 -0.40238,1.45022 -0.40238,2.86912 0,1.43079 0.13769,2.3899 0.41022,2.8789 0.27659,0.48494 0.62768,0.72652 1.05663,0.72652 0.40487,0 0.74503,-0.24521 1.01757,-0.7382 0.27254,-0.49298 0.40823,-1.44844 0.40823,-2.86722 0,-1.43493 -0.13947,-2.39591 -0.416,-2.88085 C 12.56529,5.63824 12.21226,5.39657 11.77539,5.39657 Z M 6.19526,9.03921 c -0.40474,0 -0.7486,0.16352 -1.03319,0.49218 -0.28058,0.32866 -0.42186,0.7544 -0.42186,1.27537 0,0.54106 0.14497,0.97784 0.43359,1.31057 0.29257,0.32865 0.64004,0.49217 1.04492,0.49217 0.40881,0 0.75649,-0.15983 1.04102,-0.48044 0.28464,-0.32067 0.42582,-0.74997 0.42582,-1.2871 0,-0.54108 -0.14492,-0.976 -0.43749,-1.30466 C 6.95545,9.20461 6.60413,9.03921 6.19526,9.03921 Z" />
</svg>
