<?xml version="1.0" encoding="UTF-8" standalone="no"?>
<svg
   version="1.1"
   width="18"
   height="18"
   viewBox="0 0 18 18"
   id="svg1714"
   xmlns="http://www.w3.org/2000/svg"
   xmlns:svg="http://www.w3.org/2000/svg">
  <defs
     id="defs1718">
    <rect
       x="32.567797"
       y="-13.805085"
       width="44.389831"
       height="38.898305"
       id="rect2002" />
    <rect
       x="22.5"
       y="-2.2118644"
       width="28.525424"
       height="24.559322"
       id="rect1996" />
    <rect
       x="40.805085"
       y="-10.525424"
       width="65.898305"
       height="40.652542"
       id="rect1990" />
    <rect
       x="39.661017"
       y="-9.1525424"
       width="44.237288"
       height="35.389831"
       id="rect1984" />
    <rect
       x="21.279661"
       y="-2.8983051"
       width="36.228814"
       height="33.330508"
       id="rect1978" />
    <rect
       x="17.313559"
       y="1.9067797"
       width="18.228814"
       height="14.338983"
       id="rect1972" />
    <rect
       x="22.576271"
       y="-1.4491525"
       width="29.516949"
       height="22.957627"
       id="rect1966" />
  </defs>
  <g
     id="g1783"
     transform="translate(-452.85504,-37.644012)">
    <text
       xml:space="preserve"
       transform="translate(452.85504,37.644012)"
       id="text1964"
       style="white-space:pre;shape-inside:url(#rect1966);display:inline;fill:#000000" />
    <text
       xml:space="preserve"
       transform="translate(452.85504,37.644012)"
       id="text1970"
       style="white-space:pre;shape-inside:url(#rect1972);display:inline;fill:#000000" />
    <text
       xml:space="preserve"
       transform="translate(452.85504,37.644012)"
       id="text1976"
       style="white-space:pre;shape-inside:url(#rect1978);display:inline;fill:#000000" />
    <text
       xml:space="preserve"
       transform="translate(452.85504,37.644012)"
       id="text1982"
       style="white-space:pre;shape-inside:url(#rect1984);display:inline;fill:#000000" />
    <text
       xml:space="preserve"
       transform="translate(452.85504,37.644012)"
       id="text1988"
       style="white-space:pre;shape-inside:url(#rect1990);display:inline;fill:#000000" />
  </g>
  <g
     id="g12560">
    <path
       id="text4091"
       style="font-stretch:condensed;font-size:12.3128px;font-family:'Arial Narrow';-inkscape-font-specification:'Arial Narrow Condensed';opacity:0.98;fill:#000000;stroke-width:0.307821;paint-order:markers fill stroke"
       d="m 6.2015908,4.5003965 c -0.5972023,0 -1.0953633,0.2100229 -1.4921621,0.6308701 C 4.3166379,5.5521139 4.1215481,6.0967125 4.1215481,6.76606 c 0,0.4448957 0.089163,0.8185545 0.2695266,1.1191597 C 4.5754459,8.1818168 4.8468428,8.4104554 5.2035609,8.5707782 4.7746975,8.7070526 4.4383047,8.9672669 4.1938125,9.3520415 3.9533283,9.732808 3.8324905,10.217958 3.8324905,10.807144 c 0,0.805622 0.2267641,1.456158 0.6796759,1.953159 0.4569199,0.492992 1.0256305,0.740247 1.7070022,0.740247 0.6733556,0 1.2365127,-0.247255 1.6894245,-0.740247 0.4569198,-0.497001 0.6855352,-1.13828 0.6855352,-1.923861 0,-0.569146 -0.1189867,-1.0449375 -0.3554627,-1.4297121 C 8.0061976,9.0219553 7.6716559,8.7431252 7.2347764,8.5707782 7.5914945,8.4064474 7.859189,8.1778087 8.035544,7.8852197 8.2118991,7.5886226 8.2992114,7.2280253 8.2992114,6.80317 8.2992114,6.1258064 8.098466,5.5718489 7.6976591,5.1429856 7.3008603,4.7141222 6.8028012,4.5003965 6.2015908,4.5003965 Z m 5.6151392,0 c -0.777566,0 -1.366741,0.3810644 -1.767548,1.1425976 -0.3967992,0.7615331 -0.5956933,1.8804546 -0.5956933,3.3594321 0,1.6513248 0.2193593,2.8149848 0.6562393,3.4883408 0.440887,0.673355 1.005895,1.009783 1.695283,1.009783 0.781574,0 1.370749,-0.381065 1.767548,-1.142598 0.396799,-0.765541 0.59374,-1.884564 0.59374,-3.3555258 0,-1.6393003 -0.239722,-2.8307319 -0.720691,-3.5762327 -0.396799,-0.6172426 -0.93949,-0.925797 -1.628878,-0.925797 z m -5.6092799,0.888687 c 0.3206455,0 0.597596,0.1339117 0.830064,0.3984443 0.2364761,0.2605245 0.3535096,0.5969516 0.3535096,1.0097828 0,0.4008069 -0.1133311,0.7260239 -0.341791,0.9785322 -0.22846,0.2525084 -0.5054105,0.3789127 -0.8300641,0.3789127 -0.3326697,0 -0.6133226,-0.1282557 -0.8417825,-0.3847722 C 5.1489261,7.5134669 5.035595,7.1696341 5.035595,6.7367626 c 0,-0.3847746 0.1133311,-0.7063905 0.3417911,-0.9629069 0.232468,-0.2565165 0.5094185,-0.3847722 0.830064,-0.3847722 z m 5.5663119,0.00586 c 0.436879,0 0.791886,0.2435516 1.064435,0.728528 0.276557,0.4849763 0.416008,1.4440664 0.416008,2.8789552 0,1.4188573 -0.1376,2.3761973 -0.410149,2.8691903 -0.272549,0.492992 -0.610793,0.738293 -1.015608,0.738293 -0.428863,0 -0.782019,-0.241598 -1.058575,-0.726574 -0.272549,-0.488985 -0.408197,-1.450028 -0.408197,-2.8809093 0,-1.4188565 0.133797,-2.3742438 0.402337,-2.8672363 0.272549,-0.492993 0.608942,-0.7402474 1.009749,-0.7402469 z M 6.1957315,9.0395362 c 0.4088231,0 0.7581744,0.1653856 1.0507634,0.4980553 0.2925891,0.3286617 0.4394457,0.7636205 0.4394457,1.3047095 0,0.537081 -0.1412011,0.966486 -0.425774,1.287131 -0.2845729,0.320646 -0.6321749,0.480477 -1.040998,0.480477 -0.4048149,0 -0.7542681,-0.163534 -1.0468572,-0.492195 -0.2885809,-0.33267 -0.4316332,-0.76948 -0.4316332,-1.31057 0,-0.521049 0.1393499,-0.9467503 0.4199147,-1.275412 C 5.4451658,9.2030704 5.7909166,9.0395362 6.1957315,9.0395362 Z"
       transform="scale(1.000017,0.999983)" />
    <rect
       style="opacity:0.98;fill:none;stroke:#000000;stroke-width:1.19939;stroke-dasharray:none;stroke-opacity:1;paint-order:markers fill stroke"
       id="rect4093"
       width="16.800611"
       height="16.800611"
       x="0.59969503"
       y="0.59969503"
       rx="2.1544993"
       ry="2.1544993" />
  </g>
</svg>
