<?xml version="1.0" encoding="UTF-8" standalone="no"?>
<svg
   version="1.1"
   width="18"
   height="18"
   viewBox="0 0 18 18"
   id="svg1714"
   xmlns="http://www.w3.org/2000/svg"
   xmlns:svg="http://www.w3.org/2000/svg">
  <defs
     id="defs1718">
    <rect
       x="32.567797"
       y="-13.805085"
       width="44.389831"
       height="38.898305"
       id="rect2002" />
    <rect
       x="22.5"
       y="-2.2118644"
       width="28.525424"
       height="24.559322"
       id="rect1996" />
    <rect
       x="40.805085"
       y="-10.525424"
       width="65.898305"
       height="40.652542"
       id="rect1990" />
    <rect
       x="39.661017"
       y="-9.1525424"
       width="44.237288"
       height="35.389831"
       id="rect1984" />
    <rect
       x="21.279661"
       y="-2.8983051"
       width="36.228814"
       height="33.330508"
       id="rect1978" />
    <rect
       x="17.313559"
       y="1.9067797"
       width="18.228814"
       height="14.338983"
       id="rect1972" />
    <rect
       x="22.576271"
       y="-1.4491525"
       width="29.516949"
       height="22.957627"
       id="rect1966" />
  </defs>
  <g
     id="g1783"
     transform="translate(-452.85504,-37.644012)">
    <text
       xml:space="preserve"
       transform="translate(452.85504,37.644012)"
       id="text1964"
       style="white-space:pre;shape-inside:url(#rect1966);display:inline;fill:#000000" />
    <text
       xml:space="preserve"
       transform="translate(452.85504,37.644012)"
       id="text1970"
       style="white-space:pre;shape-inside:url(#rect1972);display:inline;fill:#000000" />
    <text
       xml:space="preserve"
       transform="translate(452.85504,37.644012)"
       id="text1976"
       style="white-space:pre;shape-inside:url(#rect1978);display:inline;fill:#000000" />
    <text
       xml:space="preserve"
       transform="translate(452.85504,37.644012)"
       id="text1982"
       style="white-space:pre;shape-inside:url(#rect1984);display:inline;fill:#000000" />
    <text
       xml:space="preserve"
       transform="translate(452.85504,37.644012)"
       id="text1988"
       style="white-space:pre;shape-inside:url(#rect1990);display:inline;fill:#000000" />
  </g>
  <g
     id="g10391">
    <path
       id="text1861"
       style="font-stretch:condensed;font-size:12.3132px;font-family:'Arial Narrow';-inkscape-font-specification:'Arial Narrow Condensed';opacity:0.98;fill:#000000;stroke-width:0.307813;paint-order:markers fill stroke"
       d="m 6.2010038,4.5007432 c -0.5972217,0 -1.0934396,0.2099913 -1.4902513,0.6308522 -0.3928036,0.4208609 -0.5898505,0.9653777 -0.5898505,1.634747 0,0.4449101 0.091119,0.8185129 0.2714874,1.1191278 C 4.5767666,8.182077 4.8462158,8.4106813 5.2029456,8.5710093 4.7740683,8.7072881 4.4376686,8.9674633 4.1931684,9.3522504 3.9526765,9.7330293 3.8318362,10.218107 3.8318362,10.807312 c 0,0.805648 0.2267687,1.456086 0.6796952,1.953103 0.4569347,0.493008 1.0256569,0.740226 1.7070507,0.740226 0.6733775,0 1.2365459,-0.247218 1.6894724,-0.740226 0.4569347,-0.497017 0.6855547,-1.1382 0.6855547,-1.923807 0,-0.569164 -0.1170359,-1.0468367 -0.3535196,-1.4316238 C 8.007614,9.020197 7.6730656,8.7433619 7.2361719,8.5710093 7.5929016,8.4066731 7.8586483,8.1780688 8.0350091,7.8854702 8.2113699,7.5888635 8.3006371,7.2283204 8.3006371,6.8034513 8.3006371,6.1260657 8.0998877,5.5721913 7.6990678,5.143314 7.3022561,4.7144367 6.8022337,4.5007432 6.2010038,4.5007432 Z m 5.6152982,0 c -0.77759,0 -1.366778,0.3790542 -1.767598,1.140612 C 9.6518922,6.402913 9.4549472,7.5236195 9.4549472,9.002645 c 0,1.651378 0.2174106,2.814864 0.6543038,3.488241 0.440902,0.673378 1.005922,1.009755 1.695332,1.009755 0.781599,0 1.370787,-0.381008 1.767599,-1.142566 0.396811,-0.765566 0.59571,-1.884421 0.59571,-3.35543 0,-1.6393534 -0.239728,-2.8306061 -0.720712,-3.5761311 C 13.050368,4.8092512 12.505712,4.5007432 11.816302,4.5007432 Z M 6.2068633,5.3894049 c 0.3206559,0 0.597612,0.1319387 0.8300875,0.3964799 0.2364838,0.2605329 0.3554728,0.5988627 0.3554728,1.0117072 0,0.4008199 -0.1152865,0.7259879 -0.3437539,0.9785045 C 6.8202024,8.028613 6.5432463,8.1549984 6.2185821,8.1549984 5.8859016,8.1549984 5.605243,8.0267619 5.3767757,7.7702372 5.1483083,7.5137124 5.0349749,7.1699313 5.0349749,6.7370458 c 0,-0.3847871 0.1133334,-0.7063549 0.3418008,-0.9628796 C 5.6092512,5.5176414 5.8862073,5.3894049 6.2068633,5.3894049 Z m 5.5684227,0.00586 c 0.436894,0 0.791908,0.2435153 1.064465,0.7285074 0.276566,0.4849921 0.414068,1.4439381 0.414068,2.8788734 0,1.4189023 -0.135651,2.3760993 -0.408208,2.8691083 -0.272558,0.493008 -0.612762,0.738273 -1.01759,0.738273 -0.428877,0 -0.780087,-0.241562 -1.056653,-0.726554 -0.272557,-0.489001 -0.410161,-1.4499 -0.410161,-2.8808273 0,-1.4189025 0.135753,-2.3741463 0.404302,-2.8671548 0.272558,-0.4930085 0.608957,-0.740226 1.009777,-0.740226 z m -5.5801416,3.644489 c 0.4088363,0 0.7601478,0.1653607 1.0527464,0.4980412 0.2925985,0.3286724 0.4394581,0.7635659 0.4394581,1.3046729 0,0.537098 -0.1431571,0.966439 -0.4277393,1.287094 -0.2845821,0.320656 -0.6321911,0.480464 -1.0410275,0.480464 -0.4048281,0 -0.7523352,-0.16351 -1.0449337,-0.492182 -0.2885904,-0.332681 -0.4335987,-0.769425 -0.4335987,-1.310532 0,-0.521066 0.1413058,-0.9467038 0.4218798,-1.2753762 C 5.4465116,9.2032635 5.7903163,9.0397539 6.1951444,9.0397539 Z"
       transform="scale(0.9999886,1.0000114)" />
    <rect
       style="opacity:0.98;fill:none;stroke:#000000;stroke-width:1.19939;stroke-dasharray:0.755616;stroke-dashoffset:0;stroke-opacity:1;paint-order:markers fill stroke"
       id="rect1874"
       width="16.800611"
       height="16.800611"
       x="0.59969503"
       y="0.59969503"
       rx="2.1544993"
       ry="2.1544993" />
  </g>
</svg>
