<?xml version="1.0" encoding="UTF-8" standalone="no"?>
<svg
   version="1.1"
   width="18"
   height="18"
   viewBox="0 0 18 18"
   id="svg1714"
   xmlns="http://www.w3.org/2000/svg"
   xmlns:svg="http://www.w3.org/2000/svg">
  <defs
     id="defs1718">
    <rect
       x="32.567797"
       y="-13.805085"
       width="44.389831"
       height="38.898305"
       id="rect2002" />
    <rect
       x="22.5"
       y="-2.2118644"
       width="28.525424"
       height="24.559322"
       id="rect1996" />
    <rect
       x="40.805085"
       y="-10.525424"
       width="65.898305"
       height="40.652542"
       id="rect1990" />
    <rect
       x="39.661017"
       y="-9.1525424"
       width="44.237288"
       height="35.389831"
       id="rect1984" />
    <rect
       x="21.279661"
       y="-2.8983051"
       width="36.228814"
       height="33.330508"
       id="rect1978" />
    <rect
       x="17.313559"
       y="1.9067797"
       width="18.228814"
       height="14.338983"
       id="rect1972" />
    <rect
       x="22.576271"
       y="-1.4491525"
       width="29.516949"
       height="22.957627"
       id="rect1966" />
  </defs>
  <g
     id="g1783"
     transform="translate(-452.85504,-37.644012)">
    <text
       xml:space="preserve"
       transform="translate(452.85504,37.644012)"
       id="text1964"
       style="white-space:pre;shape-inside:url(#rect1966);display:inline;fill:#000000" />
    <text
       xml:space="preserve"
       transform="translate(452.85504,37.644012)"
       id="text1970"
       style="white-space:pre;shape-inside:url(#rect1972);display:inline;fill:#000000" />
    <text
       xml:space="preserve"
       transform="translate(452.85504,37.644012)"
       id="text1976"
       style="white-space:pre;shape-inside:url(#rect1978);display:inline;fill:#000000" />
    <text
       xml:space="preserve"
       transform="translate(452.85504,37.644012)"
       id="text1982"
       style="white-space:pre;shape-inside:url(#rect1984);display:inline;fill:#000000" />
    <text
       xml:space="preserve"
       transform="translate(452.85504,37.644012)"
       id="text1988"
       style="white-space:pre;shape-inside:url(#rect1990);display:inline;fill:#000000" />
    <g
       id="g4320"
       transform="translate(-38.073213,-12.866081)">
      <circle
         style="fill:none;fill-opacity:1;stroke:#000000;stroke-width:1.19912;stroke-dasharray:none;stroke-opacity:1"
         id="circle894"
         cx="499.92825"
         cy="59.510094"
         r="8.4004402" />
      <path
         id="text898"
         style="font-stretch:condensed;font-size:12.3127px;font-family:'Arial Narrow';-inkscape-font-specification:'Arial Narrow Condensed';opacity:0.98;fill:#000000;stroke-width:0.307819;paint-order:markers fill stroke"
         d="m 497.08984,55.009766 c -0.59719,0 -1.09344,0.210015 -1.49023,0.630859 -0.39279,0.420844 -0.58984,0.967377 -0.58984,1.636719 0,0.444892 0.0911,0.816585 0.27148,1.117187 0.18437,0.296595 0.45383,0.525226 0.81055,0.685547 -0.42886,0.136273 -0.76528,0.396479 -1.00977,0.78125 -0.24048,0.380764 -0.35937,0.865897 -0.35937,1.455078 0,0.805616 0.22482,1.458082 0.67773,1.955078 0.45692,0.492989 1.02762,0.738282 1.70899,0.738282 0.67335,0 1.23654,-0.245293 1.68945,-0.738282 0.45691,-0.496996 0.68359,-1.138253 0.68359,-1.923828 0,-0.569141 -0.11704,-1.046869 -0.35351,-1.43164 -0.23247,-0.384772 -0.56703,-0.663592 -1.00391,-0.835938 0.35672,-0.164329 0.62247,-0.39296 0.79883,-0.685547 0.17635,-0.296594 0.26562,-0.657179 0.26562,-1.082031 0,-0.677358 -0.20076,-1.229343 -0.60156,-1.658203 -0.39679,-0.42886 -0.89684,-0.644531 -1.49805,-0.644531 z m 4.11328,0.15625 -0.70312,4.527343 0.83594,0.132813 c 0.13627,-0.268539 0.32027,-0.476703 0.55273,-0.625 0.23648,-0.152306 0.48928,-0.228516 0.75781,-0.228516 0.4449,0 0.81289,0.174739 1.10547,0.523438 0.2966,0.344691 0.44532,0.831676 0.44532,1.460937 0,0.669342 -0.15242,1.197158 -0.45704,1.585938 -0.30461,0.384771 -0.66704,0.578125 -1.08789,0.578125 -0.33667,0 -0.63411,-0.13761 -0.89062,-0.410156 -0.25251,-0.276555 -0.41418,-0.694735 -0.48633,-1.25586 l -0.93164,0.0957 c 0.0601,0.769543 0.30356,1.373671 0.73242,1.810547 0.43287,0.432868 0.96264,0.648438 1.58789,0.648438 0.75351,0 1.35199,-0.306693 1.79688,-0.919922 0.4489,-0.617238 0.67383,-1.357022 0.67383,-2.21875 0,-0.873752 -0.22493,-1.56705 -0.67383,-2.080078 -0.44489,-0.517037 -0.96901,-0.775391 -1.57422,-0.775391 -0.48097,0 -0.93638,0.183995 -1.36524,0.552734 l 0.39063,-2.367187 h 2.87891 v -1.035156 z m -4.10742,0.734375 c 0.32065,0 0.59762,0.131954 0.83008,0.396484 0.23648,0.260522 0.35547,0.596938 0.35547,1.009766 0,0.400803 -0.11529,0.727962 -0.34375,0.980468 -0.22846,0.252507 -0.50347,0.378907 -0.82812,0.378907 -0.33267,0 -0.61334,-0.128252 -0.8418,-0.384766 -0.22846,-0.256514 -0.34375,-0.602288 -0.34375,-1.035156 0,-0.384772 0.11529,-0.704423 0.34375,-0.960938 0.23246,-0.256514 0.50748,-0.384765 0.82812,-0.384765 z m -0.0117,3.648437 c 0.40882,0 0.76015,0.167333 1.05274,0.5 0.29259,0.328659 0.43945,0.763603 0.43945,1.304688 0,0.537077 -0.14316,0.964513 -0.42773,1.285156 -0.28457,0.320643 -0.63025,0.482422 -1.03906,0.482422 -0.40482,0 -0.75429,-0.165482 -1.04688,-0.494141 -0.28858,-0.332667 -0.43359,-0.769462 -0.43359,-1.310547 0,-0.521044 0.14131,-0.944778 0.42187,-1.273437 0.28457,-0.328659 0.62839,-0.494141 1.0332,-0.494141 z" />
    </g>
  </g>
</svg>
