<?xml version="1.0" encoding="UTF-8" standalone="no"?>
<svg
   version="1.1"
   width="18"
   height="18"
   viewBox="0 0 18 18"
   id="svg1714"
   xmlns="http://www.w3.org/2000/svg"
   xmlns:svg="http://www.w3.org/2000/svg">
  <defs
     id="defs1718">
    <rect
       x="32.567797"
       y="-13.805085"
       width="44.389831"
       height="38.898305"
       id="rect2002" />
    <rect
       x="22.5"
       y="-2.2118644"
       width="28.525424"
       height="24.559322"
       id="rect1996" />
    <rect
       x="40.805085"
       y="-10.525424"
       width="65.898305"
       height="40.652542"
       id="rect1990" />
    <rect
       x="39.661017"
       y="-9.1525424"
       width="44.237288"
       height="35.389831"
       id="rect1984" />
    <rect
       x="21.279661"
       y="-2.8983051"
       width="36.228814"
       height="33.330508"
       id="rect1978" />
    <rect
       x="17.313559"
       y="1.9067797"
       width="18.228814"
       height="14.338983"
       id="rect1972" />
    <rect
       x="22.576271"
       y="-1.4491525"
       width="29.516949"
       height="22.957627"
       id="rect1966" />
  </defs>
  <g
     id="g1783"
     transform="translate(-452.85504,-37.644012)">
    <text
       xml:space="preserve"
       transform="translate(452.85504,37.644012)"
       id="text1964"
       style="white-space:pre;shape-inside:url(#rect1966);display:inline;fill:#000000" />
    <text
       xml:space="preserve"
       transform="translate(452.85504,37.644012)"
       id="text1970"
       style="white-space:pre;shape-inside:url(#rect1972);display:inline;fill:#000000" />
    <text
       xml:space="preserve"
       transform="translate(452.85504,37.644012)"
       id="text1976"
       style="white-space:pre;shape-inside:url(#rect1978);display:inline;fill:#000000" />
    <text
       xml:space="preserve"
       transform="translate(452.85504,37.644012)"
       id="text1982"
       style="white-space:pre;shape-inside:url(#rect1984);display:inline;fill:#000000" />
    <text
       xml:space="preserve"
       transform="translate(452.85504,37.644012)"
       id="text1988"
       style="white-space:pre;shape-inside:url(#rect1990);display:inline;fill:#000000" />
  </g>
  <path
     id="circle515"
     style="fill:#000000;fill-opacity:1;stroke:none;stroke-width:1.04984;stroke-dasharray:none"
     d="M 8.99994,0 A 8.9999995,8.9999997 0 0 0 0,8.999991 8.9999995,8.9999997 0 0 0 8.99994,17.999997 8.9999995,8.9999997 0 0 0 18.00002,8.999991 8.9999995,8.9999997 0 0 0 8.99994,0 Z M 6.16217,4.49999 c 0.60119,0 1.10119,0.21372 1.49801,0.64258 0.40075,0.42886 0.59958,0.982806 0.59958,1.660157 0,0.424856 -0.0877,0.785437 -0.26367,1.082035 -0.17631,0.292587 -0.44216,0.521223 -0.79883,0.685552 0.43686,0.172336 0.7715,0.451157 1.00392,0.835932 0.23644,0.384769 0.35349,0.860542 0.35349,1.429685 0,0.785579 -0.2286,1.426832 -0.68555,1.923833 -0.45289,0.492989 -1.01608,0.74023 -1.68942,0.74023 -0.6814,0 -1.25013,-0.247241 -1.70708,-0.74023 -0.45288,-0.497001 -0.67969,-1.14752 -0.67969,-1.953128 0,-0.589179 0.12091,-1.074316 0.3614,-1.455077 C 4.39872,8.966779 4.73523,8.70658 5.16398,8.570314 4.80738,8.409988 4.53791,8.181361 4.35356,7.884762 4.17313,7.584161 4.0821,7.210513 4.0821,6.765618 4.0821,6.09628 4.2791,5.5517 4.6718,5.13086 5.06869,4.71001 5.5649,4.49999 6.16217,4.49999 Z m 4.11321,0.15625 h 3.5879 V 5.6914 H 10.9844 l -0.39064,2.367193 c 0.42881,-0.368742 0.88232,-0.552737 1.3632,-0.552737 0.60525,0 1.13133,0.258353 1.57623,0.77539 0.44884,0.513028 0.67383,1.206323 0.67383,2.080072 0,0.861729 -0.22499,1.601512 -0.67383,2.218756 -0.4449,0.613228 -1.04338,0.91992 -1.79694,0.91992 -0.62514,0 -1.15497,-0.215567 -1.58788,-0.648437 -0.42876,-0.436872 -0.6742,-1.040996 -0.73426,-1.810544 l 0.93165,-0.0957 c 0.0728,0.561125 0.2357,0.979299 0.48822,1.255862 0.25658,0.272542 0.55205,0.408197 0.88863,0.408197 0.42089,0 0.78525,-0.191397 1.08984,-0.576172 0.30472,-0.388778 0.45508,-0.918542 0.45508,-1.587893 0,-0.629261 -0.14669,-1.11624 -0.44329,-1.460927 -0.29261,-0.348702 -0.66258,-0.521498 -1.10749,-0.521498 -0.26847,0 -0.52129,0.07626 -0.75778,0.228525 -0.23242,0.148296 -0.4164,0.35646 -0.55272,0.624999 L 9.57032,9.183599 Z M 6.16797,5.39061 c -0.32062,0 -0.59761,0.12826 -0.83005,0.38477 -0.22857,0.25652 -0.34183,0.576171 -0.34183,0.96094 0,0.432871 0.11326,0.778645 0.34183,1.035157 C 5.56636,8.028 5.84704,8.156238 6.1797,8.156238 6.50436,8.156238 6.78131,8.029846 7.00975,7.77734 7.23825,7.524834 7.35348,7.197672 7.35348,6.796871 7.35348,6.384043 7.23451,6.04762 6.99808,5.7871 6.76565,5.52257 6.48865,5.39061 6.16797,5.39061 Z m -0.0118,3.648452 c -0.4048,0 -0.74861,0.163519 -1.03318,0.492179 -0.28058,0.32866 -0.42188,0.754349 -0.42188,1.275395 0,0.541087 0.14506,0.977883 0.4336,1.310553 0.29256,0.328658 0.64011,0.492179 1.04492,0.492179 0.40874,0 0.75644,-0.159825 1.04102,-0.480464 C 7.50522,11.808257 7.6464,11.380819 7.6464,10.843746 7.6464,10.30266 7.50147,9.867716 7.20891,9.539056 6.91631,9.206388 6.56504,9.039062 6.15617,9.039062 Z" />
</svg>
