<?xml version="1.0" encoding="UTF-8" standalone="no"?>
<svg
   version="1.1"
   width="18"
   height="18"
   viewBox="0 0 18 18"
   id="svg1714"
   xmlns="http://www.w3.org/2000/svg"
   xmlns:svg="http://www.w3.org/2000/svg">
  <defs
     id="defs1718">
    <rect
       x="32.567797"
       y="-13.805085"
       width="44.389831"
       height="38.898305"
       id="rect2002" />
    <rect
       x="22.5"
       y="-2.2118644"
       width="28.525424"
       height="24.559322"
       id="rect1996" />
    <rect
       x="40.805085"
       y="-10.525424"
       width="65.898305"
       height="40.652542"
       id="rect1990" />
    <rect
       x="39.661017"
       y="-9.1525424"
       width="44.237288"
       height="35.389831"
       id="rect1984" />
    <rect
       x="21.279661"
       y="-2.8983051"
       width="36.228814"
       height="33.330508"
       id="rect1978" />
    <rect
       x="17.313559"
       y="1.9067797"
       width="18.228814"
       height="14.338983"
       id="rect1972" />
    <rect
       x="22.576271"
       y="-1.4491525"
       width="29.516949"
       height="22.957627"
       id="rect1966" />
  </defs>
  <g
     id="g1783"
     transform="translate(-452.85504,-37.644012)">
    <text
       xml:space="preserve"
       transform="translate(452.85504,37.644012)"
       id="text1964"
       style="white-space:pre;shape-inside:url(#rect1966);display:inline;fill:#000000" />
    <text
       xml:space="preserve"
       transform="translate(452.85504,37.644012)"
       id="text1970"
       style="white-space:pre;shape-inside:url(#rect1972);display:inline;fill:#000000" />
    <text
       xml:space="preserve"
       transform="translate(452.85504,37.644012)"
       id="text1976"
       style="white-space:pre;shape-inside:url(#rect1978);display:inline;fill:#000000" />
    <text
       xml:space="preserve"
       transform="translate(452.85504,37.644012)"
       id="text1982"
       style="white-space:pre;shape-inside:url(#rect1984);display:inline;fill:#000000" />
    <text
       xml:space="preserve"
       transform="translate(452.85504,37.644012)"
       id="text1988"
       style="white-space:pre;shape-inside:url(#rect1990);display:inline;fill:#000000" />
  </g>
  <g
     id="g8279"
     transform="translate(3.93816e-7,4.6267516e-5)">
    <path
       id="text1906"
       style="font-stretch:condensed;font-size:12.3131px;font-family:'Arial Narrow';-inkscape-font-specification:'Arial Narrow Condensed';opacity:0.98;fill:#000000;stroke-width:0.307811;paint-order:markers fill stroke"
       d="m 6.1627147,4.4995291 c -0.5972169,0 -1.0954074,0.2099899 -1.4922159,0.6308474 C 4.2776985,5.551234 4.082597,6.0977004 4.082597,6.7670642 c 0,0.4449065 0.089169,0.8165538 0.2695364,1.1171662 C 4.536509,8.1808348 4.807922,8.4094376 5.1646488,8.5697643 4.735775,8.706042 4.3993621,8.9662155 4.154864,9.3509995 3.914374,9.7317753 3.793529,10.216849 3.793529,10.80605 c 0,0.805641 0.2267776,1.458028 0.6797004,1.955041 0.456931,0.493004 1.0256754,0.738267 1.7070637,0.738267 0.673372,0 1.2365624,-0.245263 1.6894853,-0.738267 0.4569309,-0.497013 0.6855599,-1.138191 0.6855599,-1.923792 0,-0.569159 -0.1189937,-1.0468291 -0.3554755,-1.4316131 C 7.9673891,9.0209019 7.6328276,8.7421155 7.1959374,8.5697643 7.5526642,8.4054295 7.8203746,8.1768266 7.9967339,7.8842304 8.1730932,7.5876261 8.2604108,7.2270854 8.2604108,6.8022198 8.2604108,6.1248396 8.0596535,5.572922 7.6588368,5.1440481 7.2620284,4.7151743 6.7639396,4.4995291 6.1627147,4.4995291 Z m 4.1114063,0.1562471 -0.7031384,4.5272577 0.8359534,0.13281 c 0.136278,-0.2685472 0.320271,-0.476686 0.552745,-0.6249882 0.236482,-0.1523103 0.48928,-0.2285112 0.757827,-0.2285112 0.444906,0 0.814847,0.174717 1.107443,0.5234275 0.296604,0.3447023 0.443367,0.8316276 0.443367,1.46091 0,0.669364 -0.152419,1.197115 -0.457039,1.585907 -0.304621,0.384784 -0.667054,0.578114 -1.087912,0.578114 -0.336686,0 -0.632166,-0.13564 -0.888689,-0.408195 -0.252514,-0.276564 -0.416143,-0.696646 -0.48829,-1.257789 l -0.9316584,0.0957 c 0.060123,0.769568 0.3055151,1.373623 0.7343894,1.810513 0.432882,0.432882 0.960693,0.648425 1.585967,0.648425 0.753536,0 1.353956,-0.306655 1.798863,-0.919904 0.448914,-0.617258 0.671887,-1.354999 0.671887,-2.216755 0,-0.8737803 -0.222973,-1.5689464 -0.671887,-2.0819917 -0.444907,-0.5170535 -0.970969,-0.7753759 -1.576202,-0.7753759 -0.48098,0 -0.936387,0.1859256 -1.365261,0.554677 l 0.392586,-2.3690957 h 2.878961 V 4.6557762 Z m -4.1055469,0.734361 c 0.3206534,0 0.5976203,0.1319379 0.8300939,0.3964769 0.2364819,0.2605308 0.3535224,0.5969052 0.3535224,1.0097464 0,0.4008166 -0.1133379,0.7279356 -0.3418034,0.9804501 C 6.7819215,8.0293251 6.5049546,8.1557097 6.1802931,8.1557097 5.8476153,8.1557097 5.5669457,8.027474 5.3384802,7.7709514 5.1100147,7.5144287 4.9966769,7.1686968 4.9966769,6.7358148 c 0,-0.384784 0.1133378,-0.7043966 0.3418033,-0.9609193 C 5.5709539,5.5183729 5.8479208,5.3901372 6.1685741,5.3901372 Z m -0.011719,3.6483682 c 0.408833,0 0.758205,0.1673127 1.0508012,0.4999905 0.2925961,0.3286696 0.4394615,0.7635601 0.4394615,1.3046631 0,0.537094 -0.1412095,0.966431 -0.4257894,1.287085 -0.2845798,0.320653 -0.6322024,0.480459 -1.0410354,0.480459 -0.4048248,0 -0.7542987,-0.165461 -1.0468949,-0.494131 -0.288588,-0.332678 -0.4316488,-0.76942 -0.4316488,-1.310522 0,-0.521062 0.1393582,-0.9447437 0.4199298,-1.2734134 0.28458,-0.3286696 0.6303512,-0.4941312 1.035176,-0.4941312 z"
       transform="scale(0.99998099,1.000019)" />
    <ellipse
       style="fill:none;fill-opacity:1;stroke:#000000;stroke-width:1.19928;stroke-dasharray:0.755549;stroke-dashoffset:0;stroke-opacity:1"
       id="ellipse1908"
       cx="8.9999857"
       cy="9.004199"
       rx="8.4002981"
       ry="8.4045572" />
  </g>
</svg>
