<?xml version="1.0" encoding="UTF-8" standalone="no"?>
<svg
   version="1.1"
   width="18"
   height="18"
   viewBox="0 0 18 18"
   id="svg1714"
   xmlns="http://www.w3.org/2000/svg"
   xmlns:svg="http://www.w3.org/2000/svg">
  <defs
     id="defs1718">
    <rect
       x="32.567797"
       y="-13.805085"
       width="44.389831"
       height="38.898305"
       id="rect2002" />
    <rect
       x="22.5"
       y="-2.2118644"
       width="28.525424"
       height="24.559322"
       id="rect1996" />
    <rect
       x="40.805085"
       y="-10.525424"
       width="65.898305"
       height="40.652542"
       id="rect1990" />
    <rect
       x="39.661017"
       y="-9.1525424"
       width="44.237288"
       height="35.389831"
       id="rect1984" />
    <rect
       x="21.279661"
       y="-2.8983051"
       width="36.228814"
       height="33.330508"
       id="rect1978" />
    <rect
       x="17.313559"
       y="1.9067797"
       width="18.228814"
       height="14.338983"
       id="rect1972" />
    <rect
       x="22.576271"
       y="-1.4491525"
       width="29.516949"
       height="22.957627"
       id="rect1966" />
  </defs>
  <g
     id="g1783"
     transform="translate(-452.85504,-37.644012)">
    <text
       xml:space="preserve"
       transform="translate(452.85504,37.644012)"
       id="text1964"
       style="white-space:pre;shape-inside:url(#rect1966);display:inline;fill:#000000" />
    <text
       xml:space="preserve"
       transform="translate(452.85504,37.644012)"
       id="text1970"
       style="white-space:pre;shape-inside:url(#rect1972);display:inline;fill:#000000" />
    <text
       xml:space="preserve"
       transform="translate(452.85504,37.644012)"
       id="text1976"
       style="white-space:pre;shape-inside:url(#rect1978);display:inline;fill:#000000" />
    <text
       xml:space="preserve"
       transform="translate(452.85504,37.644012)"
       id="text1982"
       style="white-space:pre;shape-inside:url(#rect1984);display:inline;fill:#000000" />
    <text
       xml:space="preserve"
       transform="translate(452.85504,37.644012)"
       id="text1988"
       style="white-space:pre;shape-inside:url(#rect1990);display:inline;fill:#000000" />
  </g>
  <path
     id="rect4144"
     style="opacity:0.98;fill:#000000;fill-opacity:1;stroke:none;stroke-width:1.28507;stroke-dasharray:none;stroke-opacity:1;paint-order:markers fill stroke"
     d="M 2.30856,0 C 1.02973,0 0,1.02978 0,2.3086 v 13.38274 c 0,1.27884 1.02973,2.30862 2.30856,2.30862 h 13.3828 c 1.27875,0 2.30861,-1.02978 2.30861,-2.30862 V 2.3086 C 17.99997,1.02978 16.97011,0 15.69136,0 Z m 3.8535,4.49989 c 0.60118,0 1.10125,0.2138 1.49801,0.64269 0.40084,0.42887 0.59957,0.98276 0.59957,1.66008 0,0.4249 -0.0876,0.78541 -0.26355,1.08208 -0.17643,0.29254 -0.44216,0.52121 -0.79882,0.68554 0.43687,0.17232 0.77137,0.45121 1.00386,0.83599 0.23649,0.38478 0.3535,0.86049 0.3535,1.42963 0,0.78552 -0.22855,1.42687 -0.6855,1.92384 -0.45289,0.49298 -1.01614,0.74018 -1.68954,0.74018 -0.68127,0 -1.25001,-0.2472 -1.70696,-0.74018 C 4.01975,12.26277 3.79294,11.61226 3.79294,10.80657 3.79294,10.21735 3.91373,9.73232 4.1542,9.35159 4.39874,8.9668 4.73511,8.70657 5.16405,8.57028 4.80727,8.40988 4.53778,8.18133 4.35344,7.88474 4.17309,7.58413 4.08199,7.21048 4.08199,6.76552 4.08199,6.09621 4.27904,5.55166 4.67187,5.13084 5.06864,4.71001 5.56486,4.49989 6.16206,4.49989 Z m 4.11328,0.15636 h 3.58789 v 1.03511 h -2.87894 l -0.39052,2.36723 c 0.42881,-0.36881 0.88227,-0.55277 1.36321,-0.55277 0.60524,0 1.13132,0.25842 1.5762,0.77535 0.44891,0.51301 0.67386,1.20634 0.67386,2.08006 0,0.86178 -0.22495,1.60155 -0.67386,2.21884 -0.44488,0.61323 -1.04331,0.91985 -1.79686,0.91985 -0.62533,0 -1.15508,-0.2156 -1.58789,-0.6484 -0.42893,-0.43685 -0.67426,-1.041 -0.73444,-1.81058 l 0.93164,-0.0958 c 0.0728,0.56114 0.23579,0.97935 0.48824,1.25593 0.25657,0.27254 0.55204,0.4081 0.88881,0.4081 0.42076,0 0.7852,-0.19131 1.08978,-0.5761 0.30459,-0.38885 0.45508,-0.91859 0.45508,-1.58789 0,-0.62933 -0.1468,-1.11631 -0.44335,-1.46099 C 12.53151,8.63551 12.16172,8.4627 11.71676,8.4627 c -0.26848,0 -0.52129,0.0764 -0.75778,0.22856 -0.23256,0.14829 -0.41652,0.35638 -0.55272,0.625 L 9.57027,9.18344 Z M 6.16792,5.39057 c -0.32063,0 -0.59763,0.12834 -0.83011,0.38477 -0.22839,0.25656 -0.34177,0.5762 -0.34177,0.96097 0,0.43289 0.11338,0.77858 0.34177,1.03518 C 5.5663,8.02791 5.84699,8.1562 6.17959,8.1562 6.50431,8.1562 6.7812,8.02978 7.00976,7.77733 7.23819,7.52481 7.35348,7.19761 7.35348,6.79687 7.35348,6.38395 7.23452,6.04756 6.99797,5.78708 6.76554,5.52253 6.48853,5.39057 6.16792,5.39057 Z m -0.0118,3.64844 c -0.40481,0 -0.74869,0.16359 -1.03324,0.49221 -0.28053,0.32864 -0.42196,0.75437 -0.42196,1.27535 0,0.54107 0.14506,0.97784 0.43366,1.31056 0.29263,0.32866 0.64005,0.49217 1.04487,0.49217 0.40891,0 0.7565,-0.15982 1.041,-0.48043 0.2847,-0.32068 0.42584,-0.74805 0.42584,-1.28514 0,-0.54107 -0.14488,-0.97612 -0.43749,-1.30478 C 6.91624,9.20638 6.56484,9.03901 6.15612,9.03901 Z" />
</svg>
