<?xml version="1.0" encoding="UTF-8" standalone="no"?>
<svg
   version="1.1"
   width="18"
   height="18"
   viewBox="0 0 18 18"
   id="svg1714"
   xmlns="http://www.w3.org/2000/svg"
   xmlns:svg="http://www.w3.org/2000/svg">
  <defs
     id="defs1718">
    <rect
       x="32.567797"
       y="-13.805085"
       width="44.389831"
       height="38.898305"
       id="rect2002" />
    <rect
       x="22.5"
       y="-2.2118644"
       width="28.525424"
       height="24.559322"
       id="rect1996" />
    <rect
       x="40.805085"
       y="-10.525424"
       width="65.898305"
       height="40.652542"
       id="rect1990" />
    <rect
       x="39.661017"
       y="-9.1525424"
       width="44.237288"
       height="35.389831"
       id="rect1984" />
    <rect
       x="21.279661"
       y="-2.8983051"
       width="36.228814"
       height="33.330508"
       id="rect1978" />
    <rect
       x="17.313559"
       y="1.9067797"
       width="18.228814"
       height="14.338983"
       id="rect1972" />
    <rect
       x="22.576271"
       y="-1.4491525"
       width="29.516949"
       height="22.957627"
       id="rect1966" />
  </defs>
  <g
     id="g1783"
     transform="translate(-452.85504,-37.644012)">
    <text
       xml:space="preserve"
       transform="translate(452.85504,37.644012)"
       id="text1964"
       style="white-space:pre;shape-inside:url(#rect1966);display:inline;fill:#000000" />
    <text
       xml:space="preserve"
       transform="translate(452.85504,37.644012)"
       id="text1970"
       style="white-space:pre;shape-inside:url(#rect1972);display:inline;fill:#000000" />
    <text
       xml:space="preserve"
       transform="translate(452.85504,37.644012)"
       id="text1976"
       style="white-space:pre;shape-inside:url(#rect1978);display:inline;fill:#000000" />
    <text
       xml:space="preserve"
       transform="translate(452.85504,37.644012)"
       id="text1982"
       style="white-space:pre;shape-inside:url(#rect1984);display:inline;fill:#000000" />
    <text
       xml:space="preserve"
       transform="translate(452.85504,37.644012)"
       id="text1988"
       style="white-space:pre;shape-inside:url(#rect1990);display:inline;fill:#000000" />
  </g>
  <g
     id="g12637">
    <path
       id="text4135"
       style="font-stretch:condensed;font-size:12.3127px;font-family:'Arial Narrow';-inkscape-font-specification:'Arial Narrow Condensed';opacity:0.98;fill:#000000;stroke-width:0.307819;paint-order:markers fill stroke"
       d="m 6.1625488,4.50032 c -0.5971975,0 -1.0953919,0.2100155 -1.4921875,0.6308594 -0.3927876,0.4208438 -0.5878907,0.9654235 -0.5878907,1.6347656 0,0.444892 0.08917,0.8185379 0.2695313,1.1191406 0.1843697,0.2965947 0.4557847,0.5252254 0.8125,0.6855469 C 4.735642,8.7069057 4.3992265,8.967111 4.1547363,9.3518825 3.9142541,9.732646 3.7934081,10.217779 3.7934081,10.806961 c 0,0.805615 0.2267794,1.456128 0.6796875,1.953125 0.4569162,0.492988 1.0256651,0.740234 1.7070313,0.740234 0.6733501,0 1.236545,-0.247246 1.6894531,-0.740234 0.4569162,-0.496997 0.6855469,-1.138253 0.6855469,-1.923829 0,-0.569141 -0.1189946,-1.0449155 -0.3554688,-1.429687 C 7.967192,9.0217985 7.6326278,8.7429781 7.1957519,8.5706325 7.5524671,8.406303 7.8201795,8.1776723 7.9965331,7.8850856 8.1728867,7.5884909 8.260205,7.2279062 8.260205,6.8030544 8.260205,6.1256962 8.0594461,5.571758 7.6586425,5.1428981 7.2618469,4.7140382 6.7637542,4.50032 6.1625488,4.50032 Z M 10.273877,4.65657 9.5707519,9.1839137 10.406689,9.3147731 c 0.136274,-0.2685384 0.320269,-0.4767026 0.552735,-0.625 0.236474,-0.1523054 0.489274,-0.2285156 0.757812,-0.2285156 0.444892,0 0.812882,0.1747383 1.105469,0.5234375 0.296595,0.3446911 0.445313,0.8316758 0.445313,1.460937 -10e-7,0.669343 -0.152421,1.199112 -0.457032,1.587891 -0.304611,0.384772 -0.667047,0.576172 -1.08789,0.576172 -0.336675,0 -0.632158,-0.135657 -0.888672,-0.408203 -0.252507,-0.276555 -0.416137,-0.694734 -0.488281,-1.25586 l -0.9316411,0.0957 c 0.060121,0.769543 0.3055151,1.371717 0.7343751,1.808593 0.432868,0.432868 0.960684,0.650391 1.585937,0.650391 0.753511,0 1.353936,-0.306692 1.798829,-0.919922 0.4489,-0.617237 0.671875,-1.357022 0.671875,-2.21875 C 14.205517,9.4878962 13.982543,8.7945987 13.533643,8.28157 13.08875,7.7645333 12.562684,7.5061794 11.957471,7.5061794 c -0.480965,0 -0.936375,0.183995 -1.365235,0.5527343 l 0.392578,-2.3691406 h 2.878907 V 4.65657 Z M 6.1684081,5.3889919 c 0.3206429,0 0.597612,0.1339071 0.8300782,0.3984375 0.2364741,0.2605223 0.3535156,0.5969378 0.3535156,1.0097656 0,0.4008036 -0.1133388,0.7260093 -0.3417969,0.9785156 C 6.7817469,8.0282169 6.5047778,8.1546169 6.1801269,8.1546169 5.8474599,8.1546169 5.5667881,8.0263656 5.33833,7.7698512 5.1098719,7.5133369 4.9965331,7.1695161 4.9965331,6.7366481 4.9965331,6.3518766 5.1098719,6.0302718 5.33833,5.7737575 5.5707961,5.5172432 5.8477652,5.3889919 6.1684081,5.3889919 Z m -0.011719,3.6503906 c 0.4088197,0 0.7581946,0.1653799 1.0507812,0.4980469 0.2925867,0.328659 0.4394532,0.7636026 0.4394532,1.3046876 0,0.537077 -0.1412107,0.966466 -0.4257813,1.287109 -0.2845706,0.320643 -0.6321959,0.480469 -1.0410156,0.480469 -0.4048117,0 -0.7542884,-0.163529 -1.046875,-0.492188 C 4.844673,11.78484 4.701611,11.348046 4.701611,10.806961 4.701611,10.285916 4.8409703,9.860229 5.1215328,9.53157 5.4061037,9.202911 5.7518777,9.0393825 6.1566891,9.0393825 Z" />
    <rect
       style="opacity:0.98;fill:none;stroke:#000000;stroke-width:1.19939;stroke-dasharray:none;stroke-opacity:1;paint-order:markers fill stroke"
       id="rect4137"
       width="16.800611"
       height="16.800611"
       x="0.59969503"
       y="0.59969503"
       rx="2.1544993"
       ry="2.1544993" />
  </g>
</svg>
