<?xml version="1.0" encoding="UTF-8" standalone="no"?>
<svg
   version="1.1"
   width="18"
   height="18"
   viewBox="0 0 18 18"
   id="svg1714"
   xmlns="http://www.w3.org/2000/svg"
   xmlns:svg="http://www.w3.org/2000/svg">
  <defs
     id="defs1718">
    <rect
       x="32.567797"
       y="-13.805085"
       width="44.389831"
       height="38.898305"
       id="rect2002" />
    <rect
       x="22.5"
       y="-2.2118644"
       width="28.525424"
       height="24.559322"
       id="rect1996" />
    <rect
       x="40.805085"
       y="-10.525424"
       width="65.898305"
       height="40.652542"
       id="rect1990" />
    <rect
       x="39.661017"
       y="-9.1525424"
       width="44.237288"
       height="35.389831"
       id="rect1984" />
    <rect
       x="21.279661"
       y="-2.8983051"
       width="36.228814"
       height="33.330508"
       id="rect1978" />
    <rect
       x="17.313559"
       y="1.9067797"
       width="18.228814"
       height="14.338983"
       id="rect1972" />
    <rect
       x="22.576271"
       y="-1.4491525"
       width="29.516949"
       height="22.957627"
       id="rect1966" />
  </defs>
  <g
     id="g1783"
     transform="translate(-452.85504,-37.644012)">
    <text
       xml:space="preserve"
       transform="translate(452.85504,37.644012)"
       id="text1964"
       style="white-space:pre;shape-inside:url(#rect1966);display:inline;fill:#000000" />
    <text
       xml:space="preserve"
       transform="translate(452.85504,37.644012)"
       id="text1970"
       style="white-space:pre;shape-inside:url(#rect1972);display:inline;fill:#000000" />
    <text
       xml:space="preserve"
       transform="translate(452.85504,37.644012)"
       id="text1976"
       style="white-space:pre;shape-inside:url(#rect1978);display:inline;fill:#000000" />
    <text
       xml:space="preserve"
       transform="translate(452.85504,37.644012)"
       id="text1982"
       style="white-space:pre;shape-inside:url(#rect1984);display:inline;fill:#000000" />
    <text
       xml:space="preserve"
       transform="translate(452.85504,37.644012)"
       id="text1988"
       style="white-space:pre;shape-inside:url(#rect1990);display:inline;fill:#000000" />
  </g>
  <g
     id="g10468">
    <path
       id="text1902"
       style="font-stretch:condensed;font-size:12.3131px;font-family:'Arial Narrow';-inkscape-font-specification:'Arial Narrow Condensed';opacity:0.98;fill:#000000;stroke-width:0.307811;paint-order:markers fill stroke"
       d="m 6.161804,4.4992273 c -0.5972168,0 -1.0934542,0.211943 -1.4902627,0.6328004 -0.3928003,0.4208575 -0.589855,0.9653708 -0.589855,1.6347346 0,0.4449065 0.091122,0.8165538 0.2714896,1.1171663 0.1843756,0.2966043 0.4538354,0.5252072 0.8105623,0.6855338 -0.4288739,0.1362777 -0.7652867,0.3984043 -1.0097849,0.7831883 -0.2404899,0.3807758 -0.361335,0.8658503 -0.361335,1.4550503 0,0.805642 0.2267777,1.456075 0.6797005,1.953088 0.456931,0.493005 1.0276285,0.74022 1.7090168,0.74022 0.673372,0 1.2365625,-0.247215 1.6894853,-0.74022 0.456931,-0.497013 0.6836067,-1.138191 0.6836067,-1.923792 0,-0.569159 -0.1170405,-1.046829 -0.3535223,-1.431613 C 7.9684316,9.0206001 7.6338701,8.7418136 7.1969799,8.5694624 7.5537068,8.4051276 7.8194639,8.1765247 7.9958233,7.8839286 8.1721826,7.5873243 8.2614533,7.2267835 8.2614533,6.8019179 8.2614533,6.1245377 8.060696,5.5726201 7.6598794,5.1437463 7.2630709,4.7148725 6.763029,4.4992273 6.161804,4.4992273 Z m 4.113359,0.156247 -0.7031379,4.5272577 0.8359529,0.13281 c 0.136278,-0.2685472 0.320272,-0.476686 0.552745,-0.6249881 0.236482,-0.1523103 0.48928,-0.2285113 0.757827,-0.2285113 0.444907,0 0.812894,0.1747171 1.10549,0.5234276 0.296604,0.3447023 0.445321,0.8316276 0.445321,1.4609098 0,0.669364 -0.152419,1.197115 -0.45704,1.585907 -0.304621,0.384784 -0.667054,0.578114 -1.087911,0.578114 -0.336686,0 -0.63412,-0.13564 -0.890642,-0.408195 -0.252515,-0.276564 -0.414191,-0.696645 -0.486338,-1.257789 l -0.9316579,0.09765 c 0.060123,0.769568 0.303562,1.371669 0.7324359,1.808559 0.432882,0.432882 0.962647,0.650378 1.587921,0.650378 0.753535,0 1.352002,-0.306655 1.796909,-0.919904 0.448915,-0.617258 0.673841,-1.356952 0.673841,-2.218708 0,-0.8737802 -0.224926,-1.5669932 -0.673841,-2.0800385 C 13.088131,7.7653 12.564022,7.5069776 11.958789,7.5069776 c -0.48098,0 -0.936386,0.1839726 -1.36526,0.5527239 l 0.390632,-2.3690956 h 2.880914 V 4.6554743 Z m -4.1074995,0.734361 c 0.3206533,0 0.5976202,0.1319379 0.8300939,0.3964769 0.2364818,0.2605308 0.3554755,0.5969053 0.3554755,1.0097464 0,0.4008167 -0.115291,0.7279357 -0.3437565,0.9804501 C 6.7810109,8.0290232 6.5059971,8.1554078 6.1813356,8.1554078 5.8486578,8.1554078 5.5679882,8.0271721 5.3395228,7.7706495 5.1110573,7.5141268 4.9957662,7.1683949 4.9957662,6.7355129 c 0,-0.384784 0.1152911,-0.7043966 0.3437566,-0.9609192 C 5.5719964,5.518071 5.8470102,5.3898353 6.1676635,5.3898353 Z m -0.011719,3.6483682 c 0.408833,0 0.7601583,0.1673127 1.0527544,0.4999905 0.2925962,0.3286697 0.4394615,0.76356 0.4394615,1.304663 0,0.537094 -0.1431627,0.966431 -0.4277425,1.287085 -0.2845798,0.320653 -0.6302493,0.480459 -1.0390823,0.480459 -0.4048248,0 -0.7542987,-0.163508 -1.0468949,-0.492178 -0.288588,-0.332678 -0.433602,-0.769419 -0.433602,-1.310522 0,-0.521061 0.1413114,-0.9466966 0.4218831,-1.2753662 C 5.4073016,9.2036651 5.7511197,9.0382035 6.1559445,9.0382035 Z"
       transform="scale(0.99998099,1.000019)" />
    <rect
       style="opacity:0.98;fill:none;stroke:#000000;stroke-width:1.19939;stroke-dasharray:0.755616;stroke-dashoffset:0;stroke-opacity:1;paint-order:markers fill stroke"
       id="rect1915"
       width="16.800611"
       height="16.800611"
       x="0.59969503"
       y="0.59969503"
       rx="2.1544993"
       ry="2.1544993" />
  </g>
</svg>
