<?xml version="1.0" encoding="UTF-8" standalone="no"?>
<svg
   version="1.1"
   width="18"
   height="18"
   viewBox="0 0 18 18"
   id="svg1714"
   xmlns="http://www.w3.org/2000/svg"
   xmlns:svg="http://www.w3.org/2000/svg">
  <defs
     id="defs1718">
    <rect
       x="32.567797"
       y="-13.805085"
       width="44.389831"
       height="38.898305"
       id="rect2002" />
    <rect
       x="22.5"
       y="-2.2118644"
       width="28.525424"
       height="24.559322"
       id="rect1996" />
    <rect
       x="40.805085"
       y="-10.525424"
       width="65.898305"
       height="40.652542"
       id="rect1990" />
    <rect
       x="39.661017"
       y="-9.1525424"
       width="44.237288"
       height="35.389831"
       id="rect1984" />
    <rect
       x="21.279661"
       y="-2.8983051"
       width="36.228814"
       height="33.330508"
       id="rect1978" />
    <rect
       x="17.313559"
       y="1.9067797"
       width="18.228814"
       height="14.338983"
       id="rect1972" />
    <rect
       x="22.576271"
       y="-1.4491525"
       width="29.516949"
       height="22.957627"
       id="rect1966" />
  </defs>
  <g
     id="g1783"
     transform="translate(-452.85504,-37.644012)">
    <text
       xml:space="preserve"
       transform="translate(452.85504,37.644012)"
       id="text1964"
       style="white-space:pre;shape-inside:url(#rect1966);display:inline;fill:#000000" />
    <text
       xml:space="preserve"
       transform="translate(452.85504,37.644012)"
       id="text1970"
       style="white-space:pre;shape-inside:url(#rect1972);display:inline;fill:#000000" />
    <text
       xml:space="preserve"
       transform="translate(452.85504,37.644012)"
       id="text1976"
       style="white-space:pre;shape-inside:url(#rect1978);display:inline;fill:#000000" />
    <text
       xml:space="preserve"
       transform="translate(452.85504,37.644012)"
       id="text1982"
       style="white-space:pre;shape-inside:url(#rect1984);display:inline;fill:#000000" />
    <text
       xml:space="preserve"
       transform="translate(452.85504,37.644012)"
       id="text1988"
       style="white-space:pre;shape-inside:url(#rect1990);display:inline;fill:#000000" />
  </g>
  <g
     id="g6990"
     transform="translate(-515.44917,65.243999)">
    <path
       id="text1173"
       style="font-stretch:condensed;font-size:12.3136px;font-family:'Arial Narrow';-inkscape-font-specification:'Arial Narrow Condensed';opacity:0.98;fill:#000000;stroke-width:0.307824;paint-order:markers fill stroke"
       d="m 524.33703,-60.745599 c -0.63332,0 -1.17223,0.267693 -1.61715,0.800801 -0.44092,0.529099 -0.6621,1.253918 -0.6621,2.175833 0,0.893858 0.21378,1.598211 0.63866,2.115286 0.42889,0.513066 0.93808,0.769549 1.52731,0.769549 0.32467,0 0.6424,-0.104074 0.95505,-0.312507 0.31265,-0.208433 0.56169,-0.490936 0.74608,-0.847677 v 0.216802 c 0,0.689433 -0.0836,1.293516 -0.25195,1.810591 -0.16835,0.517074 -0.37462,0.877632 -0.61913,1.082057 -0.24049,0.200416 -0.51,0.300788 -0.80662,0.300788 -0.66538,0 -1.06681,-0.464632 -1.20309,-1.394564 l -0.8535,0.09571 c 0.0721,0.709474 0.29333,1.252162 0.6621,1.628945 0.36876,0.372775 0.82777,0.558607 1.37692,0.558607 0.485,0 0.9217,-0.15426 1.31051,-0.462901 0.39282,-0.308642 0.70314,-0.797441 0.93162,-1.466832 0.22847,-0.669391 0.34374,-1.609865 0.34374,-2.820381 0,-1.086257 -0.10786,-1.917001 -0.3203,-2.4942 -0.21244,-0.577199 -0.51156,-1.013962 -0.90037,-1.310578 -0.38881,-0.296617 -0.80885,-0.445324 -1.25778,-0.445324 z m 0.10351,0.896506 c 0.36476,0 0.68619,0.180279 0.96677,0.541029 0.28059,0.36075 0.42187,0.855103 0.42187,1.484411 0,0.633316 -0.13758,1.122115 -0.41015,1.466832 -0.27257,0.344716 -0.60521,0.51759 -0.99802,0.51759 -0.39683,0 -0.73687,-0.171023 -1.02146,-0.511731 -0.28459,-0.344716 -0.42773,-0.805646 -0.42773,-1.382845 0,-0.641333 0.14869,-1.1543 0.44531,-1.5391 0.30062,-0.3848 0.64262,-0.576186 1.02341,-0.576186 z"
       transform="scale(1.000024,0.999976)" />
    <ellipse
       style="fill:none;fill-opacity:1;stroke:#000000;stroke-width:1.19928;stroke-dasharray:0.755549;stroke-dashoffset:0;stroke-opacity:1"
       id="ellipse1175"
       cx="524.44916"
       cy="-56.239754"
       rx="8.4002981"
       ry="8.4045572" />
  </g>
</svg>
