<?xml version="1.0" encoding="UTF-8" standalone="no"?>
<svg
   version="1.1"
   width="18"
   height="18"
   viewBox="0 0 18 18"
   id="svg1714"
   xmlns="http://www.w3.org/2000/svg"
   xmlns:svg="http://www.w3.org/2000/svg">
  <defs
     id="defs1718">
    <rect
       x="32.567797"
       y="-13.805085"
       width="44.389831"
       height="38.898305"
       id="rect2002" />
    <rect
       x="22.5"
       y="-2.2118644"
       width="28.525424"
       height="24.559322"
       id="rect1996" />
    <rect
       x="40.805085"
       y="-10.525424"
       width="65.898305"
       height="40.652542"
       id="rect1990" />
    <rect
       x="39.661017"
       y="-9.1525424"
       width="44.237288"
       height="35.389831"
       id="rect1984" />
    <rect
       x="21.279661"
       y="-2.8983051"
       width="36.228814"
       height="33.330508"
       id="rect1978" />
    <rect
       x="17.313559"
       y="1.9067797"
       width="18.228814"
       height="14.338983"
       id="rect1972" />
    <rect
       x="22.576271"
       y="-1.4491525"
       width="29.516949"
       height="22.957627"
       id="rect1966" />
  </defs>
  <g
     id="g1783"
     transform="translate(-452.85504,-37.644012)">
    <text
       xml:space="preserve"
       transform="translate(452.85504,37.644012)"
       id="text1964"
       style="white-space:pre;shape-inside:url(#rect1966);display:inline;fill:#000000" />
    <text
       xml:space="preserve"
       transform="translate(452.85504,37.644012)"
       id="text1970"
       style="white-space:pre;shape-inside:url(#rect1972);display:inline;fill:#000000" />
    <text
       xml:space="preserve"
       transform="translate(452.85504,37.644012)"
       id="text1976"
       style="white-space:pre;shape-inside:url(#rect1978);display:inline;fill:#000000" />
    <text
       xml:space="preserve"
       transform="translate(452.85504,37.644012)"
       id="text1982"
       style="white-space:pre;shape-inside:url(#rect1984);display:inline;fill:#000000" />
    <text
       xml:space="preserve"
       transform="translate(452.85504,37.644012)"
       id="text1988"
       style="white-space:pre;shape-inside:url(#rect1990);display:inline;fill:#000000" />
  </g>
  <path
     id="circle433"
     style="fill:#000000;fill-opacity:1;stroke:none;stroke-width:1.04984;stroke-dasharray:none"
     d="M 9.00008,0 A 8.9999995,8.9999997 0 0 0 0,8.999991 8.9999995,8.9999997 0 0 0 9.00008,17.999997 8.9999995,8.9999997 0 0 0 18.00003,8.999991 8.9999995,8.9999997 0 0 0 9.00008,0 Z m -0.0995,4.49999 c 0.44894,0 0.86899,0.1487 1.25786,0.44532 0.38881,0.29662 0.68786,0.73333 0.90036,1.310537 0.21243,0.577222 0.32028,1.407861 0.32028,2.494148 0,1.210547 -0.11528,2.150907 -0.34367,2.82031 -0.22853,0.669416 -0.53892,1.15815 -0.93165,1.466803 -0.38888,0.308648 -0.82557,0.462886 -1.31057,0.462886 -0.54918,0 -1.00818,-0.185811 -1.37697,-0.558594 C 7.04741,12.564609 6.8262,12.021988 6.75411,11.312494 l 0.85351,-0.09568 c 0.13628,0.92995 0.53773,1.394533 1.20316,1.394533 0.29664,0 0.56616,-0.100366 0.80666,-0.300781 0.24442,-0.204426 0.45074,-0.564948 0.61909,-1.082037 0.16833,-0.51708 0.25193,-1.121091 0.25193,-1.810544 V 9.201189 c -0.18435,0.356751 -0.43337,0.639219 -0.74609,0.847661 -0.3126,0.208428 -0.63035,0.314446 -0.95505,0.314446 -0.58927,0 -1.09847,-0.258404 -1.52733,-0.771482 C 6.83506,9.074728 6.62128,8.370458 6.62128,7.476578 6.62128,6.554646 6.8425,5.82796 7.28338,5.29884 7.72833,4.76573 8.26729,4.50002 8.90058,4.50002 Z M 9.0041,5.39648 c -0.38077,0 -0.72274,0.19136 -1.02343,0.57617 C 7.68403,6.357465 7.5354,6.870371 7.5354,7.511715 c 0,0.577213 0.14315,1.038082 0.42768,1.382812 0.28465,0.340708 0.62466,0.511719 1.02145,0.511719 0.39294,0 0.72553,-0.172856 0.99812,-0.517576 0.27259,-0.344728 0.4101,-0.833465 0.4101,-1.4668 0,-0.62933 -0.14122,-1.123619 -0.42189,-1.48438 C 9.69032,5.57673 9.36883,5.39648 9.0041,5.39648 Z" />
</svg>
