<?xml version="1.0" encoding="UTF-8" standalone="no"?>
<svg
   version="1.1"
   width="18"
   height="18"
   viewBox="0 0 18 18"
   id="svg1714"
   xmlns="http://www.w3.org/2000/svg"
   xmlns:svg="http://www.w3.org/2000/svg">
  <defs
     id="defs1718">
    <rect
       x="32.567797"
       y="-13.805085"
       width="44.389831"
       height="38.898305"
       id="rect2002" />
    <rect
       x="22.5"
       y="-2.2118644"
       width="28.525424"
       height="24.559322"
       id="rect1996" />
    <rect
       x="40.805085"
       y="-10.525424"
       width="65.898305"
       height="40.652542"
       id="rect1990" />
    <rect
       x="39.661017"
       y="-9.1525424"
       width="44.237288"
       height="35.389831"
       id="rect1984" />
    <rect
       x="21.279661"
       y="-2.8983051"
       width="36.228814"
       height="33.330508"
       id="rect1978" />
    <rect
       x="17.313559"
       y="1.9067797"
       width="18.228814"
       height="14.338983"
       id="rect1972" />
    <rect
       x="22.576271"
       y="-1.4491525"
       width="29.516949"
       height="22.957627"
       id="rect1966" />
  </defs>
  <g
     id="g1783"
     transform="translate(-452.85504,-37.644012)">
    <text
       xml:space="preserve"
       transform="translate(452.85504,37.644012)"
       id="text1964"
       style="white-space:pre;shape-inside:url(#rect1966);display:inline;fill:#000000" />
    <text
       xml:space="preserve"
       transform="translate(452.85504,37.644012)"
       id="text1970"
       style="white-space:pre;shape-inside:url(#rect1972);display:inline;fill:#000000" />
    <text
       xml:space="preserve"
       transform="translate(452.85504,37.644012)"
       id="text1976"
       style="white-space:pre;shape-inside:url(#rect1978);display:inline;fill:#000000" />
    <text
       xml:space="preserve"
       transform="translate(452.85504,37.644012)"
       id="text1982"
       style="white-space:pre;shape-inside:url(#rect1984);display:inline;fill:#000000" />
    <text
       xml:space="preserve"
       transform="translate(452.85504,37.644012)"
       id="text1988"
       style="white-space:pre;shape-inside:url(#rect1990);display:inline;fill:#000000" />
  </g>
  <path
     id="rect3661"
     style="opacity:0.98;fill:#000000;fill-opacity:1;stroke:none;stroke-width:1.28507;stroke-dasharray:none;stroke-opacity:1;paint-order:markers fill stroke"
     d="M 2.30857,0 C 1.02974,0 0,1.02978 0,2.3086 v 13.38274 c 0,1.27884 1.02974,2.30862 2.30857,2.30862 h 13.38277 c 1.27883,0 2.30864,-1.02978 2.30864,-2.30862 V 2.3086 C 17.99998,1.02978 16.97017,0 15.69134,0 Z m 6.59177,4.49989 c 0.44894,0 0.86897,0.14878 1.25778,0.44534 0.38889,0.29671 0.68792,0.7334 0.90041,1.31056 0.21245,0.57731 0.32035,1.40789 0.32035,2.49424 0,1.2105 -0.11527,2.15083 -0.3438,2.82023 -0.22845,0.66943 -0.53871,1.15812 -0.93164,1.4668 -0.38882,0.30868 -0.82551,0.46286 -1.31051,0.46286 -0.54916,0 -1.00817,-0.18575 -1.37702,-0.55859 C 7.04723,12.56454 6.82607,12.02192 6.75386,11.3124 l 0.85357,-0.0956 c 0.13621,0.92995 0.53766,1.3945 1.20309,1.3945 0.29659,0 0.56611,-0.10004 0.80667,-0.30071 0.24442,-0.2045 0.45074,-0.56501 0.61914,-1.08206 0.16834,-0.51718 0.25189,-1.1212 0.25189,-1.81058 V 9.20118 c -0.18437,0.3567 -0.43338,0.63919 -0.74605,0.84763 -0.31271,0.20838 -0.63046,0.31441 -0.95516,0.31441 -0.58914,0 -1.09842,-0.2584 -1.52727,-0.77141 -0.42493,-0.5171 -0.63865,-1.2214 -0.63865,-2.1153 0,-0.92189 0.22113,-1.64862 0.6621,-2.17764 C 7.72807,4.76572 8.26702,4.4999 8.90034,4.4999 Z m 0.1035,0.89648 c -0.38084,0 -0.72279,0.19149 -1.02343,0.57625 -0.29663,0.38482 -0.44526,0.8977 -0.44526,1.53901 0,0.57729 0.14308,1.03817 0.42768,1.38288 0.28465,0.34068 0.62465,0.51176 1.02144,0.51176 0.39289,0 0.72551,-0.17295 0.99813,-0.51768 0.27256,-0.34465 0.41015,-0.83341 0.41015,-1.46678 0,-0.62926 -0.14133,-1.12356 -0.42194,-1.48438 C 9.69006,5.57669 9.36858,5.39637 9.00384,5.39637 Z" />
</svg>
