<?xml version="1.0" encoding="UTF-8" standalone="no"?>
<svg
   version="1.1"
   width="18"
   height="18"
   viewBox="0 0 18 18"
   id="svg1714"
   xmlns="http://www.w3.org/2000/svg"
   xmlns:svg="http://www.w3.org/2000/svg">
  <defs
     id="defs1718">
    <rect
       x="32.567797"
       y="-13.805085"
       width="44.389831"
       height="38.898305"
       id="rect2002" />
    <rect
       x="22.5"
       y="-2.2118644"
       width="28.525424"
       height="24.559322"
       id="rect1996" />
    <rect
       x="40.805085"
       y="-10.525424"
       width="65.898305"
       height="40.652542"
       id="rect1990" />
    <rect
       x="39.661017"
       y="-9.1525424"
       width="44.237288"
       height="35.389831"
       id="rect1984" />
    <rect
       x="21.279661"
       y="-2.8983051"
       width="36.228814"
       height="33.330508"
       id="rect1978" />
    <rect
       x="17.313559"
       y="1.9067797"
       width="18.228814"
       height="14.338983"
       id="rect1972" />
    <rect
       x="22.576271"
       y="-1.4491525"
       width="29.516949"
       height="22.957627"
       id="rect1966" />
  </defs>
  <g
     id="g1783"
     transform="translate(-452.85504,-37.644012)">
    <text
       xml:space="preserve"
       transform="translate(452.85504,37.644012)"
       id="text1964"
       style="white-space:pre;shape-inside:url(#rect1966);display:inline;fill:#000000" />
    <text
       xml:space="preserve"
       transform="translate(452.85504,37.644012)"
       id="text1970"
       style="white-space:pre;shape-inside:url(#rect1972);display:inline;fill:#000000" />
    <text
       xml:space="preserve"
       transform="translate(452.85504,37.644012)"
       id="text1976"
       style="white-space:pre;shape-inside:url(#rect1978);display:inline;fill:#000000" />
    <text
       xml:space="preserve"
       transform="translate(452.85504,37.644012)"
       id="text1982"
       style="white-space:pre;shape-inside:url(#rect1984);display:inline;fill:#000000" />
    <text
       xml:space="preserve"
       transform="translate(452.85504,37.644012)"
       id="text1988"
       style="white-space:pre;shape-inside:url(#rect1990);display:inline;fill:#000000" />
  </g>
  <g
     id="g11392">
    <rect
       style="opacity:0.98;fill:none;stroke:#000000;stroke-width:1.19939;stroke-dasharray:none;stroke-opacity:1;paint-order:markers fill stroke"
       id="rect1791"
       width="16.800611"
       height="16.800611"
       x="0.59969503"
       y="0.59969503"
       rx="2.1544993"
       ry="2.1544993" />
    <path
       id="text1795"
       style="font-stretch:condensed;font-size:12.3139px;font-family:'Arial Narrow';-inkscape-font-specification:'Arial Narrow Condensed';opacity:0.98;fill:#000000;stroke-width:0.307848;paint-order:markers fill stroke"
       d="m 8.9013644,4.50032 c -0.6333315,0 -1.1722521,0.2657073 -1.6171875,0.7988281 -0.440927,0.5291124 -0.6621094,1.2557962 -0.6621094,2.1777344 0,0.8938792 0.2118255,1.5981473 0.6367187,2.1152344 0.4289017,0.5130791 0.938105,0.7695311 1.5273438,0.7695311 0.3246826,0 0.6443739,-0.104062 0.9570312,-0.3125 C 10.055819,9.8407099 10.302914,9.5582419 10.487302,9.2014919 v 0.2167968 c 0,0.6894493 -0.0836,1.2934603 -0.251953,1.8105473 -0.168354,0.517087 -0.3746268,0.877601 -0.6191409,1.082031 -0.2405056,0.200421 -0.5080639,0.300781 -0.8046875,0.300781 -0.6653989,0 -1.0668385,-0.466529 -1.203125,-1.396484 L 6.75488,11.31282 c 0.072152,0.709492 0.291381,1.252114 0.6601562,1.628906 0.3687753,0.372784 0.8277987,0.558594 1.3769532,0.558594 0.4850196,0 0.9217294,-0.154242 1.3105466,-0.462891 0.392826,-0.308649 0.705114,-0.797389 0.933594,-1.466797 0.22848,-0.669407 0.341797,-1.6097671 0.341797,-2.820312 0,-1.0862837 -0.105913,-1.9169271 -0.31836,-2.4941406 C 10.847121,5.6789659 10.546041,5.2422561 10.157224,4.9456325 9.7684063,4.6490089 9.3503082,4.50032 8.9013644,4.50032 Z m 0.1015625,0.8964844 c 0.3647668,0 0.6881601,0.1802572 0.96875,0.5410156 0.2805901,0.3607584 0.4199221,0.855052 0.4199221,1.484375 0,0.6333315 -0.13563,1.1220722 -0.4082034,1.4667969 C 9.7108226,9.2337166 9.3781746,9.40657 8.9853487,9.40657 8.5885145,9.40657 8.2465096,9.2355675 7.9619112,8.8948512 7.6773129,8.5501265 7.53613,8.0892522 7.53613,7.5120387 7.53613,6.8706904 7.6848189,6.3577852 7.9814425,5.9729762 8.2820745,5.5881673 8.6221263,5.3968044 9.0029269,5.3968044 Z" />
  </g>
</svg>
