<?xml version="1.0" encoding="UTF-8" standalone="no"?>
<svg
   version="1.1"
   width="18"
   height="18"
   viewBox="0 0 18 18"
   id="svg1714"
   xmlns="http://www.w3.org/2000/svg"
   xmlns:svg="http://www.w3.org/2000/svg">
  <defs
     id="defs1718">
    <rect
       x="32.567797"
       y="-13.805085"
       width="44.389831"
       height="38.898305"
       id="rect2002" />
    <rect
       x="22.5"
       y="-2.2118644"
       width="28.525424"
       height="24.559322"
       id="rect1996" />
    <rect
       x="40.805085"
       y="-10.525424"
       width="65.898305"
       height="40.652542"
       id="rect1990" />
    <rect
       x="39.661017"
       y="-9.1525424"
       width="44.237288"
       height="35.389831"
       id="rect1984" />
    <rect
       x="21.279661"
       y="-2.8983051"
       width="36.228814"
       height="33.330508"
       id="rect1978" />
    <rect
       x="17.313559"
       y="1.9067797"
       width="18.228814"
       height="14.338983"
       id="rect1972" />
    <rect
       x="22.576271"
       y="-1.4491525"
       width="29.516949"
       height="22.957627"
       id="rect1966" />
  </defs>
  <g
     id="g1783"
     transform="translate(-452.85504,-37.644012)">
    <text
       xml:space="preserve"
       transform="translate(452.85504,37.644012)"
       id="text1964"
       style="white-space:pre;shape-inside:url(#rect1966);display:inline;fill:#000000" />
    <text
       xml:space="preserve"
       transform="translate(452.85504,37.644012)"
       id="text1970"
       style="white-space:pre;shape-inside:url(#rect1972);display:inline;fill:#000000" />
    <text
       xml:space="preserve"
       transform="translate(452.85504,37.644012)"
       id="text1976"
       style="white-space:pre;shape-inside:url(#rect1978);display:inline;fill:#000000" />
    <text
       xml:space="preserve"
       transform="translate(452.85504,37.644012)"
       id="text1982"
       style="white-space:pre;shape-inside:url(#rect1984);display:inline;fill:#000000" />
    <text
       xml:space="preserve"
       transform="translate(452.85504,37.644012)"
       id="text1988"
       style="white-space:pre;shape-inside:url(#rect1990);display:inline;fill:#000000" />
  </g>
  <g
     id="g9203">
    <path
       id="text1169"
       style="font-stretch:condensed;font-size:12.3136px;font-family:'Arial Narrow';-inkscape-font-specification:'Arial Narrow Condensed';opacity:0.98;fill:#000000;stroke-width:0.307824;paint-order:markers fill stroke"
       d="m 8.900372,4.4999674 c -0.633316,0 -1.1722241,0.2657395 -1.6171487,0.7988473 -0.4409162,0.5290994 -0.6620935,1.2558709 -0.6620935,2.1777866 0,0.8938574 0.2137737,1.5982107 0.6386566,2.1152852 0.4288912,0.5130665 0.9380827,0.7695495 1.5273071,0.7695495 0.3246746,0 0.6424055,-0.104074 0.9550552,-0.312507 C 10.054798,9.8404956 10.303841,9.5579934 10.488225,9.2012521 v 0.2168021 c 0,0.6894328 -0.0836,1.2935158 -0.251948,1.8105898 -0.168349,0.517075 -0.3765703,0.877633 -0.6210784,1.082058 -0.2404997,0.200416 -0.5080518,0.300788 -0.8046682,0.300788 -0.6653826,0 -1.0668129,-0.464632 -1.2030961,-1.394565 l -0.8534951,0.09571 c 0.07215,0.709474 0.2933272,1.252162 0.6620934,1.628945 0.3687663,0.372775 0.827779,0.558607 1.3769201,0.558607 0.4850079,0 0.9217075,-0.15426 1.3105153,-0.462901 0.392816,-0.308642 0.703144,-0.797441 0.931618,-1.466832 0.228475,-0.669391 0.341789,-1.6098652 0.341789,-2.8203806 0,-1.0862572 -0.10591,-1.9170011 -0.318352,-2.4942005 C 10.846082,5.6786695 10.546962,5.2419069 10.158154,4.9452906 9.7693464,4.6486742 9.3493049,4.4999674 8.900372,4.4999674 Z m 0.1015601,0.8965059 c 0.3647579,0 0.6881437,0.1802789 0.9687267,0.5410286 0.2805832,0.3607496 0.4218652,0.8551029 0.4218652,1.4844106 0,0.633316 -0.13758,1.1221158 -0.4101467,1.4668321 -0.2725664,0.3447163 -0.6052067,0.5175905 -0.9980229,0.5175905 -0.3968246,0 -0.7368685,-0.171023 -1.0214599,-0.511731 C 7.6783031,8.5498878 7.5351704,8.0889578 7.5351704,7.5117584 7.5351704,6.8704257 7.6838559,6.3574586 7.9804722,5.972659 8.2810969,5.5878594 8.6211408,5.3964733 9.0019321,5.3964733 Z"
       transform="scale(1.000024,0.999976)" />
    <rect
       style="opacity:0.98;fill:none;stroke:#000000;stroke-width:1.19939;stroke-dasharray:0.755616;stroke-dashoffset:0;stroke-opacity:1;paint-order:markers fill stroke"
       id="rect1182"
       width="16.800611"
       height="16.800611"
       x="0.59969503"
       y="0.59969503"
       rx="2.1544993"
       ry="2.1544993" />
  </g>
</svg>
