<?xml version="1.0" encoding="UTF-8" standalone="no"?>
<svg
   version="1.1"
   width="18"
   height="18"
   viewBox="0 0 18 18"
   id="svg1714"
   xmlns="http://www.w3.org/2000/svg"
   xmlns:svg="http://www.w3.org/2000/svg">
  <defs
     id="defs1718">
    <rect
       x="32.567797"
       y="-13.805085"
       width="44.389831"
       height="38.898305"
       id="rect2002" />
    <rect
       x="22.5"
       y="-2.2118644"
       width="28.525424"
       height="24.559322"
       id="rect1996" />
    <rect
       x="40.805085"
       y="-10.525424"
       width="65.898305"
       height="40.652542"
       id="rect1990" />
    <rect
       x="39.661017"
       y="-9.1525424"
       width="44.237288"
       height="35.389831"
       id="rect1984" />
    <rect
       x="21.279661"
       y="-2.8983051"
       width="36.228814"
       height="33.330508"
       id="rect1978" />
    <rect
       x="17.313559"
       y="1.9067797"
       width="18.228814"
       height="14.338983"
       id="rect1972" />
    <rect
       x="22.576271"
       y="-1.4491525"
       width="29.516949"
       height="22.957627"
       id="rect1966" />
  </defs>
  <g
     id="g1783"
     transform="translate(-452.85504,-37.644012)">
    <text
       xml:space="preserve"
       transform="translate(452.85504,37.644012)"
       id="text1964"
       style="white-space:pre;shape-inside:url(#rect1966);display:inline;fill:#000000" />
    <text
       xml:space="preserve"
       transform="translate(452.85504,37.644012)"
       id="text1970"
       style="white-space:pre;shape-inside:url(#rect1972);display:inline;fill:#000000" />
    <text
       xml:space="preserve"
       transform="translate(452.85504,37.644012)"
       id="text1976"
       style="white-space:pre;shape-inside:url(#rect1978);display:inline;fill:#000000" />
    <text
       xml:space="preserve"
       transform="translate(452.85504,37.644012)"
       id="text1982"
       style="white-space:pre;shape-inside:url(#rect1984);display:inline;fill:#000000" />
    <text
       xml:space="preserve"
       transform="translate(452.85504,37.644012)"
       id="text1988"
       style="white-space:pre;shape-inside:url(#rect1990);display:inline;fill:#000000" />
    <g
       id="g4400"
       transform="translate(-76.467286,10.109066)">
      <circle
         style="fill:none;fill-opacity:1;stroke:#000000;stroke-width:1.19912;stroke-dasharray:none;stroke-opacity:1"
         id="circle905"
         cx="538.32233"
         cy="36.534946"
         r="8.4004402" />
      <path
         id="text909"
         style="font-stretch:condensed;font-size:12.3128px;font-family:'Arial Narrow';-inkscape-font-specification:'Arial Narrow Condensed';opacity:0.98;fill:#000000;stroke-width:0.307821;paint-order:markers fill stroke"
         d="m 535.42612,32.03572 c -0.63327,0 -1.17226,0.265769 -1.61716,0.798842 -0.44088,0.529065 -0.66014,1.255917 -0.66014,2.177773 0,0.893799 0.21185,1.598231 0.63671,2.115272 0.42886,0.513032 0.93813,0.769544 1.52731,0.769544 0.32466,0 0.64244,-0.104086 0.95507,-0.312505 0.31262,-0.20842 0.5617,-0.490953 0.74608,-0.847671 v 0.2168 c 0,0.689388 -0.0836,1.291585 -0.25195,1.808626 -0.16834,0.517041 -0.37464,0.877639 -0.61913,1.08205 -0.24049,0.200404 -0.51003,0.300787 -0.80663,0.300787 -0.66534,0 -1.06488,-0.464684 -1.20115,-1.394556 l -0.8535,0.09571 c 0.0722,0.709428 0.2914,1.254129 0.66014,1.630888 0.36875,0.37275 0.82783,0.558603 1.37693,0.558603 0.48498,0 0.92174,-0.154277 1.31053,-0.462898 0.39279,-0.308622 0.70316,-0.797475 0.93162,-1.466823 0.22846,-0.669348 0.34375,-1.609925 0.34375,-2.820362 0,-1.086187 -0.10593,-1.917023 -0.31836,-2.494185 -0.21243,-0.577162 -0.51354,-1.013972 -0.90233,-1.31057 -0.38878,-0.296597 -0.80888,-0.44532 -1.25779,-0.44532 z m 5.70107,0 c -0.77756,0 -1.36674,0.381065 -1.76754,1.142598 -0.3968,0.761533 -0.59569,1.880457 -0.59569,3.359434 0,1.651325 0.2174,2.814987 0.65428,3.488343 0.44089,0.673356 1.00785,1.009783 1.69724,1.009783 0.78157,0 1.37074,-0.381065 1.76754,-1.142598 0.3968,-0.765541 0.59374,-1.884566 0.59374,-3.355528 0,-1.6393 -0.23972,-2.830734 -0.72069,-3.576234 -0.3968,-0.617243 -0.93949,-0.925798 -1.62888,-0.925798 z m -5.59755,0.8965 c 0.36473,0 0.68621,0.180299 0.96678,0.541025 0.28056,0.360727 0.42186,0.855135 0.42186,1.484402 0,0.633274 -0.13564,1.122128 -0.40819,1.466822 -0.27255,0.344694 -0.60524,0.517587 -0.99803,0.517587 -0.3968,0 -0.73885,-0.171041 -1.02342,-0.511727 -0.28457,-0.344694 -0.42577,-0.805675 -0.42577,-1.382837 0,-0.641291 0.1487,-1.154315 0.4453,-1.53909 0.30061,-0.384774 0.6407,-0.576182 1.02147,-0.576182 z m 5.55459,0 c 0.43688,0 0.79188,0.241599 1.06443,0.726576 0.27656,0.484976 0.41406,1.444068 0.41406,2.878956 0,1.418857 -0.13565,2.376199 -0.4082,2.869192 -0.27255,0.492992 -0.61079,0.738294 -1.01561,0.738294 -0.42886,0 -0.78201,-0.241599 -1.05857,-0.726575 -0.27255,-0.488985 -0.4082,-1.45003 -0.4082,-2.880911 0,-1.418856 0.1338,-2.374245 0.40234,-2.867238 0.27255,-0.492992 0.60894,-0.738294 1.00975,-0.738294 z"
         transform="scale(1.0000176,0.9999824)" />
    </g>
  </g>
</svg>
