<?xml version="1.0" encoding="UTF-8" standalone="no"?>
<svg
   version="1.1"
   width="18"
   height="18"
   viewBox="0 0 18 18"
   id="svg1714"
   xmlns="http://www.w3.org/2000/svg"
   xmlns:svg="http://www.w3.org/2000/svg">
  <defs
     id="defs1718">
    <rect
       x="32.567797"
       y="-13.805085"
       width="44.389831"
       height="38.898305"
       id="rect2002" />
    <rect
       x="22.5"
       y="-2.2118644"
       width="28.525424"
       height="24.559322"
       id="rect1996" />
    <rect
       x="40.805085"
       y="-10.525424"
       width="65.898305"
       height="40.652542"
       id="rect1990" />
    <rect
       x="39.661017"
       y="-9.1525424"
       width="44.237288"
       height="35.389831"
       id="rect1984" />
    <rect
       x="21.279661"
       y="-2.8983051"
       width="36.228814"
       height="33.330508"
       id="rect1978" />
    <rect
       x="17.313559"
       y="1.9067797"
       width="18.228814"
       height="14.338983"
       id="rect1972" />
    <rect
       x="22.576271"
       y="-1.4491525"
       width="29.516949"
       height="22.957627"
       id="rect1966" />
  </defs>
  <g
     id="g1783"
     transform="translate(-452.85504,-37.644012)">
    <text
       xml:space="preserve"
       transform="translate(452.85504,37.644012)"
       id="text1964"
       style="white-space:pre;shape-inside:url(#rect1966);display:inline;fill:#000000" />
    <text
       xml:space="preserve"
       transform="translate(452.85504,37.644012)"
       id="text1970"
       style="white-space:pre;shape-inside:url(#rect1972);display:inline;fill:#000000" />
    <text
       xml:space="preserve"
       transform="translate(452.85504,37.644012)"
       id="text1976"
       style="white-space:pre;shape-inside:url(#rect1978);display:inline;fill:#000000" />
    <text
       xml:space="preserve"
       transform="translate(452.85504,37.644012)"
       id="text1982"
       style="white-space:pre;shape-inside:url(#rect1984);display:inline;fill:#000000" />
    <text
       xml:space="preserve"
       transform="translate(452.85504,37.644012)"
       id="text1988"
       style="white-space:pre;shape-inside:url(#rect1990);display:inline;fill:#000000" />
  </g>
  <g
     id="g8356"
     transform="translate(3.93816e-7,4.6267516e-5)">
    <path
       id="text1947"
       style="font-stretch:condensed;font-size:12.3132px;font-family:'Arial Narrow';-inkscape-font-specification:'Arial Narrow Condensed';opacity:0.98;fill:#000000;stroke-width:0.307814;paint-order:markers fill stroke"
       d="m 6.1147873,4.4997757 c -0.6332955,0 -1.1722949,0.265729 -1.617205,0.7988195 -0.4409019,0.5290822 -0.6621165,1.255825 -0.6621165,2.1777108 0,0.8938284 0.2118565,1.5981539 0.6367256,2.1152115 0.4288773,0.5130495 0.938155,0.7695225 1.5273603,0.7695225 0.3246641,0 0.644402,-0.10407 0.9570416,-0.312496 C 7.2692328,9.8401175 7.5163648,9.5576265 7.7007419,9.2008968 v 0.2167945 c 0,0.6894107 -0.083611,1.2934697 -0.2519558,1.8105277 -0.1683444,0.517057 -0.3746472,0.877601 -0.6191473,1.082019 -0.240492,0.20041 -0.5080895,0.300778 -0.8046962,0.300778 -0.6653611,0 -1.0668593,-0.464614 -1.203138,-1.394516 l -0.8535249,0.0957 c 0.072148,0.709451 0.2914091,1.252118 0.6601634,1.628889 0.3687543,0.372762 0.8278447,0.558587 1.376968,0.558587 0.4849921,0 0.9217657,-0.154254 1.310561,-0.462885 0.3928036,-0.308632 0.7031834,-0.797412 0.9316507,-1.466781 0.2284674,-0.669369 0.3437537,-1.6098061 0.3437537,-2.8202822 0,-1.086222 -0.1059282,-1.9169331 -0.3183628,-2.4941137 C 8.0605792,5.6784354 7.7594555,5.2416901 7.3706602,4.9450833 6.9818649,4.6484766 6.5637056,4.4997757 6.1147873,4.4997757 Z m 5.6992807,0 c -0.777591,0 -1.366778,0.3810079 -1.767598,1.1425657 -0.3968113,0.7615579 -0.5957092,1.8822664 -0.5957092,3.3612919 0,1.6513777 0.2193634,2.8129127 0.6562572,3.4862907 0.440902,0.673377 1.00592,1.009754 1.695331,1.009754 0.781599,0 1.370785,-0.381007 1.767597,-1.142565 0.396812,-0.765566 0.595709,-1.882471 0.595709,-3.3534797 0,-1.6393535 -0.24168,-2.8325614 -0.722664,-3.5780864 C 13.04618,4.8082842 12.503478,4.4997757 11.814068,4.4997757 Z M 6.2163509,5.3962503 c 0.3647461,0 0.6881865,0.1802719 0.9687604,0.5410098 0.280574,0.3607379 0.4199265,0.8550717 0.4199265,1.484359 0,0.6332955 -0.13565,1.1220759 -0.4082076,1.466781 C 6.9242727,9.2331053 6.5915761,9.4059727 6.1987726,9.4059727 5.8019609,9.4059727 5.4599062,9.2349564 5.175324,8.8942594 4.8907419,8.5495543 4.7495382,8.0886425 4.7495382,7.5114619 4.7495382,6.87015 4.8982487,6.3572031 5.1948555,5.972416 5.4954704,5.5876289 5.835572,5.3962503 6.2163509,5.3962503 Z m 5.5547471,0 c 0.436894,0 0.791907,0.2415626 1.064465,0.7265547 0.276566,0.4849921 0.41602,1.445893 0.41602,2.8808283 0,1.4189027 -0.137603,2.3741477 -0.410161,2.8671567 -0.272557,0.493008 -0.610807,0.740226 -1.015636,0.740226 -0.428877,0 -0.782039,-0.243515 -1.058605,-0.728508 -0.272557,-0.489 -0.408207,-1.447948 -0.408207,-2.8788747 0,-1.4189025 0.133799,-2.3761012 0.402348,-2.8691097 0.272557,-0.4930085 0.608956,-0.7382733 1.009776,-0.7382733 z"
       transform="scale(0.9999892,1.0000108)" />
    <ellipse
       style="fill:none;fill-opacity:1;stroke:#000000;stroke-width:1.19928;stroke-dasharray:0.755549;stroke-dashoffset:0;stroke-opacity:1"
       id="ellipse1949"
       cx="8.9999857"
       cy="9.004199"
       rx="8.4002981"
       ry="8.4045572" />
  </g>
</svg>
