<?xml version="1.0" encoding="UTF-8" standalone="no"?>
<svg
   version="1.1"
   width="18"
   height="18"
   viewBox="0 0 18 18"
   id="svg1714"
   xmlns="http://www.w3.org/2000/svg"
   xmlns:svg="http://www.w3.org/2000/svg">
  <defs
     id="defs1718">
    <rect
       x="32.567797"
       y="-13.805085"
       width="44.389831"
       height="38.898305"
       id="rect2002" />
    <rect
       x="22.5"
       y="-2.2118644"
       width="28.525424"
       height="24.559322"
       id="rect1996" />
    <rect
       x="40.805085"
       y="-10.525424"
       width="65.898305"
       height="40.652542"
       id="rect1990" />
    <rect
       x="39.661017"
       y="-9.1525424"
       width="44.237288"
       height="35.389831"
       id="rect1984" />
    <rect
       x="21.279661"
       y="-2.8983051"
       width="36.228814"
       height="33.330508"
       id="rect1978" />
    <rect
       x="17.313559"
       y="1.9067797"
       width="18.228814"
       height="14.338983"
       id="rect1972" />
    <rect
       x="22.576271"
       y="-1.4491525"
       width="29.516949"
       height="22.957627"
       id="rect1966" />
  </defs>
  <g
     id="g1783"
     transform="translate(-452.85504,-37.644012)">
    <text
       xml:space="preserve"
       transform="translate(452.85504,37.644012)"
       id="text1964"
       style="white-space:pre;shape-inside:url(#rect1966);display:inline;fill:#000000" />
    <text
       xml:space="preserve"
       transform="translate(452.85504,37.644012)"
       id="text1970"
       style="white-space:pre;shape-inside:url(#rect1972);display:inline;fill:#000000" />
    <text
       xml:space="preserve"
       transform="translate(452.85504,37.644012)"
       id="text1976"
       style="white-space:pre;shape-inside:url(#rect1978);display:inline;fill:#000000" />
    <text
       xml:space="preserve"
       transform="translate(452.85504,37.644012)"
       id="text1982"
       style="white-space:pre;shape-inside:url(#rect1984);display:inline;fill:#000000" />
    <text
       xml:space="preserve"
       transform="translate(452.85504,37.644012)"
       id="text1988"
       style="white-space:pre;shape-inside:url(#rect1990);display:inline;fill:#000000" />
  </g>
  <path
     id="circle522"
     style="fill:#000000;fill-opacity:1;stroke:none;stroke-width:1.04984;stroke-dasharray:none"
     d="M 8.99996,0 A 8.9999995,8.9999997 0 0 0 0,8.999991 a 8.9999995,8.9999997 0 0 0 8.99996,9.000006 8.9999995,8.9999997 0 0 0 9,-9.000006 A 8.9999995,8.9999997 0 0 0 8.99996,0 Z M 6.11323,4.49999 c 0.44885,0 0.86902,0.14873 1.2578,0.44532 0.38878,0.29659 0.68991,0.73339 0.90239,1.310537 0.21241,0.577159 0.3183,1.407978 0.3183,2.494148 0,1.210415 -0.11529,2.150979 -0.34373,2.82031 -0.22851,0.669343 -0.53887,1.158184 -0.93165,1.466803 -0.38878,0.308614 -0.82554,0.462886 -1.31052,0.462886 -0.54913,0 -1.0082,-0.185852 -1.37695,-0.558594 C 4.26009,12.564648 4.03891,12.021911 3.96669,11.312494 l 0.85555,-0.09767 c 0.13628,0.929853 0.53574,1.394525 1.20119,1.394525 0.29661,0 0.56611,-0.09842 0.80659,-0.298824 C 7.0745,12.106121 7.28084,11.743564 7.44923,11.226546 7.61749,10.709513 7.70112,10.107322 7.70112,9.417944 V 9.201148 C 7.51676,9.557861 7.26765,9.840389 6.95508,10.048809 6.64244,10.257216 6.32459,10.3613 5.99991,10.3613 5.41068,10.3613 4.90147,10.104796 4.47263,9.591773 4.04774,9.074743 3.83596,8.370321 3.83596,7.476538 3.83596,6.554705 4.05516,5.82786 4.49604,5.2988 4.94094,4.76574 5.47997,4.49998 6.11323,4.49998 Z m 5.70117,0 c 0.6894,0 1.23211,0.30855 1.62888,0.92579 0.48102,0.745489 0.72072,1.938854 0.72072,3.57812 0,1.47094 -0.19884,2.587989 -0.59568,3.353514 -0.39682,0.761523 -0.98599,1.14258 -1.76761,1.14258 -0.6894,0 -1.25442,-0.336417 -1.69529,-1.009764 C 9.66856,11.816885 9.4511,10.655195 9.4511,9.0039 9.4511,7.524947 9.65001,6.404091 10.04678,5.64257 10.4476,4.88105 11.03684,4.49999 11.8144,4.49999 Z M 6.21675,5.39648 c -0.38081,0 -0.72283,0.1914 -1.02351,0.57617 -0.29647,0.384773 -0.44329,0.897791 -0.44329,1.539065 0,0.577151 0.1412,1.03812 0.42579,1.382812 0.28455,0.340672 0.62665,0.511719 1.02341,0.511719 0.39285,0 0.72547,-0.172893 0.99814,-0.517576 C 7.46982,8.543979 7.60538,8.055137 7.60538,7.42187 7.60538,6.792607 7.46416,6.298213 7.18358,5.93749 6.903,5.57677 6.58146,5.39648 6.21675,5.39648 Z m 5.5547,0 c -0.40084,0 -0.73725,0.2453 -1.00979,0.738281 -0.26854,0.492983 -0.40231,1.45031 -0.40231,2.869139 0,1.430851 0.13562,2.389934 0.40817,2.878908 0.27658,0.484964 0.62972,0.72656 1.05862,0.72656 0.40481,0 0.74305,-0.245296 1.01559,-0.738281 0.27253,-0.492979 0.40822,-1.448353 0.40822,-2.867187 0,-1.434862 -0.13756,-2.39589 -0.41403,-2.880859 C 12.56339,5.63808 12.20832,5.39648 11.77145,5.39648 Z" />
</svg>
