<?xml version="1.0" encoding="UTF-8" standalone="no"?>
<svg
   version="1.1"
   width="18"
   height="18"
   viewBox="0 0 18 18"
   id="svg1714"
   xmlns="http://www.w3.org/2000/svg"
   xmlns:svg="http://www.w3.org/2000/svg">
  <defs
     id="defs1718">
    <rect
       x="32.567797"
       y="-13.805085"
       width="44.389831"
       height="38.898305"
       id="rect2002" />
    <rect
       x="22.5"
       y="-2.2118644"
       width="28.525424"
       height="24.559322"
       id="rect1996" />
    <rect
       x="40.805085"
       y="-10.525424"
       width="65.898305"
       height="40.652542"
       id="rect1990" />
    <rect
       x="39.661017"
       y="-9.1525424"
       width="44.237288"
       height="35.389831"
       id="rect1984" />
    <rect
       x="21.279661"
       y="-2.8983051"
       width="36.228814"
       height="33.330508"
       id="rect1978" />
    <rect
       x="17.313559"
       y="1.9067797"
       width="18.228814"
       height="14.338983"
       id="rect1972" />
    <rect
       x="22.576271"
       y="-1.4491525"
       width="29.516949"
       height="22.957627"
       id="rect1966" />
  </defs>
  <g
     id="g1783"
     transform="translate(-452.85504,-37.644012)">
    <text
       xml:space="preserve"
       transform="translate(452.85504,37.644012)"
       id="text1964"
       style="white-space:pre;shape-inside:url(#rect1966);display:inline;fill:#000000" />
    <text
       xml:space="preserve"
       transform="translate(452.85504,37.644012)"
       id="text1970"
       style="white-space:pre;shape-inside:url(#rect1972);display:inline;fill:#000000" />
    <text
       xml:space="preserve"
       transform="translate(452.85504,37.644012)"
       id="text1976"
       style="white-space:pre;shape-inside:url(#rect1978);display:inline;fill:#000000" />
    <text
       xml:space="preserve"
       transform="translate(452.85504,37.644012)"
       id="text1982"
       style="white-space:pre;shape-inside:url(#rect1984);display:inline;fill:#000000" />
    <text
       xml:space="preserve"
       transform="translate(452.85504,37.644012)"
       id="text1988"
       style="white-space:pre;shape-inside:url(#rect1990);display:inline;fill:#000000" />
  </g>
  <g
     id="g12714">
    <path
       id="text4179"
       style="font-stretch:condensed;font-size:12.3128px;font-family:'Arial Narrow';-inkscape-font-specification:'Arial Narrow Condensed';opacity:0.98;fill:#000000;stroke-width:0.307821;paint-order:markers fill stroke"
       d="m 6.1136324,4.5003992 c -0.6332749,0 -1.1722634,0.265769 -1.617159,0.7988422 -0.4408876,0.5290651 -0.6601447,1.2559168 -0.6601447,2.1777727 0,0.8937994 0.2118523,1.5982307 0.6367076,2.1152716 0.4288634,0.5130333 0.9381307,0.7695443 1.5273168,0.7695443 0.3246536,0 0.642432,-0.104085 0.9550614,-0.312505 C 7.2680438,9.8409054 7.5171239,9.558372 7.7014951,9.2016538 v 0.2168007 c 0,0.6893875 -0.08361,1.2915845 -0.2519487,1.8086255 -0.1683389,0.517041 -0.3746375,0.877639 -0.6191297,1.08205 -0.2404842,0.200404 -0.5100294,0.300787 -0.8066265,0.300787 -0.6653394,0 -1.0668294,-0.464684 -1.2031038,-1.394556 l -0.8535006,0.09571 c 0.072145,0.709428 0.2933554,1.25413 0.6620977,1.630888 0.3687424,0.37275 0.8278235,0.558604 1.3769289,0.558604 0.4849764,0 0.9217411,-0.154278 1.3105238,-0.462899 0.3927908,-0.308626 0.7031643,-0.79748 0.9316243,-1.466828 0.2284599,-0.669347 0.3417908,-1.6099251 0.3417908,-2.820362 0,-1.0861867 -0.1059261,-1.9170226 -0.3183538,-2.4941845 C 8.0593699,5.6791275 7.7602055,5.2423167 7.3714228,4.9457195 6.9826401,4.6491224 6.5625361,4.5003992 6.1136324,4.5003992 Z m 5.6991186,0 c -0.777566,0 -1.36674,0.3810651 -1.767547,1.1425982 -0.396799,0.7615332 -0.5937397,1.8804567 -0.5937397,3.3594342 0,1.6513244 0.2174058,2.8149874 0.6542857,3.4883424 0.440887,0.673356 1.005894,1.009784 1.695282,1.009784 0.781574,0 1.370748,-0.381066 1.767547,-1.142599 0.396799,-0.765541 0.595693,-1.884566 0.595693,-3.3555274 0,-1.6393003 -0.239722,-2.830734 -0.72069,-3.5762348 C 13.046783,4.8089541 12.502139,4.5003992 11.812751,4.5003992 Z m -5.5956048,0.894547 c 0.3647343,0 0.686215,0.1822521 0.9667799,0.5429783 0.2805648,0.3607262 0.4218675,0.8551343 0.4218675,1.4844011 0,0.6332749 -0.1376003,1.1221288 -0.410149,1.4668227 -0.2725487,0.344694 -0.6052385,0.5175873 -0.9980293,0.5175873 -0.3967988,0 -0.7368935,-0.1710419 -1.0214664,-0.5117278 C 4.891576,8.5503139 4.7484221,8.0893329 4.7484221,7.512171 c 0,-0.6412911 0.1487075,-1.154315 0.4453046,-1.5390896 C 5.4943319,5.5883067 5.8363796,5.3949462 6.2171462,5.3949462 Z m 5.5545898,0 c 0.436879,0 0.791886,0.2435521 1.064434,0.7285284 0.276557,0.4849764 0.414056,1.4440683 0.414056,2.878957 0,1.4188564 -0.135648,2.3761984 -0.408196,2.8691914 -0.272549,0.492992 -0.610793,0.738294 -1.015608,0.738294 -0.428863,0 -0.782018,-0.241599 -1.058575,-0.726575 -0.272548,-0.488985 -0.410149,-1.45003 -0.410149,-2.8809104 0,-1.4188565 0.135749,-2.3742455 0.40429,-2.867238 0.272549,-0.4929925 0.608941,-0.7402474 1.009748,-0.7402474 z"
       transform="scale(1.0000176,0.9999824)" />
    <rect
       style="opacity:0.98;fill:none;stroke:#000000;stroke-width:1.19939;stroke-dasharray:none;stroke-opacity:1;paint-order:markers fill stroke"
       id="rect4181"
       width="16.800611"
       height="16.800611"
       x="0.59969503"
       y="0.59969503"
       rx="2.1544993"
       ry="2.1544993" />
  </g>
</svg>
