<?xml version="1.0" encoding="UTF-8" standalone="no"?>
<svg
   version="1.1"
   width="18"
   height="18"
   viewBox="0 0 18 18"
   id="svg1714"
   xmlns="http://www.w3.org/2000/svg"
   xmlns:svg="http://www.w3.org/2000/svg">
  <defs
     id="defs1718">
    <rect
       x="32.567797"
       y="-13.805085"
       width="44.389831"
       height="38.898305"
       id="rect2002" />
    <rect
       x="22.5"
       y="-2.2118644"
       width="28.525424"
       height="24.559322"
       id="rect1996" />
    <rect
       x="40.805085"
       y="-10.525424"
       width="65.898305"
       height="40.652542"
       id="rect1990" />
    <rect
       x="39.661017"
       y="-9.1525424"
       width="44.237288"
       height="35.389831"
       id="rect1984" />
    <rect
       x="21.279661"
       y="-2.8983051"
       width="36.228814"
       height="33.330508"
       id="rect1978" />
    <rect
       x="17.313559"
       y="1.9067797"
       width="18.228814"
       height="14.338983"
       id="rect1972" />
    <rect
       x="22.576271"
       y="-1.4491525"
       width="29.516949"
       height="22.957627"
       id="rect1966" />
  </defs>
  <g
     id="g1783"
     transform="translate(-452.85504,-37.644012)">
    <text
       xml:space="preserve"
       transform="translate(452.85504,37.644012)"
       id="text1964"
       style="white-space:pre;shape-inside:url(#rect1966);display:inline;fill:#000000" />
    <text
       xml:space="preserve"
       transform="translate(452.85504,37.644012)"
       id="text1970"
       style="white-space:pre;shape-inside:url(#rect1972);display:inline;fill:#000000" />
    <text
       xml:space="preserve"
       transform="translate(452.85504,37.644012)"
       id="text1976"
       style="white-space:pre;shape-inside:url(#rect1978);display:inline;fill:#000000" />
    <text
       xml:space="preserve"
       transform="translate(452.85504,37.644012)"
       id="text1982"
       style="white-space:pre;shape-inside:url(#rect1984);display:inline;fill:#000000" />
    <text
       xml:space="preserve"
       transform="translate(452.85504,37.644012)"
       id="text1988"
       style="white-space:pre;shape-inside:url(#rect1990);display:inline;fill:#000000" />
  </g>
  <path
     id="rect4188"
     style="opacity:0.98;fill:#000000;fill-opacity:1;stroke:none;stroke-width:1.28507;stroke-dasharray:none;stroke-opacity:1;paint-order:markers fill stroke"
     d="M 2.30857,0 C 1.02979,0 0,1.02978 0,2.3086 v 13.38274 c 0,1.27884 1.02979,2.30862 2.30857,2.30862 h 13.38277 c 1.27884,0 2.30869,-1.02978 2.30869,-2.30862 V 2.3086 C 18.00003,1.02978 16.97018,0 15.69134,0 Z m 3.80472,4.49989 c 0.44884,0 0.86894,0.14881 1.2578,0.44534 0.38878,0.29668 0.68985,0.73346 0.90226,1.31056 0.21248,0.57725 0.31842,1.408 0.31842,2.49424 0,1.21036 -0.11529,2.1509 -0.34372,2.82023 -0.22852,0.66936 -0.53887,1.15815 -0.93165,1.4668 -0.38886,0.30865 -0.82561,0.46286 -1.31051,0.46286 -0.54912,0 -1.00826,-0.18579 -1.37704,-0.55859 C 4.26014,12.56458 4.0389,12.02185 3.96675,11.3124 L 4.8223,11.2148 c 0.13619,0.92984 0.53574,1.39443 1.20113,1.39443 0.29654,0 0.56609,-0.0983 0.80665,-0.29873 0.24449,-0.20449 0.45076,-0.56705 0.61915,-1.08404 0.16826,-0.51711 0.25195,-1.11929 0.25195,-1.80859 V 9.20109 C 7.51677,9.55774 7.26771,9.84031 6.95507,10.04872 6.64241,10.25708 6.32458,10.36115 5.99996,10.36115 5.41079,10.36115 4.90146,10.10468 4.47269,9.59172 4.04779,9.07468 3.83597,8.37022 3.83597,7.47642 3.83597,6.55463 4.05523,5.82776 4.49603,5.29878 4.94095,4.76569 5.47991,4.49982 6.11329,4.49982 Z m 5.70117,0 c 0.68938,0 1.23204,0.30865 1.6288,0.92586 0.48103,0.7455 0.72081,1.93886 0.72081,3.57814 0,1.4709 -0.19891,2.58796 -0.59576,3.35347 -0.39682,0.76147 -0.98599,1.14256 -1.76762,1.14256 -0.68933,0 -1.25435,-0.33639 -1.69528,-1.00973 C 9.66853,11.81691 9.45114,10.6551 9.45114,9.00389 9.45114,7.52494 9.65,6.40406 10.04678,5.64258 10.44766,4.88106 11.03682,4.49989 11.81446,4.49989 Z M 6.21674,5.39638 C 5.836,5.39638 5.4939,5.58789 5.19331,5.97262 4.8967,6.35739 4.74995,6.87039 4.74995,7.51163 c 0,0.57723 0.14118,1.0382 0.42576,1.38288 0.28465,0.34064 0.62666,0.51176 1.02344,0.51176 0.39284,0 0.72546,-0.17299 0.99806,-0.51768 C 7.46974,8.54397 7.60544,8.05511 7.60544,7.42182 7.60544,6.79262 7.46413,6.2982 7.18358,5.93743 6.90306,5.57673 6.58153,5.39638 6.21674,5.39638 Z m 5.5547,0 c -0.40076,0 -0.73726,0.24539 -1.00979,0.73839 -0.26849,0.49298 -0.4023,1.45023 -0.4023,2.86912 0,1.43081 0.1357,2.3899 0.40823,2.87889 0.27659,0.48497 0.62966,0.72652 1.05854,0.72652 0.40482,0 0.74305,-0.24519 1.01559,-0.73818 0.27255,-0.49298 0.4083,-1.44846 0.4083,-2.86723 0,-1.43494 -0.13757,-2.39592 -0.4141,-2.88085 -0.2726,-0.48499 -0.62754,-0.72666 -1.06447,-0.72666 z" />
</svg>
