<?xml version="1.0" encoding="UTF-8" standalone="no"?>
<svg
   version="1.1"
   width="18"
   height="18"
   viewBox="0 0 18 18"
   id="svg1714"
   xmlns="http://www.w3.org/2000/svg"
   xmlns:svg="http://www.w3.org/2000/svg">
  <defs
     id="defs1718">
    <rect
       x="32.567797"
       y="-13.805085"
       width="44.389831"
       height="38.898305"
       id="rect2002" />
    <rect
       x="22.5"
       y="-2.2118644"
       width="28.525424"
       height="24.559322"
       id="rect1996" />
    <rect
       x="40.805085"
       y="-10.525424"
       width="65.898305"
       height="40.652542"
       id="rect1990" />
    <rect
       x="39.661017"
       y="-9.1525424"
       width="44.237288"
       height="35.389831"
       id="rect1984" />
    <rect
       x="21.279661"
       y="-2.8983051"
       width="36.228814"
       height="33.330508"
       id="rect1978" />
    <rect
       x="17.313559"
       y="1.9067797"
       width="18.228814"
       height="14.338983"
       id="rect1972" />
    <rect
       x="22.576271"
       y="-1.4491525"
       width="29.516949"
       height="22.957627"
       id="rect1966" />
  </defs>
  <g
     id="g1783"
     transform="translate(-452.85504,-37.644012)">
    <text
       xml:space="preserve"
       transform="translate(452.85504,37.644012)"
       id="text1964"
       style="white-space:pre;shape-inside:url(#rect1966);display:inline;fill:#000000" />
    <text
       xml:space="preserve"
       transform="translate(452.85504,37.644012)"
       id="text1970"
       style="white-space:pre;shape-inside:url(#rect1972);display:inline;fill:#000000" />
    <text
       xml:space="preserve"
       transform="translate(452.85504,37.644012)"
       id="text1976"
       style="white-space:pre;shape-inside:url(#rect1978);display:inline;fill:#000000" />
    <text
       xml:space="preserve"
       transform="translate(452.85504,37.644012)"
       id="text1982"
       style="white-space:pre;shape-inside:url(#rect1984);display:inline;fill:#000000" />
    <text
       xml:space="preserve"
       transform="translate(452.85504,37.644012)"
       id="text1988"
       style="white-space:pre;shape-inside:url(#rect1990);display:inline;fill:#000000" />
  </g>
  <g
     id="g10545">
    <path
       id="text1943"
       style="font-stretch:condensed;font-size:12.3132px;font-family:'Arial Narrow';-inkscape-font-specification:'Arial Narrow Condensed';opacity:0.98;fill:#000000;stroke-width:0.307814;paint-order:markers fill stroke"
       d="m 6.1134848,4.5002556 c -0.6332955,0 -1.1722949,0.2657291 -1.617205,0.7988195 -0.4409019,0.5290823 -0.6601634,1.2558251 -0.6601634,2.1777109 0,0.8938284 0.2118566,1.5981538 0.6367257,2.1152115 0.4288773,0.5130495 0.9381549,0.7695225 1.5273602,0.7695225 0.3246641,0 0.6424489,-0.10407 0.9550884,-0.312496 C 7.2679303,9.8405975 7.5170154,9.5581065 7.7013926,9.2013768 v 0.2167945 c 0,0.6894107 -0.083611,1.2915167 -0.2519559,1.8085747 -0.1683444,0.517057 -0.3746472,0.879554 -0.6191473,1.083972 -0.240492,0.20041 -0.5100426,0.300778 -0.8066493,0.300778 -0.6653611,0 -1.0649061,-0.466567 -1.2011849,-1.396469 l -0.855478,0.09766 c 0.072148,0.709451 0.2933622,1.252118 0.6621165,1.628889 0.3687544,0.372762 0.8278448,0.558587 1.376968,0.558587 0.4849921,0 0.9217658,-0.154254 1.3105611,-0.462885 0.3928035,-0.308632 0.7031833,-0.797412 0.9316507,-1.466781 0.2284673,-0.669369 0.3437537,-1.6098061 0.3437537,-2.8202823 0,-1.0862219 -0.1078814,-1.916933 -0.320316,-2.4941136 C 8.0592767,5.6789154 7.7601062,5.2421701 7.3713109,4.9455633 6.9825155,4.6489566 6.5624031,4.5002556 6.1134848,4.5002556 Z m 5.7012332,0 c -0.77759,0 -1.366777,0.381008 -1.767597,1.1425658 -0.3968117,0.7615579 -0.5957095,1.8822664 -0.5957095,3.3612919 0,1.6513777 0.2174102,2.8129127 0.6543035,3.4862907 0.440902,0.673377 1.005921,1.009754 1.695331,1.009754 0.781599,0 1.370786,-0.381008 1.767597,-1.142565 0.396812,-0.765566 0.59571,-1.882471 0.59571,-3.3534797 0,-1.6393535 -0.239727,-2.8325614 -0.720711,-3.5780864 C 13.04683,4.8087642 12.504128,4.5002556 11.814718,4.5002556 Z M 6.2170015,5.3967303 c 0.3647461,0 0.6862334,0.1802719 0.9668073,0.5410098 0.280574,0.3607379 0.4218796,0.8550717 0.4218796,1.484359 0,0.6332955 -0.1376031,1.1220759 -0.4101607,1.466781 C 6.9229702,9.2335852 6.5902736,9.4064527 6.1974701,9.4064527 5.8006583,9.4064527 5.4605568,9.2354364 5.1759747,8.8947394 4.8913925,8.5500343 4.7501888,8.0891225 4.7501888,7.5119419 4.7501888,6.87063 4.8969462,6.3576831 5.193553,5.972896 5.4941679,5.5881089 5.8362226,5.3967303 6.2170015,5.3967303 Z m 5.5547475,0 c 0.436894,0 0.791907,0.2415626 1.064465,0.7265547 0.276565,0.4849921 0.414067,1.445893 0.414067,2.8808283 0,1.4189027 -0.13565,2.3741477 -0.408208,2.8671567 -0.272557,0.493008 -0.610808,0.740226 -1.015636,0.740226 -0.428877,0 -0.782039,-0.243515 -1.058605,-0.728508 -0.272558,-0.489 -0.408208,-1.447948 -0.408208,-2.8788747 0,-1.4189025 0.133799,-2.3761012 0.402348,-2.8691097 0.272558,-0.4930085 0.608957,-0.7382733 1.009777,-0.7382733 z"
       transform="scale(0.9999892,1.0000108)" />
    <rect
       style="opacity:0.98;fill:none;stroke:#000000;stroke-width:1.19939;stroke-dasharray:0.755616;stroke-dashoffset:0;stroke-opacity:1;paint-order:markers fill stroke"
       id="rect1956"
       width="16.800611"
       height="16.800611"
       x="0.59969503"
       y="0.59969503"
       rx="2.1544993"
       ry="2.1544993" />
  </g>
</svg>
