<?xml version="1.0" encoding="UTF-8" standalone="no"?>
<svg
   version="1.1"
   width="18"
   height="18"
   viewBox="0 0 18 18"
   id="svg1714"
   xmlns="http://www.w3.org/2000/svg"
   xmlns:svg="http://www.w3.org/2000/svg">
  <defs
     id="defs1718">
    <rect
       x="32.567797"
       y="-13.805085"
       width="44.389831"
       height="38.898305"
       id="rect2002" />
    <rect
       x="22.5"
       y="-2.2118644"
       width="28.525424"
       height="24.559322"
       id="rect1996" />
    <rect
       x="40.805085"
       y="-10.525424"
       width="65.898305"
       height="40.652542"
       id="rect1990" />
    <rect
       x="39.661017"
       y="-9.1525424"
       width="44.237288"
       height="35.389831"
       id="rect1984" />
    <rect
       x="21.279661"
       y="-2.8983051"
       width="36.228814"
       height="33.330508"
       id="rect1978" />
    <rect
       x="17.313559"
       y="1.9067797"
       width="18.228814"
       height="14.338983"
       id="rect1972" />
    <rect
       x="22.576271"
       y="-1.4491525"
       width="29.516949"
       height="22.957627"
       id="rect1966" />
  </defs>
  <g
     id="g1783"
     transform="translate(-452.85504,-37.644012)">
    <text
       xml:space="preserve"
       transform="translate(452.85504,37.644012)"
       id="text1964"
       style="white-space:pre;shape-inside:url(#rect1966);display:inline;fill:#000000" />
    <text
       xml:space="preserve"
       transform="translate(452.85504,37.644012)"
       id="text1970"
       style="white-space:pre;shape-inside:url(#rect1972);display:inline;fill:#000000" />
    <text
       xml:space="preserve"
       transform="translate(452.85504,37.644012)"
       id="text1976"
       style="white-space:pre;shape-inside:url(#rect1978);display:inline;fill:#000000" />
    <text
       xml:space="preserve"
       transform="translate(452.85504,37.644012)"
       id="text1982"
       style="white-space:pre;shape-inside:url(#rect1984);display:inline;fill:#000000" />
    <text
       xml:space="preserve"
       transform="translate(452.85504,37.644012)"
       id="text1988"
       style="white-space:pre;shape-inside:url(#rect1990);display:inline;fill:#000000" />
    <g
       id="g4480"
       transform="translate(-87.288331,8.2710531)">
      <circle
         style="fill:none;fill-opacity:1;stroke:#000000;stroke-width:1.19912;stroke-dasharray:none;stroke-opacity:1"
         id="circle916"
         cx="549.14337"
         cy="38.372959"
         r="8.4004402" />
      <path
         id="text920"
         style="font-stretch:condensed;font-size:12.3127px;font-family:'Arial Narrow';-inkscape-font-specification:'Arial Narrow Condensed';opacity:0.98;fill:#000000;stroke-width:0.307819;paint-order:markers fill stroke"
         d="m 546.21875,33.873047 c -0.63327,0 -1.1723,0.265759 -1.61719,0.798828 -0.44088,0.529061 -0.66211,1.255886 -0.66211,2.177734 0,0.893793 0.21382,1.598198 0.63867,2.115235 0.42886,0.513028 0.93621,0.769531 1.5254,0.769531 0.32465,0 0.6444,-0.104082 0.95703,-0.3125 0.31262,-0.208418 0.56172,-0.490941 0.74609,-0.847656 v 0.216797 c 0,0.689382 -0.0856,1.291557 -0.25391,1.808593 -0.16833,0.517037 -0.37465,0.879575 -0.61914,1.083985 -0.24048,0.200402 -0.50809,0.298828 -0.80468,0.298828 -0.66534,0 -1.06686,-0.464667 -1.20313,-1.394531 l -0.85351,0.09766 c 0.0721,0.709422 0.29337,1.252151 0.66211,1.628906 0.36873,0.372748 0.82589,0.558594 1.375,0.558594 0.48497,0 0.92372,-0.154272 1.3125,-0.462891 0.39278,-0.308619 0.70318,-0.797455 0.93164,-1.466797 0.22845,-0.669342 0.34179,-1.609885 0.34179,-2.820312 0,-1.086178 -0.10593,-1.916984 -0.31836,-2.494141 -0.21242,-0.577157 -0.51356,-1.013952 -0.90234,-1.310547 -0.38878,-0.296594 -0.80696,-0.445312 -1.25586,-0.445312 z m 4.19531,0.15625 -0.70312,4.527344 0.83594,0.132812 c 0.13627,-0.268538 0.32026,-0.478656 0.55273,-0.626953 0.23647,-0.152305 0.48927,-0.226562 0.75781,-0.226562 0.44489,0 0.81484,0.172785 1.10742,0.521484 0.2966,0.344691 0.44336,0.831676 0.44336,1.460937 0,0.669342 -0.15242,1.199111 -0.45703,1.587891 -0.30461,0.384771 -0.66704,0.576172 -1.08789,0.576172 -0.33667,0 -0.63216,-0.135657 -0.88867,-0.408203 -0.25251,-0.276555 -0.41614,-0.694735 -0.48828,-1.25586 l -0.93164,0.0957 c 0.0601,0.769543 0.30551,1.373671 0.73437,1.810547 0.43287,0.432868 0.96069,0.648438 1.58594,0.648438 0.75351,0 1.35394,-0.306692 1.79883,-0.919922 0.4489,-0.617238 0.67383,-1.357022 0.67383,-2.21875 0,-0.873752 -0.22493,-1.567049 -0.67383,-2.080078 -0.44489,-0.517037 -0.97096,-0.775391 -1.57617,-0.775391 -0.48097,0 -0.93443,0.183995 -1.36328,0.552735 L 551.125,35.0625 h 2.87891 v -1.033203 z m -4.09375,0.740234 c 0.36473,0 0.68819,0.180293 0.96875,0.541016 0.28057,0.360723 0.41992,0.855113 0.41992,1.484375 0,0.63327 -0.13565,1.122106 -0.4082,1.466797 -0.27255,0.344691 -0.60526,0.517578 -0.99805,0.517578 -0.39679,0 -0.73691,-0.171036 -1.02148,-0.511719 -0.28457,-0.344691 -0.42773,-0.805655 -0.42773,-1.382812 0,-0.641286 0.14871,-1.154291 0.44531,-1.539063 0.3006,-0.384771 0.64072,-0.576172 1.02148,-0.576172 z" />
    </g>
  </g>
</svg>
