<?xml version="1.0" encoding="UTF-8" standalone="no"?>
<svg
   version="1.1"
   width="18"
   height="18"
   viewBox="0 0 18 18"
   id="svg1714"
   xmlns="http://www.w3.org/2000/svg"
   xmlns:svg="http://www.w3.org/2000/svg">
  <defs
     id="defs1718">
    <rect
       x="32.567797"
       y="-13.805085"
       width="44.389831"
       height="38.898305"
       id="rect2002" />
    <rect
       x="22.5"
       y="-2.2118644"
       width="28.525424"
       height="24.559322"
       id="rect1996" />
    <rect
       x="40.805085"
       y="-10.525424"
       width="65.898305"
       height="40.652542"
       id="rect1990" />
    <rect
       x="39.661017"
       y="-9.1525424"
       width="44.237288"
       height="35.389831"
       id="rect1984" />
    <rect
       x="21.279661"
       y="-2.8983051"
       width="36.228814"
       height="33.330508"
       id="rect1978" />
    <rect
       x="17.313559"
       y="1.9067797"
       width="18.228814"
       height="14.338983"
       id="rect1972" />
    <rect
       x="22.576271"
       y="-1.4491525"
       width="29.516949"
       height="22.957627"
       id="rect1966" />
  </defs>
  <g
     id="g1783"
     transform="translate(-452.85504,-37.644012)">
    <text
       xml:space="preserve"
       transform="translate(452.85504,37.644012)"
       id="text1964"
       style="white-space:pre;shape-inside:url(#rect1966);display:inline;fill:#000000" />
    <text
       xml:space="preserve"
       transform="translate(452.85504,37.644012)"
       id="text1970"
       style="white-space:pre;shape-inside:url(#rect1972);display:inline;fill:#000000" />
    <text
       xml:space="preserve"
       transform="translate(452.85504,37.644012)"
       id="text1976"
       style="white-space:pre;shape-inside:url(#rect1978);display:inline;fill:#000000" />
    <text
       xml:space="preserve"
       transform="translate(452.85504,37.644012)"
       id="text1982"
       style="white-space:pre;shape-inside:url(#rect1984);display:inline;fill:#000000" />
    <text
       xml:space="preserve"
       transform="translate(452.85504,37.644012)"
       id="text1988"
       style="white-space:pre;shape-inside:url(#rect1990);display:inline;fill:#000000" />
  </g>
  <path
     id="circle529"
     style="fill:#000000;fill-opacity:1;stroke:none;stroke-width:1.04984;stroke-dasharray:none"
     d="M 8.99995,0 A 8.9999995,8.9999997 0 0 0 0,8.999991 8.9999995,8.9999997 0 0 0 8.99995,17.999997 8.9999995,8.9999997 0 0 0 17.99998,8.999991 8.9999995,8.9999997 0 0 0 8.99995,0 Z M 6.07417,4.49999 c 0.44896,0 0.86913,0.14873 1.25784,0.44532 0.38878,0.29659 0.68992,0.73338 0.90233,1.310538 0.21243,0.577164 0.31831,1.407968 0.31831,2.494147 0,1.210428 -0.11523,2.150972 -0.34368,2.82031 -0.22842,0.66935 -0.53887,1.158182 -0.93164,1.466803 -0.38872,0.308617 -0.82555,0.462886 -1.31056,0.462886 -0.54911,0 -1.00828,-0.185848 -1.37692,-0.558594 C 4.22109,12.564645 4.00182,12.021917 3.92973,11.312494 l 0.85343,-0.09767 c 0.13628,0.929862 0.5359,1.394525 1.20119,1.394525 0.29661,0 0.56612,-0.09842 0.80667,-0.298824 0.24446,-0.204406 0.45076,-0.564999 0.61907,-1.082036 0.16837,-0.51703 0.25202,-1.121159 0.25202,-1.810545 V 9.201148 C 7.47764,9.557865 7.22863,9.840388 6.91601,10.048809 6.60331,10.257218 6.28563,10.3613 5.9609,10.3613 5.37176,10.3613 4.86244,10.104801 4.43357,9.591773 4.00868,9.074739 3.79682,8.37033 3.79682,7.476539 3.79682,6.554697 4.0161,5.82786 4.45701,5.29881 4.90186,4.76574 5.44091,4.49998 6.07417,4.49998 Z m 4.19722,0.15625 h 3.58994 V 5.6914 h -2.88087 l -0.39065,2.367193 c 0.42883,-0.368741 0.88424,-0.552736 1.36519,-0.552736 0.60525,0 1.12941,0.258353 1.57432,0.775389 0.44884,0.513028 0.67376,1.206324 0.67376,2.080072 0,0.861729 -0.22492,1.601512 -0.67376,2.218756 -0.44491,0.613228 -1.04341,0.91992 -1.79694,0.91992 -0.6252,0 -1.15495,-0.215567 -1.58789,-0.648437 C 9.71566,12.414685 9.47221,11.810561 9.41208,11.041013 l 0.93165,-0.0957 c 0.0728,0.561125 0.23387,0.979299 0.48639,1.255862 0.25642,0.272542 0.55388,0.408197 0.89058,0.408197 0.42085,0 0.78322,-0.191397 1.08787,-0.576172 0.30458,-0.388778 0.45701,-0.918542 0.45701,-1.587893 0,-0.629261 -0.14873,-1.116239 -0.44527,-1.460927 -0.29255,-0.348702 -0.66055,-0.521498 -1.10547,-0.521498 -0.26854,0 -0.52136,0.07626 -0.75783,0.228526 -0.23243,0.148295 -0.41647,0.356459 -0.55273,0.624999 L 9.56837,9.183599 Z M 6.17773,5.39648 c -0.38079,0 -0.72289,0.19139 -1.02341,0.57617 -0.29662,0.384777 -0.44337,0.897785 -0.44337,1.539065 0,0.577157 0.14113,1.038118 0.42577,1.382813 0.28456,0.340675 0.62661,0.511718 1.02342,0.511718 0.39277,0 0.72554,-0.17289 0.99807,-0.517576 C 7.43074,8.543976 7.56646,8.055143 7.56646,7.42187 7.56646,6.792602 7.42501,6.298217 7.1445,5.93749 6.86392,5.57677 6.54244,5.39648 6.17773,5.39648 Z" />
</svg>
