<?xml version="1.0" encoding="UTF-8" standalone="no"?>
<svg
   version="1.1"
   width="18"
   height="18"
   viewBox="0 0 18 18"
   id="svg1714"
   xmlns="http://www.w3.org/2000/svg"
   xmlns:svg="http://www.w3.org/2000/svg">
  <defs
     id="defs1718">
    <rect
       x="32.567797"
       y="-13.805085"
       width="44.389831"
       height="38.898305"
       id="rect2002" />
    <rect
       x="22.5"
       y="-2.2118644"
       width="28.525424"
       height="24.559322"
       id="rect1996" />
    <rect
       x="40.805085"
       y="-10.525424"
       width="65.898305"
       height="40.652542"
       id="rect1990" />
    <rect
       x="39.661017"
       y="-9.1525424"
       width="44.237288"
       height="35.389831"
       id="rect1984" />
    <rect
       x="21.279661"
       y="-2.8983051"
       width="36.228814"
       height="33.330508"
       id="rect1978" />
    <rect
       x="17.313559"
       y="1.9067797"
       width="18.228814"
       height="14.338983"
       id="rect1972" />
    <rect
       x="22.576271"
       y="-1.4491525"
       width="29.516949"
       height="22.957627"
       id="rect1966" />
  </defs>
  <g
     id="g1783"
     transform="translate(-452.85504,-37.644012)">
    <text
       xml:space="preserve"
       transform="translate(452.85504,37.644012)"
       id="text1964"
       style="white-space:pre;shape-inside:url(#rect1966);display:inline;fill:#000000" />
    <text
       xml:space="preserve"
       transform="translate(452.85504,37.644012)"
       id="text1970"
       style="white-space:pre;shape-inside:url(#rect1972);display:inline;fill:#000000" />
    <text
       xml:space="preserve"
       transform="translate(452.85504,37.644012)"
       id="text1976"
       style="white-space:pre;shape-inside:url(#rect1978);display:inline;fill:#000000" />
    <text
       xml:space="preserve"
       transform="translate(452.85504,37.644012)"
       id="text1982"
       style="white-space:pre;shape-inside:url(#rect1984);display:inline;fill:#000000" />
    <text
       xml:space="preserve"
       transform="translate(452.85504,37.644012)"
       id="text1988"
       style="white-space:pre;shape-inside:url(#rect1990);display:inline;fill:#000000" />
  </g>
  <g
     id="g8433"
     transform="translate(3.93816e-7,4.6267516e-5)">
    <path
       id="text1988-6"
       style="font-stretch:condensed;font-size:12.3131px;font-family:'Arial Narrow';-inkscape-font-specification:'Arial Narrow Condensed';opacity:0.98;fill:#000000;stroke-width:0.307811;paint-order:markers fill stroke"
       d="m 6.07535,4.5001637 c -0.6332903,0 -1.1723108,0.2657273 -1.6172173,0.7988134 -0.4408983,0.529078 -0.6621215,1.255816 -0.6621215,2.1776943 0,0.8938212 0.213818,1.598142 0.6386836,2.1151955 0.4288738,0.5130451 0.9362183,0.7695171 1.5254187,0.7695171 0.3246615,0 0.6444119,-0.10407 0.9570489,-0.312494 C 7.2297994,9.8404651 7.4788942,9.5579759 7.6632699,9.2012491 V 9.418042 c 0,0.689405 -0.085568,1.29346 -0.2539109,1.810514 -0.168343,0.517053 -0.3746539,0.877594 -0.619152,1.082011 -0.24049,0.200408 -0.508098,0.300776 -0.8047024,0.300776 -0.6653556,0 -1.0668695,-0.466564 -1.2031471,-1.396459 l -0.8535314,0.09765 c 0.072147,0.709446 0.2933703,1.252109 0.6621216,1.628877 0.3687513,0.372759 0.8278597,0.558583 1.3769785,0.558583 0.4849881,0 0.9217788,-0.154253 1.310571,-0.462882 C 7.6712975,12.728487 7.9816895,12.23971 8.210155,11.570346 8.4386205,10.900982 8.5519582,9.9605518 8.5519582,8.7500855 8.5519582,7.6638724 8.4460257,6.8331667 8.2335929,6.2559908 8.0211601,5.6788148 7.7200247,5.2420723 7.3312325,4.945468 6.9424404,4.6488637 6.5242647,4.5001637 6.07535,4.5001637 Z m 4.197343,0.1562471 -0.7050911,4.5272605 0.8359531,0.13281 c 0.136277,-0.2685471 0.320271,-0.4786394 0.552744,-0.6269416 0.236482,-0.1523103 0.48928,-0.2285114 0.757827,-0.2285114 0.444906,0 0.814846,0.1747174 1.107442,0.5234279 0.296604,0.3447023 0.443368,0.8316285 0.443368,1.4609108 0,0.669364 -0.150466,1.199069 -0.455087,1.587861 -0.304621,0.384784 -0.669006,0.578115 -1.089864,0.578115 -0.336686,0 -0.632165,-0.137594 -0.888688,-0.410149 -0.252514,-0.276564 -0.416143,-0.694693 -0.48829,-1.255836 l -0.931658,0.0957 c 0.060123,0.769568 0.3055147,1.373623 0.734389,1.810514 0.432881,0.432882 0.962645,0.648425 1.587919,0.648425 0.753536,0 1.352002,-0.306655 1.796908,-0.919905 0.448915,-0.617257 0.673841,-1.356953 0.673841,-2.218709 0,-0.8737803 -0.224926,-1.5669946 -0.673841,-2.0800399 -0.444906,-0.5170535 -0.970967,-0.7753763 -1.5762,-0.7753763 -0.48098,0 -0.934433,0.1839729 -1.363307,0.5527242 L 10.98169,5.6895949 h 2.87896 V 4.6564108 Z M 6.1769144,5.3966316 c 0.3647432,0 0.6881962,0.1802707 0.9687678,0.5410056 0.2805717,0.360735 0.4199297,0.8550656 0.4199297,1.4843477 0,0.6332903 -0.1356554,1.1220676 -0.4082107,1.4667699 C 6.8848459,9.2334571 6.5521363,9.4063234 6.159336,9.4063234 5.7625275,9.4063234 5.4224126,9.2353082 5.1378328,8.8946141 4.8532529,8.5499118 4.7100905,8.089003 4.7100905,7.511827 c 0,-0.6413066 0.1487164,-1.1542502 0.4453207,-1.5390341 0.3006125,-0.384784 0.6407274,-0.5761613 1.0215032,-0.5761613 z"
       transform="scale(0.99998158,1.0000184)" />
    <ellipse
       style="fill:none;fill-opacity:1;stroke:#000000;stroke-width:1.19928;stroke-dasharray:0.755549;stroke-dashoffset:0;stroke-opacity:1"
       id="ellipse1990"
       cx="8.9999857"
       cy="9.004199"
       rx="8.4002981"
       ry="8.4045572" />
  </g>
</svg>
