<?xml version="1.0" encoding="UTF-8" standalone="no"?>
<svg
   version="1.1"
   width="18"
   height="18"
   viewBox="0 0 18 18"
   id="svg1714"
   xmlns="http://www.w3.org/2000/svg"
   xmlns:svg="http://www.w3.org/2000/svg">
  <defs
     id="defs1718">
    <rect
       x="32.567797"
       y="-13.805085"
       width="44.389831"
       height="38.898305"
       id="rect2002" />
    <rect
       x="22.5"
       y="-2.2118644"
       width="28.525424"
       height="24.559322"
       id="rect1996" />
    <rect
       x="40.805085"
       y="-10.525424"
       width="65.898305"
       height="40.652542"
       id="rect1990" />
    <rect
       x="39.661017"
       y="-9.1525424"
       width="44.237288"
       height="35.389831"
       id="rect1984" />
    <rect
       x="21.279661"
       y="-2.8983051"
       width="36.228814"
       height="33.330508"
       id="rect1978" />
    <rect
       x="17.313559"
       y="1.9067797"
       width="18.228814"
       height="14.338983"
       id="rect1972" />
    <rect
       x="22.576271"
       y="-1.4491525"
       width="29.516949"
       height="22.957627"
       id="rect1966" />
  </defs>
  <g
     id="g1783"
     transform="translate(-452.85504,-37.644012)">
    <text
       xml:space="preserve"
       transform="translate(452.85504,37.644012)"
       id="text1964"
       style="white-space:pre;shape-inside:url(#rect1966);display:inline;fill:#000000" />
    <text
       xml:space="preserve"
       transform="translate(452.85504,37.644012)"
       id="text1970"
       style="white-space:pre;shape-inside:url(#rect1972);display:inline;fill:#000000" />
    <text
       xml:space="preserve"
       transform="translate(452.85504,37.644012)"
       id="text1976"
       style="white-space:pre;shape-inside:url(#rect1978);display:inline;fill:#000000" />
    <text
       xml:space="preserve"
       transform="translate(452.85504,37.644012)"
       id="text1982"
       style="white-space:pre;shape-inside:url(#rect1984);display:inline;fill:#000000" />
    <text
       xml:space="preserve"
       transform="translate(452.85504,37.644012)"
       id="text1988"
       style="white-space:pre;shape-inside:url(#rect1990);display:inline;fill:#000000" />
  </g>
  <path
     id="rect4228"
     style="opacity:0.98;fill:#000000;fill-opacity:1;stroke:none;stroke-width:1.28507;stroke-dasharray:none;stroke-opacity:1;paint-order:markers fill stroke"
     d="M 2.30863,0 C 1.02979,0 0,1.02978 0,2.3086 v 13.38274 c 0,1.27884 1.02979,2.30862 2.30863,2.30862 h 13.38285 c 1.27875,0 2.3085,-1.02978 2.3085,-2.30862 V 2.3086 C 17.99998,1.02978 16.97023,0 15.69148,0 Z m 3.76559,4.49989 c 0.4489,0 0.86901,0.14881 1.25785,0.44534 0.38872,0.29668 0.68992,0.73345 0.90233,1.31056 0.21249,0.57726 0.31837,1.40799 0.31837,2.49424 0,1.21037 -0.11536,2.15089 -0.34374,2.82023 -0.22848,0.66937 -0.53894,1.15815 -0.93165,1.4668 -0.38884,0.30865 -0.82561,0.46286 -1.31055,0.46286 -0.54912,0 -1.00822,-0.18579 -1.37699,-0.55859 C 4.22108,12.56458 4.00181,12.02185 3.92972,11.3124 l 0.8535,-0.0976 c 0.13627,0.92985 0.53583,1.39443 1.2012,1.39443 0.29655,0 0.56619,-0.0983 0.8066,-0.29873 0.24453,-0.20449 0.45089,-0.56506 0.61921,-1.08206 0.16831,-0.51712 0.25188,-1.12126 0.25188,-1.81057 V 9.20109 c -0.18434,0.35665 -0.43348,0.63922 -0.74604,0.84763 -0.31263,0.20836 -0.6305,0.31243 -0.95512,0.31243 -0.5892,0 -1.09852,-0.25647 -1.52733,-0.76943 C 4.00881,9.07468 3.79689,8.37023 3.79689,7.47642 c 0,-0.9218 0.21928,-1.64865 0.66019,-2.17764 0.44491,-0.5331 0.9839,-0.79896 1.61714,-0.79896 z m 4.19729,0.15636 h 3.58981 v 1.03511 h -2.88079 l -0.39065,2.36723 c 0.42888,-0.36882 0.8843,-0.55277 1.36526,-0.55277 0.60517,0 1.12926,0.25842 1.57412,0.77535 0.44903,0.51301 0.67388,1.20634 0.67388,2.08006 0,0.86178 -0.22485,1.60155 -0.67388,2.21884 -0.44486,0.61323 -1.04334,0.91985 -1.79676,0.91985 -0.62533,0 -1.15508,-0.2156 -1.58788,-0.6484 -0.42895,-0.43685 -0.67236,-1.041 -0.73249,-1.81058 l 0.93165,-0.0958 c 0.0728,0.56114 0.23381,0.97935 0.48633,1.25593 0.2565,0.27254 0.55395,0.4081 0.8906,0.4081 0.42084,0 0.78327,-0.19131 1.08791,-0.5761 0.30461,-0.38885 0.45708,-0.91859 0.45708,-1.58789 0,-0.62933 -0.14873,-1.11631 -0.4454,-1.46099 -0.29254,-0.34868 -0.6606,-0.5215 -1.10547,-0.5215 -0.26853,0 -0.52128,0.0764 -0.75783,0.22857 -0.23243,0.14829 -0.4164,0.35638 -0.55266,0.625 L 9.56837,9.18344 Z M 6.17773,5.39637 c -0.38074,0 -0.72276,0.19152 -1.02342,0.57625 -0.2966,0.38478 -0.44342,0.89776 -0.44342,1.53901 0,0.57724 0.14133,1.0382 0.42582,1.38288 0.28457,0.34064 0.62674,0.51176 1.0235,0.51176 0.3927,0 0.72548,-0.17299 0.998,-0.51768 C 7.43074,8.54397 7.56645,8.05512 7.56645,7.42181 7.56645,6.79261 7.42514,6.2982 7.14456,5.93743 6.86399,5.57673 6.5425,5.39637 6.17773,5.39637 Z" />
</svg>
