<?xml version="1.0" encoding="UTF-8" standalone="no"?>
<svg
   version="1.1"
   width="18"
   height="18"
   viewBox="0 0 18 18"
   id="svg1714"
   xmlns="http://www.w3.org/2000/svg"
   xmlns:svg="http://www.w3.org/2000/svg">
  <defs
     id="defs1718">
    <rect
       x="32.567797"
       y="-13.805085"
       width="44.389831"
       height="38.898305"
       id="rect2002" />
    <rect
       x="22.5"
       y="-2.2118644"
       width="28.525424"
       height="24.559322"
       id="rect1996" />
    <rect
       x="40.805085"
       y="-10.525424"
       width="65.898305"
       height="40.652542"
       id="rect1990" />
    <rect
       x="39.661017"
       y="-9.1525424"
       width="44.237288"
       height="35.389831"
       id="rect1984" />
    <rect
       x="21.279661"
       y="-2.8983051"
       width="36.228814"
       height="33.330508"
       id="rect1978" />
    <rect
       x="17.313559"
       y="1.9067797"
       width="18.228814"
       height="14.338983"
       id="rect1972" />
    <rect
       x="22.576271"
       y="-1.4491525"
       width="29.516949"
       height="22.957627"
       id="rect1966" />
  </defs>
  <g
     id="g1783"
     transform="translate(-452.85504,-37.644012)">
    <text
       xml:space="preserve"
       transform="translate(452.85504,37.644012)"
       id="text1964"
       style="white-space:pre;shape-inside:url(#rect1966);display:inline;fill:#000000" />
    <text
       xml:space="preserve"
       transform="translate(452.85504,37.644012)"
       id="text1970"
       style="white-space:pre;shape-inside:url(#rect1972);display:inline;fill:#000000" />
    <text
       xml:space="preserve"
       transform="translate(452.85504,37.644012)"
       id="text1976"
       style="white-space:pre;shape-inside:url(#rect1978);display:inline;fill:#000000" />
    <text
       xml:space="preserve"
       transform="translate(452.85504,37.644012)"
       id="text1982"
       style="white-space:pre;shape-inside:url(#rect1984);display:inline;fill:#000000" />
    <text
       xml:space="preserve"
       transform="translate(452.85504,37.644012)"
       id="text1988"
       style="white-space:pre;shape-inside:url(#rect1990);display:inline;fill:#000000" />
  </g>
  <g
     id="g10622">
    <path
       id="text1984"
       style="font-stretch:condensed;font-size:12.3131px;font-family:'Arial Narrow';-inkscape-font-specification:'Arial Narrow Condensed';opacity:0.98;fill:#000000;stroke-width:0.307811;paint-order:markers fill stroke"
       d="m 6.0758407,4.4996055 c -0.6332903,0 -1.1723108,0.2676803 -1.6172173,0.8007665 -0.4408983,0.529078 -0.6621216,1.2538629 -0.6621216,2.1757412 0,0.8938211 0.2118648,1.598142 0.6367305,2.1151954 0.4288738,0.5130454 0.9381714,0.7714704 1.5273719,0.7714704 0.3246615,0 0.6444119,-0.106023 0.9570488,-0.314448 C 7.23029,9.8399068 7.4774317,9.5574177 7.6618074,9.2006908 v 0.2167929 c 0,0.6894043 -0.083615,1.2934603 -0.2519578,1.8105133 -0.168343,0.517054 -0.3746539,0.877595 -0.619152,1.082012 -0.24049,0.200408 -0.508098,0.300775 -0.8047023,0.300775 -0.6653557,0 -1.0668695,-0.464611 -1.2031472,-1.394505 l -0.8535313,0.0957 c 0.072147,0.709446 0.291417,1.252109 0.6601684,1.628876 0.3687513,0.37276 0.8278596,0.558584 1.3769785,0.558584 0.4849881,0 0.9217788,-0.154253 1.310571,-0.462882 C 7.669835,12.727929 7.980227,12.239152 8.2086925,11.569788 8.4371579,10.900424 8.5524488,9.9619466 8.5524488,8.7514803 8.5524488,7.6652672 8.4465164,6.8326085 8.2340835,6.2554325 8.0216507,5.6782565 7.7205153,5.2415141 7.3317232,4.9449098 6.942931,4.6483054 6.5247553,4.4996055 6.0758407,4.4996055 Z M 10.27123,4.6558526 9.5680925,9.183113 10.404045,9.3159231 c 0.136278,-0.2685472 0.320271,-0.4766864 0.552745,-0.6249885 0.236482,-0.1523103 0.489279,-0.2285114 0.757826,-0.2285114 0.444907,0 0.812893,0.1747173 1.10549,0.5234278 0.296604,0.3447024 0.44532,0.8316285 0.44532,1.460911 0,0.669363 -0.152419,1.197116 -0.457039,1.585908 -0.304621,0.384784 -0.667054,0.578114 -1.087911,0.578114 -0.336686,0 -0.632166,-0.137593 -0.888688,-0.410148 -0.252515,-0.276564 -0.416144,-0.694693 -0.488291,-1.255837 l -0.9316574,0.0957 c 0.060123,0.769568 0.3055147,1.373623 0.7343884,1.810513 0.432882,0.432882 0.960693,0.648426 1.585967,0.648426 0.753535,0 1.353955,-0.306656 1.798861,-0.919905 0.448915,-0.617258 0.671887,-1.355 0.671887,-2.216756 0,-0.8737805 -0.222972,-1.5689478 -0.671887,-2.0819931 -0.444906,-0.5170535 -0.970968,-0.7753764 -1.576201,-0.7753764 -0.48098,0 -0.936385,0.185926 -1.365259,0.5546773 l 0.392585,-2.369097 H 13.86114 V 4.6558526 Z M 6.177405,5.3960733 c 0.3647432,0 0.6881962,0.1802707 0.9687679,0.5410057 0.2805716,0.360735 0.4199296,0.8550656 0.4199296,1.4843477 0,0.6332903 -0.1356553,1.1220676 -0.4082107,1.4667699 C 6.8853365,9.2328989 6.5526269,9.4057652 6.1598266,9.4057652 5.7630181,9.4057652 5.4209501,9.23475 5.1363702,8.8940558 4.8517904,8.5493535 4.7105811,8.0884448 4.7105811,7.5112688 c 0,-0.6413067 0.1487164,-1.1542502 0.4453207,-1.5390342 C 5.4565143,5.5874506 5.7966292,5.3960733 6.177405,5.3960733 Z"
       transform="scale(0.99998158,1.0000184)" />
    <rect
       style="opacity:0.98;fill:none;stroke:#000000;stroke-width:1.19939;stroke-dasharray:0.755616;stroke-dashoffset:0;stroke-opacity:1;paint-order:markers fill stroke"
       id="rect1997"
       width="16.800611"
       height="16.800611"
       x="0.59969503"
       y="0.59969503"
       rx="2.1544993"
       ry="2.1544993" />
  </g>
</svg>
