<?xml version="1.0" encoding="UTF-8" standalone="no"?>
<svg
   version="1.1"
   width="18"
   height="18"
   viewBox="0 0 18 18"
   id="svg1714"
   xmlns="http://www.w3.org/2000/svg"
   xmlns:svg="http://www.w3.org/2000/svg">
  <defs
     id="defs1718">
    <rect
       x="32.567797"
       y="-13.805085"
       width="44.389831"
       height="38.898305"
       id="rect2002" />
    <rect
       x="22.5"
       y="-2.2118644"
       width="28.525424"
       height="24.559322"
       id="rect1996" />
    <rect
       x="40.805085"
       y="-10.525424"
       width="65.898305"
       height="40.652542"
       id="rect1990" />
    <rect
       x="39.661017"
       y="-9.1525424"
       width="44.237288"
       height="35.389831"
       id="rect1984" />
    <rect
       x="21.279661"
       y="-2.8983051"
       width="36.228814"
       height="33.330508"
       id="rect1978" />
    <rect
       x="17.313559"
       y="1.9067797"
       width="18.228814"
       height="14.338983"
       id="rect1972" />
    <rect
       x="22.576271"
       y="-1.4491525"
       width="29.516949"
       height="22.957627"
       id="rect1966" />
  </defs>
  <g
     id="g1783"
     transform="translate(-452.85504,-37.644012)">
    <text
       xml:space="preserve"
       transform="translate(452.85504,37.644012)"
       id="text1964"
       style="white-space:pre;shape-inside:url(#rect1966);display:inline;fill:#000000" />
    <text
       xml:space="preserve"
       transform="translate(452.85504,37.644012)"
       id="text1970"
       style="white-space:pre;shape-inside:url(#rect1972);display:inline;fill:#000000" />
    <text
       xml:space="preserve"
       transform="translate(452.85504,37.644012)"
       id="text1976"
       style="white-space:pre;shape-inside:url(#rect1978);display:inline;fill:#000000" />
    <text
       xml:space="preserve"
       transform="translate(452.85504,37.644012)"
       id="text1982"
       style="white-space:pre;shape-inside:url(#rect1984);display:inline;fill:#000000" />
    <text
       xml:space="preserve"
       transform="translate(452.85504,37.644012)"
       id="text1988"
       style="white-space:pre;shape-inside:url(#rect1990);display:inline;fill:#000000" />
  </g>
  <g
     id="g12791">
    <path
       id="text4219"
       style="font-stretch:condensed;font-size:12.3127px;font-family:'Arial Narrow';-inkscape-font-specification:'Arial Narrow Condensed';opacity:0.98;fill:#000000;stroke-width:0.307819;paint-order:markers fill stroke"
       d="m 6.0744819,4.50032 c -0.6332698,0 -1.1722955,0.2657593 -1.6171875,0.7988281 -0.440884,0.5290608 -0.6601563,1.255886 -0.6601563,2.1777344 0,0.8937921 0.2118669,1.5981977 0.6367188,2.1152344 0.4288599,0.5130291 0.9381624,0.7695311 1.5273437,0.7695311 0.324651,0 0.6424513,-0.104082 0.9550781,-0.3125 C 7.2289056,9.8407302 7.4780028,9.5582071 7.6623725,9.2014919 v 0.2167968 c 0,0.6893823 -0.083616,1.2915573 -0.2519531,1.8085933 -0.1683376,0.517037 -0.3746504,0.877622 -0.6191407,1.082032 -0.2404821,0.200402 -0.5100459,0.300781 -0.8066406,0.300781 -0.665334,0 -1.0668517,-0.464667 -1.203125,-1.394531 l -0.8535156,0.0957 c 0.072145,0.709422 0.29337,1.254104 0.6621094,1.630859 0.3687393,0.372748 0.8278521,0.558594 1.3769531,0.558594 0.4849724,0 0.9217673,-0.154272 1.3105469,-0.462891 0.3927875,-0.308618 0.7031825,-0.797454 0.9316406,-1.466797 0.2284581,-0.669342 0.34375,-1.609885 0.34375,-2.820312 0,-1.0861779 -0.1078866,-1.9169834 -0.3203125,-2.4941406 C 8.0202591,5.6790221 7.7210739,5.2422272 7.3322944,4.9456325 6.9435148,4.6490378 6.523382,4.50032 6.0744819,4.50032 Z M 10.271747,4.65657 9.5686225,9.1839137 10.40456,9.3147731 c 0.136273,-0.2685384 0.320268,-0.4767026 0.552734,-0.625 0.236475,-0.1523054 0.489274,-0.2285156 0.757813,-0.2285156 0.444892,0 0.812882,0.1747383 1.105469,0.5234375 0.296594,0.3446911 0.445312,0.8316758 0.445312,1.460937 0,0.669343 -0.15242,1.199112 -0.457031,1.587891 -0.304611,0.384772 -0.667047,0.576172 -1.087891,0.576172 -0.336675,0 -0.63411,-0.135657 -0.890625,-0.408203 -0.252506,-0.276555 -0.414183,-0.694734 -0.486328,-1.25586 l -0.9316405,0.0957 c 0.060121,0.769543 0.303562,1.371717 0.7324215,1.808593 0.432868,0.432868 0.962637,0.650391 1.587891,0.650391 0.753511,0 1.351983,-0.306692 1.796875,-0.919922 0.4489,-0.617237 0.673828,-1.357022 0.673828,-2.21875 0,-0.8737518 -0.224928,-1.5670493 -0.673828,-2.080078 -0.444892,-0.5170367 -0.969005,-0.7753906 -1.574219,-0.7753906 -0.480964,0 -0.936374,0.183995 -1.365234,0.5527343 l 0.390625,-2.3691406 h 2.880859 V 4.65657 Z M 6.1779975,5.3968044 c 0.3647313,0 0.6862343,0.1802923 0.9667969,0.5410156 0.2805625,0.3607233 0.421875,0.8551133 0.421875,1.484375 0,0.6332698 -0.1376098,1.1221057 -0.4101563,1.4667969 C 6.8839666,9.233683 6.5512538,9.40657 6.1584662,9.40657 5.7616706,9.40657 5.4215525,9.2355343 5.1369819,8.8948512 4.8524113,8.5501601 4.7112006,8.089196 4.7112006,7.5120387 4.7112006,6.8707529 4.8579653,6.3577477 5.15456,5.9729762 5.4551627,5.5882048 5.797234,5.3968044 6.1779975,5.3968044 Z" />
    <rect
       style="opacity:0.98;fill:none;stroke:#000000;stroke-width:1.19939;stroke-dasharray:none;stroke-opacity:1;paint-order:markers fill stroke"
       id="rect4221"
       width="16.800611"
       height="16.800611"
       x="0.59969503"
       y="0.59969503"
       rx="2.1544993"
       ry="2.1544993" />
  </g>
</svg>
